<?xml version="1.0" encoding="UTF-8" standalone="no"?>
<svg
   xmlns:dc="http://purl.org/dc/elements/1.1/"
   xmlns:cc="http://creativecommons.org/ns#"
   xmlns:rdf="http://www.w3.org/1999/02/22-rdf-syntax-ns#"
   xmlns:svg="http://www.w3.org/2000/svg"
   xmlns="http://www.w3.org/2000/svg"
   xmlns:sodipodi="http://sodipodi.sourceforge.net/DTD/sodipodi-0.dtd"
   xmlns:inkscape="http://www.inkscape.org/namespaces/inkscape"
   width="211.66667mm"
   height="103.98125mm"
   viewBox="0 0 211.66667 103.98124"
   version="1.1"
   id="svg1434"
   sodipodi:docname="roots.svg"
   inkscape:version="1.0.1 (3bc2e813f5, 2020-09-07)">
  <defs
     id="defs1428" />
  <sodipodi:namedview
     id="base"
     pagecolor="#ffffff"
     bordercolor="#666666"
     borderopacity="1.0"
     inkscape:pageopacity="0.0"
     inkscape:pageshadow="2"
     inkscape:zoom="0.35"
     inkscape:cx="292.40626"
     inkscape:cy="376.4511"
     inkscape:document-units="mm"
     inkscape:current-layer="layer1"
     inkscape:document-rotation="0"
     showgrid="false"
     inkscape:window-width="1366"
     inkscape:window-height="705"
     inkscape:window-x="1149"
     inkscape:window-y="1072"
     inkscape:window-maximized="1"
     fit-margin-top="0"
     fit-margin-left="0"
     fit-margin-right="0"
     fit-margin-bottom="0" />
  <metadata
     id="metadata1431">
    <rdf:RDF>
      <cc:Work
         rdf:about="">
        <dc:format>image/svg+xml</dc:format>
        <dc:type
           rdf:resource="http://purl.org/dc/dcmitype/StillImage" />
        <dc:title></dc:title>
      </cc:Work>
    </rdf:RDF>
  </metadata>
  <g
     inkscape:label="Layer 1"
     inkscape:groupmode="layer"
     id="layer1">
    <path
       style="fill:#2d545e;stroke-width:0.264583;fill-opacity:1"
       d="m 65.239861,102.64699 c -1.201,-4.447551 2.70837,-12.021291 7.9551,-15.411681 0.79286,-0.51234 1.93432,-1.44871 2.53659,-2.08082 1.0167,-1.06709 1.15323,-1.3953 1.90894,-4.588872 1.14767,-4.850008 1.70915,-8.863542 1.23997,-8.863542 -0.1836,0 -2.23463,2.238523 -4.3636,4.7625 -1.04334,1.236927 -2.27668,3.045929 -2.74075,4.020005 -0.46406,0.974072 -0.94657,1.777752 -1.07223,1.785942 -0.33963,0.0221 0.0686,-2.335693 0.62397,-3.604216 0.26623,-0.608061 1.40553,-2.090905 2.53179,-3.295209 2.70179,-2.889038 3.55501,-4.254553 3.55501,-5.689581 0,-1.375294 -0.31212,-1.608357 -1.25858,-0.939795 -1.21263,0.856581 -4.26598,2.295978 -7.42972,3.502483 l -2.99975,1.143968 0.11542,0.810599 c 0.0635,0.445828 0.55231,2.462414 1.0863,4.481301 1.28789,4.869237 1.70186,8.145527 1.28208,10.146817 -0.30235,1.44148 -2.80431,6.35118 -3.67767,7.21685 -0.35703,0.35388 -0.38036,0.29656 -0.2154,-0.52917 0.10175,-0.50932 0.49182,-1.46182 0.86682,-2.11666 2.39853,-4.18846 2.77126,-5.88027 2.07652,-9.42516 -0.25318,-1.291837 -0.55519,-2.444677 -0.67113,-2.561857 -0.31029,-0.313611 -3.57667,2.574967 -4.5169,3.994457 -0.9825,1.48329 -1.78132,3.96875 -2.01799,6.27877 -0.27803,2.71375 -0.70875,2.07236 -0.58148,-0.8659 0.15029,-3.47 0.62549,-4.44957 3.73477,-7.698767 2.9914,-3.126028 3.12485,-3.519935 2.27775,-6.723203 -0.31716,-1.199348 -0.67077,-2.284584 -0.78579,-2.411634 -0.11503,-0.127053 -1.20056,0.465717 -2.4123,1.317267 -1.62499,1.141961 -2.09244,1.376167 -1.78124,0.892461 0.23205,-0.360696 0.81618,-0.893934 1.29805,-1.184976 1.33411,-0.805767 2.64593,-2.138516 2.64334,-2.685521 -0.003,-0.719124 -1.20635,-4.155562 -1.4875,-4.24928 -0.32841,-0.109468 -3.51404,5.302684 -4.93842,8.390009 -0.63781,1.382448 -1.29801,2.811198 -1.4671,3.175 -0.27164,0.584404 -0.29102,0.522759 -0.16637,-0.529166 0.0901,-0.760124 1.04211,-3.01855 2.63304,-6.246056 2.97866,-6.042761 3.72316,-6.931343 7.27941,-8.688123 1.32965,-0.656849 2.79664,-1.459055 3.25997,-1.782686 1.35679,-0.947703 4.37868,-3.928528 5.64927,-5.572487 2.43497,-3.150526 2.78825,-4.934411 1.92656,-9.728071 -1.03915,-5.780833 -0.65212,-10.905527 1.08004,-14.300829 0.73125,-1.433375 2.6445,-3.477469 4.12977,-4.4122 1.05998,-0.667086 1.25056,-0.962364 2.17945,-3.37684 1.35585,-3.524297 1.70428,-4.634153 1.51443,-4.824002 -0.21071,-0.210705 -6.26239,1.395919 -7.88131,2.092357 -0.70255,0.302229 -1.62867,0.949628 -2.05805,1.438665 -1.16913,1.331563 -1.39951,2.547258 -1.07746,5.685587 0.15098,1.471205 0.26118,3.704101 0.24491,4.961988 -0.0319,2.462538 -0.0211,2.483231 -0.65107,-1.256302 -0.12566,-0.745977 -0.20784,-0.835335 -0.48666,-0.529167 -0.18451,0.202605 -0.52818,0.904155 -0.76371,1.558999 -1.0531,2.927951 -0.99313,2.820061 -1.28138,2.304997 -0.34109,-0.609486 -0.0938,-1.697397 0.84628,-3.722738 0.55236,-1.190048 0.86714,-2.500823 1.17612,-4.897395 0.23204,-1.799835 0.34819,-3.346134 0.2581,-3.436219 -0.32539,-0.325393 -2.13251,0.977739 -3.10859,2.241633 -1.29515,1.677049 -1.89743,3.693737 -1.67312,5.602277 0.0935,0.795108 0.65777,2.710413 1.25404,4.256236 0.59628,1.54582 1.38442,3.58449 1.75143,4.530376 0.906,2.335003 1.14125,7.080321 0.46682,9.416457 -0.64227,2.224738 -1.8984,4.460317 -3.13277,5.575504 -0.9579,0.865396 -4.8561,2.891303 -6.53215,3.394765 -0.3638,0.109281 0.5887,-0.693708 2.11667,-1.784418 3.38251,-2.414543 4.83714,-3.858221 5.7335,-5.690323 0.8476,-1.73242 1.17302,-3.936878 0.54562,-3.696123 -0.22773,0.08739 -2.4183,0.706628 -4.86794,1.376085 -2.44964,0.669459 -5.07474,1.517136 -5.83355,1.883732 -2.56773,1.240515 -4.24517,3.864835 -4.91625,7.691377 -0.27348,1.559404 -0.24999,1.709579 0.53815,3.439583 1.51543,3.326485 1.8314,6.038467 0.99642,8.552366 -0.54957,1.654598 -0.95691,1.964015 -0.61146,0.464462 0.43595,-1.892331 0.13398,-5.67777 -0.58354,-7.315422 -0.50244,-1.146738 -0.66269,-1.330431 -0.80785,-0.926042 -0.9232,2.571835 -1.55788,3.941099 -2.53331,5.465393 -1.35754,2.121408 -1.74872,2.363692 -0.63761,0.394919 0.92878,-1.6457 1.49963,-3.814352 1.72323,-6.546482 0.13304,-1.625603 0.0769,-2.13601 -0.31078,-2.823067 -0.55781,-0.988708 -2.62847,-3.26235 -2.97111,-3.26235 -0.33194,0 -0.56106,2.591607 -0.65605,7.420639 -0.0872,4.434348 -0.37574,5.588704 -1.8945,7.5799 -1.07534,1.409835 -1.24498,1.007256 -0.32834,-0.779185 0.75483,-1.471093 0.8608,-1.953029 0.95986,-4.365625 0.0738,-1.797367 0.0171,-2.711979 -0.16797,-2.711979 -0.15363,0 -1.03034,0.565547 -1.94824,1.256771 -1.47391,1.10993 -1.81516,1.550453 -2.92067,3.770313 -3.64016,7.309434 -4.51423,10.216353 -3.99457,13.284963 0.15498,0.9152 0.25153,1.700017 0.21455,1.744057 -0.037,0.044 -0.33581,-0.3545 -0.66406,-0.885627 -0.53484,-0.86538 -0.5809,-1.19149 -0.44343,-3.13937 0.17245,-2.443729 0.63358,-3.816411 3.27031,-9.735145 1.81492,-4.07397 2.08906,-4.439703 4.65621,-6.211695 0.67074,-0.462975 1.42261,-1.151741 1.67084,-1.530588 0.45653,-0.696751 1.41874,-6.332751 1.1304,-6.621097 -0.0848,-0.08482 -1.73903,0.562845 -3.67601,1.439267 -1.93699,0.876422 -3.55155,1.563733 -3.58792,1.527358 -0.0364,-0.03637 1.41392,-0.874702 3.22288,-1.86295 1.80896,-0.988248 3.28902,-1.851377 3.28902,-1.918063 0,-0.20987 -3.48487,-5.93486 -3.61262,-5.93486 -0.48461,0 -3.60918,8.400253 -3.48825,9.37801 0.037,0.299125 -0.12735,0.841521 -0.3652,1.205323 -0.48887,0.74772 -1.25451,3.527002 -1.28607,4.668398 l -0.0209,0.75556 -0.27714,-0.761799 c -0.19481,-0.535482 -0.19069,-1.282205 0.0139,-2.513541 0.2017,-1.214171 0.20602,-1.780786 0.0141,-1.846387 -0.15423,-0.05272 -0.0444,-0.345747 0.24796,-0.661458 0.56421,-0.60932 1.24665,-2.758652 0.96525,-3.040052 -0.094,-0.09398 -1.9175,1.614686 -4.05228,3.797019 -3.0824,3.15104 -4.14151,4.430866 -5.1447,6.216843 -2.08669,3.714912 -2.24814,4.644475 -1.65438,9.525 l 0.14486,1.190625 -0.67671,-1.322916 c -0.60224,-1.177356 -0.66593,-1.570371 -0.57884,-3.571875 0.0833,-1.91443 0.24167,-2.557524 1.06472,-4.323366 1.45551,-3.12279 3.03556,-5.151766 7.88159,-10.12094 4.05702,-4.16012 4.50917,-4.721836 5.64385,-7.011458 1.20257,-2.426639 3.05487,-8.899636 3.49469,-12.212466 0.16166,-1.217631 0.1456,-1.25677 -0.51567,-1.25677 -1.37367,0 -3.33286,0.581205 -4.54021,1.346885 l -1.23787,0.785037 0.59241,-1.054047 c 0.65863,-1.171884 1.57881,-1.651405 4.0432,-2.10697 0.83757,-0.154834 1.63503,-0.350842 1.77213,-0.435575 0.70285,-0.434385 -0.067,-7.001997 -0.82075,-7.001997 -0.77282,0 -6.89185,3.275864 -7.9919,4.278514 l -1.25671,1.145444 0.98551,1.954287 c 1.20284,2.385232 1.45631,4.735081 0.74254,6.884032 -0.55329,1.665804 -1.04554,2.075728 -0.77644,0.646578 0.29088,-1.544796 0.23266,-4.592806 -0.11042,-5.78073 -0.16811,-0.582083 -0.54997,-1.455941 -0.84858,-1.941904 -0.63813,-1.038527 -0.94574,-0.900176 -2.00056,0.899734 -0.76319,1.302277 -1.23519,3.415514 -1.82836,8.18592 -0.5385,4.330724 -1.04889,6.456 -2.03328,8.466667 -0.83222,1.699847 -2.28334,3.381279 -3.44395,3.990557 -1.09398,0.574296 -1.09708,0.45694 -0.0139,-0.52596 2.62964,-2.386206 4.05495,-6.751688 4.12495,-12.633987 0.0237,-1.987227 -0.0248,-3.682254 -0.10776,-3.766727 -0.28455,-0.289901 -8.09598,7.626453 -8.72424,8.841433 -0.58525,1.131797 -0.62012,1.154962 -0.78691,0.522809 -0.202,-0.765615 -0.18516,-0.767297 -3.17038,0.316915 -1.23693,0.449244 -2.42756,0.872223 -2.64584,0.939953 -0.21828,0.06773 0.89931,-0.633843 2.48353,-1.559049 3.66859,-2.142503 4.95567,-3.277473 5.72192,-5.045662 0.74391,-1.716659 1.06369,-5.166614 0.49414,-5.331127 -0.20087,-0.05802 -1.38822,-0.239522 -2.63857,-0.403344 -1.25035,-0.163819 -3.72987,-0.724744 -5.51006,-1.2465 -1.78017,-0.521753 -3.27256,-0.908013 -3.31642,-0.858353 -0.0438,0.04966 -0.38819,1.569958 -0.7652,3.378441 -0.52829,2.534163 -0.8961,3.629398 -1.60404,4.776345 -0.97149,1.573948 -1.00619,2.387243 -0.16859,3.952301 0.59112,1.104532 2.44318,2.932163 2.97136,2.932163 0.30366,0 0.43823,0.117867 0.33159,0.290425 -0.0987,0.159734 0.40984,0.903875 1.13014,1.653646 3.56545,3.711345 4.82944,5.766816 4.8245,7.845512 l -0.003,1.190625 -0.47654,-1.379236 c -0.9256,-2.678818 -4.56722,-7.186758 -6.63021,-8.207441 -0.88828,-0.439486 -0.96505,-0.545412 -0.58699,-0.809921 0.38572,-0.269864 0.33013,-0.396179 -0.49109,-1.115946 l -0.92604,-0.811639 -0.0785,1.135007 c -0.0653,0.944459 -0.22144,1.228513 -0.92996,1.691966 l -0.8514797,0.556955 0.18354,-2.012164 C 10.090041,50.51484 10.181101,49.035848 10.191461,48.334882 l 0.0188,-1.274484 -1.1906297,0.975627 c -0.65484,0.536596 -1.19062,0.895842 -1.19062,0.798324 0,-0.281471 0.82631,-1.803966 1.40084,-2.581071 0.52018,-0.703604 0.52052,-0.74273 0.0355,-4.175749 -0.2693,-1.906019 -0.5753,-3.604107 -0.68001,-3.773527 -0.28291,-0.457769 -1.11246,0.638103 -2.36801,3.128237 -1.04859,2.079689 -1.08656,2.248025 -1.31296,5.820833 -0.43986,6.941659 -1.09979,8.521132 -3.96204001,9.48277 -1.13794,0.382315 -1.15794,0.380133 -0.52401,-0.0572 1.45056001,-1.000712 2.63220001,-2.252969 2.87973001,-3.051831 0.32068,-1.034947 0.49848,-2.520542 0.81333,-6.795566 0.13397,-1.81901 0.43404,-3.843073 0.66684,-4.497917 0.23279,-0.654843 1.19419,-2.33608 2.13644,-3.736083 1.33907,-1.989587 1.70437,-2.740713 1.67284,-3.439583 -0.094,-2.082274 1.38075,-6.054069 4.0414597,-10.884716 0.46166,-0.838159 0.76618,-1.597114 0.67673,-1.686569 -0.0894,-0.08945 -1.37608,0.7037 -2.85917,1.762565 -1.4830897,1.058865 -3.4612997,2.323836 -4.3960297,2.811048 -1.89956,0.990121 -3.14234,1.219168 -1.66104,0.306136 2.61629,-1.612612 4.54158,-3.026667 6.1680197,-4.530175 l 1.8024,-1.666169 -0.57957,-1.440622 c -0.40484,-1.006283 -0.58263,-2.01896 -0.58973,-3.358853 -0.006,-1.055026 -0.0817,-1.918229 -0.16922,-1.918229 -0.356,0 -2.3458097,1.469321 -3.5410297,2.614779 -0.70111,0.671924 -1.88335,2.055117 -2.6272,3.073763 -1.79218,2.454258 -1.91063,2.565727 -1.40569,1.322917 1.56415,-3.849866 7.1393597,-9.149374 11.3448197,-10.783796 2.24967,-0.87432 5.78904,-0.900763 11.6817,-0.08727 6.80395,0.93929 13.2036,1.303589 19.85196,1.130072 9.48071,-0.24744 17.38469,-1.918466 23.46666,-4.96122 2.08562,-1.043421 6.82813,-3.890552 6.82813,-4.099222 0,-0.06395 -0.52194,-0.116268 -1.15986,-0.116268 -0.93016,0 -1.49347,0.225851 -2.84428,1.140369 -0.92642,0.627204 -2.16065,1.410624 -2.74274,1.740935 l -1.05833,0.600565 1.19062,-1.106339 1.19063,-1.106339 -1.05833,0.133084 c -0.58209,0.0732 -1.2667,0.217085 -1.52136,0.319754 -0.34558,0.139324 -0.46302,0.05706 -0.46302,-0.324353 0,-0.37262 0.34038,-0.628021 1.25677,-0.94302 l 1.25677,-0.431999 -1.5875,0.132087 c -2.97918,0.247874 -3.12289,0.305003 -3.87095,1.53882 -0.66908,1.103552 -1.80753,2.029234 -4.06655,3.306553 l -1.05833,0.598414 1.17983,-1.068219 c 0.64891,-0.587521 1.11352,-1.13454 1.03246,-1.215598 -0.28791,-0.287911 -3.56328,0.922086 -5.37906,1.987149 -2.64084,1.549009 -4.61786,2.152535 -7.41656,2.264055 -2.63251,0.104897 -2.31117,-0.08644 1.32291,-0.787731 1.58384,-0.305643 2.9685,-0.847211 5.50059,-2.151386 2.09064,-1.076808 4.24639,-1.965367 5.64064,-2.324967 1.83517,-0.473323 2.33661,-0.714205 2.68443,-1.289546 0.33995,-0.562315 0.3617,-0.787046 0.106,-1.095139 -0.27725,-0.334075 -0.68049,-0.229742 -2.91811,0.755031 -5.01921,2.208952 -9.63798,3.516348 -15.9555,4.516392 -3.84092,0.608005 -11.55852,0.603064 -15.64216,-0.01001 -3.38293,-0.507882 -4.99575,-0.882224 -3.97443,-0.922487 0.31728,-0.01251 3.4129,0.166052 6.87917,0.396798 6.79465,0.452317 9.05288,0.374528 13.18146,-0.45406 4.92342,-0.988113 17.80513,-5.587348 17.02813,-6.079663 -0.65858,-0.41729 -2.4944,-0.243047 -4.4511,0.422469 -3.00868,1.023318 -5.95643,1.505365 -8.07912,1.321183 -1.22246,-0.10607 -2.57165,-0.02013 -3.96875,0.252786 -2.3227,0.453737 -4.52039,0.540731 -4.73865,0.187577 -0.0768,-0.124301 0.77935,-0.300365 1.90261,-0.391253 9.33235,-0.75512 12.16064,-1.175688 14.51122,-2.15782 C 59.371101,0.048594 64.762291,0 102.89906,0 h 43.41166 l 6.46131,2.13901 c 6.16482,2.040857 6.53575,2.1305 8.08364,1.953529 1.81861,-0.207922 4.12038,-0.868182 8.71118,-2.498794 3.56287,-1.265499 5.34992,-1.432682 6.81469,-0.637531 l 0.91313,0.495693 -2.64584,0.151735 c -2.20777,0.126612 -3.40138,0.389722 -7.20927,1.58915 -2.5099,0.790579 -4.56373,1.499958 -4.56406,1.576399 -8e-4,0.197848 4.93117,2.318042 6.46872,2.780775 2.4268,0.730362 3.53811,0.548876 5.72769,-0.935383 1.07336,-0.727604 2.04235,-1.322917 2.1533,-1.322917 0.92091,0 -1.96945,3.087653 -3.31671,3.543104 -0.75901,0.25659 -0.92087,0.405754 -0.66146,0.609568 0.58917,0.462896 10.51924,3.738617 13.48304,4.447775 1.55146,0.371221 3.87318,0.848615 5.15938,1.060875 l 2.33854,0.385928 -3.16601,-0.122193 c -5.91855,-0.228428 -9.84163,-1.29661 -26.20274,-7.134513 -5.04428,-1.799878 -11.97744,-3.632623 -12.22524,-3.231677 -0.28117,0.454949 2.3164,2.584186 4.28774,3.514668 1.01865,0.480806 3.04271,1.186589 4.49792,1.568408 7.09827,1.862451 11.83743,3.851282 13.39152,5.619868 0.58088,0.661068 0.76369,1.133261 0.76369,1.972671 v 1.103568 l -0.86157,-1.443504 c -0.53546,-0.897111 -1.33849,-1.76266 -2.12154,-2.286678 -1.41827,-0.949117 -9.29028,-4.12215 -9.92141,-3.999103 -0.73613,0.143515 1.88966,2.008279 5.55704,3.946454 3.7491,1.981365 4.78468,2.772481 5.20409,3.975624 0.14508,0.416161 0.23174,0.756658 0.19258,0.756658 -0.0392,0 -0.60698,-0.506016 -1.26183,-1.124479 -0.65486,-0.618464 -1.83702,-1.492382 -2.62703,-1.942041 -0.79,-0.449659 -2.86513,-1.622501 -4.61138,-2.606315 -1.74625,-0.983815 -3.53485,-2.131047 -3.97467,-2.549406 -0.43982,-0.41836 -1.45757,-0.987007 -2.26168,-1.26366 -1.80462,-0.620879 -3.55509,-1.490206 -4.64505,-2.306837 -0.45499,-0.340887 -0.89613,-0.550912 -0.98032,-0.466721 -0.0842,0.08419 0.12567,0.70412 0.46635,1.377621 0.7882,1.558197 1.47786,3.208921 1.34065,3.208921 -0.13068,0 -1.8375,-3.02184 -2.909,-5.150269 -0.86599,-1.720173 -1.92437,-2.607958 -3.66928,-3.077813 -1.84821,-0.497669 -3.83805,0.175989 -3.45653,1.170202 0.0823,0.214374 0.0294,0.464016 -0.11739,0.55476 -0.42359,0.261791 2.28379,4.275082 3.84903,5.705621 1.78948,1.635489 3.36881,2.391316 7.49435,3.586608 8.26018,2.393219 13.40097,4.451649 15.03829,6.021493 0.81483,0.781249 1.89505,2.509523 1.89505,3.031943 0,0.122078 -0.68461,-0.439125 -1.52136,-1.247118 -0.83674,-0.807992 -2.23573,-1.842911 -3.10885,-2.29982 -1.77783,-0.930339 -6.68158,-2.810212 -7.00897,-2.686915 -0.32504,0.122408 2.0651,6.07795 2.72405,6.787567 0.31941,0.343972 1.20583,0.903666 1.96981,1.243763 1.28417,0.571663 1.83815,1.184535 1.05834,1.170834 -1.4349,-0.02521 -4.33277,-2.276543 -5.08904,-3.953632 -0.26479,-0.587202 -0.58242,-1.067641 -0.70583,-1.067641 -0.12342,0 -0.22156,0.803672 -0.21809,1.785938 0.006,1.631688 0.14347,2.500143 0.67599,4.263361 0.17266,0.571677 0.14091,0.59967 -0.37002,0.326228 -0.74279,-0.397523 -1.01663,-1.571781 -1.36343,-5.84636 -0.15938,-1.964531 -0.34907,-3.766927 -0.42151,-4.005324 -0.0725,-0.238397 -0.57442,-0.726179 -1.11547,-1.083959 -1.14018,-0.753952 -9.469,-3.579287 -9.74317,-3.305116 -0.20967,0.20967 1.30245,2.791902 2.90147,4.954816 0.5917,0.800364 2.39942,2.883958 4.01715,4.630208 1.61773,1.74625 3.63184,4.112215 4.4758,5.257702 l 1.53447,2.082705 5.45589,-0.135086 c 5.96703,-0.147738 7.74178,-0.460706 9.81333,-1.730526 0.65035,-0.398647 1.5225,-1.208656 1.93813,-1.800021 0.65466,-0.931467 0.78757,-1.442354 0.99424,-3.821587 0.29991,-3.452805 0.92978,-4.831613 2.61403,-5.722267 1.27003,-0.671609 2.74642,-0.785669 3.90342,-0.301565 0.69397,0.29037 0.61132,0.324867 -1.21059,0.505269 -1.25344,0.124113 -2.20327,0.374552 -2.64583,0.697615 -0.81542,0.595239 -1.78113,2.401724 -1.44988,2.712189 0.12666,0.118714 1.7781,0.114832 3.66987,-0.0086 1.89178,-0.123459 4.15396,-0.217022 5.02709,-0.207917 l 1.5875,0.01656 -1.19043,0.244273 c -0.65484,0.134355 -2.50031,0.280596 -4.10104,0.324979 -4.22892,0.117256 -4.83998,0.541531 -5.71088,3.965231 -0.17981,0.706848 -0.85192,1.998341 -1.49359,2.869984 -0.64167,0.871646 -1.12863,1.620142 -1.08214,1.66333 0.0465,0.04319 0.91797,-0.402831 1.93661,-0.991151 2.67266,-1.543597 9.17331,-4.761508 11.92446,-5.902779 4.74,-1.96631 7.66406,-2.462765 11.62346,-1.97346 2.39373,0.295818 7.12835,1.300409 6.95339,1.475369 -0.0516,0.05158 -1.04189,-0.08277 -2.20067,-0.298563 -3.41179,-0.635355 -8.38643,-0.76592 -10.66556,-0.279932 -1.98293,0.422828 -5.59654,1.919816 -5.59654,2.318442 0,0.121206 0.32742,0.291114 0.72761,0.377574 2.25554,0.487313 5.59619,1.540635 6.88649,2.171341 1.39775,0.683231 4.44613,3.172008 4.19403,3.424111 -0.0641,0.06405 -0.63373,-0.210693 -1.26594,-0.61055 -1.55721,-0.984893 -4.98066,-2.540638 -7.2349,-3.28781 -2.27018,-0.752457 -4.51788,-0.776654 -6.35,-0.06836 -1.57881,0.610367 -6.2177,3.442798 -6.2177,3.796424 0,0.136708 0.29891,0.24856 0.66426,0.24856 1.05496,0 5.43147,1.038135 6.65133,1.577737 1.4639,0.647552 3.28196,2.349408 4.48964,4.202668 0.53605,0.822601 1.52327,2.150481 2.19382,2.950845 0.67055,0.800365 1.39672,1.691053 1.61371,1.979306 0.74084,0.984147 -1.92615,-1.285917 -4.49369,-3.824891 -2.78462,-2.753638 -5.06707,-4.139948 -8.06581,-4.899001 -1.71915,-0.43516 -6.91309,-0.543798 -7.52338,-0.157361 -0.29428,0.186341 -0.1321,0.57341 0.80034,1.910122 1.27988,1.834791 1.4367,1.914504 4.50974,2.292364 3.70262,0.455271 6.84181,2.47656 8.14196,5.242515 0.89193,1.897512 0.53277,1.861312 -0.99659,-0.100449 -1.55348,-1.992699 -3.21529,-3.239673 -5.18157,-3.888105 -1.63227,-0.538282 -3.60015,-0.81719 -3.58916,-0.508691 0.005,0.128918 1.1296,1.058254 2.50002,2.065189 2.56508,1.884731 3.25056,2.802353 2.9055,3.88951 -0.18053,0.568815 -0.21605,0.549953 -0.68471,-0.363564 -0.4925,-0.959972 -0.9028,-1.339162 -4.797,-4.433289 -1.12872,-0.896819 -2.65492,-2.323523 -3.39156,-3.170455 -0.91571,-1.052816 -1.7691,-1.724752 -2.69805,-2.124376 -1.23571,-0.531588 -1.61703,-0.567756 -4.21234,-0.399545 -1.56951,0.101722 -3.15488,0.265512 -3.52305,0.363977 -0.64199,0.171693 -0.60542,0.225621 0.8927,1.316582 0.85916,0.625655 2.24203,1.845413 3.07305,2.710575 0.83102,0.865161 1.827,1.644398 2.21329,1.731637 4.4601,1.007271 5.26097,1.393581 7.83294,3.778342 3.05072,2.828671 3.68029,3.05104 8.7444,3.08859 4.7903,0.03552 5.92864,0.254055 9.05813,1.73895 2.37641,1.127567 2.79139,1.619692 3.0933,3.668318 l 0.17547,1.190625 -0.80224,-1.615307 c -1.36226,-2.742915 -4.1582,-4.091062 -8.61425,-4.153623 -2.62763,-0.03689 -5.42395,0.267605 -5.42395,0.590624 0,0.114165 0.72879,0.730676 1.61953,1.370023 2.74018,1.96681 2.83122,2.151298 0.49713,1.007417 -3.42377,-1.677908 -5.63214,-3.210218 -8.32827,-5.778687 -1.83947,-1.752365 -2.8107,-2.469772 -3.87612,-2.863141 -1.83463,-0.677363 -3.40602,-0.964131 -3.40602,-0.621573 0,0.430779 2.41976,3.19549 4.62311,5.28215 1.82101,1.724567 4.83249,3.83545 10.94466,7.671594 3.0805,1.9334 4.29013,3.355527 4.26538,5.014727 l -0.0106,0.71038 -0.41667,-0.79375 c -0.67349,-1.282983 -2.19885,-2.717769 -4.37615,-4.116282 -1.11974,-0.719222 -2.1501,-1.307677 -2.28969,-1.307677 -0.1396,0 -0.0158,0.625078 0.27503,1.389063 0.29086,0.763984 0.69235,2.785364 0.8922,4.491955 0.4187,3.575349 0.89532,4.722361 2.55292,6.143655 l 1.13458,0.97283 -1.05834,-0.521396 c -1.2667,-0.624049 -2.36465,-1.732401 -2.79237,-2.818815 -0.17187,-0.436562 -0.47115,-2.195452 -0.66506,-3.908645 -0.48711,-4.303477 -0.92847,-5.054975 -5.11392,-8.70744 -1.80383,-1.574122 -3.38943,-2.86204 -3.52356,-2.86204 -0.13413,0 -0.18086,0.208359 -0.10386,0.463021 0.077,0.254661 0.37719,1.563328 0.66706,2.908144 0.28988,1.344819 0.84867,3.428412 1.24177,4.630208 0.95932,2.932885 1.01051,6.464451 0.12664,8.737182 -0.69046,1.775418 -4.5118,7.696324 -4.51733,6.999301 -0.006,-0.788596 0.70217,-2.225437 2.22016,-4.50297 1.81859,-2.728543 2.39909,-4.634707 2.18756,-7.183197 -0.17883,-2.1545 -0.6354,-3.925271 -0.9603,-3.724471 -0.12341,0.07627 -0.47378,0.959765 -0.7786,1.963314 -0.69232,2.279304 -1.97703,4.25626 -3.92271,6.036374 -0.82836,0.75787 -1.54713,1.336923 -1.59727,1.286787 -0.0501,-0.05014 0.4592,-0.941932 1.13187,-1.981766 1.47293,-2.276911 2.33563,-4.172587 2.91999,-6.416318 0.5829,-2.238097 0.42753,-5.964904 -0.31803,-7.628109 l -0.53372,-1.190625 -0.30249,1.693799 c -0.16637,0.93159 -0.65539,2.447938 -1.08672,3.369662 -1.07949,2.306828 -4.62578,7.420425 -4.74312,6.839384 -0.1692,-0.837893 0.7421,-2.644034 2.33749,-4.632738 2.45051,-3.054636 2.92954,-4.786895 2.41283,-8.725315 -0.15322,-1.167845 -0.47536,-1.859201 -1.63132,-3.501023 -0.79222,-1.125198 -1.49993,-2.047816 -1.57269,-2.050261 -0.0728,-0.0024 -0.1382,0.620514 -0.14542,1.384355 -0.009,0.968513 -0.22364,1.789155 -0.70874,2.71172 -0.38258,0.727604 -0.82951,2.143099 -0.99319,3.145542 -0.2865,1.754716 -0.96315,3.379234 -2.10617,5.056542 -0.2975,0.436562 -0.5417,1.011383 -0.54266,1.277376 -0.003,0.85357 2.1122,7.83326 3.20604,10.578867 2.01484,5.057331 4.28784,9.01555 6.18215,10.765632 0.39378,0.363802 0.953,1.018645 1.24271,1.455208 0.2897,0.436562 -0.49295,-0.25032 -1.73923,-1.526402 -4.01986,-4.115991 -5.57563,-6.974637 -7.85093,-14.425713 -0.76839,-2.51627 -1.53734,-4.766882 -1.7088,-5.001361 -0.38253,-0.523139 -0.79853,-0.29464 -1.4708,0.807866 -0.6148,1.008245 -0.65275,0.638889 -0.0947,-0.921645 0.59044,-1.651121 0.53158,-3.196791 -0.16921,-4.443674 -1.2579,-2.238148 -1.71613,-1.380006 -2.09519,3.92372 -0.53451,7.478919 0.94084,15.708339 3.85279,21.490708 0.51809,1.028787 0.88896,1.923547 0.82416,1.988351 -0.0648,0.0648 -0.55371,-0.391401 -1.08645,-1.013791 -1.02545,-1.198004 -1.61093,-2.823098 -3.4544,-9.588264 -0.61105,-2.242418 -0.93154,-3.999222 -0.93154,-5.106368 0,-0.975305 -0.16588,-2.008614 -0.39294,-2.447703 -0.27768,-0.536967 -0.30469,-0.789289 -0.0921,-0.860158 0.43002,-0.143341 0.93891,-9.006218 0.52504,-9.144175 -0.20227,-0.06742 -0.17147,-0.228351 0.0947,-0.494469 0.24706,-0.24706 0.39451,-0.901671 0.39451,-1.751446 0,-0.791956 -0.0966,-1.252278 -0.23191,-1.10558 -0.27527,0.298352 -1.37017,3.219299 -1.31112,3.497749 0.0225,0.106254 -0.0931,0.517147 -0.25685,0.913096 -0.16381,0.395951 -0.48816,1.816859 -0.72078,3.157574 l -0.42294,2.437665 0.84158,1.20805 0.84158,1.208053 -0.85256,-0.79375 -0.85256,-0.79375 0.10759,2.778125 c 0.0991,2.55869 0.17647,2.89841 0.97972,4.300993 0.78286,1.366983 0.87624,1.752171 0.91217,3.762952 0.0493,2.756191 -0.40651,3.103128 -0.70284,0.535014 -0.11754,-1.018646 -0.34503,-2.328334 -0.50554,-2.910417 -0.27533,-0.998511 -0.30288,-1.020945 -0.48752,-0.396875 -0.10763,0.363802 -0.20756,1.360554 -0.22206,2.215002 -0.0145,0.85445 -0.21034,2.818982 -0.43518,4.365625 -0.6612,4.54833 -1.86527,6.40099 -4.14212,6.373362 l -0.87304,-0.01058 0.79375,-0.418452 c 1.69335,-0.892709 2.67442,-2.237129 3.28371,-4.49985 0.40912,-1.51937 0.82545,-9.367251 0.52656,-9.925942 -0.23248,-0.434581 -4.33005,-3.390829 -4.69991,-3.390829 -0.10229,0 -0.14524,0.803672 -0.0954,1.785938 0.10067,1.985841 -0.25945,3.493167 -2.07025,8.665104 -1.79407,5.124159 -1.71242,7.320272 0.39824,10.710788 0.49659,0.7977 0.84396,1.50929 0.77195,1.5813 -0.19261,0.192597 -1.81134,-1.74702 -2.91654,-3.494692 -0.52914,-0.836745 -0.99606,-1.521354 -1.0376,-1.521354 -0.0415,0 -0.52376,0.74414 -1.0716,1.653646 -0.54783,0.909505 -1.35146,2.10159 -1.78583,2.64908 -1.2477,1.572607 -1.13288,2.748667 0.70917,7.263647 1.24359,3.0481 1.55861,4.12657 1.66166,5.68854 l 0.12714,1.92737 -1.68997,-4.7819 c -0.92948,-2.63005 -1.80225,-4.98253 -1.93947,-5.22774 -0.20033,-0.35797 -0.53279,0.0952 -1.68719,2.30007 l -1.4377,2.74589 1.55798,1.6828 c 1.74851,1.8886 2.94744,4.21699 3.188,6.191311 l 0.1612,1.32291 -0.78208,-1.929061 c -0.71811,-1.77124 -1.67264,-3.21743 -3.68335,-5.58054 -0.75061,-0.88218 -0.77144,-0.88854 -1.45092,-0.44333 -1.90796,1.25015 -3.34429,4.35006 -3.37846,7.291471 -0.0248,2.13482 -0.31606,1.95042 -0.62687,-0.39687 -0.23244,-1.755421 0.37169,-3.984161 1.70841,-6.302681 0.5751,-0.99748 1.04562,-2.03812 1.04562,-2.31254 0,-0.31292 -1.40057,-1.70993 -3.75661,-3.74707 -5.26675,-4.55386 -7.53684,-6.751827 -8.48792,-8.218231 -0.95266,-1.468863 -0.96983,-1.454187 -1.81659,1.553414 -1.32136,4.693317 -0.44683,10.173117 2.22862,13.964497 l 0.53506,0.75822 -0.55823,-0.29876 c -0.86029,-0.46041 -1.86545,-1.92986 -2.48814,-3.63742 -0.44597,-1.22292 -0.58911,-2.33771 -0.67997,-5.29544 -0.13965,-4.546427 0.23903,-6.717441 1.93883,-11.11547 0.64829,-1.677363 1.1787,-3.251954 1.1787,-3.499088 0,-0.247131 -0.48567,-0.91998 -1.07928,-1.495216 -1.65959,-1.60824 -1.86161,-2.216703 -0.38357,-1.155255 0.68299,0.490487 1.29856,0.983641 1.36794,1.095896 0.37585,0.608145 1.00568,-0.204642 3.27598,-4.227671 3.68049,-6.521892 4.18379,-8.446982 2.91605,-11.153669 -0.61022,-1.302838 -0.66584,-1.343094 -3.82087,-2.765132 -1.7609,-0.793678 -3.28953,-1.388731 -3.39694,-1.322345 -0.10742,0.06639 0.22837,0.961999 0.74618,1.990246 1.18988,2.362785 1.47081,4.10124 1.23023,7.613052 l -0.19137,2.793577 -0.1491,-3.312144 c -0.19617,-4.35792 -1.07911,-7.065563 -2.98919,-9.16676 -2.00599,-2.206699 -1.84195,-2.497158 -2.86374,5.070571 -0.45579,3.37576 -0.38658,4.17568 0.48245,5.575755 2.4652,3.971613 2.53121,4.548677 0.19556,1.709563 -1.74203,-2.117538 -1.68356,-2.143623 -2.20983,0.985924 -0.51315,3.051559 -0.0487,4.951267 1.98944,8.136888 0.50174,0.784227 0.50161,0.787082 -0.0193,0.405466 -1.2562,-0.920285 -1.81015,-1.549355 -2.45745,-2.79068 -0.59115,-1.133633 -0.68719,-1.642467 -0.67129,-3.55627 l 0.0186,-2.233355 -0.51169,0.645855 c -1.24663,1.573483 -2.921,3.447034 -3.00527,3.362773 -0.0507,-0.0507 0.4933,-1.22763 1.20887,-2.615412 1.83068,-3.550441 2.98137,-6.525212 2.8014,-7.242268 -0.0825,-0.328644 -0.3872,-0.88048 -0.67713,-1.226304 -0.63599,-0.758586 -0.72872,-0.657894 -1.79366,1.947659 -0.40074,0.980472 -0.81791,1.784144 -0.92705,1.785938 -0.46324,0.0076 -0.13354,-1.494409 0.74356,-3.387519 0.51811,-1.118248 0.88785,-2.271305 0.82165,-2.562347 -0.0662,-0.291041 -0.57761,-1.600729 -1.13646,-2.910416 -0.95388,-2.23546 -1.01744,-2.551338 -1.03804,-5.159375 l -0.0219,-2.778125 -2.477,-3.96875 c -3.848,-6.165438 -4.28871,-7.620495 -3.04944,-10.068349 0.79343,-1.567225 0.58225,-1.922351 -0.88224,-1.483579 -1.21799,0.364918 -1.60904,0.894503 -2.37584,3.217553 -1.27545,3.864004 -1.12537,4.585377 1.94508,9.349552 l 1.73302,2.688989 -1.37793,-1.455208 c -1.7262,-1.823008 -3.31424,-4.254492 -3.70034,-5.665663 -0.3845,-1.405372 0.0447,-4.32821 0.92934,-6.328503 0.35479,-0.802243 0.57632,-1.527371 0.4923,-1.611394 -0.24651,-0.24651 -2.2777,-0.16728 -2.71041,0.105719 -0.30836,0.194546 -0.41665,0.964168 -0.48553,3.450656 -0.0947,3.416806 0.0817,4.595935 0.51771,3.462335 0.40787,-1.060333 0.50379,-0.481052 0.20305,1.226251 -0.25711,1.459633 -0.216,1.854857 0.42476,4.08363 0.39019,1.357177 0.82215,2.603828 0.95993,2.770333 0.13777,0.166507 1.53186,1.036166 3.09798,1.932577 3.51344,2.011019 5.84884,4.042291 6.76785,5.886522 0.99135,1.989368 0.84399,2.306571 -0.4394,0.945875 -0.61846,-0.65572 -1.64619,-1.517087 -2.28383,-1.914152 -1.3714,-0.853977 -1.4965,-0.747946 -1.75605,1.488315 -0.22791,1.963762 0.3915,3.083558 2.19778,3.973206 l 1.24678,0.614085 -0.92604,0.08501 c -1.33428,0.122487 -1.44282,0.377254 -0.6528,1.532361 2.37308,3.469778 3.03818,6.077373 1.94944,7.643045 l -0.55196,0.79375 0.15691,-1.294325 c 0.24764,-2.042663 -0.56484,-4.29881 -1.18969,-3.303636 -0.12592,0.200547 -0.42537,1.242013 -0.66545,2.314372 -0.78258,3.495569 0.20988,7.040464 2.76899,9.890297 2.38655,2.65767 3.80344,4.431834 3.53938,4.431834 -0.14614,0 -1.33177,-1.041797 -2.63471,-2.315104 -1.86683,-1.824363 -2.57337,-2.735739 -3.33314,-4.299479 -1.60545,-3.304329 -1.83396,-6.408624 -0.68609,-9.32079 0.83321,-2.113862 0.68594,-3.20575 -0.76937,-5.704371 -1.20589,-2.070402 -1.29811,-2.162779 -1.70743,-1.710481 -1.23862,1.368658 -2.4121,5.476729 -2.11643,7.409079 0.16364,1.069438 -0.0557,1.099259 -0.58315,0.07929 -0.64734,-1.25182 -0.4824,-2.533922 0.8407,-6.535092 1.15299,-3.486727 1.21645,-3.815217 0.86418,-4.473424 -0.55493,-1.036902 -1.044,-1.103654 -1.78389,-0.243483 -0.5587,0.649534 -0.63149,0.94456 -0.51682,2.094828 0.0734,0.736354 0.0478,1.63648 -0.0569,2.000282 -0.18244,0.633838 -0.19861,0.622789 -0.38728,-0.264583 -0.34238,-1.610265 -0.4488,-1.852084 -0.8151,-1.852084 -0.48332,0 -1.45896,1.626339 -1.45896,2.432003 0,0.357362 0.18929,1.751719 0.42065,3.09857 0.30691,1.78672 0.65984,2.854494 1.30532,3.949229 1.13874,1.931315 1.93133,4.335592 2.2451,6.810372 0.29106,2.295689 0.65339,3.086269 2.45978,5.367086 2.44596,3.08837 5.34324,5.155777 9.01689,6.434165 1.37215,0.47749 1.76509,0.68532 1.08873,0.57584 -1.6861,-0.27293 -3.75239,-1.06121 -5.39109,-2.056669 -1.78864,-1.086538 -4.60079,-3.61419 -5.72142,-5.142592 -0.43657,-0.595419 -0.89329,-1.085393 -1.01496,-1.088832 -0.12166,-0.0034 -0.18119,1.344311 -0.13229,2.995001 0.0859,2.899611 0.1198,3.049701 1.00079,4.431772 4.05162,6.355977 5.75784,12.300737 5.06043,17.631367 -0.36914,2.821501 -0.48356,3.246021 -0.8749,3.246021 -0.17054,0 -0.20821,-0.51149 -0.10229,-1.38907 0.63293,-5.244151 0.45126,-7.064511 -1.16265,-11.650061 -0.97933,-2.78255 -2.95325,-6.540037 -3.43567,-6.540037 -0.13257,0 -0.073,0.476247 0.13237,1.058327 0.20537,0.58209 0.32677,1.05834 0.26978,1.05834 -0.057,0 -0.3713,-0.47625 -0.69845,-1.05834 -0.60955,-1.084537 -0.96629,-1.311527 -1.14354,-0.7276 -1.9443,6.40529 -2.33301,7.41678 -3.23317,8.41315 -0.51961,0.57514 -1.0263,1.0457 -1.12599,1.0457 -0.0997,0 0.32939,-1.04179 0.95352,-2.3151 1.12049,-2.28598 2.11233,-5.34166 2.77462,-8.548107 l 0.33996,-1.645935 -3.78293,-3.67166 c -2.08061,-2.019414 -3.9074,-3.59473 -4.05954,-3.500705 -0.660249,0.408061 0.053,2.310569 2.09746,5.594583 2.24533,3.606677 2.75648,4.737234 2.53125,5.598524 -0.11153,0.4265 -0.32702,0.15982 -1.0009,-1.23873 -0.47233,-0.980227 -1.66086,-2.853799 -2.64119,-4.163487 -0.98034,-1.309687 -2.158009,-3.064446 -2.617059,-3.899463 -0.45906,-0.83502 -0.91394,-1.519629 -1.01085,-1.521354 -0.31231,-0.0056 -1.71979,1.932548 -2.70251,3.721388 -1.19208,2.169922 -2.07448,5.474349 -1.84503,6.909256 0.0916,0.57291 0.42665,1.42491 0.74452,1.89332 0.31788,0.46842 0.52947,0.99715 0.4702,1.17496 -0.11485,0.34455 1.19786,2.72186 4.34099,7.86147 1.726649,2.8234 1.817389,3.03329 0.81944,1.89528 -1.57812,-1.79957 -4.26969,-5.59232 -5.20359,-7.33248 -1.12953,-2.10468 -2.31834,-5.85284 -2.66087,-8.389367 -0.33293,-2.465502 -0.17581,-4.630109 0.53282,-7.340093 0.92348,-3.531658 0.87738,-3.239667 0.42347,-2.68229 -0.67941,0.834289 -4.34072,10.286033 -4.65425,12.01505 -0.44865,2.47414 -0.0919,4.63507 1.71845,10.40908 0.89031,2.83958 1.13479,4.77218 0.692,5.4701 -0.21427,0.33772 -1.79053,-5.27241 -2.93853,-10.45862 -1.02531,-4.63199 -0.79102,-5.909787 2.5099,-13.688449 1.09803,-2.587524 1.94412,-4.756885 1.8802,-4.820801 -0.12872,-0.12872 -6.44803,4.703067 -7.78783,5.954623 -0.9819,0.917233 -0.9843,0.945973 -0.44279,5.31989 0.22262,1.798197 0.35397,3.320237 0.2919,3.382317 -0.22715,0.22714 -1.47358,-4.06263 -1.57358,-5.415693 -0.0567,-0.766678 -0.16167,-1.45261 -0.23335,-1.524291 -0.0717,-0.07168 -0.74417,0.518705 -1.49441,1.311973 -0.75025,0.793271 -1.36408,1.385163 -1.36408,1.315315 0,-0.335909 1.07014,-2.167583 1.45112,-2.48377 0.93399,-0.77514 1.6891,-2.620955 2.2538,-5.509276 0.32178,-1.645788 0.52169,-3.055697 0.44426,-3.13313 -0.0774,-0.07744 -0.46319,0.346385 -0.85723,0.941819 -0.39404,0.595437 -0.75864,1.082611 -0.81023,1.082611 -0.26894,0 1.40654,-3.262222 2.48959,-4.847322 1.70215,-2.491193 1.71844,-3.580932 0.0909,-6.079062 -0.63556,-0.975489 -1.24575,-1.773616 -1.35599,-1.773616 -0.11024,0 -0.27712,0.383442 -0.37085,0.852091 -0.0937,0.468651 -0.72098,1.9764 -1.3939,3.350556 l -1.22348,2.498463 -0.0712,4.123923 c -0.053,3.071194 -0.2435,5.035733 -0.74627,7.695801 -0.87133,4.610131 -2.48274,10.280918 -3.87196,13.626038 -0.60435,1.45521 -1.20815,3.00223 -1.3418,3.43784 -0.40014,1.30425 -0.27595,4.20076 0.25697,5.993141 0.73756,2.4807 0.83792,2.99293 0.52509,2.6801 -0.14754,-0.14754 -0.61554,-1.26602 -1.03999,-2.48551 -0.58853,-1.690901 -0.77119,-2.688301 -0.76947,-4.201611 0.002,-1.79273 0.14224,-2.32767 1.45167,-5.53891 1.92973,-4.73245 1.92085,-4.8413 -0.27391,-3.36047 -4.77346,3.22072 -7.00048,6.93018 -7.82548,13.034631 -0.41195,3.04807 -0.62934,3.45395 -1.03848,1.93883 z M 142.84634,90.685929 c 0.0749,-0.1819 0.44122,-1.01055 0.81401,-1.84144 0.37279,-0.83089 0.57362,-1.5751 0.44628,-1.6538 -0.21247,-0.13132 -1.86905,3.05156 -1.86905,3.59109 0,0.35347 0.45309,0.28213 0.60876,-0.0958 z m -1.30036,-1.1973 c 0.35213,-0.6949 0.88857,-2.09388 1.1921,-3.10885 0.57551,-1.92451 1.14037,-6.466714 0.84567,-6.80033 -0.0935,-0.105831 -1.05969,0.121629 -2.14713,0.505468 -2.36872,0.836096 -6.81028,1.126935 -9.65217,0.632044 -0.9788,-0.17045 -1.84802,-0.241519 -1.9316,-0.157935 -0.25164,0.251635 2.50395,2.910053 6.4316,6.204803 2.03729,1.70901 3.86757,3.3055 4.06729,3.54776 0.19972,0.24227 0.40608,0.44048 0.45857,0.44048 0.0525,0 0.38354,-0.56855 0.73567,-1.26344 z m 4.28189,-11.374041 c -0.0898,-0.08982 -0.35676,0.03014 -0.59319,0.266576 -0.51992,0.519914 -0.85167,2.373143 -0.841,4.697998 l 0.008,1.719787 0.79481,-3.260527 c 0.43714,-1.793288 0.72131,-3.334015 0.63149,-3.423834 z m 1.91347,1.704917 c 1.05457,-1.555123 2.07496,-4.066487 1.77437,-4.367069 -0.44675,-0.446755 -2.74723,3.374657 -3.19758,5.311618 -0.2713,1.166838 0.20641,0.849808 1.42321,-0.944549 z m -9.86939,0.607423 c 2.13786,-0.300694 5.68854,-1.893883 5.68854,-2.552441 0,-0.316542 -0.17029,-0.372626 -0.7276,-0.239623 -0.40018,0.0955 -1.58599,0.243795 -2.63512,0.329536 -3.17411,0.259401 -5.64271,-0.643691 -8.85577,-3.239725 -0.97691,-0.789305 -1.82942,-1.4351 -1.89446,-1.4351 -0.23736,0 -1.49746,3.464402 -1.49746,4.116965 0,0.893072 0.66967,2.148017 1.33676,2.50503 0.43775,0.234275 3.16802,0.561737 6.20386,0.744074 0.29104,0.01749 1.3626,-0.08544 2.38125,-0.228716 z M 93.261271,78.515096 c 0.19993,-0.327422 1.49827,-2.190088 2.88521,-4.139261 l 2.52171,-3.54395 -1.03562,-1.943712 c -0.5696,-1.069043 -1.15469,-1.908553 -1.30021,-1.865577 -0.47238,0.139505 -2.69089,4.852988 -3.15792,6.709349 -0.54404,2.162472 -0.85256,5.378464 -0.51597,5.378464 0.13162,0 0.40288,-0.267891 0.6028,-0.595313 z m 14.580459,-0.414099 c 0,-0.416812 -2.39137,-11.034914 -2.59579,-11.525761 -0.17251,-0.414232 -0.54522,-0.04955 -2.2463,2.197971 -1.79382,2.370045 -2.00499,2.764483 -1.75325,3.274758 0.15742,0.319082 1.55694,1.846003 3.11005,3.393154 2.56938,2.559524 3.48529,3.258524 3.48529,2.659878 z m 35.22213,-1.780924 c 0.39081,-0.229685 0.36987,-0.502113 -0.23305,-3.030498 -0.36436,-1.527968 -0.76595,-2.817812 -0.89243,-2.866318 -0.12648,-0.04851 -0.22997,-0.412885 -0.22997,-0.809728 0,-1.134864 -2.2184,-6.37812 -2.69856,-6.37812 -0.11652,0 -0.21186,0.102094 -0.21186,0.226875 0,0.605943 -2.14143,11.525945 -2.28632,11.658806 -0.3167,0.290428 0.15134,-4.878861 0.57309,-6.329431 0.23271,-0.800365 0.49182,-2.793648 0.57581,-4.42952 0.12527,-2.440096 0.0709,-3.188565 -0.30286,-4.167187 -0.25056,-0.656082 -0.56379,-1.192877 -0.69606,-1.192877 -0.13227,0 -0.91182,1.339453 -1.73234,2.976563 -0.82052,1.637109 -2.3098,4.492736 -3.3095,6.345841 -0.99971,1.853102 -1.81765,3.540479 -1.81765,3.749725 0,0.528796 2.21348,2.367923 3.82174,3.175397 2.18899,1.099039 4.00426,1.481997 6.6293,1.398545 1.30969,-0.04164 2.57449,-0.18927 2.81066,-0.328073 z m 3.74577,-1.504032 c 1.62589,-1.026025 3.73166,-3.391556 4.60234,-5.170069 0.5328,-1.08834 0.65329,-1.65598 0.54863,-2.58453 -0.1341,-1.189728 -1.40095,-3.500318 -1.7392,-3.172105 -0.0982,0.09532 -0.37369,0.969452 -0.61211,1.942507 l -0.4335,1.76919 -0.0295,-2.71789 -0.0295,-2.717893 -1.12448,-1.220049 c -1.38205,-1.49951 -3.37023,-3.027294 -6.15156,-4.727054 -2.79787,-1.709864 -5.67622,-3.808622 -7.87135,-5.739402 -0.98227,-0.863974 -1.78452,-1.47256 -1.78279,-1.352413 0.002,0.120147 0.39281,0.9188 0.86905,1.77478 0.9029,1.62284 1.17197,1.826956 5.79593,4.396796 2.36132,1.312341 4.46873,3.386867 5.49548,5.409723 0.78785,1.552197 0.85229,1.863199 0.76092,3.672613 -0.0882,1.746054 -0.21105,2.142072 -1.05261,3.392548 -0.52403,0.778658 -1.03637,1.566204 -1.13855,1.750105 -0.10217,0.183902 0.19397,1.705367 0.65809,3.381037 0.95789,3.458421 0.8683,3.405465 3.23476,1.912106 z M 86.537061,72.920839 c 2.94681,-2.427812 3.81758,-3.451826 4.89729,-5.759098 1.4268,-3.048998 1.47859,-6.554611 0.12309,-8.331764 -0.85465,-1.120494 -0.77326,-1.186143 -2.83893,2.289964 l -1.49438,2.51474 0.1571,1.873887 c 0.22529,2.687241 -0.0837,3.467667 -3.0701,7.754676 -0.79384,1.139568 -1.05955,2.009825 -0.56007,1.834317 0.13806,-0.04851 1.39175,-1.028031 2.786,-2.176722 z m -17.76581,-1.842574 c 1.65292,-0.779661 3.76786,-1.931787 4.69987,-2.560283 3.61913,-2.440536 6.2794,-5.982867 7.14641,-9.515907 0.5082,-2.070933 0.436,-6.276996 -0.1635,-9.525 -0.34688,-1.879303 -0.51158,-3.933753 -0.50908,-6.35 0.004,-3.96386 0.35347,-5.918496 1.85442,-10.375463 1.30256,-3.867833 1.17823,-4.22679 -0.76975,-2.222466 -3.30592,3.401542 -4.40398,9.16064 -3.04264,15.957937 0.70759,3.533071 0.75745,7.226022 0.12947,9.590645 -1.01978,3.839959 -4.42756,9.781495 -7.06448,12.317056 l -1.37579,1.322916 2.44525,-3.677692 c 2.66127,-4.002577 4.42093,-7.398361 4.68286,-9.036966 l 0.16683,-1.043675 -1.58701,1.984375 c -2.60296,3.254692 -5.3671,5.459426 -9.08196,7.243942 -2.6766,1.285764 -2.5871,1.068232 -1.72639,4.196057 0.7646,2.778561 0.88002,3.112084 1.07703,3.112084 0.0622,0 1.46555,-0.637902 3.11846,-1.41756 z m 17.02842,-1.328222 c 0.70832,-1.397799 1.14979,-4.133384 0.66704,-4.133384 -0.57621,0 -2.45944,4.915691 -2.42868,6.339443 0.0125,0.57695 0.93993,-0.584489 1.76164,-2.206059 z m 8.04896,-0.23078 c 0.31336,-0.618464 2.10171,-3.226824 3.97413,-5.79636 1.87242,-2.569532 3.404389,-4.727842 3.404389,-4.796239 0,-0.220335 -2.961789,-2.570422 -3.239479,-2.570422 -0.16894,0 -0.20329,0.489842 -0.0928,1.322917 0.0965,0.727604 0.12781,1.322916 0.0695,1.322916 -0.0583,0 -0.35756,-0.690057 -0.66508,-1.533461 -0.61767,-1.694016 -2.06573,-3.560281 -3.22936,-4.162018 -1.07332,-0.55504 -1.20635,-0.506645 -1.64748,0.599348 -0.47769,1.197644 -0.31735,1.706943 1.10305,3.50389 2.12243,2.685076 2.25814,4.873479 0.5976,9.637242 -0.60395,1.732616 -1.09808,3.250662 -1.09808,3.373437 0,0.479729 0.27802,0.175485 0.82356,-0.90125 z m 6.804299,-1.322917 c 1.44863,-2.227503 2.38857,-4.347255 2.59479,-5.851726 0.14692,-1.071957 0.0856,-1.335262 -0.44194,-1.896771 -0.33689,-0.358614 -0.69356,-0.652024 -0.79259,-0.652024 -0.27432,0 -4.328939,4.996085 -4.564419,5.624256 -0.14676,0.391507 0.06,1.112015 0.71456,2.490399 0.50659,1.066731 1.03202,1.939512 1.16762,1.939512 0.1356,0 0.730489,-0.744141 1.321979,-1.653646 z m 6.90625,-0.990139 c -0.34718,-1.019773 -0.72329,-1.854132 -0.8358,-1.854132 -0.26457,0 -0.27338,-0.06413 0.22046,1.605624 0.49729,1.681417 0.87951,2.4697 1.09367,2.255541 0.0841,-0.0841 -0.13115,-0.987263 -0.47833,-2.007033 z m 35.61319,0.144131 c 0.61746,-1.616778 0.4469,-4.353134 -0.37686,-6.046271 -0.33981,-0.698437 -1.17329,-1.840151 -1.85218,-2.537143 -1.34629,-1.382183 -3.38823,-2.843482 -3.63229,-2.59942 -0.27369,0.273685 0.44881,2.100456 2.28404,5.775045 0.98943,1.981062 2.01049,4.273015 2.26904,5.093229 0.25855,0.820213 0.55757,1.491297 0.66447,1.491297 0.10691,0 0.39662,-0.529531 0.64378,-1.176737 z m 9.56631,-4.048783 c -0.40201,-5.131102 -2.46199,-10.454839 -5.15207,-13.314823 -1.65997,-1.764821 -2.95119,-2.63846 -7.86258,-5.319824 -2.9888,-1.631733 -8.39973,-5.079632 -9.76145,-6.22009 -0.42109,-0.352671 -0.85394,-0.545213 -0.9619,-0.427876 -0.10796,0.117338 -0.11168,0.842457 -0.008,1.611376 0.29534,2.196068 1.63591,3.391675 6.31588,5.632908 2.08249,0.997302 4.5828,2.34378 5.55625,2.992175 1.76238,1.17388 4.96558,4.221343 6.28999,5.984174 1.198,1.594565 2.45086,4.47225 2.63178,6.044909 0.1352,1.175295 0.43125,1.878312 1.38193,3.281654 0.66542,0.982265 1.32714,1.785937 1.47048,1.785937 0.16251,0 0.20014,-0.771956 0.1,-2.050521 z M 88.483481,59.907149 c 0.77635,-1.387621 1.35575,-2.668339 1.28756,-2.846033 -0.20736,-0.540385 -6.48313,-6.295427 -6.62128,-6.071891 -0.3232,0.522946 -0.47477,5.013764 -0.19371,5.739341 0.35261,0.910281 3.66188,5.715678 3.93038,5.707314 0.10203,-0.0032 0.8207,-1.141108 1.59705,-2.528731 z m 70.952009,-0.09102 c 0,-3.115075 -0.15969,-3.386953 -3.2309,-5.50055 -3.35501,-2.308918 -4.2736,-2.59942 -3.50212,-1.107543 0.21429,0.414398 0.68374,1.852453 1.04321,3.195677 0.35947,1.343226 0.864,2.649916 1.12118,2.90376 0.60396,0.59613 4.11062,3.098667 4.3702,3.118797 0.10914,0.0085 0.19843,-1.166098 0.19843,-2.610141 z m -10.69687,-0.483322 c -0.63729,-2.713186 -3.85681,-6.990631 -7.14745,-9.496103 -2.68131,-2.041527 -6.49734,-3.963823 -6.49734,-3.272983 0,0.123587 0.92273,1.081463 2.05052,2.128615 1.88679,1.751883 1.95788,1.853946 0.89036,1.278179 -0.63808,-0.344152 -2.72168,-2.081361 -4.63021,-3.860467 -1.90853,-1.779106 -3.55935,-3.237622 -3.66849,-3.241146 -0.31598,-0.01021 -0.23048,0.993558 0.16358,1.92032 0.19911,0.468267 1.71715,2.170546 3.37344,3.782837 2.38824,2.32481 4.05173,3.623027 8.0385,6.273396 2.7649,1.838073 5.50334,3.758909 6.08542,4.26852 1.28464,1.124693 1.56519,1.170456 1.34167,0.218832 z M 54.925061,58.663882 c 0,-0.586861 1.7472,-4.012504 2.77909,-5.448821 0.54496,-0.758545 0.92941,-1.440595 0.85434,-1.515671 -0.26468,-0.264681 -6.85378,2.765155 -7.18738,3.304945 -0.16045,0.259606 0.61529,1.319501 2.19977,3.005553 0.97591,1.038471 1.35418,1.221158 1.35418,0.653994 z M 102.4496,57.514241 c 0.27715,-1.10422 -0.63228,-2.56585 -3.954339,-6.35544 -2.99724,-3.419065 -3.54319,-3.961505 -3.76442,-3.740274 -0.0611,0.06111 0.3933,1.608275 1.00979,3.438144 l 1.1209,3.327038 2.51354,1.992653 c 1.382439,1.09596 2.600569,2.001497 2.706929,2.012307 0.10637,0.01082 0.27179,-0.292682 0.3676,-0.674428 z m 19.149,-1.239761 c -0.002,-1.065392 -0.48241,-2.828655 -0.7709,-2.828655 -0.45032,0 -0.56204,2.106155 -0.16246,3.062484 0.45938,1.099439 0.93548,0.980164 0.93336,-0.233829 z m 37.9316,-1.175009 c 0.0717,-0.254661 0.20942,-0.879739 0.30603,-1.389062 0.42194,-2.224389 1.28079,-5.482395 1.62068,-6.147991 0.20335,-0.398219 0.74054,-1.146368 1.19376,-1.662557 l 0.82404,-0.938522 -0.19218,-3.626432 c -0.1057,-1.994535 -0.30434,-3.835995 -0.44142,-4.092131 -0.55445,-1.035994 -0.76008,-0.364209 -0.76859,2.510862 l -0.009,2.976562 -0.54688,-0.657373 c -0.48395,-0.581721 -0.53955,-0.962321 -0.48321,-3.307291 0.0864,-3.597379 0.14371,-3.409091 -1.26741,-4.165825 -1.12093,-0.601118 -1.67143,-0.692306 -5.09323,-0.843667 -2.11005,-0.09334 -4.78895,-0.238606 -5.95312,-0.32282 l -2.11667,-0.153115 2.11667,2.15909 c 1.71542,1.749798 2.52681,2.352151 4.28028,3.177532 4.08873,1.924619 6.43559,5.42911 5.40289,8.067972 -0.16064,0.410495 -0.26677,0.255725 -0.52333,-0.763162 -0.37402,-1.485376 -1.15074,-3.087859 -2.10268,-4.338116 -0.77661,-1.019998 -3.06878,-2.418988 -3.96933,-2.422618 -0.53015,-0.0021 -0.59684,0.09927 -0.47694,0.725123 0.36815,1.921623 0.48121,4.096652 0.20405,3.925355 -0.36637,-0.22643 -1.09514,-2.6592 -1.09514,-3.655787 0,-1.490724 -1.37766,-3.174783 -1.76705,-2.160051 -0.22096,0.575821 0.11821,4.670703 0.46203,5.57815 0.37296,0.984348 1.1766,1.838005 2.62794,2.79151 1.30656,0.858388 0.69205,0.80441 -1.25493,-0.110231 -1.97785,-0.929142 -2.68957,-2.582103 -2.71382,-6.302801 -0.0307,-4.703918 -1.0609,-5.986997 -6.52904,-8.131429 -4.33213,-1.698929 -6.74874,-3.245786 -9.61055,-6.151665 -1.7705,-1.797769 -2.97786,-3.329323 -4.08426,-5.180931 -2.38868,-3.997579 -5.04357,-7.644721 -6.43683,-8.842568 -1.56029,-1.341435 -3.50183,-2.514446 -3.50183,-2.115671 0,0.44245 2.15301,3.695897 4.63675,7.006639 2.75749,3.67566 3.60916,5.226921 4.5031,8.202084 0.39352,1.309687 1.01361,2.972964 1.37799,3.696168 0.68475,1.359064 3.47202,4.258032 4.46732,4.646345 0.31095,0.121314 2.15642,0.168373 4.10104,0.104574 3.97363,-0.130368 4.12519,0.0076 0.53627,0.488397 -1.34309,0.179906 -2.46782,0.445678 -2.49941,0.5906 -0.0316,0.144926 0.40259,0.488128 0.96483,0.762675 0.74752,0.365022 1.90049,0.545796 4.29007,0.672642 2.95033,0.156615 3.33299,0.234699 3.93868,0.803717 0.3826,0.359434 0.6703,0.923076 0.66955,1.31173 l -0.001,0.681485 -0.594,-0.70268 c -0.88208,-1.043477 -1.55322,-1.281695 -3.611,-1.281695 -2.16919,0 -2.24684,0.257892 -0.42477,1.410621 1.42764,0.903192 3.75235,2.960817 4.11886,3.645646 0.14602,0.272851 -1.19674,-0.508876 -2.98392,-1.737172 -9.69613,-6.663995 -11.84837,-8.084709 -11.84837,-7.82124 0,0.532781 1.00172,2.241106 1.97772,3.372787 1.08023,1.252537 5.01911,4.044175 9.79624,6.942976 7.15864,4.343921 11.9671,7.788262 15.98155,11.447711 1.07921,0.983769 2.05425,1.788671 2.16676,1.788671 0.11252,0 0.26324,-0.208359 0.33494,-0.463021 z m -53.2053,-4.666493 c -0.32356,-2.764925 -0.87619,-4.217636 -1.84623,-4.853236 -0.72851,-0.477335 -7.771389,-3.048072 -7.926279,-2.893185 -0.056,0.056 0.7447,1.100762 1.77933,2.32169 2.183819,2.577039 4.331689,5.737587 5.535479,8.145343 l 0.84601,1.692143 0.95257,-0.952563 0.95256,-0.952564 z m -14.632849,3.043449 c 0.18655,-0.56525 0.29491,-1.141476 0.24079,-1.280501 -0.22593,-0.580409 -6.71688,-5.550903 -6.79778,-5.20545 -0.17546,0.749292 1.48223,3.223641 3.57142,5.33087 1.19026,1.200547 2.27264,2.182813 2.40526,2.182813 0.13262,0 0.39376,-0.462479 0.58031,-1.027732 z m -36.88127,-1.529083 c 4.79107,-2.454952 6.39852,-3.052873 9.78814,-3.640883 7.6429,-1.325846 8.26388,-2.660126 4.62055,-9.928098 -0.87916,-1.753833 -1.69768,-3.188788 -1.81893,-3.188788 -0.12124,0 -0.36182,0.631775 -0.53463,1.403946 -0.91489,4.088193 -4.02597,8.352679 -9.0342,12.38359 -2.84811,2.292321 -2.51181,1.659681 0.93899,-1.766409 5.00141,-4.965599 6.55915,-7.418723 7.33803,-11.55591 0.32292,-1.715246 0.12331,-2.199071 -0.51282,-1.243004 -0.88177,1.325239 -3.61967,3.671205 -5.33017,4.567139 -0.97284,0.509559 -2.78083,1.345372 -4.01776,1.857362 -1.23693,0.511987 -3.86556,1.698479 -5.84141,2.636647 -3.07416,1.459664 -3.64192,1.825191 -3.93536,2.533616 -0.42429,1.024329 -0.24462,1.983115 0.76999,4.109042 0.76822,1.609667 2.80424,4.222978 3.1702,4.069088 0.10123,-0.04257 2.08095,-1.049372 4.39938,-2.237338 z m 39.93188,-1.153969 c -0.39507,-1.186262 -0.80864,-2.057017 -0.91906,-1.935009 -0.28991,0.320333 -0.54092,2.566305 -0.3222,2.882865 0.25885,0.374616 1.75147,1.417066 1.8656,1.302936 0.0517,-0.05167 -0.22928,-1.064528 -0.62434,-2.250792 z m 25.005319,1.112972 c 0,-1.506249 -0.57871,-3.572065 -1.30707,-4.665879 -0.46935,-0.704829 -0.539,-0.732748 -0.71085,-0.284906 -0.41689,1.086376 1.02274,6.22568 1.74394,6.22568 0.15101,0 0.27398,-0.572185 0.27398,-1.274895 z m 48.71137,-0.98824 c 0.78075,-1.386967 1.5062,-3.699174 1.24313,-3.962236 -0.21858,-0.218585 -3.91699,2.185924 -3.91699,2.54662 0,0.503775 1.44245,2.888655 1.69617,2.804388 0.13254,-0.04402 0.57249,-0.668965 0.97769,-1.388772 z M 130.91881,48.76787 c -1.64668,-2.949466 -2.30667,-4.584226 -2.60568,-6.454105 -0.15181,-0.949373 -0.47376,-1.343324 -2.70284,-3.307221 -1.39177,-1.226208 -2.63477,-2.229469 -2.76221,-2.229469 -0.6547,0 0.71772,4.030906 2.07358,6.09028 1.00545,1.527138 1.71866,3.170137 1.37612,3.170137 -0.0672,0 -0.6839,-0.844785 -1.37047,-1.877303 -0.68658,-1.032516 -1.31346,-1.812169 -1.39307,-1.732558 -0.25477,0.254772 0.49214,5.434539 0.82328,5.709362 0.80088,0.664673 7.7193,3.903035 7.92655,3.710246 0.13036,-0.121258 -0.47094,-1.477499 -1.36526,-3.079369 z m -7.73529,1.618602 c 0.003,-0.557837 -0.24245,-1.046567 -0.78694,-1.568212 -0.43504,-0.416798 -0.84979,-0.699008 -0.92167,-0.627134 -0.0719,0.07188 0.18609,0.929085 0.57325,1.904905 0.72244,1.820865 1.12719,1.924405 1.13536,0.290441 z m -15.03189,0.769387 c 0.26612,-0.240834 0.48385,-0.586922 0.48385,-0.769085 0,-0.607478 -1.64924,-3.95772 -1.77739,-3.610571 -0.15383,0.416703 0.44854,4.817539 0.65941,4.817539 0.0827,0 0.36801,-0.197046 0.63413,-0.437883 z m 2.47238,-0.866113 c -0.18469,-0.840896 -0.66561,-1.12875 -0.66561,-0.398402 0,0.524783 0.52727,1.527908 0.70807,1.347102 0.0748,-0.07482 0.0557,-0.501734 -0.0425,-0.9487 z m -18.030289,0.179517 c 0.0878,-0.327422 0.16117,-1.46326 0.16315,-2.524083 0.005,-2.454936 -0.52801,-3.543318 -2.56711,-5.245849 -0.84168,-0.702754 -2.04187,-1.734994 -2.6671,-2.293868 -0.71452,-0.638683 -1.34232,-0.985327 -1.69012,-0.933199 -0.77325,0.115898 -1.53873,1.681935 -1.53873,3.147965 0,1.296972 0.69506,2.512256 2.29415,4.011271 0.98513,0.923475 5.45609,4.403886 5.67865,4.420537 0.0922,0.0069 0.23937,-0.255352 0.32711,-0.582774 z m 74.500959,-3.529505 c 5.54351,-5.22946 4.23342,-10.639904 -2.99958,-12.387757 -0.75869,-0.183335 -0.76333,-0.177065 -0.62623,0.8451 0.0826,0.615559 0.52012,1.53025 1.08776,2.273893 1.6886,2.212189 1.76619,3.469645 0.42647,6.91129 -1.02858,2.642335 -1.12376,3.19542 -0.63415,3.685029 0.2288,0.228806 0.52433,0.416012 0.65673,0.416012 0.1324,0 1.07245,-0.784606 2.089,-1.743567 z m -44.83087,-4.084791 c -0.50179,-2.105914 -0.97774,-4.096824 -1.05767,-4.424246 -0.24815,-1.016619 -0.64831,-0.668811 -1.59937,1.390182 -1.31971,2.857074 -1.2774,3.067135 1.08442,5.383453 1.20813,1.184857 2.09736,1.867165 2.24326,1.721263 0.1459,-0.145899 -0.11994,-1.759503 -0.67064,-4.070652 z M 30.052071,40.636552 c 1.89296,-2.024631 3.44174,-3.780803 3.44174,-3.902604 0,-0.320016 -0.46656,-0.272214 -0.67772,0.06944 -0.31999,0.517756 -3.2956,1.776746 -4.63457,1.960902 -0.71626,0.09851 -1.30658,0.257236 -1.31181,0.352721 -0.005,0.09549 -0.163,1.337445 -0.35058,2.759914 -0.18758,1.422466 -0.2438,2.55356 -0.12493,2.513541 0.11887,-0.04002 1.76491,-1.729279 3.65787,-3.753911 z m -18.54315,2.538506 c 0.45163,-0.885275 1.77738,-6.873301 1.56128,-7.051863 -0.0449,-0.03708 -0.61738,-0.263031 -1.27222,-0.502105 -1.11168,-0.405858 -0.77037,-0.420024 0.815,-0.03383 0.62651,0.152619 0.75052,0.02875 1.50641,-1.504752 0.45304,-0.919083 1.36621,-2.30586 2.02927,-3.081726 0.66306,-0.775867 1.20557,-1.622732 1.20557,-1.881921 0,-0.490164 -2.51906,-5.196793 -2.91108,-5.439072 -0.32275,-0.199473 -1.08305,0.962419 -2.59842,3.970947 -1.9235697,3.81894 -2.7192997,7.237404 -1.7004,7.304945 0.40857,0.02708 0.41151,0.04436 0.025,0.146873 -0.6418597,0.170259 -0.7703097,1.060161 -0.4929197,3.414908 0.27033,2.294744 0.7789097,5.156509 0.9720097,5.469506 0.21037,0.340966 0.32982,0.228256 0.86047,-0.811913 z m 94.216149,0.588052 c 0,-0.358296 -0.86622,-3.164695 -1.03281,-3.346109 -0.24879,-0.270931 -3.2487,1.639512 -3.13064,1.993694 0.0523,0.156956 0.86167,0.551651 1.79855,0.877096 1.78816,0.621147 2.3649,0.737066 2.3649,0.475319 z M 48.536621,43.019051 c 0.55516,-0.350454 3.13616,-1.603295 5.73557,-2.784091 4.78651,-2.174306 7.26746,-3.556101 7.26746,-4.047707 0,-0.153419 -0.31428,-0.207388 -0.72761,-0.124947 -0.40018,0.07982 -1.50151,0.229426 -2.44739,0.332457 -0.94589,0.103031 -1.95393,0.308718 -2.2401,0.457081 -0.29485,0.152863 -2.03306,0.244755 -4.01144,0.212071 -4.0139,-0.06631 -3.53831,-0.438001 -4.20336,3.285035 -0.23395,1.309688 -0.48564,2.58961 -0.55931,2.844271 -0.17618,0.608986 -0.0175,0.58569 1.18618,-0.17417 z M 164.60325,42.249405 c 0.22913,-1.221354 0.0559,-2.632353 -0.33911,-2.762023 -0.24367,-0.07999 -0.33073,0.384742 -0.33073,1.765562 0,1.948789 0.38401,2.520051 0.66984,0.996461 z M 119.20766,39.12298 c 0.612,-1.474648 1.05797,-2.890563 0.99104,-3.146478 -0.0669,-0.255913 -0.98252,-2.035861 -2.03466,-3.955436 l -1.91298,-3.490138 -0.78931,0.749636 c -1.48516,1.410513 -2.20054,3.468016 -1.80915,5.20336 0.31142,1.380807 3.83715,7.320235 4.34539,7.320235 0.0533,0 0.59768,-1.206529 1.20967,-2.681179 z m -22.589389,0.971349 c -0.49567,-0.649367 -1.26384,-2.120975 -1.70705,-3.270245 -1.87854,-4.871228 -1.60542,-8.451834 0.86975,-11.402299 0.5393,-0.642858 1.16492,-1.525367 1.39026,-1.961132 0.50602,-0.978526 0.79089,-3.742385 0.41,-3.97779 -0.15029,-0.09288 -0.83725,0.456331 -1.52657,1.220478 -3.05748,3.389374 -4.33309,6.374279 -4.55131,10.65003 -0.16581,3.248718 0.28041,6.893634 0.9555,7.804954 0.66331,0.895419 3.06728,2.116667 4.16656,2.116667 h 0.89408 z m 5.539429,0.104854 c 1.93193,-1.158449 1.95359,-1.227431 1.99006,-6.337432 l 0.033,-4.625301 -0.8815,0.0088 c -0.48482,0.0048 -1.6554,0.08628 -2.60129,0.181015 l -1.719789,0.172257 1.719789,-0.519854 c 2.7797,-0.840242 3.5079,-1.299329 4.15628,-2.620301 0.32143,-0.654843 0.58932,-1.439811 0.59532,-1.744373 0.007,-0.363553 -1.03798,-1.590383 -3.04288,-3.571875 -1.67958,-1.65997 -3.158439,-3.054676 -3.286359,-3.099347 -0.39277,-0.137154 -0.63281,2.826866 -0.3141,3.878371 0.16093,0.530942 0.95006,1.836403 1.753629,2.901025 1.39084,1.842683 1.69758,2.429949 1.26923,2.429949 -0.10549,0 -0.98383,-0.785968 -1.951879,-1.746595 l -1.76008,-1.746595 -1.18989,1.680449 c -1.69039,2.387287 -2.08926,3.2787 -2.24738,5.022558 -0.36334,4.006942 2.08977,9.566968 4.52364,10.252927 1.000119,0.281871 1.880459,0.128214 2.954189,-0.515636 z m 25.79238,-2.199087 c 0,-1.009274 -0.12871,-1.528352 -0.44281,-1.785938 -0.97185,-0.796972 -2.74256,-3.524485 -3.17149,-4.885203 -0.24996,-0.79299 -0.5808,-1.399923 -0.7352,-1.34874 -0.15439,0.05118 -0.48813,0.857274 -0.74163,1.791314 -0.56591,2.085102 -0.36818,2.852518 1.19152,4.62443 1.04483,1.186982 3.27418,3.006275 3.70117,3.020391 0.10914,0.0036 0.19844,-0.633707 0.19844,-1.416254 z M 25.238521,33.204819 c -0.0602,-3.122086 -10e-4,-4.10133 0.24784,-4.101041 0.35369,5.29e-4 2.04708,-3.137771 1.8172,-3.367646 -0.2776,-0.277604 -2.71144,0.516589 -4.39308,1.433518 -0.94589,0.515752 -2.16492,1.164132 -2.70898,1.440844 -1.6662,0.847452 -1.85104,1.364641 -1.65946,4.64322 0.15316,2.620981 0.13247,2.818667 -0.2457,2.348312 -0.27445,-0.341347 -0.41918,-1.095586 -0.43154,-2.248958 -0.0102,-0.954453 -0.1089,-1.966018 -0.21928,-2.247924 -0.17639,-0.450519 -0.33047,-0.34835 -1.27309,0.844156 -1.42688,1.80513 -2.37487,3.758224 -1.95126,4.020032 0.17377,0.107391 1.52987,0.40382 3.01356,0.658727 1.48369,0.254911 2.87622,0.49797 3.0945,0.540134 0.21828,0.04217 1.38496,0.09048 2.59263,0.107357 l 2.19575,0.03069 z m 5.21258,3.061981 c 0.87313,-0.402603 2.27405,-1.294051 3.11316,-1.980991 l 1.52566,-1.248982 -0.46524,-0.787579 c -1.09953,-1.861363 -1.68272,-2.159432 -4.90097,-2.504917 -1.63722,-0.17576 -3.00269,-0.296328 -3.03437,-0.26793 -0.0317,0.0284 -0.18431,1.170183 -0.33918,2.537299 -0.25035,2.209974 -0.16402,4.496194 0.19306,5.112774 0.20887,0.360664 2.22155,-0.0821 3.90788,-0.859674 z m 24.5924,-2.333996 c -0.0531,-1.273307 -0.10151,-2.347928 -0.10751,-2.388044 -0.0323,-0.215699 -1.76924,0.890098 -2.65478,1.690124 -0.98586,0.890675 -1.54662,2.175632 -1.19659,2.741986 0.0921,0.149071 1.0423,0.271039 2.11148,0.271039 h 1.94398 z m 4.67732,1.490967 c 3.96185,-1.048279 4.08081,-1.168945 3.51791,-3.568216 -0.74634,-3.181193 -0.0682,-6.315903 1.93705,-8.953967 0.54674,-0.719279 2.89908,-2.840195 5.22741,-4.713147 6.14759,-4.945232 8.58806,-7.079129 8.97763,-7.849875 0.4727,-0.935208 0.71585,-2.462457 0.45706,-2.870858 -0.33061,-0.521725 -6.21956,3.973078 -11.13691,8.500361 -0.93622,0.861956 -3.07935,2.666354 -4.7625,4.009774 -3.74612,2.989985 -3.82167,3.073612 -4.67572,5.175441 -0.37892,0.932528 -1.29414,2.886636 -2.03384,4.342463 -0.95469,1.878981 -1.37807,3.047035 -1.45925,4.025882 -0.13191,1.590759 0.0889,2.72628 0.53013,2.72628 0.16847,0 1.70794,-0.370862 3.42103,-0.824138 z m -9.27183,-0.300341 c 0.19285,-0.472943 1.8093,-2.37281 3.59211,-4.221928 2.96335,-3.073561 5.00881,-5.828639 4.69924,-6.32953 -0.13778,-0.222929 -9.28342,2.80677 -9.82201,3.25376 -0.38518,0.319672 -0.43572,2.011344 -0.17136,5.735698 0.16163,2.277007 0.2072,2.421895 0.76165,2.421895 0.41704,0 0.69243,-0.25182 0.94037,-0.859895 z m 70.838579,-1.465739 c 0.59593,-1.989043 1.46056,-6.296229 1.47601,-7.352796 0.0147,-1.003629 -0.78007,-3.294746 -1.13754,-3.279327 -0.087,0.0038 -0.37859,0.484549 -0.64789,1.068434 -0.30863,0.669143 -1.16714,1.608997 -2.32225,2.542277 -1.71396,1.384824 -1.80936,1.516904 -1.47372,2.040421 0.19738,0.307862 1.04659,1.780141 1.88713,3.27173 0.84054,1.491588 1.61591,2.711979 1.72305,2.711979 0.10713,0 0.32998,-0.451223 0.49521,-1.002718 z M 65.908431,30.36093 c 2.46316,-3.466476 3.31142,-4.425017 5.35786,-6.054432 1.74227,-1.387228 3.05679,-2.115364 7.82835,-4.336253 1.16848,-0.543863 1.72911,-1.006439 2.28814,-1.887933 0.89243,-1.407212 1.98233,-4.017971 1.76718,-4.23312 -0.1688,-0.1688 -3.19424,1.919939 -4.67698,3.22895 -0.50932,0.449646 -1.34276,1.062379 -1.85208,1.361629 -1.08564,0.63786 -4.50428,2.014973 -4.64723,1.872021 -0.18848,-0.188477 11.7509,-7.887787 13.28647,-8.568008 0.85097,-0.376958 2.38065,-0.856059 3.3993,-1.064669 2.13113,-0.436437 2.98037,-0.955077 3.65359,-2.231265 0.66459,-1.259852 0.44013,-3.283777 -0.46451,-4.188419 l -0.6595,-0.659502 -1.77191,1.771906 c -1.63593,1.635935 -2.37608,2.242668 -1.75807,1.441177 0.14025,-0.181901 0.64377,-1.022236 1.11891,-1.867411 l 0.86391,-1.536683 -1.02038,0.424728 c -1.31721,0.548286 -3.06194,2.233774 -4.38503,4.236137 -0.99694,1.50878 -1.04088,1.54158 -0.88612,0.661459 0.31916,-1.815095 2.09265,-3.943602 4.55228,-5.463563 0.40737,-0.251735 0.29527,-0.286555 -0.65008,-0.201932 -2.04406,0.182973 -6.1331,3.451428 -6.13392,4.902974 -1.2e-4,0.201105 -0.34383,1.080021 -0.7638,1.953146 -0.98082,2.039108 -3.86684,4.797198 -9.29016,8.87833 -2.73878,2.060977 -6.1039,5.342701 -6.7675,6.599795 -0.65629,1.243248 -0.91908,7.14375 -0.31816,7.14375 0.20813,0 1.07637,-0.982266 1.92944,-2.182812 z m -28.25257,0.661458 1.5265,-0.992188 -0.92605,-0.0881 c -1.31766,-0.125363 -3.70416,0.209912 -3.70416,0.520393 0,0.426103 0.89886,1.534763 1.25163,1.543772 0.17907,0.0046 1.01251,-0.438171 1.85208,-0.983874 z M 160.49383,30.346264 c 0,-0.453287 -2.3078,-3.236659 -5.37048,-6.477181 -2.91871,-3.088205 -4.4495,-5.037096 -6.12789,-7.801648 -0.6827,-1.12449 -1.35141,-2.044526 -1.48603,-2.044526 -0.13462,0 -0.24477,0.329484 -0.24477,0.732188 0,0.901166 1.64978,6.575789 2.24822,7.733055 0.24015,0.464392 0.38164,0.899341 0.31443,0.966554 -0.24776,0.247753 -2.03738,-2.237597 -2.80148,-3.890561 -0.75565,-1.634683 -0.96971,-2.527981 -1.6312,-6.807076 -1.02443,-6.626875 -5.3072,-9.14604 -15.59247,-9.171625 -3.41681,-0.0085 -4.26735,0.06921 -5.09785,0.465738 -0.91089,0.434914 -0.9881,0.554997 -0.89574,1.393078 0.19499,1.769464 1.4817,2.609998 4.40609,2.878239 7.10681,0.651876 9.33187,1.338681 11.79169,3.639725 1.86929,1.748631 2.30376,2.58171 0.67271,1.28989 -1.21851,-0.96508 -4.54613,-2.585107 -5.83214,-2.839334 l -0.90837,-0.179571 0.58081,0.81566 c 0.95008,1.33427 2.08262,2.136097 5.31504,3.762996 1.76687,0.889281 3.45075,1.94515 3.97643,2.493414 0.50149,0.52303 0.80906,0.950963 0.68349,0.950963 -0.47792,0 -6.96206,-3.549775 -8.56238,-4.687516 -1.04284,-0.741406 -2.0145,-1.721207 -2.5735,-2.595055 -0.9743,-1.523079 -1.0483,-1.556065 -4.15159,-1.850511 -1.04554,-0.0992 -1.78594,-0.06749 -1.78594,0.07649 0,0.135269 0.3718,0.759204 0.82623,1.386521 0.45442,0.627317 1.59493,2.401353 2.53446,3.942302 1.9743,3.238123 3.01469,4.395715 5.27309,5.867123 l 1.62625,1.059543 0.99232,-0.673408 c 0.77442,-0.525535 1.31829,-0.672518 2.47676,-0.669356 2.13832,0.0058 2.57879,0.4302 0.59544,0.573664 -1.57969,0.114263 -2.95999,0.838874 -2.4907,1.307526 0.11258,0.112427 1.73369,0.438154 3.60248,0.723838 2.71443,0.41496 3.5257,0.639603 4.03385,1.11698 0.82643,0.776392 0.68391,0.874525 -0.53216,0.36642 -0.54283,-0.226811 -2.20725,-0.519596 -3.69871,-0.650633 -2.88562,-0.253525 -4.54708,-0.774667 -6.70724,-2.103829 -0.72301,-0.444868 -1.3983,-0.808851 -1.50066,-0.808851 -0.49958,0 1.23682,2.370144 2.7931,3.812519 4.14848,3.844838 11.4596,6.066147 20.40413,6.199304 2.18507,0.03253 2.84428,-0.03771 2.84428,-0.303051 z M 31.641731,28.484121 c 0,-0.699553 -0.95248,-3.613272 -1.29221,-3.95301 -0.3916,-0.391591 -3.47029,3.538715 -3.47029,4.430215 0,0.07856 1.07156,0.142833 2.38125,0.142833 2.32119,0 2.38125,-0.01564 2.38125,-0.620038 z m 12.17083,-0.66607 c 3.86456,-1.016037 9.31447,-3.245951 8.91338,-3.647046 -0.0743,-0.07429 -1.30652,0.0055 -2.73829,0.177394 -4.4257,0.531228 -10.4074,-0.241824 -14.70993,-1.901055 l -2.09354,-0.807356 -0.74982,0.71837 c -0.4124,0.395103 -0.82237,1.00744 -0.91104,1.360748 -0.21185,0.844039 0.27168,2.586499 1.11917,4.033095 l 0.68051,1.161587 3.72343,-0.147889 c 2.96098,-0.117604 4.34648,-0.311695 6.76613,-0.947848 z m -22.05842,-1.231935 c 1.03751,-0.594949 2.76391,-1.359785 3.83646,-1.699636 3.783,-1.198692 4.10229,-1.352243 5.25588,-2.527667 l 1.16435,-1.186393 -0.77986,-0.830923 c -0.71018,-0.75668 -0.72321,-0.801534 -0.14581,-0.502004 1.28475,0.666468 2.61988,0.202768 6.77872,-2.35429 3.46002,-2.127386 4.86289,-3.202057 4.88447,-3.741739 0.0124,-0.310325 -5.79997,-1.048373 -8.1962,-1.040744 -3.93519,0.01253 -8.90828,1.336051 -12.7931,3.404721 -5.83463,3.106942 -8.37357,4.745451 -8.37357,5.403895 0,0.138839 0.75798,1.055937 1.68441,2.037995 0.92642,0.982057 2.00633,2.443554 2.3998,3.247772 0.91448,1.869131 0.90717,1.863482 1.7155,1.32524 0.37542,-0.249976 1.53145,-0.941279 2.56895,-1.536227 z m 88.996739,0.921483 c 1.0907,-0.141517 2.37262,-0.385857 2.84869,-0.542978 l 0.8656,-0.28567 -1.75083,-1.891058 c -0.96296,-1.040082 -2.22881,-2.761952 -2.813,-3.826379 -0.58419,-1.064427 -1.18886,-1.893092 -1.3437,-1.841478 -0.49397,0.164658 -1.77424,4.448898 -1.77424,5.93726 0,1.068971 -0.0941,1.401029 -0.39688,1.401029 -0.21828,0 -0.39687,0.109326 -0.39687,0.242943 0,0.13362 -0.0723,0.431277 -0.1606,0.661459 -0.13538,0.35279 0.0828,0.417232 1.38906,0.410345 0.85232,-0.0045 2.44206,-0.123955 3.53277,-0.265473 z m 7.15967,-2.9092 c 0.59112,-0.316355 1.30827,-1.590691 1.30827,-2.324719 0,-1.000957 -1.8794,-4.235296 -3.46917,-5.970248 -1.43697,-1.5682 -4.44131,-4.132607 -4.84156,-4.132607 -0.22994,0 -0.94969,1.852101 -0.94969,2.443785 0,0.312136 0.94409,1.458847 2.3151,2.811959 1.27331,1.256685 2.5987,2.820663 2.94531,3.475506 0.6048,1.142639 0.53527,1.097318 -1.72503,-1.124479 -3.39146,-3.333684 -3.54843,-3.132985 -1.0603,1.355629 0.97417,1.757415 1.9345,3.156867 2.30849,3.364062 0.76774,0.425345 2.46174,0.479401 3.16858,0.101112 z M 50.576441,22.781401 c 3.96597,-0.818533 7.25362,-2.553211 10.47397,-5.526436 1.4558,-1.344079 6.31007,-6.772912 6.31007,-7.056942 0,-0.329837 -6.33841,0.991781 -8.35734,1.742584 -1.56694,0.582717 -2.10762,1.354724 -1.86022,2.656089 0.46119,2.425939 0.34337,2.934853 -0.15813,0.682983 -0.31597,-1.418828 -0.65162,-2.579687 -0.74589,-2.579687 -0.27963,0 -1.47412,2.384268 -2.12086,4.233333 -0.78941,2.256982 -1.04506,2.496464 -1.04506,0.978959 0,-0.683948 -0.0622,-1.243542 -0.13817,-1.243542 -0.076,0 -1.08537,0.47625 -2.24308,1.058333 -1.15771,0.582084 -2.19686,1.052478 -2.30923,1.045321 -0.11237,-0.0072 0.62913,-0.437695 1.64777,-0.95675 1.01865,-0.519055 2.32834,-1.330924 2.91042,-1.804153 1.07871,-0.876983 2.42709,-2.920292 2.05657,-3.116488 -0.11247,-0.05955 -2.64527,0.08277 -5.62845,0.316267 l -5.42395,0.424548 -1.24056,1.185732 c -1.37051,1.30995 -1.74924,2.065007 -1.74924,3.487429 0,1.271853 -0.24809,1.980679 -0.76231,2.178005 -0.63675,0.24434 -0.69722,0.02151 -0.23616,-0.8701 0.4679,-0.904812 0.54744,-2.042173 0.15958,-2.281883 -0.28361,-0.175279 -0.87806,0.105962 -4.34577,2.056053 -2.26207,1.272084 -2.32897,1.336058 -1.71979,1.644474 1.90009,0.961988 8.58763,2.16984 12.2755,2.217106 1.01864,0.01306 2.93129,-0.199 4.25033,-0.471235 z m 56.341089,-2.33121 c 0.41243,-1.279432 0.90816,-2.701422 1.10162,-3.159977 0.19346,-0.458555 0.35175,-1.006633 0.35175,-1.217952 0,-0.355385 -3.4457,-2.857497 -3.89943,-2.831594 -0.11089,0.0063 -1.19249,0.93158 -2.40356,2.056112 l -2.201939,2.044603 2.927959,2.855276 c 1.61038,1.570401 3.02826,2.793287 3.15085,2.717524 0.12258,-0.07576 0.56032,-1.18456 0.97275,-2.463992 z M 19.603191,16.273898 c 1.30969,-0.610383 3.78815,-1.620573 5.50771,-2.244866 1.71955,-0.624293 3.02924,-1.226499 2.91041,-1.338234 -0.11882,-0.111735 -1.40666,-0.529482 -2.86187,-0.928327 -4.17757,-1.14499 -9.15693,-0.928083 -11.29462,0.492006 -2.13732,1.419838 -2.70479,5.107155 -1.15095,7.478613 l 0.40504,0.618173 2.05152,-1.483789 c 1.12833,-0.816083 3.12307,-1.983192 4.43276,-2.593576 z m 77.04372,2.444177 c 2.18163,-2.271942 2.94867,-3.90597 3.534049,-7.528655 0.29963,-1.854216 0.11239,-4.810774 -0.279059,-4.406523 -0.31844,0.328855 -5.28933,12.941608 -5.28933,13.420743 0,0.451901 0.582,0.0269 2.03434,-1.485565 z m 13.688399,0.530355 c -0.79434,-2.516438 -1.12005,-2.863818 -1.53053,-1.632388 -0.18745,0.562365 -0.0971,0.818894 0.51253,1.455208 0.88508,0.923833 1.27511,0.991717 1.018,0.17718 z M 85.037801,17.810959 c 1.82256,-0.859668 4.13492,-3.127543 5.17988,-5.080229 l 0.76229,-1.424471 -1.29256,0.181371 c -4.40714,0.618407 -5.72235,1.851083 -6.58661,6.173299 -0.21236,1.061999 -0.0269,1.076364 1.937,0.15003 z M 102.36873,13.85726 c 0.68182,-0.600429 1.23967,-1.197202 1.23967,-1.326162 0,-0.128959 -0.4688,-1.125372 -1.04177,-2.21425 -1.13736,-2.161427 -1.21897,-2.129185 -1.43678,0.567636 -0.078,0.966002 -0.3857,2.450157 -0.68374,3.298122 -0.29803,0.847965 -0.541879,1.584288 -0.541879,1.636273 0,0.127299 0.961199,-0.637764 2.464499,-1.961619 z m 6.39294,-0.408878 c 0.78518,-0.357751 1.11237,-1.324223 0.77171,-2.279494 -0.45562,-1.277661 -0.95307,-1.289978 -2.57712,-0.06381 -0.82268,0.621128 -1.49578,1.239902 -1.49578,1.375054 0,0.221796 1.98351,1.258277 2.43495,1.272382 0.10229,0.0032 0.4921,-0.133664 0.86624,-0.304132 z m 8.03943,-3.146427 c -1.57383,-2.528586 -3.25617,-4.239268 -3.68795,-3.750086 -0.33792,0.382844 -0.7164,1.84365 -0.54804,2.115265 0.23669,0.381858 5.70545,4.537707 5.82099,4.423516 0.0513,-0.05073 -0.66192,-1.305642 -1.585,-2.788695 z m -10.52421,0.215224 c 0.85218,-0.618463 1.55289,-1.22753 1.55713,-1.35348 0.004,-0.125951 -0.51355,-1.01892 -1.15066,-1.984375 -0.6371,-0.965456 -1.23614,-2.009728 -1.3312,-2.320605 -0.11541,-0.377448 -0.51654,-0.652475 -1.2074,-0.827835 -0.88112,-0.223652 -1.11536,-0.187341 -1.57922,0.244809 -0.67783,0.631496 -0.67757,0.943784 0.003,3.399063 0.57105,2.060739 1.49022,3.966903 1.91286,3.966903 0.13543,0 0.94347,-0.506016 1.79566,-1.12448 z m 5.79106,-4.680778 c -0.009,-0.872972 -1.24322,-2.322571 -2.16418,-2.542214 -0.61491,-0.14665 -0.74053,-0.0734 -0.88907,0.518397 -0.19165,0.763605 0.11755,1.3536 1.46393,2.79339 0.8225,0.879563 0.87316,0.896592 1.22718,0.412452 0.20309,-0.277745 0.36605,-0.809656 0.36214,-1.182025 z"
       id="path2027" />
  </g>
</svg>
