<svg width="693" height="393" viewBox="0 0 693 393" fill="none" xmlns="http://www.w3.org/2000/svg">
<path d="M246.576 387.957C242.037 371.148 256.812 342.522 276.642 329.708C279.639 327.772 283.953 324.233 286.229 321.844C290.072 317.811 290.588 316.57 293.444 304.5C297.782 286.169 299.904 271 298.131 271C297.437 271 289.685 279.461 281.639 289C277.695 293.675 273.034 300.512 271.28 304.194C269.526 307.875 267.702 310.913 267.227 310.944C265.944 311.027 267.487 302.116 269.586 297.321C270.592 295.023 274.898 289.419 279.155 284.867C289.366 273.948 292.591 268.787 292.591 263.363C292.591 258.165 291.411 257.284 287.834 259.811C283.251 263.049 271.711 268.489 259.753 273.049L248.416 277.373L248.852 280.436C249.092 282.121 250.939 289.743 252.957 297.374C257.825 315.777 259.39 328.16 257.803 335.724C256.66 341.172 247.204 359.728 243.903 363C242.554 364.337 242.466 364.121 243.089 361C243.474 359.075 244.948 355.475 246.365 353C255.431 337.17 256.839 330.775 254.214 317.377C253.257 312.495 252.115 308.138 251.677 307.695C250.504 306.509 238.159 317.427 234.605 322.792C230.892 328.398 227.873 337.792 226.978 346.523C225.927 356.779 224.299 354.355 224.78 343.25C225.349 330.135 227.145 326.433 238.896 314.152C250.202 302.337 250.707 300.849 247.505 288.742C246.306 284.209 244.97 280.107 244.535 279.627C244.1 279.147 239.998 281.387 235.418 284.606C229.276 288.922 227.509 289.807 228.685 287.979C229.562 286.615 231.77 284.6 233.591 283.5C238.634 280.455 243.592 275.417 243.582 273.35C243.571 270.632 239.023 257.644 237.96 257.29C236.719 256.876 224.679 277.331 219.295 289C216.884 294.225 214.389 299.625 213.75 301C212.723 303.209 212.65 302.976 213.121 299C213.462 296.127 217.06 287.591 223.073 275.393C234.331 252.554 237.145 249.196 250.586 242.556C255.611 240.073 261.156 237.041 262.907 235.818C268.035 232.236 279.456 220.97 284.258 214.757C293.462 202.849 294.797 196.107 291.54 177.989C287.612 156.14 289.075 136.772 295.622 123.939C298.386 118.521 305.617 110.796 311.231 107.263C315.237 104.742 315.957 103.626 319.468 94.5C324.592 81.1798 325.909 76.9851 325.192 76.2675C324.395 75.4712 301.523 81.5434 295.404 84.1757C292.749 85.3179 289.248 87.7648 287.626 89.6131C283.207 94.6458 282.336 99.2406 283.553 111.102C284.124 116.662 284.54 125.102 284.479 129.856C284.358 139.163 284.399 139.241 282.018 125.108C281.543 122.288 281.233 121.951 280.179 123.108C279.482 123.873 278.183 126.525 277.292 129C273.312 140.066 273.539 139.658 272.449 137.712C271.16 135.408 272.095 131.296 275.648 123.642C277.736 119.144 278.925 114.19 280.093 105.132C280.97 98.3292 281.409 92.4849 281.069 92.1445C279.839 90.9146 273.009 95.8399 269.32 100.617C264.425 106.955 262.148 114.577 262.996 121.791C263.349 124.796 265.482 132.035 267.736 137.877C269.989 143.72 272.968 151.425 274.355 155C277.78 163.825 278.669 181.76 276.12 190.59C273.692 198.998 268.945 207.448 264.279 211.663C260.659 214.933 245.925 222.59 239.591 224.493C238.216 224.906 241.816 221.871 247.591 217.749C260.375 208.623 265.873 203.167 269.261 196.242C272.464 189.694 273.694 181.363 271.323 182.273C270.462 182.603 262.183 184.943 252.924 187.473C243.666 190.004 233.744 193.208 230.876 194.593C221.172 199.282 214.832 209.2 212.295 223.663C211.262 229.557 211.35 230.124 214.329 236.663C220.057 249.235 221.251 259.485 218.095 268.987C216.018 275.24 214.479 276.41 215.784 270.742C217.432 263.59 216.291 249.283 213.579 243.093C211.68 238.759 211.074 238.065 210.525 239.593C207.036 249.314 204.637 254.489 200.951 260.25C195.82 268.268 194.341 269.184 198.541 261.743C202.051 255.523 204.209 247.326 205.054 237C205.557 230.856 205.344 228.927 203.879 226.33C201.771 222.593 193.945 214 192.65 214C191.395 214 190.529 223.795 190.17 242.047C189.841 258.806 188.75 263.169 183.01 270.695C178.946 276.023 178.304 274.502 181.769 267.75C184.622 262.19 185.022 260.368 185.397 251.25C185.676 244.457 185.461 241 184.762 241C184.181 241 180.868 243.137 177.398 245.75C171.828 249.945 170.538 251.61 166.36 260C152.602 287.626 149.298 298.613 151.262 310.211C151.848 313.67 152.213 316.636 152.073 316.803C151.933 316.969 150.804 315.463 149.563 313.455C147.542 310.185 147.368 308.952 147.887 301.59C148.539 292.354 150.282 287.166 160.247 264.796C167.107 249.398 168.143 248.016 177.846 241.318C180.381 239.569 183.223 236.965 184.161 235.534C185.886 232.9 189.523 211.599 188.433 210.509C188.113 210.188 181.86 212.636 174.54 215.949C167.219 219.261 161.116 221.859 160.979 221.721C160.841 221.584 166.323 218.415 173.16 214.68C179.997 210.945 185.591 207.683 185.591 207.431C185.591 206.638 172.42 185 171.937 185C170.105 185 158.296 216.749 158.753 220.444C158.893 221.575 158.272 223.625 157.373 225C155.525 227.826 152.631 238.33 152.512 242.644L152.433 245.5L151.385 242.621C150.649 240.597 150.665 237.775 151.438 233.121C152.2 228.532 152.217 226.39 151.491 226.142C150.908 225.943 151.323 224.836 152.428 223.642C154.561 221.339 157.14 213.216 156.077 212.152C155.721 211.797 148.829 218.255 140.761 226.503C129.111 238.413 125.108 243.25 121.316 250C113.43 264.041 112.819 267.554 115.064 286L115.611 290.5L113.053 285.5C110.777 281.05 110.537 279.565 110.866 272C111.181 264.764 111.779 262.334 114.89 255.66C120.391 243.857 126.363 236.188 144.679 217.407C160.012 201.684 161.721 199.561 166.01 190.907C170.555 181.736 177.556 157.271 179.218 144.75C179.829 140.148 179.768 140 177.269 140C172.077 140 164.672 142.197 160.109 145.091L155.43 148.058L157.669 144.074C160.159 139.645 163.637 137.832 172.951 136.11C176.117 135.525 179.131 134.784 179.649 134.464C182.305 132.822 179.395 108 176.547 108C173.626 108 150.499 120.381 146.341 124.171L141.591 128.5L145.316 135.886C149.862 144.901 150.82 153.783 148.122 161.905C146.031 168.201 144.171 169.75 145.188 164.348C146.287 158.51 146.067 146.99 144.771 142.5C144.135 140.3 142.692 136.997 141.563 135.16C139.152 131.235 137.989 131.758 134.002 138.561C131.118 143.483 129.334 151.47 127.092 169.5C125.057 185.868 123.128 193.901 119.407 201.5C116.262 207.925 110.777 214.28 106.39 216.582C102.256 218.753 102.244 218.309 106.338 214.595C116.277 205.576 121.664 189.076 121.928 166.844C122.018 159.333 121.835 152.927 121.521 152.608C120.446 151.512 90.9221 181.432 88.5475 186.024C86.3356 190.302 86.2038 190.389 85.5734 188C84.8099 185.106 84.8736 185.1 73.5908 189.198C68.9158 190.896 64.4158 192.494 63.5908 192.75C62.7658 193.006 66.9898 190.355 72.9774 186.858C86.8429 178.76 91.7075 174.471 94.6035 167.788C97.4152 161.3 98.6238 148.26 96.4712 147.639C95.712 147.419 91.2243 146.733 86.4986 146.114C81.7729 145.495 72.4015 143.375 65.6732 141.403C58.945 139.431 53.3045 137.971 53.1387 138.159C52.9731 138.346 51.6715 144.092 50.2466 150.928C48.2499 160.506 46.8598 164.645 44.1841 168.98C40.5123 174.929 40.3812 178.003 43.5469 183.918C45.781 188.092 52.781 195 54.7772 195C55.9249 195 56.4335 195.445 56.0305 196.098C55.6574 196.701 57.5795 199.514 60.3019 202.348C73.7776 216.375 78.5549 224.143 78.5362 232L78.5249 236.5L76.7238 231.287C73.2254 221.162 59.4618 204.125 51.6647 200.267C48.3074 198.606 48.0173 198.205 49.4462 197.206C50.904 196.186 50.6939 195.708 47.5901 192.988L44.0901 189.92L43.7934 194.21C43.5466 197.78 42.9565 198.853 40.2786 200.605L37.0604 202.71L37.7541 195.105C38.1356 190.922 38.4798 185.332 38.5189 182.683L38.59 177.866L34.0899 181.554C31.615 183.582 29.59 184.939 29.59 184.571C29.59 183.507 32.713 177.753 34.8845 174.816C36.8505 172.156 36.8518 172.008 35.0187 159.033C34.0008 151.829 32.8443 145.411 32.4485 144.771C31.3793 143.041 28.244 147.183 23.4986 156.594C19.5354 164.455 19.3919 165.091 18.5362 178.594C16.8737 204.83 14.3795 210.8 3.56157 214.435C-0.739309 215.88 -0.814899 215.871 1.58106 214.219C7.06349 210.436 11.5295 205.703 12.4651 202.684C13.6771 198.772 14.3491 193.158 15.5391 177C16.0454 170.125 17.1795 162.475 18.0594 160C18.9393 157.525 22.5729 151.171 26.1342 145.879C31.1952 138.36 32.5759 135.521 32.4567 132.879C32.1014 125.009 37.6753 109.998 47.7315 91.7403C49.4764 88.5724 50.6273 85.7039 50.2892 85.3658C49.9513 85.0278 45.0883 88.0255 39.4829 92.0275C33.8775 96.0295 26.4008 100.811 22.868 102.652C15.6886 106.394 10.9914 107.26 16.5901 103.809C26.4784 97.7141 33.7551 92.3696 39.9023 86.6871L46.7145 80.3897L44.524 74.9449C42.9939 71.1416 42.3219 67.3141 42.2951 62.25C42.2724 58.2625 41.9863 55 41.6555 55C40.31 55 32.7894 60.5533 28.2721 64.8826C25.6222 67.4222 21.1539 72.65 18.3425 76.5C11.5689 85.7759 11.1212 86.1972 13.0297 81.5C18.9414 66.9493 40.0131 46.9197 55.9077 40.7423C64.4104 37.4378 77.7876 37.3379 100.059 40.4125C125.775 43.9626 149.962 45.3394 175.09 44.6836C210.923 43.7484 240.796 37.4327 263.783 25.9326C271.666 21.9889 289.59 11.2281 289.59 10.4394C289.59 10.1977 287.617 10 285.206 10C281.691 10 279.562 10.8536 274.456 14.3101C270.955 16.6806 266.29 19.6415 264.09 20.89L260.09 23.1598L264.59 18.9784L269.09 14.7969L265.09 15.2999C262.89 15.5766 260.303 16.1204 259.34 16.5085C258.034 17.035 257.59 16.7241 257.59 15.2826C257.59 13.8742 258.877 12.9089 262.34 11.7184L267.09 10.0856L261.09 10.5849C249.83 11.5217 249.287 11.7376 246.46 16.4009C243.931 20.5718 239.628 24.0704 231.09 28.8981L227.09 31.1598L231.549 27.1224C234.002 24.9019 235.758 22.8344 235.451 22.5281C234.363 21.4399 221.984 26.0131 215.121 30.0385C205.14 35.8931 197.668 38.1741 187.09 38.5956C177.14 38.9921 178.355 38.2689 192.09 35.6183C198.076 34.4632 203.31 32.4163 212.88 27.4871C220.781 23.4173 228.929 20.059 234.199 18.6998C241.135 16.9109 243.03 16.0005 244.345 13.826C245.629 11.7007 245.712 10.8513 244.745 9.68686C243.697 8.42422 242.173 8.81855 233.716 12.5405C214.746 20.8893 197.289 25.8307 173.412 29.6104C158.895 31.9083 129.726 31.8897 114.292 29.5725C101.506 27.653 95.4103 26.2381 99.2704 26.086C100.47 26.0387 112.17 26.7136 125.27 27.5857C150.951 29.2952 159.486 29.0012 175.09 25.8695C193.698 22.1349 242.385 4.75199 239.448 2.89127C236.959 1.31412 230.021 1.97267 222.625 4.48801C211.254 8.35567 200.113 10.1776 192.09 9.48146C187.47 9.08056 182.37 9.40537 177.09 10.4369C168.311 12.1518 160.005 12.4806 159.18 11.1458C158.89 10.676 162.126 10.0106 166.371 9.66707C201.643 6.81307 212.333 5.22352 221.217 1.51153C224.395 0.183662 244.771 0 388.91 0H552.985L577.406 8.08445C600.706 15.7979 602.108 16.1367 607.958 15.4679C614.832 14.682 623.532 12.1865 640.883 6.0236C654.349 1.24061 661.103 0.608742 666.639 3.61404L670.09 5.48752L660.09 6.06101C651.746 6.53954 647.234 7.53397 632.842 12.0672C623.356 15.0553 615.594 17.7364 615.592 18.0253C615.589 18.7731 634.23 26.7864 640.041 28.5353C649.213 31.2957 653.414 30.6098 661.689 25C665.746 22.25 669.408 20 669.828 20C673.308 20 662.384 31.6699 657.292 33.3913C654.423 34.361 653.812 34.9248 654.792 35.6951C657.019 37.4447 694.55 49.8253 705.752 52.5056C711.615 53.9087 720.39 55.713 725.252 56.5152L734.09 57.9739L722.124 57.512C699.755 56.6487 684.927 52.6115 623.09 30.5469C604.025 23.7442 577.821 16.8173 576.884 18.3327C575.822 20.0522 585.639 28.0997 593.09 31.6165C596.94 33.4337 604.59 36.1013 610.09 37.5444C636.918 44.5835 654.83 52.1004 660.704 58.7848C662.899 61.2833 663.59 63.068 663.59 66.2406V70.4115L660.334 64.9558C658.31 61.5651 655.275 58.2937 652.315 56.3132C646.955 52.726 617.203 40.7334 614.817 41.1985C612.035 41.7409 621.959 48.7888 635.82 56.1142C649.99 63.6028 653.904 66.5929 655.489 71.1402C656.037 72.7131 656.365 74 656.217 74C656.069 74 653.923 72.0875 651.448 69.75C648.973 67.4125 644.505 64.1095 641.519 62.41C638.533 60.7105 630.69 56.2777 624.09 52.5594C617.49 48.841 610.73 44.505 609.068 42.9238C607.405 41.3426 603.559 39.1934 600.52 38.1478C593.699 35.8011 587.083 32.5155 582.964 29.429C581.244 28.1406 579.577 27.3468 579.258 27.665C578.94 27.9832 579.733 30.3263 581.021 32.8718C584 38.761 586.607 45 586.088 45C585.594 45 579.143 33.5789 575.093 25.5344C571.82 19.033 567.82 15.6776 561.225 13.9017C554.24 12.0208 546.719 14.5669 548.161 18.3245C548.472 19.1348 548.272 20.0783 547.717 20.4213C546.117 21.4107 556.349 36.5791 562.265 41.9858C569.028 48.1672 574.997 51.0239 590.59 55.5415C621.81 64.5868 641.239 72.3667 647.428 78.2999C650.507 81.2527 654.59 87.7847 654.59 89.7592C654.59 90.2206 652.003 88.0995 648.84 85.0457C645.678 81.9919 640.39 78.0804 637.09 76.3535C630.371 72.8372 611.837 65.7322 610.599 66.1982C609.371 66.6609 618.405 89.17 620.895 91.852C622.102 93.1521 625.453 95.2674 628.34 96.5528C633.194 98.7135 635.287 101.03 632.34 100.978C626.917 100.883 615.964 92.3738 613.106 86.0352C612.105 83.8158 610.905 82 610.438 82C609.972 82 609.601 85.0375 609.614 88.75C609.637 94.917 610.156 98.1994 612.169 104.864C612.821 107.024 612.701 107.13 610.77 106.096C607.963 104.594 606.928 100.156 605.617 84C605.015 76.575 604.298 69.7628 604.024 68.8618C603.75 67.9607 601.853 66.1172 599.808 64.7649C595.499 61.9153 564.02 51.2369 562.984 52.2731C562.191 53.0656 567.906 62.8252 573.95 71C576.186 74.025 583.018 81.9 589.133 88.5C595.247 95.1 602.859 104.042 606.049 108.372L611.849 116.243L632.469 115.733C655.022 115.174 661.73 113.991 669.559 109.192C672.017 107.685 675.313 104.624 676.884 102.389C679.359 98.8684 679.861 96.9375 680.642 87.9451C681.776 74.8952 684.156 69.6839 690.522 66.3177C695.322 63.7793 700.902 63.3482 705.275 65.1779C707.898 66.2753 707.586 66.4057 700.7 67.0876C695.962 67.5567 692.372 68.5032 690.7 69.7242C687.618 71.9739 683.968 78.8016 685.22 79.975C685.698 80.4237 691.94 80.409 699.09 79.9425C706.24 79.4759 714.79 79.1223 718.09 79.1567L724.09 79.2193L719.591 80.1425C717.116 80.6503 710.141 81.203 704.091 81.3708C688.108 81.8139 685.798 83.4175 682.506 96.3575C681.827 99.029 679.287 103.91 676.861 107.205C674.436 110.499 672.596 113.328 672.771 113.491C672.947 113.654 676.241 111.969 680.091 109.745C690.192 103.911 714.762 91.7489 725.16 87.4355C743.075 80.0037 754.126 78.1274 769.091 79.9767C778.138 81.0948 796.033 84.8916 795.371 85.5529C795.176 85.7479 791.434 85.2401 787.054 84.4245C774.159 82.0231 755.357 81.5297 746.743 83.3665C739.249 84.9646 725.591 90.6225 725.591 92.1291C725.591 92.5872 726.828 93.2294 728.341 93.5561C736.866 95.398 749.492 99.379 754.369 101.763C759.651 104.345 771.173 113.751 770.22 114.704C769.978 114.946 767.825 113.908 765.435 112.397C759.55 108.674 746.611 102.794 738.091 99.9703C729.511 97.1264 721.015 97.035 714.091 99.712C708.124 102.019 690.591 112.724 690.591 114.061C690.591 114.577 691.721 115 693.101 115C697.089 115 713.63 118.924 718.24 120.963C723.773 123.411 730.645 129.843 735.209 136.847C737.235 139.956 740.966 144.975 743.501 148C746.035 151.025 748.78 154.391 749.6 155.481C752.4 159.201 742.32 150.621 732.616 141.025C722.091 130.617 713.465 125.378 702.131 122.509C695.633 120.864 676.003 120.453 673.696 121.914C672.584 122.618 673.197 124.081 676.721 129.133C681.558 136.068 682.151 136.369 693.766 137.797C707.76 139.518 719.624 147.158 724.538 157.612C727.909 164.783 726.552 164.647 720.772 157.232C714.9 149.701 708.619 144.988 701.188 142.537C695.019 140.502 687.581 139.448 687.622 140.614C687.641 141.101 691.892 144.614 697.071 148.42C706.766 155.543 709.357 159.011 708.053 163.12C707.37 165.27 707.236 165.199 705.465 161.746C703.603 158.118 702.053 156.685 687.334 144.99C683.068 141.601 677.3 136.208 674.516 133.007C671.055 129.028 667.83 126.489 664.319 124.978C659.648 122.969 658.207 122.832 648.398 123.468C642.466 123.853 636.474 124.472 635.083 124.844C632.656 125.493 632.794 125.697 638.456 129.82C641.704 132.185 646.93 136.795 650.071 140.065C653.212 143.335 656.976 146.28 658.436 146.609C675.293 150.416 678.32 151.877 688.041 160.89C699.571 171.581 701.951 172.421 721.091 172.563C739.196 172.697 743.498 173.523 755.326 179.136C764.308 183.397 765.876 185.257 767.018 193L767.681 197.5L764.649 191.395C759.5 181.028 748.933 175.933 732.091 175.696C722.16 175.557 711.591 176.708 711.591 177.929C711.591 178.36 714.345 180.69 717.712 183.107C728.069 190.54 728.413 191.237 719.591 186.914C706.651 180.572 698.304 174.781 688.114 165.073C681.162 158.45 677.491 155.739 673.464 154.252C666.53 151.692 660.591 150.608 660.591 151.903C660.591 153.531 669.736 163.98 678.064 171.867C684.947 178.385 696.329 186.363 719.43 200.862C731.073 208.169 735.644 213.544 735.551 219.815L735.511 222.5L733.936 219.5C731.39 214.651 725.625 209.228 717.396 203.943C713.164 201.224 709.27 199 708.742 199C708.215 199 708.682 201.363 709.782 204.25C710.881 207.138 712.398 214.777 713.154 221.228C714.736 234.741 716.538 239.076 722.803 244.448L727.091 248.125L723.091 246.154C718.303 243.795 714.154 239.606 712.537 235.5C711.887 233.85 710.756 227.202 710.023 220.727C708.182 204.462 706.514 201.622 690.695 187.817C683.878 181.868 677.885 177 677.378 177C676.871 177 676.694 177.788 676.985 178.75C677.276 179.713 678.411 184.659 679.506 189.742C680.602 194.824 682.714 202.699 684.2 207.242C687.825 218.326 688.019 231.674 684.678 240.264C682.069 246.974 667.626 269.352 667.605 266.718C667.582 263.737 670.259 258.307 675.996 249.699C682.869 239.386 685.063 232.182 684.264 222.55C683.588 214.407 681.863 207.714 680.635 208.473C680.168 208.761 678.844 212.101 677.692 215.893C675.075 224.508 670.22 231.98 662.866 238.708C659.735 241.572 657.018 243.761 656.829 243.572C656.64 243.382 658.564 240.012 661.107 236.081C666.674 227.476 669.934 220.311 672.143 211.831C674.346 203.372 673.759 189.286 670.941 183L668.924 178.5L667.781 184.902C667.152 188.423 665.303 194.154 663.673 197.638C659.593 206.356 646.19 225.683 645.746 223.487C645.107 220.32 648.551 213.494 654.581 205.978C663.843 194.433 665.653 187.885 663.7 173C663.121 168.586 661.904 165.973 657.535 159.768C654.541 155.515 651.866 152.028 651.591 152.019C651.316 152.01 651.068 154.364 651.041 157.251C651.007 160.912 650.196 164.013 648.362 167.5C646.916 170.25 645.227 175.6 644.609 179.389C643.526 186.021 640.968 192.161 636.648 198.5C635.524 200.15 634.601 202.323 634.597 203.328C634.586 206.554 642.58 232.934 646.715 243.311C654.33 262.425 662.921 277.386 670.08 284C671.569 285.375 673.682 287.85 674.777 289.5C675.872 291.15 672.914 288.554 668.204 283.731C653.01 268.175 647.13 257.37 638.531 229.209C635.627 219.698 632.72 211.192 632.072 210.306C630.627 208.329 629.054 209.192 626.513 213.359C624.19 217.17 624.046 215.774 626.156 209.876C628.387 203.635 628.165 197.793 625.516 193.081C620.762 184.622 619.03 187.865 617.597 207.911C615.577 236.177 621.153 267.281 632.159 289.135C634.117 293.024 635.519 296.406 635.274 296.65C635.029 296.895 633.181 295.171 631.168 292.819C627.292 288.291 625.079 282.149 618.112 256.58C615.802 248.104 614.591 241.464 614.591 237.28C614.591 233.594 613.964 229.688 613.106 228.029C612.056 225.999 611.954 225.046 612.758 224.778C614.383 224.236 616.306 190.739 614.742 190.217C613.978 189.962 614.094 189.354 615.1 188.348C616.034 187.415 616.591 184.94 616.591 181.729C616.591 178.735 616.226 176.996 615.714 177.55C614.674 178.678 610.536 189.718 610.759 190.77C610.844 191.172 610.407 192.725 609.788 194.221C609.169 195.718 607.943 201.088 607.064 206.155L605.466 215.368L608.646 219.934L611.827 224.5L608.605 221.5L605.383 218.5L605.789 229C606.164 238.671 606.456 239.955 609.492 245.256C612.451 250.422 612.804 251.878 612.94 259.478C613.126 269.895 611.403 271.206 610.283 261.5C609.839 257.65 608.979 252.7 608.373 250.5C607.332 246.726 607.228 246.641 606.53 249C606.123 250.375 605.745 254.142 605.691 257.372C605.636 260.601 604.896 268.026 604.046 273.872C601.547 291.062 596.996 298.065 588.391 297.96L585.091 297.92L588.091 296.339C594.491 292.965 598.199 287.883 600.502 279.331C602.048 273.589 603.622 243.927 602.492 241.816C601.613 240.173 586.126 229 584.729 229C584.342 229 584.18 232.038 584.368 235.75C584.748 243.256 583.387 248.953 576.543 268.5C569.763 287.867 570.071 296.167 578.049 308.982C579.925 311.997 581.238 314.686 580.966 314.958C580.238 315.686 574.12 308.356 569.943 301.75C567.943 298.588 566.178 296 566.021 296C565.865 296 564.042 298.813 561.971 302.25C559.901 305.688 556.863 310.193 555.222 312.262C550.506 318.206 550.94 322.651 557.902 339.716C562.602 351.236 563.793 355.312 564.182 361.216L564.663 368.5L558.275 350.427C554.763 340.486 551.464 331.595 550.945 330.668C550.188 329.315 548.932 331.028 544.568 339.362L539.135 349.74L545.023 356.1C551.632 363.238 556.163 372.038 557.072 379.5L557.681 384.5L554.726 377.209C552.011 370.515 548.404 365.049 540.804 356.117C537.967 352.783 537.889 352.759 535.32 354.442C528.109 359.167 522.681 370.883 522.551 382C522.458 390.069 521.357 389.372 520.182 380.5C519.304 373.865 521.587 365.442 526.639 356.679C528.813 352.909 530.591 348.976 530.591 347.939C530.591 346.756 525.298 341.476 516.393 333.777C496.487 316.565 487.907 308.258 484.313 302.715C480.712 297.164 480.647 297.219 477.447 308.587C472.453 326.325 475.758 347.036 485.87 361.366L487.892 364.232L485.782 363.102C482.531 361.362 478.732 355.808 476.378 349.355C474.693 344.733 474.152 340.519 473.808 329.34C473.28 312.157 474.712 303.952 481.136 287.329C483.586 280.99 485.591 275.038 485.591 274.104C485.591 273.17 483.756 270.627 481.512 268.453C475.239 262.375 474.476 260.075 480.062 264.087C482.644 265.941 484.97 267.804 485.232 268.229C486.653 270.527 489.033 267.455 497.614 252.25C511.525 227.6 513.427 220.325 508.635 210.095C506.329 205.17 506.119 205.018 494.194 199.644C487.539 196.644 481.761 194.395 481.355 194.646C480.949 194.897 482.219 198.282 484.176 202.168C488.673 211.098 489.735 217.669 488.825 230.942L488.102 241.5L487.538 228.982C486.797 212.511 483.46 202.277 476.241 194.336C468.659 185.995 469.279 184.898 465.417 213.5C463.695 226.259 463.956 229.282 467.241 234.574C476.558 249.585 476.807 251.766 467.98 241.035C461.396 233.032 461.617 232.933 459.628 244.762C457.688 256.295 459.444 263.475 467.147 275.515C469.043 278.479 469.043 278.49 467.074 277.048C462.326 273.569 460.232 271.192 457.786 266.5C455.552 262.216 455.189 260.292 455.249 253.059L455.319 244.618L453.385 247.059C448.673 253.006 442.345 260.087 442.027 259.769C441.835 259.577 443.891 255.129 446.595 249.884C453.515 236.465 457.864 225.222 457.183 222.511C456.872 221.269 455.72 219.184 454.624 217.877C452.22 215.009 451.87 215.39 447.845 225.238C446.33 228.944 444.754 231.981 444.341 231.988C442.59 232.017 443.837 226.34 447.152 219.185C449.11 214.958 450.507 210.6 450.257 209.5C450.007 208.4 448.074 203.45 445.962 198.5C442.356 190.051 442.116 188.857 442.038 179L441.956 168.5L432.594 153.5C418.05 130.198 416.384 124.698 421.068 115.447C424.067 109.523 423.269 108.181 417.734 109.839C413.13 111.219 411.652 113.22 408.754 122C403.934 136.604 404.501 139.331 416.106 157.337L422.656 167.5L417.448 162C410.924 155.11 404.922 145.92 403.462 140.587C402.009 135.275 403.631 124.228 406.975 116.668C408.316 113.636 409.153 110.895 408.835 110.578C407.904 109.646 400.227 109.945 398.591 110.977C397.426 111.712 397.017 114.621 396.756 124.019C396.398 136.933 397.065 141.389 398.713 137.105C400.255 133.097 400.617 135.287 399.48 141.74C398.509 147.256 398.664 148.75 401.086 157.174C402.561 162.303 404.193 167.015 404.714 167.644C405.235 168.274 410.504 171.561 416.423 174.949C429.702 182.549 438.529 190.227 442.002 197.197C445.749 204.716 445.192 205.915 440.341 200.772C438.004 198.293 434.12 195.038 431.71 193.537C426.526 190.31 426.053 190.71 425.073 199.162C424.211 206.584 426.552 210.817 433.379 214.179L438.091 216.5L434.591 216.821C429.548 217.284 429.138 218.247 432.124 222.613C441.093 235.727 443.607 245.583 439.492 251.5L437.406 254.5L437.999 249.608C438.935 241.888 435.864 233.361 433.502 237.122C433.027 237.88 431.895 241.816 430.987 245.869C428.03 259.081 431.781 272.479 441.453 283.25C450.473 293.295 455.828 300 454.83 300C454.278 300 449.797 296.063 444.872 291.25C437.816 284.355 435.146 280.91 432.274 275C426.207 262.511 425.343 250.779 429.681 239.772C432.83 231.783 432.274 227.656 426.773 218.212C422.216 210.387 421.867 210.038 420.32 211.747C415.639 216.92 411.204 232.447 412.321 239.75C412.94 243.792 412.11 243.905 410.117 240.05C407.67 235.319 408.294 230.473 413.294 215.35C417.652 202.172 417.892 200.931 416.561 198.443C414.463 194.524 412.615 194.272 409.818 197.523C407.707 199.977 407.432 201.093 407.865 205.44C408.142 208.223 408.046 211.625 407.65 213C406.96 215.396 406.899 215.354 406.186 212C404.892 205.914 404.49 205 403.106 205C401.279 205 397.591 211.147 397.591 214.192C397.591 215.543 398.307 220.813 399.181 225.903C400.341 232.656 401.675 236.692 404.115 240.829C408.419 248.129 411.414 257.216 412.6 266.569C413.7 275.246 415.07 278.234 421.897 286.854C431.142 298.527 442.092 306.341 455.977 311.172C461.163 312.977 462.648 313.763 460.091 313.349C453.719 312.317 445.909 309.338 439.716 305.576C432.955 301.469 422.327 291.916 418.091 286.139C416.441 283.889 414.715 282.037 414.255 282.024C413.795 282.011 413.571 287.105 413.755 293.343C414.08 304.303 414.208 304.87 417.538 310.093C432.851 334.116 439.3 356.584 436.664 376.732C435.269 387.396 434.836 389 433.357 389C432.713 389 432.57 387.067 432.971 383.75C435.363 363.93 434.676 357.05 428.576 339.718C424.875 329.202 417.414 315 415.591 315C415.09 315 415.315 316.8 416.091 319C416.868 321.2 417.326 323 417.111 323C416.896 323 415.708 321.2 414.471 319C412.167 314.901 410.819 314.043 410.149 316.25C402.801 340.459 401.331 344.282 397.929 348.048C395.965 350.222 394.05 352 393.674 352C393.297 352 394.919 348.063 397.277 343.25C401.512 334.61 405.261 323.061 407.764 310.942L409.049 304.721L394.751 290.844C386.888 283.212 379.983 277.258 379.408 277.613C376.913 279.156 379.609 286.346 387.336 298.758C395.822 312.39 397.754 316.663 396.903 319.918C396.481 321.53 395.667 320.522 393.12 315.236C391.334 311.531 386.842 304.45 383.137 299.5C379.432 294.55 374.981 287.918 373.246 284.762C371.511 281.606 369.792 279.019 369.425 279.012C368.245 278.991 362.925 286.316 359.211 293.077C354.706 301.278 351.371 313.768 352.238 319.191C352.584 321.356 353.85 324.576 355.052 326.347C356.253 328.117 357.053 330.115 356.829 330.787C356.395 332.09 361.356 341.075 373.236 360.5C379.762 371.171 380.105 371.965 376.333 367.663C370.368 360.862 360.196 346.527 356.666 339.95C352.397 331.995 347.904 317.829 346.609 308.242C345.351 298.924 345.945 290.743 348.623 280.5C352.113 267.152 351.939 268.256 350.223 270.362C347.655 273.516 333.817 309.239 332.632 315.774C330.937 325.125 332.285 333.292 339.127 355.115C342.492 365.847 343.416 373.152 341.743 375.789C340.933 377.066 334.975 355.862 330.637 336.261C326.761 318.754 327.647 313.925 340.123 284.525C344.273 274.745 347.471 266.546 347.229 266.305C346.743 265.818 322.859 284.08 317.795 288.81C314.084 292.277 314.075 292.386 316.121 308.917C316.963 315.713 317.459 321.466 317.224 321.7C316.366 322.559 311.655 306.346 311.277 301.232C311.063 298.334 310.666 295.741 310.395 295.471C310.124 295.2 307.582 297.431 304.747 300.429C301.911 303.427 299.591 305.664 299.591 305.4C299.591 304.131 303.636 297.208 305.076 296.013C308.606 293.083 311.46 286.107 313.594 275.191C314.81 268.97 315.566 263.641 315.273 263.349C314.981 263.056 313.523 264.658 312.033 266.908C310.544 269.159 309.166 271 308.971 271C307.955 271 314.287 258.671 318.381 252.68C324.814 243.264 324.875 239.145 318.724 229.704C316.322 226.017 314.016 223 313.599 223C313.182 223 312.552 224.449 312.197 226.221C311.843 227.992 309.473 233.691 306.929 238.884L302.305 248.327L302.036 263.914C301.836 275.521 301.116 282.946 299.215 293C295.922 310.424 289.832 331.857 284.581 344.5C282.297 350 280.015 355.847 279.51 357.494C277.998 362.423 278.467 373.37 280.481 380.145C283.269 389.521 283.648 391.457 282.466 390.274C281.908 389.717 280.139 385.489 278.535 380.88C276.311 374.489 275.62 370.72 275.627 365C275.634 358.224 276.164 356.203 281.113 344.066C288.407 326.179 288.373 325.768 280.078 331.365C262.037 343.538 253.62 357.558 250.501 380.629C248.945 392.15 248.122 393.684 246.576 387.957ZM539.892 342.75C540.175 342.063 541.559 338.931 542.968 335.79C544.377 332.65 545.136 329.837 544.655 329.54C543.852 329.043 537.591 341.073 537.591 343.112C537.591 344.448 539.303 344.178 539.892 342.75ZM534.977 338.225C536.308 335.598 538.335 330.311 539.483 326.475C541.658 319.201 543.793 302.034 542.679 300.773C542.325 300.373 538.674 301.232 534.564 302.683C525.611 305.843 508.824 306.942 498.083 305.072C494.384 304.428 491.098 304.159 490.782 304.475C489.831 305.426 500.246 315.474 515.091 327.926C522.791 334.386 529.708 340.42 530.463 341.335C531.218 342.251 531.998 343 532.196 343C532.395 343 533.646 340.851 534.977 338.225ZM551.16 295.236C550.821 294.897 549.812 295.35 548.918 296.244C546.953 298.209 545.7 305.213 545.74 314L545.77 320.5L548.774 308.177C550.426 301.399 551.5 295.576 551.16 295.236ZM558.392 301.68C562.378 295.802 566.235 286.311 565.099 285.175C563.41 283.486 554.716 297.929 553.013 305.25C551.988 309.66 553.794 308.462 558.392 301.68ZM521.091 303.976C529.171 302.839 542.591 296.818 542.591 294.329C542.591 293.132 541.947 292.92 539.841 293.423C538.328 293.784 533.847 294.345 529.881 294.669C517.885 295.649 508.555 292.236 496.411 282.424C492.718 279.441 489.496 277 489.251 277C488.353 277 483.591 290.094 483.591 292.56C483.591 295.936 486.122 300.679 488.643 302.028C490.298 302.913 500.617 304.151 512.091 304.84C513.191 304.906 517.241 304.517 521.091 303.976ZM352.484 296.75C353.239 295.513 358.146 288.472 363.388 281.106L372.919 267.711L369.005 260.365C366.852 256.324 364.641 253.151 364.091 253.314C362.305 253.841 353.921 271.656 352.155 278.672C350.099 286.845 348.933 299 350.205 299C350.703 299 351.728 297.988 352.484 296.75ZM407.591 295.185C407.591 293.61 398.553 253.478 397.78 251.623C397.128 250.057 395.719 251.436 389.29 259.93C382.51 268.888 381.712 270.379 382.664 272.307C383.259 273.513 388.548 279.284 394.418 285.132C404.129 294.806 407.591 297.448 407.591 295.185ZM540.714 288.454C542.191 287.586 542.112 286.556 539.833 277C538.456 271.225 536.938 266.35 536.46 266.167C535.982 265.983 535.591 264.606 535.591 263.106C535.591 258.817 527.206 239 525.392 239C524.951 239 524.591 239.386 524.591 239.857C524.591 242.148 516.497 283.42 515.95 283.922C514.753 285.02 516.522 265.482 518.116 260C518.995 256.975 519.974 249.441 520.292 243.258C520.765 234.036 520.56 231.207 519.147 227.508C518.2 225.029 517.016 223 516.516 223C516.017 223 513.07 228.062 509.969 234.25C506.868 240.437 501.239 251.23 497.461 258.234C493.682 265.238 490.591 271.616 490.591 272.406C490.591 274.405 498.957 281.356 505.035 284.408C513.309 288.562 520.169 290.009 530.091 289.694C535.041 289.536 539.821 288.978 540.714 288.454ZM554.871 282.769C561.016 278.891 568.975 269.951 572.266 263.229C574.279 259.115 574.735 256.97 574.339 253.461C573.832 248.964 569.044 240.231 567.766 241.472C567.395 241.832 566.354 245.136 565.452 248.813L563.814 255.5L563.703 245.228L563.591 234.955L559.341 230.344C554.118 224.677 546.603 218.902 536.091 212.478C525.516 206.016 514.638 198.083 506.341 190.786C502.629 187.52 499.596 185.22 499.603 185.674C499.611 186.128 501.088 189.147 502.888 192.382C506.3 198.516 507.317 199.287 524.793 209C533.718 213.96 541.683 221.801 545.564 229.446C548.541 235.313 548.785 236.488 548.44 243.327C548.106 249.926 547.642 251.423 544.461 256.149C542.481 259.092 540.544 262.069 540.158 262.764C539.772 263.459 540.891 269.209 542.645 275.542C546.266 288.614 545.927 288.414 554.871 282.769ZM327.069 275.606C338.207 266.43 341.498 262.56 345.579 253.84C350.971 242.316 351.167 229.066 346.044 222.35C342.814 218.115 343.121 217.866 335.314 231.005L329.666 240.509L330.26 247.591C331.111 257.748 329.943 260.698 318.656 276.9C315.656 281.208 314.652 284.497 316.539 283.833C317.061 283.65 321.8 279.948 327.069 275.606ZM259.923 268.642C266.17 265.696 274.164 261.341 277.686 258.966C291.365 249.742 301.419 236.353 304.696 223C306.617 215.173 306.344 199.276 304.078 187C302.767 179.897 302.145 172.132 302.154 163C302.169 148.018 303.49 140.631 309.163 123.786C314.086 109.167 313.616 107.81 306.254 115.386C293.759 128.242 289.609 150.009 294.754 175.699C297.428 189.053 297.617 203.01 295.243 211.947C291.389 226.461 278.509 248.917 268.543 258.5L263.343 263.5L272.585 249.6C282.643 234.472 289.294 221.638 290.284 215.445L290.914 211.5L284.916 219C275.078 231.301 264.631 239.634 250.591 246.379C240.475 251.238 240.813 250.416 244.066 262.238C246.956 272.739 247.392 274 248.137 274C248.372 274 253.676 271.589 259.923 268.642ZM324.282 263.622C326.959 258.339 328.628 248 326.803 248C324.626 248 317.508 266.579 317.624 271.96C317.671 274.141 321.177 269.751 324.282 263.622ZM354.704 262.75C355.888 260.412 362.647 250.554 369.724 240.842C376.801 231.131 382.591 222.973 382.591 222.715C382.591 221.882 371.397 213 370.347 213C369.709 213 369.579 214.851 369.996 218C370.361 220.75 370.479 223 370.259 223C370.039 223 368.908 220.392 367.745 217.204C365.411 210.802 359.938 203.748 355.54 201.474C351.483 199.376 350.98 199.559 349.313 203.739C347.508 208.266 348.114 210.19 353.482 216.982C361.504 227.13 362.017 235.402 355.741 253.406C353.458 259.955 351.591 265.692 351.591 266.156C351.591 267.969 352.642 266.82 354.704 262.75ZM380.421 257.75C385.896 249.331 389.448 241.319 390.228 235.633C390.783 231.582 390.551 230.587 388.557 228.464C387.284 227.109 385.936 226 385.562 226C384.525 226 369.2 244.883 368.31 247.257C367.756 248.737 368.537 251.46 371.011 256.67C372.926 260.701 374.912 264 375.424 264C375.937 264 378.185 261.187 380.421 257.75ZM406.523 254.008C405.211 250.153 403.789 247 403.364 247C402.364 247 402.331 246.758 404.197 253.069C406.077 259.423 407.521 262.403 408.331 261.593C408.649 261.276 407.835 257.862 406.523 254.008ZM541.124 254.552C543.458 248.442 542.813 238.1 539.7 231.7C538.415 229.061 535.265 224.746 532.699 222.111C527.611 216.887 519.893 211.364 518.971 212.287C517.936 213.321 520.667 220.225 527.603 234.114C531.343 241.601 535.202 250.264 536.179 253.364C537.157 256.464 538.287 259 538.691 259C539.095 259 540.19 256.999 541.124 254.552ZM577.28 239.25C575.761 219.857 567.975 199.736 557.808 188.926C551.534 182.256 546.654 178.954 528.091 168.82C516.795 162.653 496.344 149.621 491.197 145.311C489.606 143.978 487.97 143.25 487.562 143.694C487.154 144.137 487.14 146.878 487.531 149.784C488.648 158.084 493.714 162.603 511.402 171.074C519.273 174.843 528.723 179.932 532.402 182.383C539.063 186.819 551.17 198.337 556.176 205C560.704 211.027 565.439 221.903 566.123 227.847C566.633 232.289 567.752 234.946 571.346 240.25C573.861 243.962 576.362 247 576.903 247C577.518 247 577.659 244.082 577.28 239.25ZM334.426 226.421C337.36 221.176 339.55 216.336 339.292 215.664C338.508 213.622 314.789 191.87 314.267 192.715C313.045 194.692 312.472 211.665 313.535 214.407C314.867 217.848 327.375 236.01 328.39 235.978C328.775 235.966 331.492 231.665 334.426 226.421ZM602.591 226.077C602.591 214.303 601.987 213.276 590.38 205.287C577.699 196.561 574.227 195.463 577.143 201.101C577.953 202.667 579.727 208.103 581.086 213.179C582.445 218.256 584.352 223.195 585.324 224.154C587.606 226.407 600.86 235.866 601.841 235.942C602.253 235.974 602.591 231.535 602.591 226.077ZM562.162 224.25C559.753 213.995 547.585 197.829 535.148 188.359C525.014 180.643 510.591 173.378 510.591 175.989C510.591 176.456 514.078 180.076 518.341 184.034C525.472 190.655 525.741 191.041 521.706 188.865C519.294 187.564 511.419 180.998 504.206 174.274C496.993 167.55 490.753 162.038 490.341 162.024C489.147 161.986 489.47 165.779 490.959 169.282C491.712 171.052 497.449 177.486 503.709 183.579C512.736 192.366 519.023 197.273 534.091 207.29C544.541 214.237 554.891 221.497 557.091 223.423C561.946 227.674 563.007 227.847 562.162 224.25ZM207.591 221.722C207.591 219.504 214.194 206.556 218.094 201.128C220.154 198.261 221.607 195.683 221.323 195.399C220.323 194.399 195.419 205.85 194.159 207.89C193.552 208.872 196.484 212.878 202.473 219.25C206.161 223.175 207.591 223.865 207.591 221.722ZM387.211 217.377C388.259 213.203 384.821 207.679 372.266 193.356C360.937 180.434 358.874 178.383 358.038 179.22C357.807 179.451 359.524 185.298 361.854 192.214L366.091 204.789L375.591 212.32C380.816 216.462 385.42 219.885 385.822 219.926C386.224 219.967 386.849 218.819 387.211 217.377ZM459.585 212.691C459.578 208.664 457.762 202 456.672 202C454.97 202 454.547 209.96 456.058 213.575C457.794 217.73 459.593 217.279 459.585 212.691ZM602.949 208.25C603.22 207.287 603.74 204.925 604.105 203C605.7 194.593 608.946 182.279 610.231 179.763C610.999 178.258 613.03 175.431 614.743 173.48L617.857 169.933L617.131 156.226C616.731 148.688 615.981 141.728 615.462 140.76C613.367 136.845 612.59 139.384 612.558 150.25L612.524 161.5L610.457 159.015C608.628 156.817 608.417 155.378 608.63 146.515C608.957 132.919 609.173 133.631 603.84 130.771C599.604 128.499 597.523 128.154 584.59 127.582C576.615 127.229 566.49 126.68 562.09 126.362L554.09 125.783L562.09 133.943C568.574 140.557 571.64 142.833 578.268 145.953C593.721 153.227 602.591 166.472 598.688 176.446C598.081 177.998 597.68 177.413 596.71 173.562C595.296 167.948 592.361 161.891 588.763 157.166C585.828 153.311 577.164 148.023 573.761 148.009C571.757 148.001 571.505 148.385 571.958 150.75C573.349 158.013 573.777 166.233 572.729 165.586C571.345 164.73 568.59 155.535 568.59 151.769C568.59 146.135 563.383 139.77 561.912 143.605C561.076 145.781 562.358 161.258 563.658 164.688C565.067 168.408 568.105 171.634 573.59 175.238C578.528 178.483 576.206 178.279 568.847 174.822C561.372 171.31 558.682 165.062 558.59 151C558.474 133.221 554.58 128.372 533.913 120.267C517.54 113.846 508.406 107.999 497.59 97.0166C490.898 90.2219 486.335 84.4334 482.154 77.4352C473.125 62.3262 463.091 48.5417 457.825 44.0144C451.928 38.9444 444.59 34.511 444.59 36.0182C444.59 37.6904 452.727 49.9869 462.115 62.5C472.537 76.3922 475.756 82.2553 479.134 93.5C480.622 98.45 482.965 104.736 484.343 107.47C486.931 112.606 497.465 123.563 501.227 125.031C502.402 125.489 509.377 125.667 516.727 125.426C531.745 124.933 532.318 125.455 518.754 127.272C513.678 127.952 509.427 128.956 509.307 129.504C509.188 130.052 510.829 131.349 512.954 132.387C515.779 133.766 520.137 134.449 529.168 134.929C540.319 135.521 541.765 135.816 544.055 137.967C545.501 139.325 546.588 141.455 546.585 142.924L546.581 145.5L544.336 142.844C541.003 138.9 538.466 138 530.688 138C522.49 138 522.197 138.975 529.083 143.331C534.479 146.745 543.265 154.522 544.65 157.11C545.202 158.142 540.127 155.187 533.373 150.545C496.726 125.358 488.591 119.988 488.591 120.984C488.591 122.998 492.377 129.454 496.066 133.732C500.149 138.466 515.036 149.017 533.091 159.973C560.148 176.391 578.321 189.409 593.494 203.24C597.573 206.958 601.258 210 601.683 210C602.109 210 602.678 209.212 602.949 208.25ZM401.858 190.613C400.635 180.163 398.546 174.672 394.88 172.27C392.127 170.466 365.508 160.75 364.922 161.335C364.711 161.547 367.737 165.495 371.647 170.11C379.901 179.85 388.019 191.795 392.569 200.895L395.766 207.291L399.367 203.691L402.967 200.09L401.858 190.613ZM346.553 202.116C347.258 199.979 347.667 197.801 347.463 197.276C346.609 195.082 322.076 176.296 321.77 177.602C321.107 180.434 327.372 189.786 335.269 197.75C339.767 202.287 343.858 206 344.359 206C344.861 206 345.848 204.252 346.553 202.116ZM207.159 196.336C225.267 187.058 231.342 184.798 244.153 182.576C273.04 177.565 275.387 172.522 261.617 145.052C258.294 138.423 255.2 133 254.742 133C254.284 133 253.375 135.388 252.722 138.306C249.264 153.758 237.505 169.875 218.577 185.11C207.812 193.774 209.083 191.383 222.125 178.434C241.028 159.667 246.916 150.395 249.86 134.758C251.08 128.275 250.326 126.447 247.922 130.06C244.589 135.069 234.241 143.936 227.776 147.322C224.099 149.248 217.266 152.407 212.591 154.342C207.916 156.277 197.981 160.761 190.513 164.307C178.894 169.824 176.748 171.206 175.639 173.883C174.036 177.755 174.715 181.378 178.549 189.413C181.453 195.497 189.148 205.374 190.531 204.793C190.914 204.632 198.396 200.826 207.159 196.336ZM358.083 191.975C356.589 187.491 355.026 184.2 354.609 184.662C353.513 185.872 352.564 194.361 353.391 195.557C354.369 196.973 360.011 200.913 360.442 200.482C360.638 200.287 359.576 196.458 358.083 191.975ZM452.591 196.181C452.591 190.489 450.404 182.681 447.651 178.547C445.877 175.883 445.614 175.777 444.964 177.47C443.388 181.576 448.829 201 451.555 201C452.126 201 452.591 198.837 452.591 196.181ZM636.697 192.446C639.648 187.204 642.39 178.465 641.395 177.471C640.569 176.645 626.591 185.733 626.591 187.096C626.591 189 632.043 198.014 633.002 197.695C633.503 197.529 635.165 195.167 636.697 192.446ZM494.811 184.32C488.588 173.172 486.093 166.993 484.963 159.926C484.389 156.338 483.172 154.849 474.748 147.426C469.487 142.792 464.789 139 464.308 139C461.833 139 467.02 154.235 472.145 162.018C475.945 167.79 478.641 174 477.346 174C477.092 174 474.761 170.807 472.166 166.905C469.571 163.002 467.202 160.056 466.901 160.356C465.938 161.319 468.761 180.896 470.013 181.935C473.04 184.447 499.188 196.687 499.971 195.958C500.464 195.5 498.191 190.374 494.811 184.32ZM465.576 190.437C465.587 188.329 464.659 186.482 462.601 184.51C460.957 182.935 459.389 181.868 459.118 182.14C458.846 182.411 459.821 185.651 461.284 189.339C464.015 196.221 465.545 196.613 465.576 190.437ZM408.762 193.345C409.768 192.435 410.591 191.127 410.591 190.438C410.591 188.142 404.357 175.48 403.873 176.792C403.292 178.367 405.568 195 406.365 195C406.678 195 407.756 194.255 408.762 193.345ZM418.106 190.071C417.408 186.893 415.591 185.805 415.591 188.566C415.591 190.549 417.584 194.34 418.267 193.657C418.55 193.374 418.478 191.761 418.106 190.071ZM349.961 190.75C350.292 189.512 350.57 185.22 350.577 181.21C350.596 171.932 348.582 167.818 340.875 161.383C337.694 158.727 333.157 154.826 330.794 152.714C328.094 150.3 325.721 148.99 324.406 149.187C321.484 149.625 318.591 155.543 318.591 161.084C318.591 165.986 321.218 170.579 327.262 176.245C330.985 179.735 347.883 192.89 348.724 192.953C349.073 192.979 349.629 191.987 349.961 190.75ZM631.539 177.41C652.491 157.645 647.539 137.196 620.202 130.59C617.334 129.897 617.317 129.921 617.835 133.784C618.147 136.111 619.801 139.568 621.946 142.379C628.328 150.74 628.622 155.492 623.558 168.5C619.671 178.487 619.311 180.577 621.161 182.428C622.026 183.292 623.143 184 623.644 184C624.144 184 627.697 181.035 631.539 177.41ZM462.099 161.972C460.203 154.012 458.404 146.487 458.102 145.25C457.164 141.408 455.652 142.722 452.057 150.504C447.069 161.303 447.229 162.097 456.156 170.851C460.722 175.329 464.083 177.908 464.634 177.357C465.186 176.805 464.181 170.707 462.099 161.972ZM113.583 153.587C120.737 145.935 126.591 139.297 126.591 138.837C126.591 137.627 124.827 137.808 124.029 139.099C122.82 141.056 111.574 145.815 106.513 146.511C103.806 146.883 101.575 147.483 101.555 147.844C101.536 148.205 100.939 152.899 100.23 158.275C99.5208 163.651 99.3083 167.926 99.7576 167.775C100.207 167.624 106.428 161.239 113.583 153.587ZM43.4983 163.181C45.2052 159.835 50.2159 137.204 49.3992 136.529C49.2295 136.388 47.0658 135.534 44.5908 134.631C40.3892 133.097 41.6792 133.043 47.6711 134.503C50.039 135.08 50.5077 134.612 53.3646 128.816C55.0769 125.342 58.5283 120.101 61.0343 117.168C63.5404 114.236 65.5908 111.035 65.5908 110.056C65.5908 108.203 56.0699 90.4141 54.5883 89.4984C53.3684 88.7445 50.4949 93.1359 44.7675 104.507C37.4973 118.941 34.4898 131.861 38.3408 132.116C39.885 132.218 39.8961 132.284 38.4353 132.671C36.0093 133.315 35.5239 136.678 36.5723 145.578C37.594 154.251 39.5162 165.067 40.246 166.25C41.0411 167.539 41.4927 167.113 43.4983 163.181ZM399.591 165.404C399.591 164.05 396.317 153.443 395.687 152.757C394.747 151.733 383.409 158.954 383.855 160.292C384.053 160.886 387.112 162.377 390.653 163.607C397.411 165.955 399.591 166.393 399.591 165.404ZM183.446 162.592C185.544 161.267 195.299 156.532 205.123 152.069C223.214 143.851 232.591 138.629 232.591 136.771C232.591 136.191 231.403 135.987 229.841 136.298C228.328 136.6 224.166 137.166 220.591 137.555C217.016 137.944 213.206 138.722 212.124 139.283C211.01 139.86 204.44 140.208 196.963 140.084C181.792 139.833 183.59 138.429 181.076 152.5C180.192 157.45 179.241 162.287 178.962 163.25C178.296 165.552 178.896 165.464 183.446 162.592ZM622.123 159.683C622.989 155.067 622.334 149.734 620.841 149.244C619.92 148.941 619.591 150.698 619.591 155.917C619.591 163.282 621.042 165.441 622.123 159.683ZM450.549 147.866C452.862 142.293 454.547 136.941 454.294 135.974C454.041 135.007 450.581 128.28 446.604 121.025L439.374 107.833L436.391 110.667C430.778 115.998 428.074 123.774 429.553 130.333C430.73 135.552 444.056 158 445.977 158C446.178 158 448.236 153.44 450.549 147.866ZM365.171 151.538C363.298 149.083 360.395 143.521 358.72 139.178C351.62 120.767 352.652 107.234 362.007 96.0823C364.045 93.6526 366.41 90.3172 367.261 88.6702C369.174 84.9718 370.251 74.5257 368.811 73.636C368.243 73.285 365.647 75.3607 363.041 78.2489C351.485 91.0591 346.664 102.341 345.839 118.501C345.213 130.78 346.899 144.556 349.451 148C351.958 151.384 361.044 156 365.198 156H368.578L365.171 151.538ZM386.108 151.934C393.41 147.556 393.491 147.295 393.629 127.981L393.754 110.5L390.422 110.533C388.59 110.551 384.166 110.859 380.591 111.217L374.091 111.868L380.591 109.904C391.097 106.728 393.849 104.993 396.3 100C397.514 97.5251 398.527 94.5583 398.55 93.4072C398.576 92.0332 394.627 87.3963 387.049 79.9072C380.701 73.6333 375.112 68.362 374.628 68.1932C373.144 67.6748 372.236 78.8774 373.441 82.8516C374.049 84.8583 377.032 89.7923 380.069 93.8161C385.325 100.781 386.485 103 384.866 103C384.467 103 381.147 100.03 377.489 96.3988L370.836 89.7975L366.339 96.1488C359.95 105.172 358.443 108.541 357.845 115.132C356.472 130.276 365.743 151.29 374.942 153.883C378.722 154.948 382.05 154.367 386.108 151.934ZM483.591 143.622C483.591 139.808 483.104 137.846 481.917 136.872C478.244 133.86 471.552 123.552 469.931 118.409C468.986 115.412 467.735 113.118 467.152 113.311C466.568 113.504 465.307 116.551 464.349 120.081C462.21 127.962 462.957 130.863 468.852 137.56C472.801 142.046 481.227 148.922 482.841 148.975C483.253 148.989 483.591 146.58 483.591 143.622ZM95.3897 125.499C95.1622 113.699 95.3859 109.997 96.3264 109.999C97.6632 110.001 104.063 98.1392 103.195 97.2704C102.145 96.2212 92.9466 99.2229 86.5908 102.688C83.0158 104.638 78.4084 107.088 76.3521 108.134C70.0547 111.337 69.3561 113.292 70.0802 125.683C70.659 135.589 70.5808 136.337 69.1515 134.559C68.1142 133.269 67.5672 130.418 67.5205 126.059C67.482 122.451 67.1089 118.628 66.6917 117.563C66.0251 115.86 65.4427 116.246 61.8801 120.753C56.4871 127.576 52.9042 134.958 54.5052 135.947C55.162 136.353 60.2874 137.473 65.895 138.437C71.5027 139.4 76.7658 140.319 77.5908 140.478C78.4158 140.638 82.8253 140.82 87.3897 140.884L95.6886 141L95.3897 125.499ZM115.091 137.071C118.391 135.55 123.686 132.18 126.857 129.584L132.623 124.864L130.865 121.887C126.709 114.852 124.505 113.725 112.342 112.42C106.154 111.755 100.993 111.3 100.873 111.407C100.753 111.514 100.176 115.83 99.5912 120.997C98.645 129.349 98.9712 137.99 100.321 140.321C101.11 141.684 108.717 140.01 115.091 137.071ZM208.038 128.25C207.838 123.437 207.655 119.376 207.632 119.224C207.51 118.409 200.945 122.588 197.598 125.612C193.872 128.978 191.753 133.835 193.076 135.976C193.424 136.539 197.015 137 201.056 137H208.403L208.038 128.25ZM225.716 133.885C240.69 129.923 241.14 129.467 239.013 120.399C236.192 108.376 238.755 96.5278 246.334 86.5572C248.4 83.8387 257.291 75.8226 266.091 68.7437C289.326 50.0531 298.55 41.988 300.022 39.0749C301.809 35.5403 302.728 29.768 301.749 28.2244C300.5 26.2525 278.242 43.2408 259.657 60.3518C256.119 63.6095 248.019 70.4293 241.657 75.5068C227.499 86.8075 227.213 87.1236 223.985 95.0675C222.553 98.5921 219.094 105.978 216.298 111.48C212.69 118.582 211.09 122.996 210.783 126.696C210.284 132.708 211.119 137 212.787 137C213.423 137 219.242 135.598 225.716 133.885ZM190.673 132.75C191.402 130.962 197.512 123.782 204.25 116.793C215.45 105.176 223.181 94.7636 222.011 92.8705C221.49 92.0279 186.924 103.479 184.888 105.168C183.432 106.376 183.241 112.77 184.241 126.846C184.851 135.452 185.024 136 187.119 136C188.695 136 189.736 135.048 190.673 132.75ZM458.41 127.21C460.662 119.693 463.93 103.413 463.988 99.4201C464.044 95.6268 461.04 86.9675 459.689 87.0258C459.36 87.0401 458.258 88.8571 457.24 91.064C456.074 93.593 452.829 97.1452 448.463 100.673C441.985 105.907 441.625 106.406 442.893 108.384C443.639 109.548 446.849 115.112 450.026 120.75C453.203 126.387 456.133 131 456.538 131C456.943 131 457.785 129.295 458.41 127.21ZM249.103 114.75C258.412 101.648 261.618 98.0255 269.353 91.8671C275.938 86.624 280.906 83.872 298.94 75.4781C303.357 73.4226 305.476 71.6742 307.588 68.3426C310.961 63.024 315.081 53.1566 314.268 52.3434C313.63 51.7054 302.195 59.5999 296.591 64.5473C294.666 66.2468 291.516 68.5626 289.591 69.6936C285.488 72.1044 272.567 77.3093 272.026 76.769C271.314 76.0566 316.439 46.9569 322.243 44.386C325.459 42.9612 331.241 41.1505 335.091 40.362C343.145 38.7125 346.355 36.7523 348.9 31.9289C351.412 27.1672 350.563 19.5178 347.144 16.0986L344.651 13.606L337.954 20.303C331.771 26.4861 328.974 28.7792 331.31 25.75C331.84 25.0625 333.743 21.8864 335.539 18.692L338.804 12.8841L334.947 14.4894C329.969 16.5616 323.375 22.932 318.374 30.5C314.606 36.2024 314.44 36.3264 315.025 33C316.231 26.1398 322.934 18.095 332.23 12.3503C333.77 11.3988 333.346 11.2672 329.773 11.5871C322.048 12.2786 306.593 24.6318 306.59 30.118C306.59 30.8781 305.291 34.2 303.703 37.5C299.996 45.2068 289.088 55.6311 268.591 71.0559C258.24 78.8454 245.521 91.2488 243.013 96C240.532 100.699 239.539 123 241.81 123C242.597 123 245.879 119.287 249.103 114.75ZM142.321 117.25L148.091 113.5L144.591 113.167C139.611 112.693 130.591 113.96 130.591 115.134C130.591 116.744 133.988 120.935 135.321 120.969C135.998 120.986 139.148 119.312 142.321 117.25ZM606.591 114.695C606.591 112.981 597.868 102.462 586.293 90.2139C575.262 78.5419 569.476 71.176 563.132 60.7273C560.552 56.4773 558.025 53 557.516 53C557.007 53 556.591 54.2453 556.591 55.7673C556.591 59.1733 562.826 80.6207 565.088 84.9946C565.996 86.7498 566.531 88.3937 566.276 88.6477C565.34 89.5841 558.576 80.1907 555.688 73.9432C552.832 67.7649 552.023 64.3887 549.523 48.2157C545.651 23.1692 529.464 13.648 490.591 13.5513C477.677 13.5192 474.462 13.8129 471.323 15.3116C467.881 16.9553 467.589 17.4092 467.938 20.5767C468.675 27.2645 473.538 30.4413 484.591 31.4551C511.451 33.9189 519.861 36.5147 529.158 45.2116C536.223 51.8206 537.865 54.9692 531.7 50.0867C527.095 46.4392 514.518 40.3162 509.658 39.3554L506.224 38.6767L508.42 41.7595C512.011 46.8024 516.291 49.8329 528.508 55.9819C535.186 59.3429 541.55 63.3336 543.537 65.4058C545.432 67.3826 546.595 69 546.12 69C544.314 69 519.807 55.5835 513.759 51.2834C509.817 48.4812 506.145 44.778 504.032 41.4753C500.35 35.7188 500.07 35.5941 488.341 34.4812C484.389 34.1063 481.591 34.2262 481.591 34.7703C481.591 35.2816 482.996 37.6398 484.714 40.0107C486.431 42.3817 490.742 49.0867 494.293 54.9108C501.755 67.1493 505.687 71.5245 514.222 77.0857L520.369 81.0903L524.119 78.5451C527.046 76.5589 529.102 76.0033 533.48 76.0153C541.562 76.0372 543.227 77.6412 535.731 78.1835C529.76 78.6153 524.544 81.354 526.317 83.1253C526.743 83.5502 532.87 84.7813 539.933 85.8611C550.192 87.4294 553.258 88.2785 555.179 90.0827C558.302 93.0171 557.764 93.388 553.168 91.4676C551.116 90.6104 544.825 89.5038 539.188 89.0085C528.282 88.0503 522.002 86.0806 513.838 81.057C511.105 79.3757 508.553 78 508.166 78C506.278 78 512.841 86.958 518.723 92.4095C534.402 106.941 562.035 115.337 595.841 115.84C604.099 115.963 606.591 115.697 606.591 114.695ZM119.591 107.657C119.591 105.013 115.991 94.0001 114.707 92.716C113.227 91.236 101.591 106.091 101.591 109.46C101.591 109.757 105.641 110 110.591 110C119.364 110 119.591 109.941 119.591 107.657ZM165.591 105.139C180.197 101.299 200.795 92.8709 199.279 91.355C198.998 91.0742 194.341 91.3758 188.93 92.0255C172.203 94.0332 149.595 91.1115 133.333 84.8404L125.421 81.7889L122.587 84.504C121.028 85.9973 119.478 88.3117 119.143 89.647C118.343 92.8371 120.17 99.4228 123.373 104.89L125.945 109.28L140.018 108.722C151.209 108.277 156.446 107.543 165.591 105.139ZM82.2204 100.483C86.1417 98.2343 92.6667 95.3436 96.7204 94.0591C111.018 89.5287 112.225 88.9483 116.585 84.5058L120.986 80.0218L118.038 76.8813C115.354 74.0214 115.305 73.8518 117.487 74.9839C122.343 77.5029 127.389 75.7503 143.108 66.0858C156.185 58.0453 161.487 53.9836 161.569 51.9438C161.615 50.7709 139.647 47.9814 130.591 48.0103C115.718 48.0576 96.9217 53.0599 82.2389 60.8785C60.1868 72.6213 50.5908 78.8141 50.5908 81.3027C50.5908 81.8274 53.4556 85.2936 56.9571 89.0054C60.4585 92.7171 64.54 98.2408 66.0272 101.28C69.4835 108.345 69.4559 108.323 72.511 106.289C73.9299 105.344 78.2991 102.732 82.2204 100.483ZM418.586 103.966C422.708 103.431 427.553 102.507 429.353 101.914L432.624 100.834L426.007 93.6865C422.367 89.7555 417.583 83.2477 415.375 79.2246C413.167 75.2016 410.882 72.0696 410.297 72.2647C408.43 72.887 403.591 89.0794 403.591 94.7048C403.591 98.745 403.235 100 402.091 100C401.266 100 400.591 100.413 400.591 100.918C400.591 101.423 400.318 102.548 399.984 103.418C399.472 104.752 400.297 104.995 405.234 104.969C408.455 104.952 414.464 104.501 418.586 103.966ZM445.646 92.9703C447.88 91.7747 450.591 86.9583 450.591 84.184C450.591 80.4008 443.488 68.1766 437.479 61.6193C432.048 55.6922 420.693 46 419.18 46C418.311 46 415.591 53 415.591 55.2363C415.591 56.4161 419.159 60.7501 424.341 65.8642C429.153 70.6139 434.163 76.525 435.473 79C437.759 83.3186 437.496 83.1473 428.953 74.75C416.135 62.1502 415.541 62.9088 424.945 79.8736C428.627 86.5158 432.257 91.8051 433.67 92.5882C436.572 94.1958 442.975 94.4001 445.646 92.9703ZM191.155 86.1029C206.145 83.0093 218.57 76.453 230.742 65.2156C236.244 60.1356 254.591 39.6172 254.591 38.5437C254.591 37.2971 230.635 42.2922 223.004 45.1299C217.082 47.3323 215.038 50.2501 215.973 55.1686C217.716 64.3375 217.271 66.261 215.376 57.75C214.181 52.3875 212.913 48 212.556 48C211.5 48 206.985 57.0114 204.541 64C201.557 72.5303 200.591 73.4354 200.591 67.7C200.591 65.115 200.356 63 200.069 63C199.781 63 195.966 64.8 191.591 67C187.215 69.2 183.288 70.9778 182.863 70.9508C182.438 70.9236 185.241 69.2965 189.091 67.3347C192.941 65.3729 197.891 62.3045 200.091 60.5159C204.168 57.2013 209.264 49.4786 207.864 48.737C207.439 48.512 197.866 49.0499 186.591 49.9324L166.091 51.537L161.402 56.0185C156.222 60.9695 154.791 63.8232 154.791 69.1993C154.791 74.0063 153.853 76.6853 151.91 77.4311C149.503 78.3546 149.274 77.5124 151.017 74.1426C152.785 70.7228 153.086 66.4241 151.62 65.5181C150.548 64.8557 148.302 65.9186 135.195 73.289C126.646 78.0969 126.393 78.3387 128.695 79.5044C135.877 83.1402 161.152 87.7053 175.091 87.884C178.941 87.9333 186.17 87.1319 191.155 86.1029ZM404.098 77.2921C405.657 72.4564 407.53 67.082 408.261 65.3488C408.993 63.6157 409.591 61.5442 409.591 60.7456C409.591 59.4024 396.568 49.9456 394.853 50.0435C394.434 50.0673 390.346 53.5644 385.768 57.8146L377.446 65.5422L388.513 76.3338C394.599 82.2692 399.958 86.8911 400.421 86.6048C400.885 86.3185 402.539 82.1277 404.098 77.2921ZM74.0908 61.5076C79.0408 59.2007 88.4082 55.3826 94.9073 53.0231C101.406 50.6636 106.356 48.3875 105.907 47.9652C105.458 47.5429 100.591 45.964 95.0908 44.4566C79.3016 40.1291 60.4819 40.9489 52.4025 46.3161C44.3244 51.6825 42.1796 65.6188 48.0524 74.5818L49.5833 76.9182L57.3371 71.3101C61.6016 68.2257 69.1408 63.8146 74.0908 61.5076ZM365.28 70.7455C373.525 62.1586 376.424 55.9828 378.637 42.2907C379.769 35.2827 379.061 24.1083 377.582 25.6361C376.378 26.8791 357.591 74.5493 357.591 76.3602C357.591 78.0682 359.791 76.4619 365.28 70.7455ZM417.015 72.75C414.013 63.239 412.782 61.9261 411.231 66.5803C410.522 68.7058 410.864 69.6754 413.168 72.0803C416.513 75.572 417.987 75.8285 417.015 72.75ZM321.403 67.317C328.291 64.0679 337.031 55.4964 340.98 48.1161L343.861 42.7323L338.976 43.4178C322.319 45.7551 317.348 50.414 314.082 66.75C313.279 70.7638 313.98 70.8181 321.403 67.317ZM386.905 52.3739C389.482 50.1046 391.591 47.849 391.591 47.3616C391.591 46.8742 389.819 43.1083 387.653 38.9928C383.355 30.8236 383.046 30.9455 382.223 41.1382C381.928 44.7892 380.765 50.3986 379.639 53.6036C378.512 56.8085 377.591 59.5914 377.591 59.7879C377.591 60.269 381.224 57.3774 386.905 52.3739ZM411.068 50.8285C414.035 49.4764 415.272 45.8236 413.984 42.2131C412.262 37.3842 410.382 37.3376 404.244 41.972C401.135 44.3195 398.591 46.6582 398.591 47.169C398.591 48.0073 406.088 51.9247 407.794 51.978C408.18 51.9901 409.654 51.4728 411.068 50.8285ZM441.453 38.9365C435.505 29.3797 429.146 22.9141 427.514 24.763C426.237 26.2099 424.807 31.7311 425.443 32.7577C426.338 34.2009 447.007 49.9081 447.444 49.4765C447.637 49.2847 444.942 44.5418 441.453 38.9365ZM401.676 39.75C404.897 37.4125 407.546 35.1105 407.562 34.6345C407.577 34.1584 405.621 30.7834 403.213 27.1345C400.805 23.4855 398.541 19.5386 398.181 18.3637C397.745 16.9371 396.229 15.8976 393.618 15.2348C390.288 14.3895 389.402 14.5268 387.649 16.1601C385.087 18.5469 385.088 19.7272 387.661 29.007C389.819 36.7956 393.293 44 394.89 44C395.402 44 398.456 42.0875 401.676 39.75ZM423.564 22.0588C423.53 18.7594 418.865 13.2806 415.384 12.4505C413.06 11.8962 412.585 12.1731 412.024 14.4098C411.3 17.2958 412.468 19.5257 417.557 24.9675C420.666 28.2918 420.857 28.3562 422.195 26.5263C422.963 25.4766 423.579 23.4662 423.564 22.0588Z" fill="#2D545E"/>
</svg>
