<svg width="636" height="449" viewBox="0 0 636 449" fill="none" xmlns="http://www.w3.org/2000/svg">
<g clip-path="url(#clip0_1494_4974)">
<path d="M232 448.004C232 447.454 231.1 447.004 230 447.004C228.691 447.004 228 446.337 228 445.073C228 443.864 227.197 443.023 225.852 442.823C224.671 442.647 223.208 441.604 222.602 440.504C221.996 439.404 220.937 438.144 220.25 437.704C219.562 437.264 219 435.097 219 432.888C219 430.679 218.504 427.945 217.897 426.811C217.05 425.228 217.108 424.546 218.147 423.876C219.186 423.206 219.219 422.821 218.288 422.218C216.847 421.284 217.725 417.017 219.367 416.973C219.99 416.958 219.713 416.484 218.75 415.924C217.788 415.363 217 414.444 217 413.883C217 412.118 219.927 409.844 221.242 410.587C222.249 411.155 222.251 411.028 221.25 409.95C219.565 408.135 219.669 406.004 221.441 406.004C222.234 406.004 223.167 405.542 223.516 404.979C223.864 404.415 223.778 404.019 223.325 404.097C220.657 404.561 220.163 403.765 220.506 399.562C220.705 397.119 221.412 394.103 222.077 392.86C222.973 391.186 222.99 390.5 222.144 390.218C220.42 389.643 220.765 386.435 223 382.265C224.1 380.212 225 377.536 225 376.318C225 375.1 225.788 373.644 226.75 373.084C227.903 372.413 228.039 372.054 227.149 372.034C226.073 372.01 225.943 370.524 226.513 364.754C226.907 360.766 227.644 356.715 228.152 355.75C228.659 354.786 229.186 349.611 229.323 344.25C229.554 335.176 229.41 334.348 227.234 332.254C225.949 331.016 224.09 330.004 223.104 330.004C220.7 330.004 218.844 327.751 214.868 320.004C213.033 316.429 210.962 313.144 210.266 312.704C209.57 312.264 209 311.042 209 309.989C209 308.935 207.65 306.536 206 304.656C202.481 300.648 202.273 299.369 204.999 298.504C206.563 298.008 206.789 297.479 206.039 296.077C204.7 293.574 205.904 287.004 207.702 287.004C209.601 287.004 211.54 284.991 212.564 281.957C213.592 278.911 213.255 276.991 211.312 274.817C210.483 273.889 210.112 272.539 210.489 271.817C210.865 271.094 210.269 271.617 209.163 272.978C207.206 275.387 207.1 275.404 205.135 273.626C204.025 272.621 201.972 271.733 200.573 271.652C198.923 271.556 198.111 270.976 198.264 270.004C198.436 268.908 197.726 268.586 195.627 268.811C193.044 269.087 192.815 268.877 193.356 266.722C194.06 263.917 190.588 260.255 187.75 260.809C186.787 260.997 186 260.667 186 260.077C186 259.487 185.345 259.004 184.544 259.004C183.743 259.004 180.913 257.721 178.254 256.154C174.692 254.054 172.847 253.516 171.238 254.111C168.795 255.015 157.779 251.84 157.186 250.062C156.992 249.48 155.732 249.004 154.385 249.004C153.039 249.004 151.679 248.331 151.364 247.509C151.048 246.688 150.41 246.25 149.945 246.537C148.631 247.35 146.757 243.052 147.266 240.392C147.517 239.078 147.335 238.004 146.861 238.004C146.388 238.004 146 237.405 146 236.673C146 235.941 144.875 234.74 143.5 234.004C142.125 233.268 141 232.067 141 231.335C141 230.603 140.325 230.004 139.5 230.004C138.586 230.004 138 229.072 138 227.62C138 226.121 137.296 225.053 136.103 224.741C134.254 224.257 134.252 224.347 135.999 228.251C136.986 230.455 138.305 232.574 138.93 232.961C140.401 233.87 139.209 237.004 137.393 237.004C136.627 237.004 136 236.544 136 235.982C136 235.42 134.863 234.443 133.474 233.81C132.085 233.177 131.124 232.174 131.339 231.581C131.863 230.136 130.189 227.004 128.893 227.004C127.577 227.004 125 224.459 125 223.158C125 222.615 125.562 221.961 126.25 221.706C126.954 221.445 126.302 220.765 124.759 220.151C122.757 219.354 122.07 218.431 122.211 216.73C122.457 213.749 117.464 207.158 114.371 206.382C113.067 206.055 112 205.161 112 204.395C112 203.63 111.599 203.004 111.108 203.004C110.618 203.004 109.944 201.918 109.611 200.591C109.278 199.264 107.658 196.907 106.011 195.352C104.06 193.51 103.212 191.911 103.577 190.76C103.918 189.686 103.525 188.759 102.575 188.394C101.715 188.064 101.26 187.392 101.564 186.9C102.153 185.947 102.811 178.899 103.122 170.209C103.227 167.28 102.795 164.399 102.156 163.759C100.258 161.862 100.831 160.229 103.75 159.21L106.5 158.25L103.75 157.519C102.237 157.116 101 156.386 101 155.895C101 155.405 100.209 155.004 99.2427 155.004C97.662 155.004 92 147.25 92 145.085C92 144.625 91.372 143.727 90.6046 143.09C89.8371 142.454 88.9367 140.48 88.6037 138.705C88.2255 136.689 87.1558 135.107 85.7549 134.49C84.5211 133.948 83.3533 132.663 83.1597 131.635C82.909 130.304 83.1948 129.989 84.1538 130.54C84.8942 130.965 84.2624 129.981 82.75 128.354C81.2375 126.726 80 124.576 80 123.576C80 122.149 79.7054 122.003 78.6267 122.898C76.5312 124.638 73.2447 122.853 66.4796 116.301C65.7968 115.64 65.0357 115.301 64.7883 115.549C63.8512 116.486 52.4639 113.757 51.7003 112.412C50.6859 110.626 49 110.583 49 112.343C49 113.08 47.875 114.195 46.5 114.822C45.125 115.448 44 116.42 44 116.982C44 117.544 43.2984 118.004 42.4409 118.004C41.5835 118.004 41.1199 118.389 41.4107 118.859C41.7015 119.33 40.828 119.502 39.4697 119.243C38.1113 118.983 37 118.148 37 117.387C37 116.626 36.5414 116.004 35.9809 116.004C35.4204 116.004 35.1968 117.016 35.484 118.254C35.8718 119.925 34.9671 121.597 31.9669 124.754C29.7454 127.091 27.494 129.004 26.9638 129.004C26.4337 129.004 26 129.48 26 130.063C26 130.645 25.584 130.865 25.0756 130.55C24.5673 130.236 24.0048 130.731 23.8256 131.651C23.4361 133.651 11.3828 137.432 10.4109 135.859C9.57791 134.512 12.9168 131.004 15.0325 131.004C15.9799 131.004 17.3153 130.329 18 129.504C18.6846 128.679 19.8647 128.004 20.6224 128.004C21.3801 128.004 22 127.204 22 126.226C22 125.248 22.7251 123.413 23.6113 122.148C25.1663 119.928 25.1517 119.892 23.1925 121.115C21.5454 122.144 20.864 122.136 19.5812 121.071C18.2785 119.99 17.7223 119.989 16.4237 121.067C15.1175 122.151 14.6911 122.129 13.9342 120.939C13.4319 120.15 13.2271 118.941 13.4791 118.254C13.7672 117.467 13.0211 117.003 11.4686 117.003C9.94091 117.003 8.99995 116.432 8.99995 115.503C8.99995 114.678 8.50181 114.003 7.89296 114.003C7.28412 114.003 7.045 113.328 7.36158 112.503C7.72314 111.561 7.35126 111.003 6.36158 111.003C5.37189 111.003 5.00002 110.446 5.36158 109.503C5.67816 108.678 5.5013 108.003 4.96857 108.003C4.43583 108.003 3.99995 106.834 3.99995 105.405C3.99995 102.466 9.535 96.611 11.5733 97.3932C12.2669 97.6594 13.1005 97.1839 13.4256 96.3365C13.7578 95.471 14.6704 95.0467 15.5084 95.3683C16.4132 95.7155 17 95.363 17 94.4721C17 93.6643 16.55 93.0034 16 93.0034C14.3039 93.0034 14.8967 91.1771 16.75 90.6928C18.3395 90.2774 18.3309 90.2248 16.6563 90.1194C15.5921 90.0525 14.5916 90.8489 14.2897 92.0034C13.7116 94.2142 12.3829 94.6521 11.7761 92.8319C11.555 92.1685 9.67556 91.7174 7.44279 91.7918C3.80633 91.9129 3.36397 91.6288 1.74995 88.1357C-0.506667 83.2518 -0.486468 81.7143 1.82468 82.4478C3.0941 82.8507 4.04986 82.2787 4.96528 80.5682C7.17284 76.4434 12 76.1697 12 80.1694C12 81.2431 12.4099 81.8681 12.9109 81.5585C13.4119 81.2488 13.7379 80.4237 13.6353 79.7249C13.3122 77.5229 5.58442 70.007 3.64157 70.0053C2.1154 70.0039 1.90611 69.5138 2.47086 67.2636C3.31169 63.9135 4.81583 62.8233 7.67256 63.4933C9.46987 63.9148 10.0573 63.36 11.0735 60.2809C12.3874 56.2997 14.1747 54.0036 15.9599 54.0036C16.5665 54.0036 17.3048 53.373 17.6005 52.6022C18.3147 50.7411 21.5553 49.9589 22.9157 51.3193C23.6948 52.0984 24 51.935 24 50.7388C24 48.4435 27.0998 46.9203 29.2837 48.1425C30.2364 48.6757 31.4623 48.836 32.0079 48.4987C32.5535 48.1615 33 48.348 33 48.9132C33 49.4784 33.6634 49.6863 34.4743 49.3751C35.2851 49.0639 36.6195 49.4155 37.4396 50.1565C41.1178 53.4798 41.9882 53.9454 43.4642 53.379C44.3286 53.0472 46.2653 53.2825 47.7679 53.9017C49.2706 54.5209 52.3 55.2175 54.5 55.4497C59.7501 56.0039 65.3798 58.132 68.733 60.8302C70.2186 62.0256 71.8989 63.0411 72.4671 63.087C73.0352 63.1328 74.5125 63.2826 75.75 63.4198C76.9875 63.557 78 63.3249 78 62.9039C78 62.4828 78.877 61.86 79.949 61.5198C81.2059 61.1209 81.6848 60.3458 81.2977 59.337C80.8343 58.1296 81.1611 57.92 82.7303 58.418C84.0313 58.8309 84.9572 58.5575 85.3021 57.6586C85.9603 55.9434 91.7766 54.9365 92.3966 56.4304C92.6416 57.0206 92.8776 56.458 92.921 55.1803C93.0384 51.7273 96.1399 52.8065 98.1987 57.0167C99.8337 60.3601 100.064 60.3587 100.365 57.0034C100.439 56.1784 101.512 55.3596 102.75 55.1839C104.516 54.933 105 55.3523 105 57.1339C105 58.8991 105.267 59.1368 106.2 58.2034C107.929 56.4741 109.717 56.7206 112 59.0034C113.1 60.1034 114.873 61.0034 115.941 61.0034C117.009 61.0034 118.16 61.4534 118.5 62.0034C118.84 62.5534 120.036 63.0034 121.158 63.0034C122.28 63.0034 124.7 63.7161 126.535 64.5872C130.176 66.3147 130.248 68.4438 126.698 69.3721C125.291 69.7401 124.878 70.2762 125.517 70.9055C126.151 71.5295 128.506 71.4039 132.149 70.5519C137.169 69.3779 137.99 69.4131 139.516 70.867C141.123 72.3976 141.161 72.3622 140.117 70.3192C138.625 67.4006 138.709 66.0034 140.378 66.0034C141.135 66.0034 142.315 65.3284 143 64.5034C144.74 62.4069 148.09 62.63 148.678 64.8816C148.948 65.9145 150.256 67.2549 151.585 67.8601C152.913 68.4654 154 69.3678 154 69.8654C154 70.3631 155.125 70.9853 156.5 71.2482C157.875 71.5111 159 71.3385 159 70.8648C159 70.391 159.848 70.0034 160.883 70.0034C161.926 70.0034 163 69.1104 163.29 68.0034C163.947 65.4904 166.594 65.4587 170.624 67.9156C173.421 69.6217 173.734 69.6473 173.624 68.1619C173.556 67.2498 173.05 66.1797 172.5 65.784C171.85 65.3162 171.94 64.3542 172.758 63.034C173.854 61.2662 173.773 61.0035 172.131 61.0035C169.407 61.0035 168.475 59.1931 168.123 53.2218C167.719 46.3758 169.782 42.8789 174.032 43.2027C176.381 43.3817 176.882 43.8012 176.433 45.2162C176.052 46.4136 176.382 47.0035 177.433 47.0035C178.483 47.0035 179 47.9277 179 49.8035C179 51.3435 179.412 53.031 179.916 53.5535C180.42 54.076 180.983 55.3842 181.166 56.4606C181.571 58.8343 183.644 61.025 187.28 62.9224C189.432 64.045 190 65.0548 190 67.7558C190 70.0558 190.408 71.0262 191.25 70.7292C191.938 70.4866 192.398 69.4366 192.273 68.3958C192.148 67.355 192.462 65.6035 192.971 64.5035C193.48 63.4035 194.033 61.6517 194.198 60.6107C194.589 58.1612 198.061 55.9634 198.712 57.7535C198.962 58.441 199.692 59.0184 200.333 59.0367C203.858 59.1373 208.861 68.0035 205.393 68.0035C204.621 68.0035 204.305 68.6335 204.638 69.5035C204.963 70.3485 204.663 71.0035 203.952 71.0035C203.079 71.0035 203.201 71.5676 204.345 72.8322C206.518 75.233 206.54 75.1513 202.571 79.3595C200.279 81.7901 198.6 82.7873 197.507 82.3679C195.779 81.7048 192.678 85.1442 192.449 87.9776C192.155 91.6253 190.621 93.7789 187.424 95.0331C184.655 96.1197 184 96.9149 184 99.1901C184 101.351 183.529 102.003 181.969 102.003C180.851 102.003 179.636 102.791 179.267 103.753C178.899 104.716 177.814 106.178 176.857 107.003C175.278 108.364 174.608 111.524 174.894 116.253C174.952 117.216 175.727 118.003 176.617 118.003C177.723 118.003 178.074 118.614 177.727 119.939C177.435 121.058 177.807 122.099 178.611 122.407C179.375 122.701 180 123.91 180 125.095C180 126.853 180.264 127.03 181.436 126.057C183.201 124.591 185.965 125.872 188.79 129.464C190.125 131.161 192.112 132.125 195.118 132.534C203.711 133.702 203.478 133.543 203.759 138.455C203.983 142.375 207.986 151.632 207.996 148.253C207.998 147.566 208.73 147.003 209.622 147.003C210.963 147.003 211.025 146.738 209.98 145.479C209.284 144.641 208.992 143.678 209.331 143.339C209.67 143 209.172 141.41 208.224 139.806C206.535 136.946 206.55 136.851 209 134.968C210.375 133.912 212 133.038 212.612 133.026C213.298 133.012 213.693 130.923 213.645 127.563C213.58 123.087 213.228 122.035 211.655 121.624C210.103 121.218 209.882 120.596 210.48 118.314C211.465 114.553 211.549 110.279 210.723 105.852C209.912 101.501 210.145 101.369 219.164 101.101C225.636 100.909 225.88 100.992 227.654 103.995C228.658 105.695 230.497 107.341 231.74 107.653C233.538 108.104 234.024 108.966 234.118 111.862C234.184 113.865 234.184 115.841 234.118 116.253C234.053 116.666 234.623 117.003 235.383 117.003C236.144 117.003 237.002 117.903 237.29 119.003C237.577 120.103 238.291 121.003 238.875 121.003C239.459 121.003 239.696 120.374 239.4 119.605C239.105 118.835 239.352 117.904 239.948 117.536C240.545 117.167 240.752 116.412 240.41 115.858C239.735 114.765 243.26 111.003 244.958 111.003C245.531 111.003 246 111.903 246 113.003C246 114.103 246.45 115.003 247 115.003C247.55 115.003 248 115.678 248 116.503C248 117.328 248.45 118.003 249 118.003C249.55 118.003 250 118.936 250 120.075C250 121.214 250.638 122.784 251.418 123.564C252.228 124.374 252.719 126.449 252.564 128.405C252.375 130.789 252.667 131.685 253.526 131.355C254.204 131.095 255.605 131.958 256.64 133.273C257.674 134.588 259.078 135.477 259.76 135.25C260.441 135.023 261.313 135.662 261.696 136.67C262.08 137.679 263.395 139.296 264.618 140.264C266.38 141.658 266.795 142.911 266.616 146.293C266.492 148.641 266.049 151.115 265.632 151.79C264.757 153.206 267.171 156.003 269.268 156.003C272.035 156.003 274.069 163.768 272.112 166.857C271.498 167.826 270.722 167.935 269.377 167.242C268.345 166.709 266.885 166.493 266.134 166.76C265.383 167.028 264.401 166.652 263.952 165.925C263.5 165.194 261.549 164.648 259.587 164.704C256.344 164.796 256.056 164.577 256.235 162.154C256.343 160.696 256.952 159.053 257.588 158.503C258.224 157.953 259.23 156.037 259.823 154.244C260.809 151.266 260.749 151.068 259.119 151.94C258.138 152.465 256.777 153.567 256.095 154.389C255.412 155.212 254.212 155.638 253.427 155.337C252.469 154.97 252 155.482 252 156.896C252 158.477 251.376 159.003 249.5 159.003C248.125 159.003 247 159.453 247 160.003C247 160.553 245.992 161.003 244.76 161.003H242.52L245.024 163.325C248.354 166.413 251.222 167.062 253.022 165.135C254.347 163.717 254.516 163.731 254.816 165.286C254.998 166.231 255.564 167.003 256.073 167.003C257.615 167.003 257.118 168.886 255.023 170.981C253.934 172.069 252.361 172.695 251.523 172.374C250.685 172.052 250 172.288 250 172.896C250 173.505 249.395 174.003 248.655 174.003C247.088 174.003 243.742 177.412 244.532 178.203C244.828 178.498 243.892 178.514 242.452 178.239C241.013 177.964 239.6 177.124 239.311 176.371C238.64 174.623 235.346 174.596 234.3 176.329C233.86 177.058 232.679 177.957 231.676 178.326C230.016 178.937 229.993 179.14 231.426 180.572C233.76 182.906 233.41 185.18 230.75 184.964C226.246 184.6 225.081 185.055 223.607 187.754C220.825 192.843 219.856 195.489 219.777 198.204C219.734 199.69 219.091 201.138 218.349 201.423C217.607 201.708 217 202.437 217 203.044C217 204.597 214.797 206.616 212.203 207.439C210.992 207.824 210 208.767 210 209.536C210 210.304 209.131 211.398 208.07 211.966C205.72 213.224 205.025 216.794 206.602 219.504C207.243 220.604 207.996 223.376 208.276 225.665C208.721 229.295 208.512 229.9 206.643 230.401C203.776 231.17 202.522 231.148 203.329 230.342C203.693 229.978 202.868 228.208 201.495 226.408C198.809 222.887 198.331 221.004 200.122 221.004C200.905 221.004 200.873 220.556 200.017 219.525C199.102 218.421 198.305 218.305 196.88 219.068C195.417 219.851 194.832 219.729 194.378 218.547C194.005 217.575 192.529 217.004 190.393 217.004C187.609 217.004 187 217.382 187 219.111C187 220.685 186.569 221.052 185.295 220.563C184.358 220.204 181.698 219.65 179.386 219.333C175.994 218.868 174.748 219.16 172.939 220.845C171.706 221.994 170.362 222.728 169.953 222.475C169.544 222.222 168.922 222.764 168.571 223.679C168.22 224.595 168.413 225.641 169 226.004C170.433 226.889 169.155 230.004 167.358 230.004C166.257 230.004 166.166 230.446 166.961 231.931C167.529 232.991 167.721 234.566 167.389 235.431C167.045 236.329 167.307 237.004 168 237.004C168.668 237.004 168.955 237.678 168.638 238.504C168.322 239.329 168.444 240.004 168.91 240.004C169.376 240.004 170.286 241.28 170.933 242.841C171.915 245.212 172.633 245.639 175.304 245.444C181.548 244.987 184.666 243.151 182 241.504C181.45 241.164 181 240.188 181 239.336C181 238.244 181.664 237.938 183.25 238.3C184.487 238.582 186.4 238.463 187.5 238.034C188.6 237.606 190.298 237.67 191.273 238.177C192.875 239.009 192.902 239.306 191.55 241.235C190.693 242.459 190.302 244.36 190.635 245.687C190.955 246.961 190.77 248.004 190.225 248.004C189.68 248.004 189.02 248.818 188.76 249.814C188.348 251.391 188.87 251.591 192.793 251.36C200.01 250.934 200.987 251.941 200.715 259.525C200.547 264.188 200.835 266.004 201.741 266.004C202.433 266.004 203 266.45 203 266.995C203 267.54 205.137 267.946 207.75 267.897C210.362 267.848 213.617 267.965 214.983 268.156C216.442 268.36 217.524 267.988 217.608 267.254C217.686 266.566 217.806 265.554 217.875 265.004C217.944 264.454 218.475 264.004 219.055 264.004C219.635 264.004 222.025 263.131 224.366 262.064C229.24 259.844 231.473 259.907 233.25 262.314C234.649 264.21 242.13 264.8 247.918 263.471C250.89 262.789 251.251 262.908 250.685 264.383C250.26 265.49 250.635 266.309 251.767 266.741C252.72 267.105 254.4 268.243 255.5 269.269C256.6 270.296 258.963 272.043 260.75 273.151C262.538 274.26 264 275.635 264 276.208C264 276.885 264.475 276.854 265.361 276.119C266.384 275.27 267.625 275.367 270.361 276.51C272.362 277.346 274 278.46 274 278.986C274 279.511 274.675 279.682 275.5 279.365C276.531 278.97 277 279.427 277 280.825C277 281.945 277.675 283.536 278.5 284.361C280.418 286.279 280.386 286.911 278.25 289.321C276.961 290.776 276.831 291.411 277.756 291.735C278.447 291.977 278.804 292.511 278.55 292.922C278.296 293.334 278.743 293.67 279.544 293.67C280.345 293.67 281 293.316 281 292.882C281 292.449 282.56 291.802 284.466 291.444C286.981 290.972 288.374 291.234 289.538 292.399C290.421 293.281 291.731 294.004 292.449 294.004C293.167 294.004 294.297 294.656 294.959 295.454C295.651 296.288 298.362 297.032 301.331 297.204C305.576 297.45 306.676 297.906 307.487 299.754C308.105 301.162 309.347 302.004 310.809 302.004C316.565 302.004 317.952 309.183 313 313.35C311.35 314.739 310 316.305 310 316.832C310 317.359 309.325 318.049 308.5 318.365C307.675 318.682 307 319.881 307 321.031C307 322.181 306.662 322.912 306.25 322.656C305.837 322.4 305.654 324.621 305.842 327.593C306.111 331.827 305.84 333.128 304.592 333.607C303.717 333.943 303 334.841 303 335.604C303 338.16 299.542 345.004 298.25 345.004C297.548 345.004 296.191 345.421 295.236 345.931C293.61 346.799 291.857 347.427 289.5 347.986C288.95 348.117 287.323 349.062 285.883 350.087C283.91 351.492 283.386 352.57 283.75 354.477C284.033 355.959 283.772 357.004 283.117 357.004C282.502 357.004 282 358.074 282 359.383C282 360.801 280.402 363.409 278.046 365.837C275.871 368.077 273.16 371.957 272.021 374.457C269.75 379.442 269.723 379.461 266.934 377.968C265.601 377.255 265 377.255 265 377.968C265 378.538 264.068 379.004 262.929 379.004C261.045 379.004 261 379.146 262.429 380.575C265.769 383.915 263.123 388.36 257.5 388.857C251.627 389.375 249.722 390.616 251.035 393.069C252.651 396.088 249.752 398.667 246.439 397.158C244.465 396.258 244 396.323 244 397.494C244 398.369 244.592 398.713 245.5 398.365C247.643 397.543 247.498 402.625 245.344 403.831C244.303 404.414 243.722 405.947 243.78 407.963C243.854 410.579 243.561 411.047 242.185 410.512C241.258 410.151 240.275 409.776 240 409.679C239.38 409.461 239 410.535 239 412.504C239 413.337 239.889 414.004 241 414.004C242.606 414.004 243 414.67 243 417.387C243 419.929 242.503 420.9 241 421.293C239.812 421.604 239 422.657 239 423.887C239 425.026 237.862 426.703 236.472 427.614C234.141 429.141 234.058 429.443 235.4 431.492C236.201 432.713 236.723 434.918 236.562 436.391C236.198 439.705 239.976 443.004 244.135 443.004C246.015 443.004 247 443.519 247 444.504C247 445.589 245.885 446.004 242.969 446.004C240.308 446.004 238.742 446.513 238.362 447.504C237.724 449.166 232 449.616 232 448.004ZM129.607 216.422C129.273 215.552 129 214.652 129 214.422C129 214.192 128.592 214.004 128.094 214.004C127.595 214.004 127.423 214.904 127.71 216.004C127.998 217.104 128.679 218.004 129.224 218.004C129.768 218.004 129.941 217.292 129.607 216.422ZM192 180.004C192 179.454 191.523 179.004 190.941 179.004C190.359 179.004 190.16 179.454 190.5 180.004C190.84 180.554 191.316 181.004 191.559 181.004C191.802 181.004 192 180.554 192 180.004ZM203 173.004C203 171.904 203.006 170.666 203.013 170.254C203.02 169.841 202.09 169.451 200.946 169.387C199.473 169.304 199.178 169.581 199.933 170.337C200.52 170.924 201 172.214 201 173.204C201 174.194 201.45 175.004 202 175.004C202.55 175.004 203 174.104 203 173.004ZM190.887 164.401C192.991 166.305 195.357 166.523 194.708 164.754C194.456 164.066 193.744 163.616 193.125 163.754C192.506 163.891 192 163.554 192 163.004C192 161.695 187.403 161.718 184.934 163.039C181.716 164.761 182.769 165.966 186.058 164.325C188.82 162.947 189.288 162.954 190.887 164.401ZM242.25 156.612C244.79 154.683 244.394 154.009 241.508 155.348C240.137 155.983 239.012 156.841 239.008 157.254C238.996 158.365 240.274 158.112 242.25 156.612ZM774.5 414.291C773.4 414.026 772.124 413.455 771.665 413.022C770.368 411.798 775.131 405.266 778.75 403.308C780.538 402.34 782 401.158 782 400.681C782 400.203 782.93 398.506 784.067 396.909C785.752 394.544 786.482 394.191 788.007 395.007C789.26 395.678 790.085 395.676 790.503 395C790.846 394.444 790.423 393.72 789.563 393.39C787.849 392.732 787.395 390.004 789 390.004C790.795 390.004 790.054 385.771 787.494 381.404C786.116 379.053 785.331 376.917 785.749 376.659C786.593 376.138 791 379.404 791 380.55C791 382.37 796.294 386.046 798.093 385.475C799.689 384.968 800 385.375 800 387.968C800 389.833 799.388 391.302 798.463 391.657C797.617 391.981 796.29 393.767 795.514 395.625C794.737 397.484 793.474 399.004 792.706 399.004C790.854 399.004 788 402.235 788 404.333C788 405.252 787.314 406.004 786.475 406.004C785.637 406.004 784.48 407.241 783.906 408.752C781.81 414.264 779.658 415.531 774.5 414.291ZM725.655 396.325C725.281 395.951 722.786 395.548 720.109 395.428C714.375 395.17 710 392.659 710 389.626C710 387.892 708.991 387.19 704.763 385.987C701.002 384.916 699.418 383.934 699.142 382.502C698.637 379.881 694.582 376.188 691.307 375.366C689.872 375.006 687.272 375.227 685.528 375.857C683.785 376.488 681.348 377.004 680.113 377.004C677.242 377.004 673.78 378.838 674.488 379.985C675.371 381.414 672.961 382.33 668.754 382.165C666.594 382.08 663.866 382.685 662.691 383.507C659.702 385.601 655.771 385.37 653.171 382.948C651.201 381.113 651.116 380.676 652.38 378.872C653.617 377.105 653.557 376.173 651.898 371.452C650.854 368.483 650 365.39 650 364.578C650 363.767 649.213 362.656 648.25 362.109C646.835 361.305 646.719 360.756 647.643 359.244C648.272 358.215 648.449 356.727 648.036 355.938C647.624 355.149 647.671 353.154 648.14 351.504C649.05 348.308 652.459 346.292 661 343.9C666.023 342.494 668.716 340.284 668.244 337.955C668.051 337.001 669.288 335.76 671.466 334.721C673.41 333.794 675 332.59 675 332.046C675 331.501 676.391 330.336 678.091 329.457C680.968 327.969 681.32 327.983 683.173 329.66C685.092 331.397 685.201 331.396 686.191 329.626C686.756 328.616 688.436 326.428 689.924 324.763C692.254 322.155 692.924 321.892 694.749 322.869C695.915 323.493 698.447 324.004 700.375 324.004C704.71 324.004 705.497 325.141 703.643 328.727C702.222 331.475 702.264 331.548 707.026 334.633C712.909 338.443 713.988 337.737 714.032 330.054C714.085 320.825 717.886 317.978 720.108 325.504C720.839 327.979 722.028 330.004 722.75 330.004C723.472 330.004 724.236 330.566 724.448 331.254C726.535 338.031 728.546 342.042 730.105 342.537C731.125 342.86 732.74 344.448 733.695 346.064C734.65 347.681 736.009 349.004 736.716 349.004C737.422 349.004 738 349.825 738 350.829C738 351.833 739.125 353.712 740.5 355.004C741.875 356.295 743 358.428 743 359.744C743 361.059 743.416 362.911 743.923 363.86C744.951 365.781 743.443 374.668 741.728 376.795C739.705 379.304 736 388.234 736 390.603C736 392.497 735.472 393.004 733.5 393.004C732.125 393.004 730.1 393.904 729 395.004C726.775 397.229 726.62 397.29 725.655 396.325ZM704.807 381.477C704.499 381.169 703.94 381.724 703.564 382.711C703.022 384.136 703.136 384.251 704.124 383.27C704.808 382.592 705.115 381.785 704.807 381.477ZM396 390.246C395.175 389.969 393.544 388.58 392.374 387.16C390.666 385.085 390.47 384.215 391.374 382.73C392.268 381.263 392.153 380.624 390.816 379.631C389.89 378.943 388.824 377.058 388.447 375.442C388.071 373.826 387.113 371.464 386.319 370.194C385.526 368.924 385.022 367.129 385.2 366.206C385.378 365.282 384.683 363.687 383.657 362.661C382.383 361.387 381.963 359.941 382.331 358.099C382.724 356.132 382.35 355.079 380.946 354.202C379.888 353.541 379.074 351.989 379.136 350.752C379.199 349.516 378.568 346.676 377.736 344.442C376.428 340.933 376.411 339.932 377.611 337.078C378.375 335.261 379 332.974 379 331.996C379 331.018 379.726 329.939 380.613 329.599C381.937 329.09 381.999 328.708 380.959 327.454C380.262 326.615 379.574 323.898 379.428 321.416C379.165 316.924 376.838 312.004 374.977 312.004C374.44 312.004 374 310.887 374 309.523C374 307.71 373.326 306.873 371.5 306.414C369.287 305.859 367.823 303.004 369.75 303.003C370.162 303.003 370.5 300.641 370.5 297.753C370.5 293.762 370.162 292.576 369.092 292.806C368.317 292.973 367.311 292.523 366.857 291.806C366.223 290.807 366.027 290.795 366.015 291.754C365.988 293.945 362.176 293.124 361.369 290.754C360.948 289.516 360.689 288.178 360.793 287.78C361.084 286.669 354.595 288.172 353.792 289.403C353.294 290.165 352.716 290.12 351.849 289.252C350.869 288.273 350.143 288.46 348.336 290.157C346.59 291.798 345.742 292.034 344.701 291.171C343.221 289.943 338.879 290.813 335.282 293.059C333.429 294.217 332.853 294.011 330.024 291.181C328.276 289.434 325.981 288.004 324.923 288.004C323.865 288.004 323 287.329 323 286.504C323 285.679 322.39 285.004 321.645 285.004C320.307 285.004 315 279.313 315 277.878C315 277.471 314.129 276.862 313.065 276.524C311.855 276.14 310.503 274.024 309.458 270.876C307.859 266.063 307.867 265.785 309.643 264.541C311.423 263.294 311.524 262.608 311.125 254.445C311.056 253.037 310.581 252.145 310.069 252.461C308.072 253.695 307.979 250.846 309.935 248.359C311.071 246.915 312 245.15 312 244.436C312 243.722 312.919 242.847 314.042 242.49C315.42 242.053 315.903 241.274 315.528 240.092C315.213 239.098 315.843 237.337 316.986 236.02C318.094 234.742 319 233.264 319 232.734C319 232.204 319.9 232.006 321 232.293C322.233 232.616 323 232.324 323 231.532C323 230.826 323.675 229.688 324.5 229.004C325.325 228.319 326 226.239 326 224.381C326 222.161 326.477 221.004 327.393 221.004C328.159 221.004 329.045 220.329 329.362 219.504C329.678 218.679 330.626 218.004 331.469 218.004C332.311 218.004 333 217.329 333 216.504C333 215.679 333.42 215.004 333.933 215.004C335.44 215.004 336.21 211.196 335.091 209.274C334.525 208.3 334.047 208.066 334.03 208.754C333.969 211.278 330.138 209.987 328.612 206.928C327.196 204.09 327.228 203.571 329.017 200.233C330.646 197.193 330.744 196.364 329.63 195.059C327.081 192.07 326.859 189.783 328.932 187.853C330.988 185.937 334.499 185.384 335.395 186.834C336.399 188.459 345.26 187.368 346.665 185.447C347.588 184.185 347.667 183.416 346.923 182.956C346.331 182.59 345.934 181.664 346.042 180.897C346.427 178.145 345.975 177.004 344.5 177.004C343.675 177.004 343 176.568 343 176.035C343 175.502 342.37 175.308 341.601 175.603C340.1 176.179 338.726 174.584 338.285 171.754C338.019 170.046 339.773 169.505 344.169 169.938C345.413 170.06 345.694 169.551 345.273 167.939C344.796 166.114 345.03 165.878 346.769 166.43C347.904 166.79 349.121 166.617 349.475 166.044C349.829 165.472 351.066 165.004 352.226 165.004C353.385 165.004 354.089 164.76 353.791 164.462C353.253 163.923 343.549 165.34 339.25 166.585C336.526 167.374 336.23 165.512 338.655 162.832C340.195 161.131 340.195 161.004 338.655 161.004C336.617 161.004 336.518 159.648 338.44 158.053C339.233 157.395 339.624 156.188 339.311 155.371C338.943 154.414 339.499 153.686 340.87 153.327C343.384 152.67 343.467 152.328 341.571 150.432C338.766 147.627 337 149.385 337 154.984C337 157.273 336.223 158.207 332.864 159.957C330.589 161.143 328.178 161.902 327.507 161.645C325.743 160.968 325.864 149.993 327.643 149.31C328.389 149.024 329 148.193 329 147.464C329 146.101 332.586 144.438 334.674 144.834C336.37 145.155 337.412 143.016 336.167 141.771C334.894 140.498 335.761 135.37 337.775 132.254C339.66 129.338 344 129.164 344 132.004C344 133.115 344.667 134.004 345.5 134.004C347.116 134.004 347.347 136.294 346.053 139.504C345.577 140.686 345.691 142.058 346.334 142.86C347.881 144.79 349.78 148.06 351.208 151.254C351.885 152.766 352.967 154.004 353.612 154.004C355.274 154.004 356.229 157.023 355.026 158.472C353.723 160.042 354.624 160.915 356.924 160.313C357.982 160.036 359.229 158.182 359.931 155.84C360.755 153.09 361.568 152.008 362.533 152.378C363.304 152.674 364.202 152.486 364.527 151.96C364.852 151.434 366.202 151.004 367.528 151.004C369.259 151.004 369.775 150.581 369.362 149.504C369.025 148.627 369.35 147.997 370.143 147.988C371.043 147.978 371.133 147.725 370.412 147.238C368.843 146.179 368.018 142.162 368.685 138.829C369.135 136.578 369.667 136.081 371.13 136.545C372.414 136.952 373 136.647 373 135.571C373 134.709 373.45 134.004 374 134.004C374.55 134.004 375 133.259 375 132.349C375 130.809 374.873 130.809 373.171 132.349C372.165 133.259 370.815 134.004 370.171 134.004C369.527 134.004 369 134.454 369 135.004C369 136.578 365.702 136.109 363.488 134.22C361.882 132.851 361.478 131.29 361.488 126.504C361.495 123.204 361.95 120.173 362.5 119.769C363.119 119.314 363.024 119.028 362.25 119.019C361.531 119.01 361 117.729 361 116.004C361 114.031 361.503 113.004 362.47 113.004C363.278 113.004 364.91 111.691 366.096 110.087C367.282 108.483 369.141 106.939 370.227 106.655C371.313 106.371 371.904 105.658 371.541 105.071C371.179 104.484 371.583 104.004 372.441 104.004C373.298 104.004 374 103.265 374 102.362C374 101.459 375.237 99.5405 376.75 98.0986C378.587 96.347 379.388 94.6876 379.162 93.098C378.939 91.532 379.654 89.9985 381.255 88.6112C382.592 87.4521 383.521 86.0192 383.318 85.4271C383.115 84.8351 384.085 83.1244 385.474 81.6256C386.863 80.1268 388 78.4738 388 77.9521C388 77.4304 388.46 77.0036 389.021 77.0036C389.583 77.0036 390.59 75.7661 391.26 74.2536C392.833 70.6974 394.483 69.0036 396.372 69.0036C397.205 69.0036 398.544 68.0648 399.348 66.9174C400.482 65.2978 401.222 65.0503 402.654 65.8109C404.794 66.9466 406.931 65.2969 406.192 63.0802C405.842 62.0314 406.449 61.8435 408.72 62.2977C410.434 62.6405 412.197 62.4067 412.854 61.7495C413.484 61.1192 414 60.9737 414 61.4261C414 61.8784 414.724 61.6479 415.608 60.9138C416.961 59.7911 417.398 59.8253 418.358 61.1291C418.986 61.9817 420.062 62.4897 420.75 62.2581C421.485 62.0105 422 62.6957 422 63.9203C422 65.0661 422.396 65.8911 422.879 65.7536C424.305 65.3483 430.109 70.0173 429.469 71.0541C429.146 71.5763 430.146 72.0196 431.691 72.0391C435.741 72.0902 438.156 73.7261 444.449 80.6825C448.483 85.1419 449.686 87.084 448.769 87.6613C447.915 88.1995 448.481 88.6552 450.5 89.054C454.369 89.8186 455.593 89.1577 453.347 87.5158C451.849 86.4202 451.781 85.9723 452.906 84.6168C454.022 83.2718 453.976 82.6159 452.618 80.5438C450.561 77.4045 450.587 77.0036 452.846 77.0036C455.331 77.0036 461 79.8981 461 81.1666C461 81.7256 459.987 83.0107 458.75 84.0224C456.91 85.5265 456.735 86.1002 457.788 87.1708C458.846 88.2462 459.526 87.9059 461.592 85.2659C463.07 83.3765 465.734 81.5644 468.053 80.8694C470.224 80.2191 472 79.0833 472 78.3453C472 77.6074 472.675 77.0036 473.5 77.0036C474.325 77.0036 475 76.5536 475 76.0036C475 74.7621 478.679 74.6752 479.435 75.8989C479.739 76.3912 479.251 77.0768 478.351 77.4224C477.45 77.768 476.958 78.2947 477.256 78.5929C478.083 79.4202 486 77.0583 486 75.9842C486 75.4658 487.073 74.7723 488.385 74.443C490.108 74.0106 490.635 73.3235 490.281 71.9693C489.916 70.5733 490.479 69.9215 492.486 69.4178C497.921 68.0537 507.91 73.1803 510.031 78.4221C510.686 80.0414 510.887 79.5467 510.936 76.1946C510.977 73.4428 510.623 72.1187 509.956 72.5307C508.494 73.4342 506 71.1333 506 68.8812C506 67.8485 506.675 67.0036 507.5 67.0036C509.505 67.0036 509.392 66.3403 506.939 63.7118L504.879 61.5036L506.939 60.1317C508.073 59.3771 509 58.0006 509 57.0728C509 56.145 509.661 54.5124 510.468 53.4448C511.276 52.3771 511.95 49.99 511.968 48.1401L511.998 44.7766L516.748 45.4875C522.902 46.4084 523.271 46.6928 522.768 50.1221C522.428 52.4376 522.719 53.0036 524.251 53.0036C525.835 53.0036 526.049 52.5125 525.519 50.0988C524.789 46.7743 526.336 45.209 528.542 47.04C530.327 48.5211 530.451 51.6754 528.748 52.2834C528.061 52.5289 527.769 53.0245 528.1 53.3846C528.43 53.7448 530.005 53.3593 531.6 52.5277C535.482 50.503 537.337 50.6147 539.498 53.0036C540.494 54.1036 541.789 55.0036 542.376 55.0036C542.963 55.0036 542.443 54.3031 541.221 53.4469C539.999 52.5907 538.998 50.9862 538.998 49.8812C538.998 48.7762 538.513 46.9643 537.919 45.8547C536.108 42.4722 539.139 40.2549 546.674 39.4479C552.412 38.8334 553.098 38.535 552.582 36.8782C552.261 35.8472 551.721 34.1036 551.382 33.0036C550.899 31.4394 551.226 31.0036 552.882 31.0036C555.249 31.0036 555.588 29.993 553.815 28.2203C552.09 26.4956 553.483 25.6574 555.913 26.9578C557.761 27.9468 557.998 27.7974 557.998 25.6458C557.998 22.8285 559.616 22.0036 565.139 22.0036C567.541 22.0036 568.871 21.6068 568.497 21.0018C567.61 19.5653 572.862 17.8148 575.995 18.5029C578.01 18.9454 579.282 18.4472 581.306 16.4235C582.899 14.8304 584.689 13.9508 585.764 14.2322C587.252 14.6213 587.507 14.1689 587.245 11.6029C586.997 9.18016 587.754 7.57513 590.713 4.25C592.795 1.9105 595.101 -0.0019963 595.838 1.56386e-06C597.85 0.00545634 600.985 4.26389 600.405 6.20248C599.7 8.55722 603.002 11.574 605.843 11.1716C609.037 10.7195 613.808 12.8275 614.496 14.995C614.806 15.9719 615.802 16.711 616.71 16.6374C618.704 16.4758 620.06 20.7557 618.806 23.2536C618.252 24.3588 618.309 25.0036 618.963 25.0036C619.532 25.0036 619.998 25.9036 619.998 27.0036C619.998 28.1735 619.332 29.0036 618.392 29.0036C616.197 29.0036 608.846 34.9486 609.578 36.1321C609.902 36.6562 611.09 36.7919 612.219 36.4337C614.023 35.8609 614.192 36.0969 613.615 38.393C613.23 39.928 613.38 41.0036 613.979 41.0036C614.54 41.0036 614.945 40.6661 614.88 40.2536C614.554 38.1909 615.146 37.0036 616.498 37.0036C617.323 37.0036 617.998 37.6483 617.998 38.4363C617.998 40.381 621.308 41.2888 625.791 40.5738C629.958 39.9091 632.567 41.0805 631.737 43.2434C630.736 45.8507 632.519 47.2678 635.874 46.5311C638.324 45.9929 638.998 45.3221 638.998 43.4242C638.998 42.0929 639.475 41.0036 640.057 41.0036C640.64 41.0036 640.838 40.5536 640.498 40.0036C639.706 38.7207 641.294 38.6988 642.57 39.9749C643.104 40.5092 645.57 41.1153 648.05 41.3219C655.326 41.9281 657.186 43.4013 656.891 48.3268C656.753 50.624 656.247 53.6109 655.764 54.9645C654.43 58.7101 655.564 61.9298 657.994 61.2943C659.097 61.0061 660.013 60.0352 660.03 59.1369C660.07 57.0721 662.359 54.0035 663.859 54.0035C664.486 54.0035 664.998 55.1285 664.998 56.5035C664.998 59.4512 665.28 59.52 668.559 57.3717C670.862 55.8626 671.185 55.8626 672.853 57.3717C673.845 58.2692 674.99 59.0035 675.399 59.0035C676.589 59.0035 678.998 56.2598 678.998 54.9037C678.998 54.2202 679.743 52.8381 680.653 51.8322C681.644 50.7381 681.845 50.0035 681.153 50.0035C680.518 50.0035 679.998 49.2804 679.998 48.3965C679.998 47.2723 680.524 46.9949 681.748 47.4732C682.711 47.8492 687.098 48.5366 691.498 49.0008C699.242 49.8177 704.998 51.3289 704.998 52.5445C704.998 52.8693 704.5 54.0663 703.891 55.2047C702.866 57.1193 702.99 57.2224 705.546 56.5809C708.657 55.8 709.959 57.0692 709.983 60.9085C709.998 63.1109 710.146 63.1855 711.748 61.7938C714.131 59.7246 720.393 58.8964 724.041 60.1681C727.744 61.459 729.328 64.2271 728.506 67.9702C727.88 70.8182 727.882 70.8192 731.689 69.9493C734.209 69.3736 736.612 69.4776 738.789 70.2567C741.357 71.1759 742.518 71.1602 744.079 70.1851C746.589 68.6177 748.184 69.533 747.796 72.3175C747.598 73.7382 748.113 74.5762 749.331 74.8182C750.92 75.1336 751.011 74.8948 750.012 73.0289C748.19 69.6253 750.302 68.0035 756.556 68.0035C762.943 68.0035 765.941 69.0367 769.299 72.395C770.689 73.785 773.102 75.2375 774.662 75.6228C776.222 76.0081 778.219 77.1432 779.1 78.1452C779.981 79.1473 780.966 79.7026 781.289 79.3793C782.017 78.6518 786.998 83.5198 786.998 84.9581C786.998 85.5331 788.81 86.0035 791.023 86.0035C794.349 86.0035 795.206 86.4194 795.959 88.3987C796.459 89.716 797.425 90.9791 798.104 91.2055C799.551 91.6877 796.709 97.3902 793.595 100.254C792.549 101.216 792.211 102.004 792.845 102.004C793.48 102.004 793.998 102.714 793.998 103.583C793.998 106.288 787.889 104.231 784.35 100.335C782.451 98.2438 780.938 97.2925 780.539 97.9382C780.077 98.6855 779.291 98.6954 777.938 97.9711C776.442 97.1707 775.998 97.2579 775.998 98.3517C775.998 99.1319 775.123 99.9993 774.053 100.279C772.306 100.736 772.156 101.469 772.592 107.428C772.859 111.079 772.837 114.456 772.544 114.931C772.249 115.406 770.206 115.336 767.99 114.774C764.127 113.793 763.839 113.892 760.596 117.331C758.74 119.299 756.009 121.214 754.527 121.586C752.524 122.089 751.958 122.742 752.322 124.133C752.673 125.477 752.275 126.004 750.905 126.004C749.813 126.004 748.998 125.31 748.998 124.381C748.998 123.119 748.693 123.012 747.625 123.898C746.87 124.525 745.52 124.757 744.625 124.414C743.44 123.959 742.998 124.362 742.998 125.897C742.998 127.103 742.357 128.004 741.498 128.004C740.673 128.004 739.998 127.666 739.998 127.254C739.998 126.841 738.873 126.504 737.498 126.504C736.123 126.504 734.998 127.072 734.998 127.767C734.998 128.462 734.436 129.938 733.748 131.048C732.73 132.69 732.756 133.225 733.885 133.928C734.728 134.452 735.08 135.793 734.783 137.347C734.478 138.946 734.802 140.098 735.647 140.422C737.632 141.184 737.293 143.004 735.165 143.004C732.546 143.004 731.916 143.98 733.103 146.199C734.325 148.482 732.482 151.403 730.338 150.58C729.601 150.298 728.946 150.615 728.883 151.285C728.819 151.955 728.707 153.179 728.633 154.004C728.559 154.829 727.598 155.504 726.498 155.504C724.371 155.504 721.998 158.991 721.998 162.118C721.998 165.733 718.898 164.03 716.782 159.254C715.297 155.903 714.657 152.337 714.61 147.147C714.551 140.702 714.818 139.568 716.77 137.987C717.996 136.995 718.998 135.693 718.998 135.093C718.998 134.494 719.561 133.99 720.248 133.974C722.588 133.919 729.998 126.082 729.998 123.663C729.998 123.403 729.023 123.446 727.83 123.758C726.124 124.204 725.794 123.978 726.286 122.696C726.63 121.8 726.481 120.802 725.955 120.477C725.429 120.151 724.998 118.787 724.998 117.445C724.998 113.858 723.721 114.407 718.46 120.254C714.867 124.247 714.127 125.581 715.368 125.827C717.177 126.186 717.441 127.756 716.059 129.939C715.306 131.129 714.881 131.151 713.574 130.067C712.25 128.967 711.998 129.017 711.998 130.381C711.998 131.273 711.36 132.004 710.58 132.004C709.8 132.004 708.383 132.302 707.432 132.667C706.018 133.21 705.789 132.88 706.175 130.858C706.529 129.007 706.084 128.12 704.405 127.328C702.696 126.521 702.276 126.564 702.638 127.507C703.408 129.514 700.091 130.11 697.523 128.427C695.274 126.954 695.179 126.981 695.692 128.939C696.073 130.396 695.756 131.004 694.615 131.004C693.726 131.004 692.998 130.329 692.998 129.504C692.998 128.504 691.998 128.004 689.998 128.004C688.214 128.004 687.1 128.483 687.248 129.187C687.386 129.838 686.261 130.987 684.748 131.741C683.236 132.496 681.998 133.623 681.998 134.246C681.998 136.105 677.601 141.989 676.206 141.997C675.496 142.001 674.033 142.825 672.956 143.829C671.016 145.636 671.021 145.676 673.498 148.003C674.873 149.295 675.998 149.824 675.998 149.178C675.998 147.274 678.876 147.835 680.23 150.004C681.895 152.668 684.624 152.544 685.349 149.771C686.358 145.913 687.889 149.071 689.047 157.401C689.647 161.712 690.556 166.341 691.068 167.687C692.505 171.466 692.179 172.477 690.123 170.616C688.336 168.999 688.222 169.05 687.707 171.711C687.379 173.403 687.726 175.126 688.582 176.082C690.951 178.724 690.339 181 687.248 181.035L684.498 181.067L687.208 183.452C689.043 185.068 690.63 185.651 692.126 185.26C693.858 184.807 694.203 185.027 693.723 186.278C693.386 187.156 693.615 188.043 694.231 188.248C695.9 188.804 694.163 191.004 692.056 191.004C691.035 191.004 689.986 191.942 689.675 193.134C689.298 194.575 688.614 195.06 687.558 194.634C682.483 192.584 682.459 192.58 683.659 194.066C685.762 196.671 686.321 202.538 684.628 204.231C683.784 205.075 683.353 206.025 683.669 206.342C683.986 206.658 683.895 207.724 683.468 208.711C683.041 209.697 682.781 211.251 682.892 212.165C683.085 213.755 681.63 215.24 679.498 215.63C673.908 216.653 672.559 217.095 671.93 218.114C671.529 218.764 670.48 219.019 669.599 218.681C668.719 218.343 667.998 218.45 667.998 218.918C667.998 219.761 664.219 221.328 662.726 221.105C662.302 221.041 661.513 222.15 660.973 223.569C659.653 227.042 656.822 226.373 655.657 222.311C654.821 219.394 655.065 218.84 658.622 215.573C662.037 212.436 664.258 211.588 668.692 211.726C669.349 211.746 670.338 210.467 670.89 208.883C671.442 207.3 672.619 206.004 673.505 206.004C674.468 206.004 674.859 206.506 674.476 207.254C674.125 207.941 675.028 207.206 676.484 205.621C678.718 203.188 679.096 201.939 678.905 197.621C678.636 191.511 679.606 188.004 681.566 188.004C682.353 188.004 683.008 187.441 683.02 186.754C683.031 186.066 683.319 179.701 683.658 172.609C684.106 163.255 683.969 159.904 683.162 160.403C682.465 160.833 682.269 162.701 682.639 165.397C683.259 169.926 681.982 173.579 679.048 175.664C678.15 176.302 676.17 179.286 674.648 182.295C671.279 188.953 668.053 192.138 664.316 192.495C660.244 192.885 657.998 194.009 657.998 195.658C657.998 197.481 653.041 202.148 651.872 201.426C651.392 201.129 650.998 201.362 650.998 201.945C650.998 202.527 651.673 203.004 652.498 203.004C653.323 203.004 654.054 203.454 654.123 204.004C654.364 205.931 654.58 206.523 655.927 208.956C656.907 210.725 656.967 211.514 656.142 211.789C655.513 211.999 654.998 212.781 654.998 213.528C654.998 215.188 654.372 215.581 650.359 216.441C647.278 217.101 647.211 217.036 646.825 212.987C646.543 210.023 646.864 208.607 647.965 207.963C649.206 207.236 649.082 207.059 647.316 207.034C645.128 207.004 643.322 203.907 644.438 202.1C645.082 201.059 642.431 201.238 641.361 202.308C640.978 202.691 639.84 203.004 638.832 203.004C636.592 203.004 636.439 204.874 638.553 206.42C640.474 207.825 639.664 210.222 636.829 211.525C633.926 212.858 633.358 219.023 636.072 219.733C638.249 220.303 638.96 222.174 638.831 227.004C638.741 230.362 636.282 236.004 634.908 236.004C634.545 236.004 633.98 237.345 633.652 238.983C633.224 241.127 632.627 241.799 631.527 241.376C630.686 241.054 629.998 241.265 629.998 241.845C629.998 243.259 625.919 247.498 623.813 248.272C622.886 248.613 621.909 248.354 621.642 247.698C621.344 246.965 621.126 247.097 621.077 248.04C621.02 249.14 619.997 249.543 617.471 249.459C615.378 249.389 614.088 249.774 614.299 250.406C614.63 251.4 610.764 254.004 608.955 254.004C608.508 254.004 607.484 253.346 606.68 252.543C605.398 251.261 604.898 251.357 602.61 253.323C600.166 255.423 600.1 255.704 601.558 257.786C602.414 259.008 602.868 260.406 602.567 260.893C602.266 261.38 602.578 261.758 603.259 261.733C607.147 261.593 608.222 262.029 607.157 263.313C606.347 264.288 606.549 265.031 607.948 266.229C609.434 267.501 609.669 268.531 609.074 271.17C608.66 273.004 608.263 274.954 608.191 275.504C608.119 276.054 606.87 276.651 605.415 276.831C603.856 277.024 602.57 277.924 602.283 279.024C602.004 280.088 600.519 281.17 598.825 281.542C595.546 282.262 593.79 281.369 595.909 280.059C596.95 279.416 596.775 279.068 595.156 278.554C593.998 278.186 592.184 276.784 591.125 275.437C588.597 272.224 586.562 273.146 586.238 277.652C585.947 281.712 587.335 284.004 590.086 284.004C592.264 284.004 593.998 286.852 593.998 290.43C593.998 291.904 594.845 293.516 595.998 294.236C598.077 295.534 598.8 300.004 596.932 300.004C596.345 300.004 594.39 298.879 592.587 297.504C590.784 296.129 588.579 295.004 587.685 295.004C586.652 295.004 586.271 294.458 586.637 293.504C586.955 292.674 586.667 292.004 585.989 292.004C585.257 292.004 584.975 291.199 585.288 290.005C585.575 288.905 585.403 287.754 584.904 287.446C584.406 287.138 583.998 286.06 583.998 285.052C583.998 284.043 583.383 282.982 582.63 282.693C580.832 282.003 580.011 277.445 581.04 273.86C581.541 272.113 581.48 271.004 580.885 271.004C580.349 271.004 579.984 270.441 580.073 269.754C580.162 269.066 580.182 267.464 580.117 266.192C580.006 264.03 579.708 263.925 575.498 264.556C571.137 265.21 569.922 264.48 571.965 262.436C573.395 261.007 572.086 257.033 570.4 257.68C569.556 258.004 568.998 257.578 568.998 256.611C568.998 255.727 568.548 255.004 567.998 255.004C567.448 255.004 566.998 253.654 566.998 252.004C566.998 248.994 564.847 247.821 563.456 250.072C563.093 250.659 562.221 250.92 561.519 250.65C560.817 250.381 559.756 250.646 559.162 251.239C558.39 252.012 557.638 251.95 556.518 251.02C555.195 249.922 555.048 249.971 555.573 251.337C556.223 253.032 553.951 256.004 552.003 256.004C550.414 256.004 543.998 261.02 543.998 262.262C543.998 262.824 543.332 263.783 542.517 264.393C541.702 265.004 540.836 266.629 540.591 268.004C540.347 269.379 540.087 270.504 540.014 270.504C539.94 270.504 539.751 272.191 539.593 274.254C539.435 276.316 539.616 278.004 539.995 278.004C540.373 278.004 541.531 279.577 542.566 281.5C544.446 284.99 544.445 285.001 542.166 287.25C539.895 289.491 539.875 289.493 538.396 287.504C537.354 286.103 537.099 284.305 537.544 281.504L538.179 277.504L535.939 280.209C533.042 283.706 530.541 282.547 528.858 276.928C528.191 274.705 526.791 272.428 525.745 271.868C524.684 271.301 524.085 270.221 524.389 269.427C524.719 268.567 524.312 268.004 523.36 268.004C522.419 268.004 522.001 267.439 522.322 266.601C522.618 265.83 522.554 264.893 522.179 264.519C521.594 263.933 521.18 260.405 520.926 253.835C520.836 251.493 518.239 250.751 517.122 252.748C516.339 254.147 515.94 254.2 514.595 253.084C513.717 252.355 512.998 251.387 512.998 250.933C512.998 250.478 511.873 248.893 510.498 247.409C509.123 245.926 507.998 243.637 507.998 242.323C507.998 240.239 507.741 240.071 505.987 241.01C504.881 241.602 503.418 241.994 502.737 241.882C502.056 241.77 500.193 242.042 498.597 242.487C496.769 242.997 495.018 242.872 493.861 242.15C492.852 241.52 490.921 241.004 489.571 241.004C488.221 241.004 486.838 240.554 486.498 240.004C486.159 239.454 485.232 239.004 484.439 239.004C483.647 239.004 482.998 239.454 482.998 240.004C482.998 240.554 483.673 241.004 484.498 241.004C485.323 241.004 485.998 241.654 485.998 242.449C485.998 243.244 487.236 244.486 488.748 245.209C492.294 246.903 492.835 250.168 489.79 251.504C488.536 252.054 487.363 253.285 487.183 254.241C486.678 256.926 480.077 263.248 478.436 262.618C476.176 261.751 473.998 263.028 473.998 265.219C473.998 266.881 473.552 267.109 471.37 266.561C469.517 266.096 468.205 266.432 466.918 267.703C463.243 271.332 461.865 272.167 460.447 271.622C459.65 271.317 458.998 271.551 458.998 272.142C458.998 272.734 458.29 272.946 457.424 272.614C456.558 272.281 455.155 272.705 454.305 273.554C452.424 275.435 453.248 276.548 455.705 275.448C458.065 274.391 459.423 274.123 466.123 273.391L471.748 272.777L471.779 275.64C471.798 277.215 471.167 279.516 470.381 280.754C469.594 281.991 469.196 283.004 469.495 283.004C470.997 283.004 465.592 291.207 463.587 291.97C462.307 292.456 460.187 294.182 458.878 295.805C457.569 297.428 455.485 299.277 454.247 299.915C453.01 300.552 451.997 301.852 451.997 302.802C451.997 303.752 450.985 304.99 449.747 305.553C448.51 306.116 447.622 307.161 447.775 307.874C447.928 308.588 446.949 310.04 445.599 311.102C443.49 312.761 443.269 313.465 444.028 316.11C444.513 317.803 444.634 320.572 444.295 322.264C443.783 324.827 443.951 325.235 445.307 324.715C447.14 324.012 448.586 325.522 447.011 326.495C446.375 326.888 446.331 327.76 446.894 328.814C448.246 331.346 447.885 340.004 446.427 340.004C445.759 340.004 444.935 340.725 444.596 341.607C444.245 342.523 443.341 342.966 442.489 342.639C440.525 341.885 437.997 342.9 437.997 344.442C437.997 345.115 436.927 346.239 435.618 346.939C433.187 348.24 433.054 350.93 435.28 353.772C435.974 354.659 435.705 355.69 434.385 357.194C433.347 358.379 433.06 359.019 433.747 358.617C435.267 357.728 435.373 359.433 433.962 362.069C433.393 363.133 432.048 364.004 430.974 364.004C429.462 364.004 428.873 364.926 428.367 368.089C427.981 370.506 427.057 372.404 426.106 372.734C424.179 373.404 421.051 377.044 421.019 378.651C420.982 380.566 415.668 386.004 413.833 386.004C412.888 386.004 411.875 386.393 411.581 386.868C411.287 387.344 408.898 387.667 406.272 387.586C403.123 387.489 400.816 388.003 399.497 389.094C398.397 390.004 396.825 390.523 396 390.246ZM452 267.004C452 266.454 451.33 266.004 450.511 266.004C449.583 266.004 449.087 265.156 449.194 263.754C449.289 262.516 448.557 259.816 447.569 257.754C446.202 254.9 445.175 254.004 443.273 254.004C441.032 254.004 440.821 253.674 441.24 250.82C441.598 248.384 441.155 247.125 439.354 245.456C438.059 244.256 437 242.647 437 241.88C437 241.112 436.1 239.923 435 239.236C433.9 238.549 433 237.064 433 235.936C433 234.808 432.637 234.11 432.194 234.384C431.75 234.658 431.575 236.485 431.803 238.443C432.121 241.167 432.678 242.004 434.172 242.004C435.43 242.004 436.066 242.627 435.958 243.754C435.715 246.279 437.066 250.004 438.225 250.004C438.784 250.004 438.943 251.096 438.589 252.504C438.24 253.897 438.396 255.004 438.942 255.004C440.484 255.004 444 259.205 444 261.047C444 261.964 445.437 263.904 447.193 265.359C450.571 268.157 452 268.646 452 267.004ZM479.685 239.182C481.668 237.19 481.29 235.448 479.25 237.172C477.124 238.968 473.625 238.423 474.395 236.416C474.693 235.639 474.351 235.004 473.635 235.004C472.919 235.004 471.021 233.666 469.417 232.031C466.02 228.57 465.282 228.367 464.773 230.754C464.568 231.716 465.547 233.599 466.95 234.938C468.352 236.276 469.543 237.176 469.596 236.938C469.867 235.719 473 239.507 473 241.053C473 243.36 476.207 244.082 477.435 242.05C477.95 241.2 478.962 239.909 479.685 239.182ZM396.29 223.004C395.939 221.663 396.26 221.004 397.261 221.004C398.083 221.004 399.315 220.329 400 219.504C401.662 217.501 402.741 217.613 403.455 219.861C403.882 221.207 404.725 221.588 406.52 221.245C407.882 220.984 410.106 221.498 411.463 222.387C414.415 224.321 417.314 224.449 420.014 222.763C421.6 221.772 422.411 221.779 424.041 222.797C425.163 223.498 426.563 223.774 427.153 223.41C427.742 223.045 428.616 223.368 429.096 224.126C429.801 225.238 429.972 225.19 429.985 223.876C429.992 222.981 430.675 221.688 431.5 221.004C432.325 220.319 433 218.464 433 216.881C433 215.299 433.505 214.004 434.122 214.004C434.904 214.004 434.872 213.554 434.016 212.523C432.748 210.995 424.671 210.853 422.303 212.317C421.662 212.713 420.842 212.558 420.481 211.972C420.119 211.387 419.075 210.981 418.161 211.071C417.248 211.161 415.992 211.182 415.371 211.119C413.81 210.96 411.656 205.429 412.258 203.127C412.546 202.022 411.972 200.568 410.876 199.63C409.358 198.33 409 198.292 409 199.43C409 200.204 408.438 201.026 407.75 201.257C406.774 201.585 406.811 202.259 407.918 204.339C408.698 205.803 409.089 207.248 408.786 207.551C407.928 208.409 403 206.907 403 205.787C403 205.222 401.922 205.057 400.523 205.409C398.467 205.925 397.938 205.603 397.414 203.517C396.922 201.558 396.146 201.004 393.892 201.004C391.222 201.004 390.45 202.054 390.845 205.144C390.89 205.496 389.819 205.996 388.464 206.255C386.429 206.644 386 206.33 386 204.448C386 203.195 386.563 201.943 387.25 201.666C387.938 201.389 387.488 201.126 386.25 201.083C384.705 201.028 384 200.386 384 199.035C384 197.752 383.509 197.255 382.59 197.607C381.756 197.928 380.926 197.345 380.556 196.179C380.124 194.82 379.321 194.368 377.965 194.723C376.469 195.114 376 194.732 376 193.12C376 191.956 375.637 191.004 375.193 191.004C374.749 191.004 373.962 189.835 373.443 188.406L372.5 185.809L369.5 188.405C366.4 191.088 365 191.63 365 190.147C365 189.676 363.631 189.339 361.957 189.397C359.348 189.488 358.992 189.815 359.459 191.688C359.908 193.482 359.379 194.099 356.503 195.139C354.576 195.835 353 196.828 353 197.344C353 197.861 352.213 198.881 351.25 199.612C350.181 200.423 349.987 200.952 350.75 200.972C352.337 201.012 352.398 204.704 350.82 205.23C348.963 205.849 350.71 209.004 352.91 209.004C353.994 209.004 355.131 208.6 355.436 208.108C355.745 207.607 357.545 207.563 359.519 208.008C363.205 208.839 367 208.325 367 206.994C367 206.567 369.325 206.282 372.166 206.361C377.003 206.495 377.355 206.679 377.7 209.254C377.903 210.766 377.694 212.004 377.238 212.004C376.546 212.004 376.355 215.253 376.871 218.254C376.942 218.666 378.509 219.004 380.354 219.004C382.52 219.004 384.637 219.865 386.332 221.435C388.619 223.555 390.251 224.153 395.656 224.854C396.341 224.943 396.6 224.188 396.29 223.004ZM343.429 213.118C343.73 212.631 342.753 211.998 341.257 211.713C338.712 211.226 338.661 211.283 340.46 212.598C342.728 214.257 342.726 214.256 343.429 213.118ZM347 212.504C347 211.679 346.564 211.004 346.031 211.004C345.499 211.004 345.322 211.679 345.638 212.504C345.955 213.329 346.391 214.004 346.607 214.004C346.823 214.004 347 213.329 347 212.504ZM350 209.111C350 208.619 349.325 207.959 348.5 207.642C347.586 207.291 347 207.64 347 208.535C347 209.343 347.675 210.004 348.5 210.004C349.325 210.004 350 209.602 350 209.111ZM473.74 207.754C474.281 207.066 475.02 205.266 475.381 203.754C475.895 201.602 475.68 201.004 474.394 201.004C473.101 201.004 472.878 200.364 473.35 198.004C473.721 196.149 473.537 195.004 472.868 195.004C472.273 195.004 472.024 194.382 472.316 193.623C472.607 192.864 471.548 190.727 469.963 188.873C466.775 185.145 466.375 184.004 468.259 184.004C468.952 184.004 470.096 183.079 470.802 181.95C471.683 180.539 472.698 180.09 474.042 180.517C476.274 181.225 476.587 180.414 474.75 178.682C473.053 177.082 470.408 177.218 468.256 179.015C467.275 179.834 465.241 181.142 463.736 181.923C462.22 182.709 461 184.185 461 185.232C461 186.271 461.403 186.873 461.895 186.568C462.919 185.936 464 188.256 464 191.085C464 192.337 464.695 193.004 466 193.004C467.111 193.004 468 193.67 468 194.504C468 195.329 468.45 196.004 469 196.004C470.552 196.004 470.178 198.998 468.547 199.624C466.747 200.315 466.956 205.999 468.781 206.002C469.486 206.003 470.322 206.679 470.638 207.504C471.34 209.331 472.428 209.419 473.74 207.754ZM635 201.037C635 199.854 635.45 199.164 636 199.504C636.55 199.844 637 199.42 637 198.563C637 196.448 635.088 196.583 634.308 198.754C633.963 199.716 632.889 201.274 631.923 202.215C630.882 203.229 630.383 204.752 630.697 205.955C631.212 207.921 631.286 207.909 633.114 205.586C634.151 204.267 635 202.22 635 201.037ZM527.755 196.426C529.023 196.828 529.959 196.552 530.296 195.676C530.589 194.912 532.217 194.01 533.914 193.671C537.755 192.903 537.853 191.6 534.184 190.08C532.157 189.24 530.592 189.208 528.6 189.966C527.078 190.544 525.42 190.763 524.916 190.452C524.412 190.14 524 190.812 524 191.945C524 194.404 523.242 194.532 520.952 192.46C519.413 191.067 519.187 191.075 518.623 192.544C518.223 193.586 518.445 194.022 519.24 193.757C519.923 193.529 521.049 193.909 521.741 194.602C523.243 196.104 523.414 199.004 522 199.004C521.45 199.004 521.016 199.566 521.036 200.254C521.055 200.941 522.124 200.218 523.409 198.646C525.11 196.566 526.293 195.962 527.755 196.426ZM395 193.838C395 193.261 394.382 193.027 393.626 193.317C392.844 193.617 391.714 192.838 391.002 191.508C389.095 187.944 383.306 187.031 384.639 190.504C384.942 191.294 385.485 191.901 385.845 191.854C387.844 191.589 389 192.168 389 193.434C389 194.221 390.013 195.031 391.25 195.235C393.914 195.674 395 195.27 395 193.838ZM445.01 194.716C446.239 195.038 446.877 194.43 447.226 192.602C447.669 190.282 447.475 190.097 445.194 190.67C443.13 191.188 442.786 191.003 443.304 189.653C443.699 188.624 443.431 188.004 442.591 188.004C441.851 188.004 440.663 187.302 439.951 186.445C438.986 185.281 437.671 185.052 434.771 185.542C430.118 186.328 425 184.499 425 182.049C425 179.849 424.138 179.013 422.513 179.637C421.8 179.911 421.447 180.996 421.725 182.058C422.08 183.417 421.533 184.262 419.864 184.93C418.564 185.451 418.063 185.905 418.75 185.94C420.587 186.033 420.277 189.004 418.431 189.004C417.39 189.004 416.969 189.732 417.181 191.163C417.441 192.925 418.314 193.397 421.923 193.73C425.207 194.033 426.572 193.734 427.223 192.571C428.458 190.363 432.996 190.507 433.016 192.754C433.027 194.041 433.246 194.164 433.845 193.22C434.782 191.744 438.065 192.631 439.309 194.695C439.847 195.587 440.649 195.74 441.701 195.151C442.572 194.664 444.061 194.468 445.01 194.716ZM382.122 185.1C381.364 184.62 381.053 183.727 381.431 183.115C381.809 182.504 381.641 182.004 381.059 182.004C380.477 182.004 380 182.904 380 184.004C380 185.248 380.662 185.998 381.75 185.988C383.134 185.976 383.212 185.79 382.122 185.1ZM438.985 181.254C438.977 180.841 438.533 179.829 438 179.004C437.252 177.846 437.027 177.814 437.015 178.861C437.008 179.654 436.377 179.978 435.5 179.642C434.675 179.325 434 179.469 434 179.962C434 180.454 434.788 181.063 435.75 181.314C438.576 182.053 439.001 182.045 438.985 181.254ZM387.712 147.553C390.459 145.687 391.756 145.338 393.159 146.089C394.171 146.631 395.01 147.621 395.022 148.289C395.034 148.957 395.875 148.424 396.889 147.104C397.904 145.784 398.517 143.872 398.251 142.854C397.985 141.836 398.29 141.004 398.929 141.004C399.715 141.004 399.878 139.872 399.434 137.504C398.704 133.611 399.648 133.159 404.584 135.035C406.958 135.938 407.14 135.877 406.037 134.548C405.344 133.713 405.038 132.348 405.357 131.516C405.676 130.684 405.471 130.004 404.901 130.004C404.296 130.004 404.149 129.109 404.548 127.852C405.082 126.17 404.893 125.831 403.678 126.297C402.607 126.708 402.02 126.211 401.788 124.698C401.604 123.491 400.911 122.613 400.25 122.746C399.472 122.902 399.077 121.664 399.132 119.246C399.179 117.188 398.896 114.295 398.504 112.818C397.879 110.464 398.293 109.786 401.858 107.318C404.094 105.77 405.941 103.748 405.962 102.825C405.985 101.902 406.662 100.484 407.472 99.6744C409.049 98.0973 408.272 96.9445 404.801 95.7098C403.594 95.2807 403.263 95.5257 403.658 96.5546C403.991 97.4231 403.613 98.0036 402.714 98.0036C400.884 98.0036 399.662 100.724 401.254 101.255C403.172 101.894 400.068 107.948 397.489 108.596C396.067 108.953 394.552 110.705 393.394 113.333C392.382 115.627 391.099 117.821 390.541 118.208C389.939 118.627 390.819 120.176 392.708 122.022C396.094 125.333 396.122 127.101 392.84 130.293C391.828 131.276 390.967 132.402 390.926 132.793C390.372 138.094 388.508 142.004 386.534 142.004C385.767 142.004 384.995 142.998 384.819 144.213C384.618 145.606 383.576 146.641 382 147.015C379.584 147.587 379.568 147.647 381.5 148.775C384.071 150.276 383.556 150.377 387.712 147.553ZM379 146.004C379.776 144.553 379.743 143.391 378.877 141.774L377.684 139.545L376.62 142.024C376.034 143.388 375.148 144.791 374.65 145.142C373.44 145.994 374.756 148.004 376.524 148.004C377.297 148.004 378.411 147.104 379 146.004ZM377 138.004C377 137.454 376.55 137.004 376 137.004C375.45 137.004 375 137.454 375 138.004C375 138.554 375.45 139.004 376 139.004C376.55 139.004 377 138.554 377 138.004ZM415 125.43C415 124.499 414.32 123.989 413.333 124.18C410.824 124.667 410.48 127.004 412.917 127.004C414.145 127.004 415 126.358 415 125.43ZM735.109 119.373C736.055 118.232 735.964 118.08 734.641 118.588C733.698 118.95 733 118.722 733 118.052C733 116.325 731.319 117.676 730.748 119.861C730.369 121.309 730.684 121.638 732.094 121.269C733.106 121.004 734.463 120.151 735.109 119.373ZM437.25 103.341C436.562 103.064 436 101.524 436 99.9203C436 96.3538 437.889 96.1226 442.028 99.1826C445.8 101.971 446.423 101.3 443.845 97.2274C442.6 95.2622 440.964 93.9898 439.652 93.9682C438.468 93.9485 436.375 93.2896 435 92.5036C433.625 91.7176 432.209 91.0585 431.853 91.0391C430.6 90.9705 431.517 97.5168 432.912 98.609C433.689 99.217 434.058 100.41 433.731 101.261C432.977 103.226 433.782 104.025 436.417 103.925C437.563 103.881 437.938 103.619 437.25 103.341ZM770 102.563C770 102.32 769.55 101.844 769 101.504C768.45 101.164 768 101.362 768 101.945C768 102.527 768.45 103.004 769 103.004C769.55 103.004 770 102.805 770 102.563ZM447.788 90.8669C447.538 90.118 447.085 90.5713 446.731 91.9235C446.296 93.5868 446.426 93.9772 447.168 93.2352C447.75 92.6541 448.028 91.5884 447.788 90.8669ZM520.362 90.5036C520.678 89.6786 521.653 89.0036 522.528 89.0036C523.402 89.0036 523.837 88.5488 523.493 87.9929C523.097 87.3516 522.094 87.5245 520.751 88.4658C519.535 89.3169 517.64 89.7004 516.305 89.3653C514.454 88.9009 514.104 89.1113 514.596 90.3924C515.375 92.4239 519.594 92.5053 520.362 90.5036ZM525 80.8856C525 79.1402 524.582 78.1441 524 78.5036C523.45 78.8436 523 80.4717 523 82.1217C523 83.867 523.418 84.8632 524 84.5036C524.55 84.1637 525 82.5356 525 80.8856ZM524.532 62.0389C523.519 60.9195 522.224 60.0036 521.654 60.0036C521.084 60.0036 521.491 60.6483 522.559 61.4363C524.115 62.5846 524.252 63.1205 523.25 64.1363C522.563 64.8333 522 66.0886 522 66.9259C522 68.0862 522.52 67.9282 524.187 66.2611C526.318 64.1306 526.326 64.0218 524.532 62.0389ZM545.683 64.8161C545.364 64.0184 545.127 64.2554 545.079 65.4203C545.036 66.4745 545.272 67.0651 545.604 66.7328C545.936 66.4005 545.972 65.538 545.683 64.8161ZM605.827 43.3491C606.447 42.2401 607.37 41.9299 608.626 42.4084C610.081 42.9625 610.234 42.8536 609.308 41.9212C608.382 40.9872 607.326 41.0956 604.558 42.4089C600.54 44.3158 600.114 45.0036 602.95 45.0036C604.023 45.0036 605.317 44.2591 605.827 43.3491ZM454.216 363.443C451.507 361.545 450.346 353.776 452.345 350.922C453.4 349.415 453.57 347.99 452.95 345.831C451.914 342.216 453.465 339.192 456.789 338.348C459.137 337.752 464 332.229 464 330.159C464 328.545 465.573 328.719 467.389 330.536C469.355 332.501 470.623 339.001 469.211 339.873C468.632 340.231 467.849 341.869 467.47 343.514C467.091 345.158 466.201 348.304 465.492 350.504C464.783 352.704 463.701 356.374 463.088 358.661C461.755 363.631 457.647 365.846 454.216 363.443ZM715.659 316.558C715.257 315.51 714.128 315.271 711.552 315.689C707.687 316.316 707.128 315.404 709.25 311.929C710.899 309.229 708.646 307.478 702.299 306.526C697.413 305.793 695 304.157 695 301.575C695 300.711 694.325 300.004 693.5 300.004C691.175 300.004 691.732 297.083 694.278 295.923C697.17 294.605 702.456 296.372 701.68 298.396C700.547 301.347 703.217 301.94 706.469 299.459C709.328 297.279 709.851 297.179 711.577 298.485C712.635 299.285 714.513 299.954 715.75 299.972C717.792 300.001 718.001 300.489 718.011 305.254C718.019 308.141 718.301 312.191 718.642 314.254C719.132 317.218 718.942 318.004 717.738 318.004C716.9 318.004 715.964 317.353 715.659 316.558ZM670.742 308.919C669.775 308.356 668.589 308.139 668.107 308.438C667.625 308.736 665.828 308.491 664.115 307.894C661.794 307.085 661 306.196 661 304.406C661 303.085 660.55 302.004 660 302.004C658.63 302.004 658.729 295.289 660.112 294.435C660.723 294.057 661.515 294.218 661.87 294.793C662.225 295.368 664.508 295.737 666.941 295.611C670.949 295.405 671.549 295.032 673.309 291.641C674.723 288.915 675.801 287.98 677.274 288.201C679.306 288.505 679.675 288.986 682.111 294.504C682.84 296.154 683.6 297.841 683.801 298.254C684.002 298.666 683.154 299.004 681.917 299.004C680.679 299.004 679.951 299.288 680.298 299.635C680.646 299.982 680.399 301.22 679.75 302.385C679.102 303.55 678.555 304.827 678.536 305.221C678.469 306.573 675.021 310.004 673.76 309.973C673.067 309.957 671.709 309.482 670.742 308.919ZM646.218 300.374C643.862 298.399 641.298 295.258 640.519 293.394C639.739 291.529 638.629 290.004 638.051 290.004C637.473 290.004 636.994 289.216 636.986 288.254C636.979 287.291 634.954 284.76 632.486 282.629C626.962 277.859 626.407 274.743 631.25 275.687C633.038 276.035 635.472 277.354 636.661 278.617C637.85 279.881 641.371 282.545 644.487 284.539C648.211 286.92 649.966 288.65 649.608 289.583C649.308 290.364 649.499 291.004 650.031 291.004C650.564 291.004 651 291.626 651 292.387C651 293.148 651.9 294.006 653 294.293C654.634 294.721 655 295.657 655 299.41C655 303.513 654.76 304.002 652.75 303.984C651.513 303.973 648.573 302.349 646.218 300.374ZM632.519 247.088C631.783 243.739 633.658 240.004 636.074 240.004C638.718 240.004 638.915 240.976 637.204 245.59C635.318 250.681 633.439 251.281 632.519 247.088ZM212.25 248.341C211.562 248.064 211 247.199 211 246.42C211 244.89 212.221 244.688 215.75 245.634C216.987 245.966 218 246.859 218 247.62C218 248.974 214.809 249.374 212.25 248.341ZM223.75 248.261C219.828 247.866 218.523 245.536 221.75 244.693C222.712 244.441 220.837 244.183 217.583 244.12C214.329 244.056 211.945 243.725 212.286 243.385C213.334 242.336 210.54 240.261 206.027 238.736C202.77 237.635 201.038 237.54 198.9 238.347C195.136 239.768 193.911 238.309 196.861 235.918C200.701 232.804 206.896 233.397 215.027 237.656C218.862 239.665 222 241.608 222 241.974C222 242.34 223.687 242.503 225.75 242.336C227.812 242.169 230.962 242.722 232.75 243.565C236.508 245.337 237.149 248.064 233.75 247.819C232.512 247.73 230.6 247.878 229.5 248.149C228.4 248.419 225.812 248.469 223.75 248.261Z" fill="#E0B281"/>
</g>
<defs>
<clipPath id="clip0_1494_4974">
<rect width="800" height="449" fill="white"/>
</clipPath>
</defs>
</svg>
