<svg width="454" height="511" viewBox="0 0 454 511" fill="none" xmlns="http://www.w3.org/2000/svg">
<g clip-path="url(#clip0_1494_4839)">
<path d="M395.177 499.272C393.908 496.097 391.814 492.283 390.524 490.796C389.234 489.31 380.825 482.721 371.839 476.154C362.853 469.588 350.031 459.291 343.346 453.273C328.89 440.258 323.485 436.621 315.517 434.545C310.721 433.296 303 433.251 303 434.471C303 434.609 304.786 438.532 306.969 443.19C311.945 453.809 314.163 462.128 313.359 467.157C312.454 472.815 309 471.807 309 465.885C309 464.813 308.325 463.677 307.5 463.36C306.675 463.043 305.99 462.045 305.978 461.141C305.94 458.285 302.289 451.27 295.612 441.224C292.057 435.875 286.579 426.187 283.438 419.696C279.516 411.587 276.724 407.127 274.52 405.446C272.755 404.1 270.872 402.998 270.336 402.998C269.799 402.998 267.506 401.412 265.24 399.472C260.534 395.444 258.488 391.427 250.479 370.498C244.399 354.609 242.183 350.541 239.178 349.755C238.156 349.488 234.486 350.597 231.022 352.22C220.58 357.113 215.633 357.568 199.5 355.119C180.446 352.226 160.567 352.229 146.692 355.126C137.341 357.079 135.621 357.156 125.851 356.054C115.288 354.864 115.145 354.876 108.351 357.567C104.583 359.06 99.0251 361.504 96.0001 362.999C83.3113 369.271 62.8887 373.978 48.3091 373.992C44.9041 373.995 41.838 374.451 41.4956 375.005C41.1532 375.559 42.4342 377.485 44.3422 379.284C47.0771 381.864 47.9487 383.608 48.4603 387.527C49.5179 395.628 49.8755 396.697 52.6189 399.957C56.3235 404.36 59.1787 405.574 71.3355 407.92C77.2296 409.058 89.2771 411.805 98.1078 414.025L114.164 418.062L117.617 415.03C121.536 411.589 123.022 411.389 129 413.498C131.338 414.323 136.543 414.998 140.567 414.998C147.286 414.998 150.275 416.057 148.517 417.815C147.258 419.072 135.556 418.257 129.178 416.468C123.263 414.808 122.767 414.803 121.186 416.385C119.808 417.763 119.747 418.223 120.853 418.907C124.66 421.261 149.012 421.17 157 418.773C159.315 418.078 164.147 414.141 171.275 407.143L182.05 396.564L181.396 390.781C180.837 385.836 180.978 384.998 182.371 384.998C183.313 384.998 184 385.811 184 386.927C184 387.988 184.563 389.45 185.25 390.177C185.938 390.904 186.597 393.169 186.716 395.211C186.911 398.567 186.497 399.235 182.399 402.178C178.969 404.642 177.026 407.179 174.415 412.609C172.517 416.555 170.41 420.211 169.732 420.735C169.054 421.258 160.175 423.364 150 425.415C124.631 430.528 120.467 431.571 120.712 432.748C120.828 433.308 122.037 436.286 123.399 439.365L125.875 444.964L131.188 442.491C137.425 439.587 145.754 439.214 156.089 441.377C164.19 443.072 167.22 444.61 166.801 446.816C166.528 448.251 164.423 448.614 152.491 449.287C136.007 450.217 132 450.754 132 452.037C132 452.559 135.272 457.383 139.272 462.756C143.271 468.13 148.01 475.126 149.803 478.303C152.738 483.504 153.216 483.925 154.603 482.538C157.17 479.971 157.52 480.816 155 483.498C153.507 485.088 153.14 485.998 153.992 485.998C154.73 485.998 155.072 486.259 154.754 486.578C154.435 486.897 155.262 490.359 156.593 494.272C158.064 498.597 158.652 501.746 158.094 502.305C156.712 503.686 155.66 502.631 153.126 497.321C144.657 479.573 141.831 475.327 130.294 463.021L123.285 455.544L119.102 458.312C112.424 462.731 112.173 464.389 116.933 472.644C121.151 479.96 122.076 483.998 119.535 483.998C118.73 483.998 117.536 482.986 116.882 481.748C115.134 478.438 107.21 468.274 104.209 465.491C97.3678 459.148 69.8478 449.009 57.0001 448.1L48.5001 447.498L47.7932 442.998C47.4044 440.523 46.4421 433.354 45.6549 427.066C44.6442 418.995 43.7531 415.291 42.6236 414.465C41.7438 413.821 36.6813 412.99 31.3738 412.617C20.1676 411.829 19.4606 412.176 16.0332 420.143C12.5984 428.127 13.3244 430.018 21.0001 433.077C24.8593 434.615 27.6315 436.344 27.8234 437.333C28.2845 439.707 26.5118 439.43 17.482 435.712C9.85806 432.573 9.48525 432.271 9.16784 428.962C8.98529 427.057 9.6353 422.856 10.6128 419.627C12.3485 413.893 12.3446 413.723 10.4449 412.327C5.61221 408.775 -12.0522 399.998 -14.3677 399.998C-15.7816 399.998 -18.7594 400.947 -20.9851 402.107C-24.2502 403.809 -25.3184 403.979 -26.5159 402.985C-27.3321 402.308 -28 400.969 -28 400.011C-28 397.602 -31.5942 393.259 -35.08 391.457C-38.3516 389.765 -50.7638 387.457 -62 386.451C-66.125 386.082 -73.8565 384.941 -79.1812 383.917C-90.2683 381.784 -93.699 382.365 -98.1936 387.138C-100.543 389.633 -101.629 390.004 -106.694 390.042C-113.715 390.096 -121.875 392.112 -123.391 394.168C-125.884 397.549 -128.578 397.776 -170.5 398.137L-212.5 398.498V395.998C-212.5 393.51 -212.442 393.495 -200.5 392.782C-169.214 390.915 -146.523 383.661 -137.636 372.685C-134.085 368.3 -133.085 361.669 -135.322 357.343C-139.273 349.703 -154.041 340.491 -168.541 336.624C-177.64 334.197 -193.551 332.011 -202.168 332.004C-211.463 331.997 -213 331.484 -213 328.391V325.998L-170.75 326.013C-135.981 326.025 -127.349 326.304 -122 327.586C-113.448 329.636 -93.6561 332.668 -83 333.56C-78.325 333.951 -73.416 334.676 -72.0912 335.171C-69.313 336.208 -62.2154 332.951 -45.5 322.969C-31.8364 314.81 -30.3769 313.627 -26.4967 307.561C-20.5302 298.234 -13.2847 294.127 -5.13737 295.453C-2.61287 295.864 -0.531908 295.503 1.66415 294.272C3.40443 293.297 6.65952 291.481 8.89768 290.237C11.1359 288.993 15.8998 287.36 19.4841 286.609C26.7946 285.076 28.7328 283.837 30.6033 279.499C31.9466 276.383 36.0676 271.478 39.4609 268.956C41.0887 267.746 41.0093 268.093 38.9938 270.999C37.6584 272.924 35.9885 275.093 35.2829 275.82C33.907 277.237 33.8661 277.35 33.5105 280.717C33.3306 282.419 33.9998 283.156 36.3881 283.887C40.7847 285.233 80.9375 287.482 84.526 286.583C86.1867 286.168 89.2664 283.829 91.5 281.288C93.7 278.785 98.9341 272.908 103.131 268.227C107.329 263.547 113.179 255.712 116.131 250.818C119.084 245.924 124.955 236.642 129.177 230.193L136.854 218.467L147.358 212.131C153.136 208.647 158.373 206.111 158.996 206.496C160.685 207.54 157.607 210.571 149.647 215.701C140.116 221.844 138.493 223.845 131.848 237.648C124.519 252.874 124.472 253.509 130.75 252.528C138.34 251.341 139.419 251.406 139.758 253.07C140.154 255.016 136.062 256.999 131.649 256.999C126.969 256.999 120.517 261.515 112.955 270.083C101.987 282.511 99.2283 286.303 96.1292 293.211C94.4915 296.861 92.2453 300.332 91.1375 300.925C89.5994 301.748 85.6218 301.314 74.3116 299.087C41.3576 292.6 34.6788 292.472 21.0787 298.064C9.83897 302.685 9.1811 304.548 19.1145 303.626C23.1765 303.248 29.7449 302.664 33.7108 302.328L40.9216 301.716L44.3381 309.213C48.2048 317.698 57.4713 327.999 61.2374 327.999C62.5024 327.999 65.4165 326.043 68.12 323.38C73.0693 318.506 75.6493 318.161 73.9618 322.599C72.6458 326.06 72.7511 326.999 74.4556 326.999C77.0986 326.999 98.7455 318.195 102.959 315.407C106.71 312.925 117.561 301.158 142.363 272.677C147.238 267.079 160.43 251.024 171.678 236.999L192.129 211.499L191.539 205.964C190.996 200.865 191.27 199.82 195.017 192.708C199.643 183.928 203 172.09 203 164.561C203 160.815 203.896 157.572 206.342 152.468C208.18 148.632 210.001 143.808 210.388 141.746C211.296 136.906 214 136.578 214 141.308C214 147.198 215.771 148.407 224.827 148.696C229.761 148.854 234.815 149.697 237.93 150.88C240.719 151.94 243.246 152.41 243.546 151.925C244.113 151.007 235.022 123.767 232.604 119.137C231.846 117.686 230.734 115.261 230.134 113.749C229.466 112.066 228.288 110.999 227.098 110.999C224.252 110.999 219.679 115.243 216.918 120.448C215.59 122.951 214.165 124.999 213.752 124.999C212.512 124.999 212.973 117.676 214.37 115.156C215.686 112.784 223.617 105.999 225.073 105.999C225.509 105.999 226.151 104.986 226.5 103.749C227.844 98.9798 229.263 96.0435 230.003 96.5003C230.427 96.7623 231.088 98.6691 231.472 100.738C231.856 102.806 233.027 106.074 234.073 107.999C235.12 109.924 237.584 116.899 239.549 123.499C243.725 137.524 246.623 144.248 250.429 148.749C255.596 154.858 259.494 152.581 265.419 139.991C267.358 135.87 270.331 130.024 272.025 126.999C275.671 120.491 275.581 118.264 270.948 100.295C267.058 85.2086 267.144 78.9993 271.544 57.6754C273.493 48.2282 274.98 39.3737 274.85 37.9987C274.517 34.4959 278.464 27.9987 280.925 27.9987C282.202 27.9987 280.959 38.0102 278.81 44.9987C277.712 48.5737 276.428 53.9737 275.958 56.9987C275.487 60.0237 274.597 65.1987 273.978 68.4987C273.36 71.7987 272.999 78.134 273.177 82.5771C273.481 90.1828 273.749 91.0258 277.75 96.9834C280.641 101.288 282 104.38 282 106.655C282 108.693 282.488 109.977 283.25 109.944C283.938 109.914 288.225 105.189 292.777 99.4438C300.642 89.5179 303 87.402 303 90.2702C303 92.4467 295.797 102.624 288.745 110.409C285.035 114.505 282 118.114 282 118.428C282 118.742 284.925 118.999 288.5 118.999C292.075 118.999 295 119.417 295 119.928C295 120.439 292.413 121.388 289.25 122.037C284.539 123.004 282.742 124.004 279.302 127.571C276.469 130.51 274.898 133.156 274.47 135.712C272.928 144.924 270.953 149.674 266.489 154.904C261.145 161.164 258.552 165.951 257.567 171.372C256.871 175.204 256.893 175.24 259.682 174.69C261.232 174.384 264.975 173.353 268 172.399C272.199 171.075 277.213 170.651 289.191 170.606C297.82 170.573 305.215 170.881 305.624 171.289C307.571 173.236 302.923 174.274 288.442 175.127C277.906 175.747 271.591 176.573 269.385 177.62C265.802 179.321 255.555 187.627 244.544 197.755C239.772 202.146 234.679 205.57 228.317 208.664C223.218 211.145 217.862 214.106 216.415 215.244C211.913 218.786 208 225.018 208 228.649C208 232.822 206.203 232.996 204.683 228.97C204.054 227.304 203.004 226.066 202.349 226.22C200.885 226.563 189 244.533 189 246.404C189 248.125 197.924 251.999 201.888 251.999C205.549 251.999 209.699 250.225 210.417 248.355C210.707 247.599 210.488 245.783 209.931 244.318C209.374 242.852 209.173 240.989 209.485 240.176C209.952 238.961 210.454 239.077 212.323 240.832L214.594 242.966L215.793 238.482C217.075 233.689 218.47 232.754 219.5 235.999C219.849 237.099 220.892 238.006 221.817 238.014C222.743 238.022 224.156 238.444 224.957 238.951C226.124 239.689 225.479 240.743 221.707 244.255C215.938 249.628 215.722 251.582 220.75 252.92C229.343 255.207 232.61 255.227 240.565 253.044C251.727 249.982 257.424 246.595 266 237.922C274.539 229.286 276.517 227.999 281.253 227.999C285.617 227.999 294.154 225.453 300.5 222.259C306.171 219.405 319.519 206.359 322.442 200.814C324.366 197.165 324.366 197.092 322.442 193.422C320.915 190.507 320.784 189.615 321.829 189.247C324.163 188.425 345.943 162.747 348.12 158.251C349.773 154.836 350.328 151.29 350.754 141.427C351.432 125.732 353.274 124.967 354.002 140.078C354.545 151.36 355.067 152.999 358.116 152.999C360.048 152.999 360.057 153.093 358.395 155.907C357.45 157.507 352.657 163.225 347.745 168.613C342.832 174.001 337.567 180.23 336.044 182.454C332.969 186.944 331.115 191.663 332.847 190.593C334.84 189.362 357.574 163.528 371.827 146.298C380.014 136.401 388.483 127.253 391.771 124.753C398.623 119.546 401.051 115.545 404.972 102.999C406.605 97.7737 410.204 89.5558 412.97 84.7366C416.374 78.8075 418 74.8469 418 72.4867C418 69.4649 418.323 68.9987 420.417 68.9987C421.746 68.9987 422.991 69.4709 423.183 70.048C423.861 72.0813 433.149 61.4405 436.305 55.0155C439.152 49.2192 439.5 47.5677 439.5 39.844C439.5 31.276 440.528 27.4767 441.667 31.8332C442.484 34.9581 444.02 34.1015 446.706 29.0229C450.52 21.8094 449.439 15.4734 443.459 9.99869C440.327 7.13032 435 0.109581 435 -1.15136C435 -3.07995 437.104 -1.66285 443.388 4.49869C447.034 8.07369 450.623 10.9987 451.363 10.9987C452.103 10.9987 455.462 7.9004 458.828 4.11361C463.759 -1.43464 466.712 -3.68298 474.037 -7.4661C482.756 -11.9697 486.985 -15.9962 486.996 -19.8056C486.998 -20.5229 488.348 -22.5479 489.995 -24.3056C493.258 -27.7868 493.913 -26.6686 491.428 -21.8614C488.803 -16.7866 489.914 -15.951 496.932 -17.719C500.269 -18.5596 503 -19.5683 503 -19.9605C503 -20.3526 504.8 -20.744 507 -20.8302C514.148 -21.1103 511.278 -18.6131 501.5 -16.0438C495.833 -14.5548 481.896 -7.42708 472.464 -1.19348C462.898 5.12806 459.419 9.83268 455.072 22.3284C451.335 33.0678 451.209 35.0111 454.25 34.9632C457.356 34.9143 460.132 33.1432 463.896 28.8097C467.366 24.8142 470.015 23.6915 480 21.9851C488.89 20.4657 493.78 17.0163 512.138 -0.687145L527.5 -15.5013L537.5 -19.1369C543 -21.1365 549.857 -23.5334 552.738 -24.4633C555.619 -25.3933 558.233 -26.5698 558.547 -27.0778C559.583 -28.7545 562.86 -28.0389 564.434 -25.7921C565.285 -24.577 565.648 -23.2655 565.241 -22.8778C564.351 -22.0308 547.838 -15.2838 543.25 -13.8928C541.462 -13.3508 540 -12.4785 540 -11.9543C540 -11.4302 538.987 -10.9984 537.75 -10.9947C535.357 -10.9875 531.865 -8.93227 527.991 -5.25132C526.688 -4.01382 525.13 -3.00132 524.527 -3.00132C523.219 -3.00132 514.506 5.94443 510.582 11.317C506.142 17.3968 500.496 20.775 488.533 24.5096C473.258 29.278 469.299 32.0025 462.633 42.336C459.108 47.801 454.968 52.614 450.849 56.0366C431.072 72.4707 426.949 77.2137 421.196 90.1502C419.154 94.7419 415.76 101.567 413.654 105.318L409.824 112.138L412.551 116.073C414.051 118.237 416.792 120.943 418.643 122.087C422.053 124.195 434.512 126.9 441.102 126.964C445.727 127.009 450.825 123.588 453.656 118.542C456.613 113.269 461 95.3435 461 88.5291C461 81.7974 463.057 81.0256 465.746 86.7487C468.502 92.6159 471.174 92.3241 477.36 85.4801C489.541 72.0037 499.799 62.142 503.713 60.1451C509.118 57.3875 512.293 57.4432 524.502 60.5099C536.43 63.506 540.08 63.1648 546.996 58.4073C553.802 53.7258 556.347 53.8717 551.826 58.6842C549.658 60.9916 549.658 60.9987 551.722 60.9987C552.861 60.9987 557.102 59.5615 561.146 57.8049C567.592 55.0054 569.827 54.5656 579.25 54.2425C585.162 54.0398 590 54.2603 590 54.7327C590 55.2051 586.876 56.1272 583.058 56.7819C579.24 57.4366 573.559 59.1032 570.434 60.4855C567.308 61.8678 562.981 62.9987 560.818 62.9987C552.925 62.9987 547.734 64.929 543.758 69.344C540.108 73.3958 539.826 73.5113 532.361 74.007C525.539 74.4601 524.113 74.228 519.238 71.8719C516.23 70.418 512.677 68.0518 511.344 66.6136C510.01 65.1754 508.532 63.9987 508.059 63.9987C505.441 63.9987 494.625 73.9036 489.107 81.3539C484.978 86.9294 480.963 91.0679 477.367 93.4557C471.317 97.4724 466.349 104.337 465.448 109.925C464.384 116.528 461.992 121.627 457.482 126.911C455.017 129.799 453 132.497 453 132.906C453 133.315 454.092 134.676 455.427 135.93C457.63 138 458.623 138.177 466.205 137.854C474.007 137.522 475.032 137.211 481.786 133.129C485.762 130.726 491.824 127.623 495.258 126.233L501.5 123.706L506 125.548C510.816 127.52 523.879 128.119 529.558 126.628L532.615 125.826V130.912C532.615 133.71 532.589 135.998 532.558 135.998C532.527 135.998 530.108 135.089 527.184 133.977C522.783 132.305 521.199 132.137 517.979 133.004C515.84 133.58 513.427 134.715 512.616 135.525C510.368 137.774 509.126 137.326 506.834 133.442C505.68 131.486 504.233 130.108 503.618 130.38C488.658 136.993 482.359 139.624 477 141.498C473.425 142.748 468.568 144.502 466.207 145.395C462.052 146.966 461.685 146.936 454.707 144.455C428.576 135.161 423.726 133.88 417.263 134.566C411.283 135.202 410.88 135.1 407.478 132.114C403.155 128.318 402.096 128.277 395.867 131.667C391.271 134.169 385 141.952 385 145.156C385 145.776 380.77 150.607 375.6 155.891C357.496 174.397 326.655 210.449 327.284 212.372C328.011 214.594 335.547 216.295 344.789 216.323C352.682 216.347 354.033 216.587 353.776 217.92C353.319 220.294 345.051 221.794 331.827 221.903C320.796 221.993 319.984 222.141 317.077 224.588C312.338 228.575 313.07 229.575 321.75 230.971C338.886 233.727 345.642 237.274 351.653 246.671C355.26 252.309 359.973 255.988 363.598 255.995C364.878 255.997 367.996 253.562 371.598 249.749C378.33 242.62 383.846 239.946 391.5 240.102C395.9 240.191 396.127 240.292 393.394 240.945C388.994 241.996 378.865 247.971 379.564 249.103C379.885 249.623 379.553 249.925 378.824 249.773C377.958 249.594 377.5 250.537 377.5 252.499C377.5 255.409 378.172 255.835 400 266.772C423.079 278.336 436.267 283.999 440.12 283.999C442.557 283.999 459.605 277.365 476.778 269.733C487.824 264.825 490.496 264.379 488.371 267.797C486.367 271.021 479.458 274.754 464 280.963C455.475 284.387 448.12 287.548 447.657 287.987C447.193 288.426 447.555 289.916 448.461 291.299C449.416 292.756 449.709 294.061 449.158 294.401C448.102 295.054 391.322 273.94 378.091 267.974C370.43 264.52 367 263.906 367 265.989C367 266.416 369.037 268.28 371.528 270.132C374.018 271.984 384.097 282.831 393.925 294.238C409.471 312.28 411.951 315.628 412.995 319.976C414.596 326.653 417.054 329.523 422.303 330.845C426.844 331.988 432 335.373 432 337.211C432 338.829 421.915 337.497 416.703 335.191C409.656 332.074 404.862 326.96 392.787 309.679C386.579 300.795 379.683 291.69 377.462 289.447C372.388 284.324 353.935 268.999 352.839 268.999C352.39 268.999 349.874 272.251 347.249 276.225C343.12 282.475 340.557 284.895 336.599 286.283C336.103 286.457 339.816 292.753 344.849 300.274C351.284 309.889 354.966 314.438 357.251 315.598C359.038 316.506 369.936 322.903 381.47 329.813C398.921 340.27 403.704 342.68 409.97 344.172C420.53 346.686 422.577 347.701 426.79 352.506C428.83 354.833 435 359.862 440.5 363.681C446 367.5 452.913 372.457 455.861 374.696C462.142 379.465 469.224 381.999 476.273 381.999C486.837 381.999 523.566 374.118 527.885 370.925C530.242 369.183 531.349 369.025 536.056 369.756C545.573 371.236 554.313 367.818 558.309 361.053C561.005 356.488 570.349 325.549 574.434 307.66C575.395 303.455 577.592 305.863 578.408 312.016C578.793 314.918 579.576 316.99 580.284 316.977C581.976 316.947 591 303.146 590.999 300.59C590.998 297.598 585.35 286.032 582.183 282.537C580.707 280.908 580.255 280.148 581.178 280.849C582.655 281.971 582.62 281.503 580.885 276.937C579.801 274.085 579.139 271.526 579.414 271.251C580.743 269.922 582.714 272.336 584.832 277.886C586.114 281.248 587.481 283.999 587.869 283.999C588.257 283.999 588.644 284.928 588.73 286.063C588.909 288.434 593.446 296.538 595.203 297.624C597.198 298.857 608.609 285.569 612.754 277.186L616.5 269.609V255.054C616.5 247.048 616.1 237.911 615.612 234.749C614.837 229.728 614.932 228.999 616.362 228.999C617.313 228.999 618 229.808 618 230.927C618 231.988 618.562 233.45 619.25 234.177C619.937 234.904 620.562 236.849 620.637 238.499C620.713 240.149 621.09 246.899 621.475 253.499C622.132 264.747 622.007 266.062 619.474 274.499C617.988 279.449 616.553 284.261 616.284 285.193C615.937 286.399 616.885 287.407 619.576 288.693C625.254 291.405 625.381 293.433 619.822 292.599C615.893 292.01 614.883 292.294 610.944 295.092C605.775 298.764 600 304.063 600 305.133C600 305.541 601.1 305.79 602.446 305.687C606.524 305.373 605.771 307.344 600.786 310.037C594.683 313.333 591.417 316.442 588.221 321.999C586.798 324.474 583.875 328.445 581.727 330.824C576.063 337.094 572.766 344.968 572.216 353.533C571.67 362.046 572.778 364.679 577.262 365.519C585.518 367.065 592.271 364.659 626 348.159C643.875 339.415 659.85 331.721 661.5 331.062C668.299 328.345 672.081 324.613 678.677 314.107C686.372 301.85 689.353 295.695 691.322 287.999C692.177 284.654 693.271 282.499 694.114 282.499C695.219 282.499 695.43 284.348 695.154 291.631C694.939 297.309 695.206 301.008 695.86 301.412C697.588 302.48 703.403 299.497 706.297 296.058C708.646 293.265 708.999 291.973 708.99 286.172C708.983 281.199 708.354 278.154 706.523 274.221C704.304 269.454 703.821 269.005 701.533 269.58C698.464 270.35 698.175 268.495 700.627 263.754C701.968 261.16 702.065 259.792 701.18 255.958C699.98 250.758 700.558 246.999 702.559 246.999C703.399 246.999 703.997 248.527 704.192 251.171C704.515 255.552 706.406 257.381 707.432 254.304C707.762 253.311 708.922 251.374 710.009 249.999C711.684 247.88 712.137 247.728 712.977 248.999C714.818 251.783 714.017 254.974 710.5 258.867C708.575 260.998 707 263.784 707 265.06C707 267.721 714.683 280.94 716.674 281.704C717.403 281.984 718 282.692 718 283.277C718 283.862 718.751 285.171 719.669 286.185C721.286 287.972 721.418 287.96 723.919 285.791C725.338 284.559 723.125 287.041 719 291.307C714.209 296.261 711.606 299.731 711.793 300.912C711.997 302.206 711.273 302.964 709.376 303.44L706.667 304.12L709.266 306.719C712.683 310.136 718.129 310.071 727.5 306.502C737.906 302.538 739 302.379 739 304.829C739 306.451 736.915 307.897 729.25 311.592C717.121 317.439 711.408 318.208 703.614 315.045C698.545 312.987 698 312.947 695.15 314.421C691.979 316.061 687 321.826 687 323.858C687 324.628 688.8 324.966 692.25 324.844C697.967 324.642 704 325.708 704 326.92C704 327.936 698.119 329.566 689.275 331C684.944 331.702 680.993 333.002 679.41 334.248C676.504 336.534 671 347.834 671 351.514C671 355.043 680.697 362.979 685.108 363.062C688.032 363.117 688.203 363.245 686.352 363.992C685.171 364.468 683.944 365.28 683.625 365.796C683.282 366.352 681.512 366.395 679.273 365.903C659.438 361.537 650.443 362.848 640.867 371.5C637.006 374.988 636.963 374.999 626.747 375.157C621.111 375.245 612 375.388 606.5 375.476C601 375.563 589.75 376.614 581.5 377.81C573.25 379.006 566.387 379.988 566.25 379.992C566.112 379.995 566 380.377 566 380.84C566 382.158 573.275 384.007 578.116 383.92C582.819 383.835 594.852 381.872 596.5 380.92C597.05 380.603 601.436 380.63 606.247 380.98C614.021 381.545 615.468 381.972 619.247 384.81C632.424 394.707 644.139 396.486 669.5 392.442C684.225 390.094 689.745 390.451 695.54 394.126C700.664 397.376 708 400.395 708 399.254C708 398.894 708.529 399.128 709.176 399.775C710.078 400.677 709.956 401.39 708.651 402.832C707.226 404.406 707.172 404.897 708.317 405.847C709.069 406.471 710.052 406.648 710.502 406.24C710.952 405.832 711.028 406.011 710.67 406.637C710.272 407.334 712.155 408.785 715.537 410.387C718.572 411.823 721.38 413.009 721.777 413.021C722.175 413.032 723.625 413.923 725 414.999C729.852 418.794 721.508 416.75 710.079 411.343C702.59 407.8 682.881 401.113 675 399.44C670.647 398.516 667.509 398.359 665.5 398.965C663.85 399.463 660.516 400.388 658.09 401.022C655.665 401.656 652.499 403.049 651.054 404.117L648.427 406.059L638.463 402.952C627.663 399.585 624.015 397.913 619.704 394.357C618.167 393.089 615.242 391.66 613.204 391.182C608.817 390.153 582.873 390.297 571.5 391.413C564.809 392.07 562.235 391.855 555.768 390.098C551.516 388.944 546.184 387.999 543.919 387.999C541.655 387.999 538.221 387.248 536.288 386.331C532.887 384.717 532.627 384.742 528.204 387.081C525.69 388.411 521.902 391.2 519.787 393.278L515.941 397.058L505.72 396.445C497.501 395.951 493.46 396.243 485.079 397.934C473.026 400.367 471.708 401.102 473.056 404.646C473.577 406.016 473.738 408.192 473.415 409.482C472.856 411.709 472.725 411.743 470.785 410.162C469.662 409.247 465.313 405.064 461.121 400.865C449.627 389.352 415.32 363.852 400.794 356.025C394.857 352.826 392.217 351.945 389.294 352.186L385.5 352.499L385.857 358.368C386.137 362.974 385.922 364.14 384.857 363.788C384.108 363.54 383.264 361.359 382.974 358.919C382.685 356.488 382.096 353.937 381.666 353.25C380.912 352.047 372.012 344.401 356.069 331.26C351.906 327.829 342.398 318.675 334.941 310.917C324.18 299.722 320.878 296.849 318.941 296.997C317.598 297.1 310.263 297.255 302.641 297.341L288.782 297.499L285.876 300.999C284.278 302.924 277.914 307.874 271.735 311.999C256.426 322.219 256.487 322.079 258.447 342.133C261.538 373.765 268.376 389.417 283.488 399.447C289.727 403.589 290.547 404.791 292.112 412.085C293.363 417.921 296.684 421.999 300.185 421.999C301.436 421.999 305.056 420.397 308.228 418.439C311.401 416.481 314.389 415.121 314.869 415.418C315.349 415.715 315.995 417.226 316.305 418.776C317.112 422.809 321.525 426.78 327.011 428.409C334.57 430.654 337.525 432.593 343.183 439.022C348.444 444.999 373.683 466.171 378.832 468.926C383.883 471.629 392.53 472.968 405.038 472.983C416.295 472.998 437.057 471.04 442.637 469.438C445.447 468.632 446.412 470.331 444.226 472.238C441.696 474.446 434.063 475.819 420.5 476.507C402.492 477.421 389 479.958 389 482.432C389 483.177 390.237 485.112 391.75 486.731C393.262 488.35 394.52 490.085 394.546 490.587C394.572 491.089 395.393 494.095 396.372 497.269C398.79 505.102 398.022 506.391 395.177 499.272ZM113.851 451.901C117.757 450.539 117.858 448.65 114.395 441.715C108.654 430.22 102.24 426.288 82.2225 421.993C74.6752 420.373 66.7001 418.382 64.5001 417.567C62.3001 416.753 59.4519 416.067 58.1706 416.043C56.0709 416.003 55.9052 416.319 56.4898 419.249C59.5895 434.78 63.2688 439.505 74.9781 442.992C79.0667 444.21 84.9067 446.348 87.956 447.744C98.8826 452.746 107.472 454.125 113.851 451.901ZM42.0001 402.082C42.0001 399.99 37.6285 391.209 33.4814 384.97C29.3809 378.802 21.6667 372.057 20.6689 373.766C20.1993 374.571 31.3311 399.488 33.1271 401.652C34.3729 403.153 42.0001 403.522 42.0001 402.082ZM25.0001 398.97C25.0001 397.115 19.2709 386.582 16.1022 382.611C13.7278 379.635 13.0001 377.725 13.0001 374.468C13.0001 371.51 12.5178 370.028 11.4183 369.606C8.73981 368.578 -17.8323 368.918 -18.494 369.989C-19.384 371.429 -12.6731 379.824 -6.71767 384.721C-0.468825 389.858 7.826 394.369 16.7862 397.502C24.6679 400.258 25.0001 400.317 25.0001 398.97ZM636.509 361.922C643.707 358.934 656.885 351.452 660.576 348.257C663.451 345.768 666.144 341.476 665.337 340.669C662.574 337.906 641.945 344.812 631.507 351.994C625.386 356.206 620.008 363.673 621.803 365.468C622.864 366.529 628.932 365.066 636.509 361.922ZM53.784 332.153C55.7869 330.883 54.3746 328.746 49.4888 325.655C43.893 322.115 41.0001 318.513 41.0001 315.086C41.0001 307.709 35.1208 306.195 23.1887 310.499C14.7564 313.54 13.6151 313.573 9.83002 310.878C7.84807 309.466 4.73226 308.586 0.519827 308.248L-5.81148 307.74L-8.57447 312.119C-10.0941 314.528 -14.6601 319.603 -18.721 323.396C-22.782 327.19 -25.7267 330.672 -25.2648 331.134C-24.8029 331.596 -7.79181 332.097 12.5376 332.249C32.867 332.4 50.1751 332.624 51.0001 332.746C51.8251 332.868 53.0779 332.601 53.784 332.153ZM216 323.069C224.525 319.659 233.289 316.11 235.476 315.184C237.698 314.242 244.353 308.801 250.569 302.845C256.847 296.829 263.901 291.069 266.773 289.614C269.57 288.196 272.111 286.628 272.42 286.129C273.041 285.123 268.257 281.2 263.29 278.642C258.664 276.259 249.738 274.403 231.293 271.988C208.56 269.011 209.66 268.736 202.845 279.094C199.735 283.821 191.297 295.061 184.095 304.071C176.893 313.081 171 321.018 171 321.709C171 322.927 178.93 327.449 184 329.121C185.375 329.575 189.65 329.794 193.5 329.608C199.283 329.329 203.194 328.192 216 323.069ZM165.054 311.142C176.129 304.026 194.27 284.384 199.669 273.664L203.174 266.703L191.857 267.419C180.815 268.118 178 268.945 178 271.493C178 273.677 168.425 287.331 163.703 291.881C160.66 294.813 158.074 298.743 155.888 303.756C152.734 310.99 152.686 311.296 154.502 312.624C157.333 314.694 160.139 314.3 165.054 311.142ZM308 278.541C314.669 277.248 316.125 277.259 321.138 278.643C326.344 280.08 327.053 280.067 330.397 278.481C334.42 276.571 341.131 268.753 344.301 262.28C346.293 258.215 346.303 257.99 344.572 256.078C341.557 252.746 328.452 244.105 321.434 240.821C309.709 235.334 296.633 236.027 285.173 242.743C280.233 245.638 272.36 253.329 269.747 257.811L267.993 260.819L272.747 265.454C277.305 269.899 295.534 280 298.993 279.997C299.822 279.997 303.875 279.342 308 278.541ZM209.16 201.999C212.647 200.35 216.821 199 218.434 198.999C226.597 198.997 233.556 192.438 243.722 175.166C250.837 163.075 250.62 162.069 239.709 156.578C229.665 151.522 223.018 150.779 218.092 154.16C212.034 158.318 210.921 160.764 209.466 173.117C208.01 185.479 206.275 191.449 202.461 197.227C199.978 200.989 199.443 203.108 200.667 204.332C201.716 205.381 202.424 205.186 209.16 201.999ZM532.75 69.3684C537.814 68.0114 534.992 66.6705 524.5 65.4476C517.915 64.68 517.854 65.5589 524.316 68.1281C529.231 70.0818 529.784 70.1632 532.75 69.3684Z" fill="#E1B382" stroke="#E1B382" stroke-width="0.999999"/>
</g>
<defs>
<clipPath id="clip0_1494_4839">
<rect width="960" height="595" fill="white" transform="translate(-213 -71)"/>
</clipPath>
</defs>
</svg>
