<svg width="699" height="594" viewBox="0 0 699 594" fill="none" xmlns="http://www.w3.org/2000/svg">
<g clip-path="url(#clip0_1494_4856)">
<path d="M701.428 50.4282L707.428 45.4282L705.428 51.4282C716.165 51.4282 735.257 51.3798 737.428 37.4282L714.428 39.4282C717.16 30.8841 718.531 23.1097 715.335 14.4282C711.194 3.18002 702.217 8.12912 698.576 17.4282C694.06 28.9626 701.166 39.296 701.428 50.4282ZM740.428 68.4282C749.295 76.6325 760.896 77.8301 772.428 75.6234C775.207 75.0916 782.792 74.4781 782.792 70.4652C782.792 66.1778 775.711 63.2705 772.428 62.1782C760.515 58.2141 749.855 60.7006 740.428 68.4282ZM479.428 74.4282C476.223 87.8913 480.504 96.9128 488.428 107.428C498.707 97.6388 492.7 77.6191 479.428 74.4282ZM639.428 98.4282C626.323 100.676 623.585 130.457 631.282 139.109C638.04 146.706 642.487 130.871 643.128 126.428C643.686 122.556 643.624 118.326 643.338 114.428C642.933 108.909 640.665 103.774 639.428 98.4282ZM785.428 126.428C804.038 126.428 821.383 125.708 823.428 102.428C802.352 102.428 796.662 109.37 785.428 126.428ZM490.428 133.428C506.424 126.909 521.058 123.071 526.428 104.428C509.074 99.2987 491.508 116.618 490.428 133.428ZM786.428 132.428C790.756 143.568 806.278 149.052 817.428 146.428C811.438 130.988 802.46 124.382 786.428 132.428ZM432.428 146.428C425.039 157.622 428.135 172.705 440.428 178.428L444.428 168.428L448.428 181.428H449.428C451.232 175.208 456.818 176.094 460.899 171.945C466.329 166.424 468.273 156.89 468.428 149.428C455.661 150.011 449.889 157.538 447.428 169.428L432.428 146.428ZM723.428 209.428C724.992 215.339 725.524 221.661 727.529 227.428C729.87 234.16 734.613 239.94 740.432 243.984C742.34 245.311 746.254 248.229 748.4 245.781C750.233 243.69 749.459 238.98 749.424 236.428C749.255 223.889 736.701 208.974 723.428 209.428ZM595.428 223.428C600.183 224.797 604.473 227.397 609.428 228.127C613.94 228.792 633.079 226.14 629.252 217.846C627.983 215.096 623.041 214.364 620.428 213.893C610.169 212.042 601.35 214.667 595.428 223.428ZM592.428 315.428C605.806 312.259 616.632 311.631 620.787 296.428C621.593 293.476 624.03 286.794 620.825 284.496C617.918 282.412 612.027 285.475 609.428 286.96C598.697 293.092 595.606 304.291 592.428 315.428ZM836.428 315.428C846.331 303.566 855.914 300.511 858.428 283.428C844.85 283.542 828.077 301.395 836.428 315.428ZM254.428 306.428C239.849 321.049 243.607 330.264 246.428 348.428H247.428L253.428 342.428L247.428 353.428C258.865 354.873 275.521 354.515 281.428 342.428C274.516 340.242 264.527 337.635 257.428 339.428C262.978 329.704 262.858 314.843 254.428 306.428ZM593.428 320.428C601.449 331.539 614.596 328.672 626.428 328.428C623.596 310.873 603.923 314.005 593.428 320.428ZM935.428 360.428H936.428C949.663 348.275 961.477 340.893 955.428 320.428C943.511 325.739 925.918 347.156 935.428 360.428ZM797.428 354.428L793.428 343.428L801.428 356.428C805.119 354.706 820.246 340.077 812.821 335.588C808.94 333.243 804.349 340.196 800.004 338.604C795.274 336.871 790.124 327.467 784.746 328.349C781.716 328.845 782.407 334.324 782.432 336.428C782.552 346.609 789.235 350.218 797.428 354.428ZM600.428 430.428V436.428L597.428 431.428C586.437 435.692 575.537 441.67 571.428 453.428C579.625 456.493 586.833 454.035 594.428 450.428C594.601 458.802 597.527 465.432 603.468 471.409C605.277 473.228 608.803 477.161 611.725 475.342C619.777 470.33 611.871 456.047 615.545 449.862C618.073 445.606 628.246 447.428 632.428 447.428C630.179 432.854 612.178 430.428 600.428 430.428ZM897.428 438.428V439.428C900.603 442.915 902.967 447.327 906.558 450.385C916.929 459.218 927.808 455.598 939.428 452.428C928.098 436.021 916.719 426.449 897.428 438.428ZM402.428 471.428C412.331 459.566 421.914 456.511 424.428 439.428C410.85 439.542 394.077 457.395 402.428 471.428ZM924.428 479.428C935.944 489.745 955.047 491.093 960.428 473.428C948.283 470.537 934.962 472.803 924.428 479.428ZM688.428 480.428C683.962 495.541 695.124 515.448 710.428 519.428C710.591 499.756 706.938 490.282 688.428 480.428ZM921.428 482.428C926.174 490.32 926.733 499.785 931.757 507.389C934.809 512.007 945.99 521.047 952.11 517.36C957.77 513.951 952.606 501.235 949.79 497.468C943.748 489.385 930.633 485.613 921.428 482.428ZM367.428 558.428C370.984 560.216 388.961 565.072 387.507 555.616C386.173 546.948 369.966 555.023 367.428 558.428ZM603.428 562.428C598.611 568.263 589.853 586.425 596.456 593.77C602.178 600.136 611.262 581.982 612.428 578.428C617.906 586.042 623.138 590.26 632.428 592.217C634.985 592.756 639.331 594.188 640.821 591.106C649.236 573.696 619.51 564.057 608.428 562.428L612.428 577.428H611.428C610.409 571.691 608.046 566.077 603.428 562.428Z" fill="#2D535D"/>
</g>
<defs>
<clipPath id="clip0_1494_4856">
<rect width="960" height="593.386" fill="white"/>
</clipPath>
</defs>
</svg>
