<svg width="1099" height="588" viewBox="0 0 1099 588" fill="none" xmlns="http://www.w3.org/2000/svg">
<g clip-path="url(#clip0_1494_4859)">
<path opacity="0.994" d="M1047.68 562.77C1046.41 559.595 1044.31 555.78 1043.02 554.294C1041.73 552.808 1033.33 546.219 1024.34 539.652C1015.35 533.085 1002.53 522.789 995.846 516.77C981.39 503.756 975.985 500.118 968.017 498.043C963.221 496.794 955.5 496.748 955.5 497.969C955.5 498.107 957.286 502.03 959.469 506.688C964.445 517.307 966.663 525.626 965.859 530.655C964.954 536.312 961.5 535.305 961.5 529.383C961.5 528.311 960.825 527.174 960 526.858C959.175 526.541 958.49 525.543 958.478 524.639C958.44 521.783 954.789 514.767 948.112 504.722C944.557 499.373 939.079 489.685 935.938 483.194C932.016 475.085 929.224 470.625 927.02 468.944C925.255 467.598 923.372 466.496 922.836 466.496C922.299 466.496 920.006 464.909 917.74 462.97C913.034 458.941 910.988 454.925 902.979 433.996C896.899 418.107 894.683 414.039 891.678 413.253C890.656 412.986 886.986 414.095 883.522 415.718C873.08 420.61 868.132 421.065 852 418.617C832.946 415.724 813.067 415.727 799.192 418.624C789.841 420.577 788.121 420.653 778.351 419.552C767.788 418.362 767.645 418.374 760.851 421.065C757.083 422.558 751.525 425.002 748.5 426.497C735.811 432.769 715.389 437.476 700.809 437.49C697.404 437.493 694.338 437.949 693.996 438.503C693.653 439.057 694.934 440.983 696.842 442.782C699.577 445.361 700.449 447.106 700.96 451.025C702.018 459.125 702.376 460.194 705.119 463.455C708.824 467.857 711.679 469.072 723.835 471.418C729.73 472.556 741.777 475.303 750.608 477.523L766.664 481.56L770.117 478.528C774.036 475.086 775.522 474.887 781.5 476.996C783.838 477.821 789.043 478.496 793.067 478.496C799.786 478.496 802.775 479.555 801.017 481.312C799.758 482.57 788.056 481.755 781.678 479.966C775.763 478.306 775.267 478.301 773.686 479.882C772.308 481.261 772.247 481.721 773.353 482.405C777.16 484.759 801.512 484.668 809.5 482.27C811.815 481.575 816.647 477.639 823.775 470.641L834.55 460.062L833.896 454.279C833.337 449.334 833.478 448.496 834.871 448.496C835.813 448.496 836.5 449.309 836.5 450.425C836.5 451.485 837.063 452.948 837.75 453.675C838.438 454.401 839.097 456.667 839.216 458.708C839.411 462.065 838.997 462.733 834.899 465.676C831.469 468.139 829.526 470.677 826.915 476.106C825.017 480.052 822.91 483.709 822.232 484.232C821.554 484.755 812.675 486.862 802.5 488.912C777.131 494.026 772.967 495.068 773.212 496.246C773.328 496.806 774.537 499.784 775.899 502.863L778.375 508.462L783.688 505.989C789.925 503.085 798.254 502.712 808.589 504.874C816.69 506.569 819.72 508.108 819.301 510.313C819.028 511.749 816.923 512.112 804.991 512.785C788.507 513.714 784.5 514.252 784.5 515.535C784.5 516.057 787.772 520.88 791.772 526.254C795.771 531.628 800.51 538.624 802.303 541.801C805.238 547.002 805.716 547.423 807.103 546.036C809.67 543.469 810.02 544.314 807.5 546.996C806.007 548.585 805.64 549.496 806.492 549.496C807.23 549.496 807.572 549.757 807.254 550.076C806.935 550.395 807.762 553.857 809.093 557.77C810.564 562.095 811.152 565.244 810.594 565.803C809.212 567.184 808.16 566.129 805.626 560.819C797.157 543.071 794.331 538.825 782.794 526.519L775.785 519.042L771.602 521.81C764.924 526.229 764.673 527.886 769.433 536.141C773.651 543.458 774.577 547.496 772.035 547.496C771.23 547.496 770.036 546.483 769.382 545.246C767.634 541.936 759.71 531.772 756.709 528.989C749.868 522.645 722.348 512.507 709.5 511.598L701 510.996L700.293 506.496C699.904 504.021 698.942 496.852 698.155 490.564C697.144 482.493 696.253 478.789 695.124 477.963C694.244 477.319 689.181 476.488 683.874 476.114C672.668 475.327 671.961 475.674 668.533 483.641C665.098 491.625 665.824 493.516 673.5 496.575C677.359 498.113 680.131 499.842 680.323 500.831C680.784 503.205 679.012 502.927 669.982 499.21C662.358 496.071 661.985 495.768 661.668 492.46C661.485 490.555 662.135 486.354 663.113 483.125C664.849 477.391 664.845 477.221 662.945 475.825C658.112 472.273 640.448 463.496 638.132 463.496C636.718 463.496 633.741 464.445 631.515 465.605C628.25 467.307 627.182 467.477 625.984 466.483C625.168 465.805 624.5 464.467 624.5 463.508C624.5 461.1 620.906 456.757 617.42 454.955C614.148 453.263 601.736 450.955 590.5 449.949C586.375 449.579 578.643 448.439 573.319 447.415C562.232 445.282 558.801 445.863 554.306 450.636C551.957 453.131 550.871 453.502 545.806 453.54C538.785 453.593 530.625 455.61 529.109 457.666C526.616 461.047 523.922 461.274 482 461.634L-30.5 461.996V459.496C-30.5 457.008 440.058 456.993 452 456.28C483.286 454.412 505.977 447.158 514.864 436.183C518.415 431.798 519.415 425.167 517.178 420.841C513.227 413.2 498.459 403.989 483.959 400.121C474.86 397.694 458.949 395.508 450.332 395.502C441.037 395.494 -30.5 394.982 -30.5 391.889V389.496L481.75 389.511C516.519 389.522 525.151 389.802 530.5 391.084C539.052 393.134 558.844 396.165 569.5 397.057C574.175 397.449 579.084 398.174 580.409 398.668C583.187 399.705 590.285 396.449 607 386.467C620.664 378.308 622.123 377.124 626.003 371.058C631.97 361.731 639.215 357.624 647.363 358.951C649.887 359.362 651.968 359 654.164 357.77C655.904 356.794 659.16 354.978 661.398 353.734C663.636 352.49 668.4 350.858 671.984 350.106C679.295 348.574 681.233 347.335 683.103 342.996C684.447 339.881 688.568 334.976 691.961 332.454C693.589 331.244 693.509 331.591 691.494 334.496C690.158 336.421 688.488 338.591 687.783 339.318C686.407 340.735 686.366 340.848 686.01 344.214C685.831 345.917 686.5 346.654 688.888 347.385C693.285 348.73 733.437 350.979 737.026 350.081C738.687 349.665 741.766 347.327 744 344.786C746.2 342.283 751.434 336.406 755.631 331.725C759.829 327.044 765.679 319.21 768.631 314.316C771.584 309.421 777.455 300.14 781.677 293.691L789.354 281.965L799.858 275.629C805.636 272.144 810.873 269.609 811.496 269.994C813.185 271.038 810.107 274.068 802.147 279.198C792.616 285.341 790.993 287.343 784.348 301.146C777.019 316.372 776.972 317.007 783.25 316.026C790.84 314.839 791.919 314.904 792.258 316.568C792.654 318.514 788.562 320.496 784.149 320.496C779.469 320.496 773.017 325.012 765.455 333.58C754.487 346.009 751.728 349.801 748.629 356.708C746.992 360.358 744.745 363.83 743.637 364.423C742.099 365.246 738.122 364.811 726.812 362.585C693.858 356.098 687.179 355.97 673.579 361.561C662.339 366.183 661.681 368.046 671.615 367.123C675.677 366.746 682.245 366.162 686.211 365.825L693.422 365.213L696.838 372.71C700.705 381.195 709.971 391.496 713.737 391.496C715.002 391.496 717.916 389.541 720.62 386.878C725.569 382.003 728.149 381.658 726.462 386.097C725.146 389.558 725.251 390.496 726.956 390.496C729.599 390.496 751.246 381.693 755.459 378.905C759.21 376.422 770.061 364.656 794.863 336.174C799.738 330.576 812.93 314.521 824.178 300.496L844.629 274.996L844.039 269.461C843.496 264.362 843.77 263.318 847.517 256.205C852.143 247.426 855.5 235.588 855.5 228.058C855.5 224.312 856.396 221.07 858.842 215.966C860.68 212.13 862.501 207.305 862.888 205.244C863.796 200.404 866.5 200.075 866.5 204.805C866.5 210.696 868.271 211.904 877.327 212.194C882.261 212.352 887.315 213.194 890.43 214.378C893.219 215.437 895.746 215.907 896.046 215.422C896.613 214.505 887.522 187.265 885.104 182.635C884.346 181.184 883.234 178.759 882.634 177.246C881.966 175.563 880.788 174.496 879.598 174.496C876.752 174.496 872.179 178.741 869.418 183.946C868.09 186.448 866.665 188.496 866.252 188.496C865.012 188.496 865.473 181.173 866.87 178.654C868.186 176.282 876.117 169.496 877.573 169.496C878.009 169.496 878.651 168.484 879 167.246C880.344 162.477 881.763 159.541 882.503 159.998C882.927 160.26 883.588 162.167 883.972 164.235C884.356 166.304 885.527 169.571 886.573 171.496C887.62 173.421 890.084 180.396 892.049 186.996C896.225 201.021 899.123 207.746 902.929 212.246C908.096 218.356 911.994 216.078 917.919 203.489C919.858 199.368 922.831 193.521 924.525 190.496C928.171 183.989 928.081 181.762 923.448 163.793C919.558 148.706 919.644 142.497 924.044 121.173C925.993 111.726 927.48 102.871 927.35 101.496C927.017 97.9934 930.964 91.4962 933.425 91.4962C934.702 91.4962 933.459 101.508 931.31 108.496C930.212 112.071 928.928 117.471 928.458 120.496C927.987 123.521 927.097 128.696 926.478 131.996C925.86 135.296 925.499 141.632 925.677 146.075C925.981 153.68 926.249 154.523 930.25 160.481C933.141 164.785 934.5 167.878 934.5 170.153C934.5 172.19 934.988 173.475 935.75 173.441C936.438 173.411 940.725 168.686 945.277 162.941C953.142 153.015 955.5 150.9 955.5 153.768C955.5 155.944 948.297 166.121 941.245 173.907C937.535 178.003 934.5 181.611 934.5 181.925C934.5 182.239 937.425 182.496 941 182.496C944.575 182.496 947.5 182.914 947.5 183.425C947.5 183.936 944.913 184.886 941.75 185.535C937.039 186.501 935.242 187.501 931.802 191.068C928.969 194.007 927.398 196.653 926.97 199.209C925.428 208.421 923.453 213.171 918.989 218.401C913.645 224.661 911.052 229.448 910.067 234.87C909.371 238.702 909.393 238.737 912.181 238.187C913.732 237.881 917.475 236.851 920.5 235.897C924.699 234.573 929.713 234.149 941.691 234.103C950.32 234.071 957.715 234.378 958.124 234.787C960.071 236.734 955.423 237.772 940.942 238.624C930.407 239.244 924.091 240.071 921.885 241.118C918.302 242.818 908.055 251.124 897.044 261.253C892.272 265.644 887.179 269.067 880.817 272.162C875.718 274.643 870.362 277.603 868.915 278.741C864.413 282.283 860.5 288.516 860.5 292.146C860.5 296.32 858.703 296.494 857.183 292.467C856.554 290.801 855.504 289.564 854.849 289.717C853.385 290.06 841.5 308.03 841.5 309.901C841.5 311.622 850.424 315.496 854.388 315.496C858.049 315.496 862.199 313.723 862.917 311.852C863.207 311.097 862.988 309.28 862.431 307.815C861.874 306.35 861.673 304.487 861.985 303.674C862.452 302.458 862.954 302.574 864.823 304.33L867.094 306.463L868.293 301.98C869.575 297.187 870.97 296.252 872 299.496C872.349 300.596 873.392 301.503 874.317 301.512C875.243 301.519 876.656 301.942 877.457 302.448C878.624 303.187 877.979 304.24 874.207 307.753C868.438 313.125 868.222 315.079 873.25 316.417C881.843 318.704 885.11 318.725 893.065 316.542C904.227 313.48 909.924 310.092 918.5 301.419C927.039 292.783 929.017 291.496 933.753 291.496C938.117 291.496 946.654 288.951 953 285.757C958.671 282.903 972.019 269.857 974.942 264.311C976.866 260.663 976.866 260.589 974.942 256.919C973.415 254.004 973.284 253.113 974.329 252.745C976.663 251.923 998.443 226.245 1000.62 221.749C1002.27 218.334 1002.83 214.788 1003.25 204.925C1003.93 189.229 1005.77 188.464 1006.5 203.576C1007.05 214.857 1007.57 216.496 1010.62 216.496C1012.55 216.496 1012.56 216.591 1010.89 219.405C1009.95 221.005 1005.16 226.722 1000.24 232.11C995.332 237.499 990.067 243.727 988.543 245.952C985.469 250.442 983.615 255.161 985.347 254.091C987.34 252.859 1010.07 227.025 1024.33 209.796C1032.51 199.898 1040.98 190.75 1044.27 188.251C1051.12 183.043 1053.55 179.042 1057.47 166.496C1059.1 161.271 1062.7 153.053 1065.47 148.234C1068.87 142.305 1070.5 138.344 1070.5 135.984C1070.5 132.962 1070.82 132.496 1072.92 132.496C1074.25 132.496 1075.49 132.968 1075.68 133.546C1076.36 135.579 1085.65 124.938 1088.81 118.513C1091.65 112.717 1092 111.065 1092 103.342C1092 94.7736 1093.03 90.9743 1094.17 95.3308C1094.98 98.4557 1096.52 97.599 1099.21 92.5204C1103.02 85.3069 1101.94 78.971 1095.96 73.4962C1092.83 70.6279 1087.5 63.6071 1087.5 62.3462C1087.5 60.4176 1089.6 61.8347 1095.89 67.9962C1099.53 71.5712 1103.12 74.4962 1103.86 74.4962C1104.6 74.4962 1107.96 71.398 1111.33 67.6112C1116.26 62.0629 1119.21 59.8146 1126.54 56.0315C1135.26 51.5279 1139.49 47.5013 1139.5 43.692C1139.5 42.9747 1140.85 40.9497 1142.5 39.192C1145.76 35.7108 1146.41 36.8289 1143.93 41.6362C1141.3 46.711 1142.41 47.5465 1149.43 45.7786C1152.77 44.9379 1155.5 43.9293 1155.5 43.5371C1155.5 43.145 1157.3 42.7536 1159.5 42.6674C1166.65 42.3873 1163.78 44.8845 1154 47.4537C1148.33 48.9428 1134.4 56.0705 1124.96 62.3041C1115.4 68.6256 1111.92 73.3302 1107.57 85.8259C1103.84 96.5654 1103.71 98.5087 1106.75 98.4608C1109.86 98.4119 1112.63 96.6408 1116.4 92.3073C1119.87 88.3118 1122.52 87.189 1132.5 85.4827C1141.39 83.9633 1146.28 80.5139 1164.64 62.8104L1180 47.9962L1190 44.3607C1195.5 42.3611 1202.36 39.9642 1205.24 39.0342C1208.12 38.1042 1210.73 36.9277 1211.05 36.4198C1212.08 34.743 1215.36 35.4587 1216.93 37.7055C1217.79 38.9206 1218.15 40.232 1217.74 40.6197C1216.85 41.4667 1200.34 48.2137 1195.75 49.6048C1193.96 50.1468 1192.5 51.0191 1192.5 51.5432C1192.5 52.0674 1191.49 52.4992 1190.25 52.5028C1187.86 52.51 1184.36 54.5653 1180.49 58.2462C1179.19 59.4837 1177.63 60.4962 1177.03 60.4962C1175.72 60.4962 1167.01 69.442 1163.08 74.8146C1158.64 80.8944 1153 84.2725 1141.03 88.0072C1125.76 92.7755 1121.8 95.5001 1115.13 105.834C1111.61 111.299 1107.47 116.112 1103.35 119.534C1083.57 135.968 1079.45 140.711 1073.7 153.648C1071.65 158.239 1068.26 165.065 1066.15 168.816L1062.32 175.635L1065.05 179.57C1066.55 181.734 1069.29 184.441 1071.14 185.585C1074.55 187.692 1087.01 190.398 1093.6 190.461C1098.23 190.506 1103.33 187.086 1106.16 182.04C1109.11 176.767 1113.5 158.841 1113.5 152.027C1113.5 145.295 1115.56 144.523 1118.25 150.246C1121 156.113 1123.67 155.822 1129.86 148.978C1142.04 135.501 1152.3 125.64 1156.21 123.643C1161.62 120.885 1164.79 120.941 1177 124.007C1188.93 127.004 1192.58 126.662 1199.5 121.905C1206.3 117.223 1208.85 117.369 1204.33 122.182C1202.16 124.489 1202.16 124.496 1204.22 124.496C1205.36 124.496 1209.6 123.059 1213.65 121.302C1220.09 118.503 1222.33 118.063 1231.75 117.74C1237.66 117.537 1242.5 117.758 1242.5 118.23C1242.5 118.703 1239.38 119.625 1235.56 120.28C1231.74 120.934 1226.06 122.601 1222.93 123.983C1219.81 125.365 1215.48 126.496 1213.32 126.496C1205.42 126.496 1200.23 128.427 1196.26 132.842C1192.61 136.893 1192.33 137.009 1184.86 137.505C1178.04 137.958 1176.61 137.726 1171.74 135.369C1168.73 133.916 1165.18 131.549 1163.84 130.111C1162.51 128.673 1161.03 127.496 1160.56 127.496C1157.94 127.496 1147.12 137.401 1141.61 144.851C1137.48 150.427 1133.46 154.565 1129.87 156.953C1123.82 160.97 1118.85 167.835 1117.95 173.423C1116.88 180.026 1114.49 185.125 1109.98 190.409C1107.52 193.297 1105.5 195.994 1105.5 196.404C1105.5 196.813 1106.59 198.174 1107.93 199.428C1110.13 201.497 1111.12 201.675 1118.7 201.352C1126.51 201.02 1127.53 200.709 1134.29 196.627C1138.26 194.224 1144.32 191.12 1147.76 189.73L1154 187.203L1158.5 189.046C1163.32 191.018 1176.38 191.617 1182.06 190.126L1185.12 189.323V194.41C1185.12 197.207 1185.09 199.496 1185.06 199.496C1185.03 199.495 1182.61 198.586 1179.68 197.475C1175.28 195.802 1173.7 195.635 1170.48 196.502C1168.34 197.078 1165.93 198.212 1165.12 199.023C1162.87 201.271 1161.63 200.824 1159.33 196.94C1158.18 194.984 1156.73 193.606 1156.12 193.878C1141.16 200.49 1134.86 203.121 1129.5 204.995C1125.92 206.246 1121.07 207.999 1118.71 208.892C1114.55 210.464 1114.18 210.434 1107.21 207.952C1081.08 198.658 1076.23 197.377 1069.76 198.064C1063.78 198.699 1063.38 198.598 1059.98 195.611C1055.65 191.816 1054.6 191.775 1048.37 195.165C1043.77 197.667 1037.5 205.45 1037.5 208.653C1037.5 209.273 1033.27 214.104 1028.1 219.388C1010 237.894 979.155 273.947 979.784 275.869C980.511 278.091 988.047 279.792 997.289 279.82C1005.18 279.844 1006.53 280.084 1006.28 281.418C1005.82 283.791 997.551 285.291 984.327 285.4C973.296 285.491 972.484 285.639 969.577 288.085C964.838 292.072 965.57 293.072 974.25 294.468C991.386 297.225 998.142 300.772 1004.15 310.169C1007.76 315.807 1012.47 319.486 1016.1 319.492C1017.38 319.494 1020.5 317.06 1024.1 313.246C1030.83 306.118 1036.35 303.444 1044 303.599C1048.4 303.689 1048.63 303.79 1045.89 304.443C1041.49 305.494 1031.36 311.469 1032.06 312.6C1032.39 313.12 1032.05 313.422 1031.32 313.271C1030.46 313.091 1030 314.035 1030 315.996C1030 318.907 1030.67 319.333 1052.5 330.27C1075.58 341.834 1088.77 347.496 1092.62 347.496C1095.06 347.496 1112.11 340.862 1129.28 333.231C1140.32 328.323 1143 327.876 1140.87 331.294C1138.87 334.518 1131.96 338.251 1116.5 344.461C1107.97 347.885 1100.62 351.046 1100.16 351.485C1099.69 351.923 1100.06 353.414 1100.96 354.797C1101.92 356.254 1102.21 357.558 1101.66 357.899C1100.6 358.551 1043.82 337.437 1030.59 331.472C1022.93 328.018 1019.5 327.404 1019.5 329.486C1019.5 329.913 1021.54 331.778 1024.03 333.629C1026.52 335.481 1036.6 346.329 1046.43 357.735C1061.97 375.777 1064.45 379.125 1065.49 383.474C1067.1 390.151 1069.55 393.021 1074.8 394.342C1079.34 395.486 1084.5 398.871 1084.5 400.709C1084.5 402.326 1074.41 400.994 1069.2 398.689C1062.16 395.572 1057.36 390.458 1045.29 373.177C1039.08 364.292 1032.18 355.188 1029.96 352.945C1024.89 347.821 1006.44 332.496 1005.34 332.496C1004.89 332.496 1002.37 335.748 999.749 339.723C995.62 345.972 993.057 348.393 989.099 349.781C988.603 349.955 992.316 356.25 997.349 363.771C1003.78 373.386 1007.47 377.935 1009.75 379.096C1011.54 380.003 1022.44 386.4 1033.97 393.311C1051.42 403.767 1056.2 406.177 1062.47 407.669C1073.03 410.184 1075.08 411.199 1079.29 416.003C1081.33 418.33 1087.5 423.359 1093 427.178C1098.5 430.998 1105.41 435.954 1108.36 438.193C1114.64 442.963 1121.72 445.496 1128.77 445.496C1139.34 445.496 1176.07 437.616 1180.39 434.423C1182.74 432.681 1183.85 432.522 1188.56 433.254C1198.07 434.734 1206.81 431.315 1210.81 424.55C1213.51 419.986 1222.85 389.047 1226.93 371.158C1227.89 366.952 1230.09 369.36 1230.91 375.514C1231.29 378.416 1232.08 380.487 1232.78 380.475C1234.48 380.444 1243.5 366.643 1243.5 364.087C1243.5 361.096 1237.85 349.529 1234.68 346.034C1233.21 344.405 1232.75 343.646 1233.68 344.347C1235.15 345.469 1235.12 345.001 1233.38 340.435C1232.3 337.582 1231.64 335.024 1231.91 334.749C1233.24 333.42 1235.21 335.834 1237.33 341.384C1238.61 344.746 1239.98 347.496 1240.37 347.496C1240.76 347.496 1241.14 348.425 1241.23 349.561C1241.41 351.932 1245.95 360.036 1247.7 361.122C1249.7 362.355 1261.11 349.066 1265.25 340.683L1269 333.106V318.551C1269 310.546 1268.6 301.409 1268.11 298.246C1267.34 293.226 1267.43 292.496 1268.86 292.496C1269.81 292.496 1270.5 293.305 1270.5 294.425C1270.5 295.485 1271.06 296.948 1271.75 297.675C1272.44 298.402 1273.06 300.346 1273.14 301.996C1273.21 303.646 1273.59 310.396 1273.98 316.996C1274.63 328.245 1274.51 329.56 1271.97 337.996C1270.49 342.946 1269.05 347.759 1268.78 348.69C1268.44 349.896 1269.39 350.905 1272.08 352.19C1277.75 354.903 1277.88 356.93 1272.32 356.097C1268.39 355.508 1267.38 355.791 1263.44 358.589C1258.28 362.262 1252.5 367.56 1252.5 368.631C1252.5 369.039 1253.6 369.288 1254.95 369.184C1259.02 368.87 1258.27 370.842 1253.29 373.534C1247.18 376.83 1243.92 379.939 1240.72 385.496C1239.3 387.971 1236.38 391.942 1234.23 394.321C1228.56 400.592 1225.27 408.465 1224.72 417.031C1224.17 425.544 1225.28 428.177 1229.76 429.016C1238.02 430.562 1244.77 428.157 1278.5 411.657C1296.37 402.912 1312.35 395.218 1314 394.559C1320.8 391.843 1324.58 388.11 1331.18 377.604C1338.87 365.348 1341.85 359.193 1343.82 351.496C1344.68 348.152 1345.77 345.996 1346.61 345.996C1347.72 345.996 1347.93 347.845 1347.65 355.128C1347.44 360.807 1347.71 364.506 1348.36 364.91C1350.09 365.978 1355.9 362.995 1358.8 359.555C1361.15 356.763 1361.5 355.47 1361.49 349.669C1361.48 344.696 1360.85 341.652 1359.02 337.719C1356.8 332.952 1356.32 332.503 1354.03 333.077C1350.96 333.848 1350.67 331.992 1353.13 327.251C1354.47 324.657 1354.56 323.29 1353.68 319.455C1352.48 314.256 1353.06 310.496 1355.06 310.496C1355.9 310.496 1356.5 312.025 1356.69 314.668C1357.02 319.049 1358.91 320.878 1359.93 317.801C1360.26 316.808 1361.42 314.871 1362.51 313.496C1364.18 311.378 1364.64 311.225 1365.48 312.496C1367.32 315.28 1366.52 318.471 1363 322.365C1361.07 324.495 1359.5 327.282 1359.5 328.557C1359.5 331.218 1367.18 344.437 1369.17 345.201C1369.9 345.481 1370.5 346.189 1370.5 346.774C1370.5 347.36 1371.25 348.669 1372.17 349.683C1373.79 351.47 1373.92 351.458 1376.42 349.288C1377.84 348.057 1375.62 350.539 1371.5 354.805C1366.71 359.759 1364.11 363.228 1364.29 364.409C1364.5 365.704 1363.77 366.462 1361.88 366.938L1359.17 367.618L1361.77 370.216C1365.18 373.634 1370.63 373.569 1380 369.999C1390.41 366.036 1391.5 365.877 1391.5 368.326C1391.5 369.949 1389.42 371.395 1381.75 375.09C1369.62 380.936 1363.91 381.706 1356.11 378.542C1351.04 376.485 1350.5 376.445 1347.65 377.919C1344.48 379.558 1339.5 385.324 1339.5 387.356C1339.5 388.125 1341.3 388.463 1344.75 388.341C1350.47 388.139 1356.5 389.205 1356.5 390.417C1356.5 391.434 1350.62 393.063 1341.78 394.497C1337.44 395.199 1333.49 396.5 1331.91 397.745C1329 400.031 1323.5 411.331 1323.5 415.012C1323.5 418.54 1333.2 426.477 1337.61 426.559C1340.53 426.614 1340.7 426.742 1338.85 427.489C1337.67 427.966 1336.44 428.778 1336.13 429.293C1335.78 429.849 1334.01 429.893 1331.77 429.4C1311.94 425.035 1302.94 426.345 1293.37 434.998C1289.51 438.486 1289.46 438.497 1279.25 438.655C1273.61 438.742 1264.5 438.886 1259 438.973C1253.5 439.061 1242.25 440.111 1234 441.307C1225.75 442.503 1218.89 443.485 1218.75 443.489C1218.61 443.493 1218.5 443.875 1218.5 444.338C1218.5 445.656 1225.77 447.504 1230.62 447.417C1235.32 447.333 1247.35 445.369 1249 444.418C1249.55 444.1 1253.94 444.127 1258.75 444.477C1266.52 445.043 1267.97 445.469 1271.75 448.308C1284.92 458.204 1296.64 459.983 1322 455.939C1336.72 453.591 1342.24 453.949 1348.04 457.624C1353.16 460.874 1360.5 463.893 1360.5 462.752C1360.5 462.391 1361.03 462.626 1361.68 463.273C1362.58 464.174 1362.46 464.888 1361.15 466.329C1359.73 467.904 1359.67 468.394 1360.82 469.344C1361.57 469.968 1362.55 470.145 1363 469.738C1363.45 469.33 1363.53 469.508 1363.17 470.134C1362.77 470.832 1364.66 472.283 1368.04 473.884C1371.07 475.321 1373.88 476.506 1374.28 476.518C1374.67 476.53 1376.12 477.421 1377.5 478.496C1382.35 482.292 1374.01 480.247 1362.58 474.84C1355.09 471.298 1335.38 464.61 1327.5 462.937C1323.15 462.014 1320.01 461.857 1318 462.462C1316.35 462.96 1313.02 463.886 1310.59 464.52C1308.17 465.153 1305 466.546 1303.55 467.614L1300.93 469.557L1290.96 466.45C1280.16 463.082 1276.51 461.411 1272.2 457.855C1270.67 456.587 1267.74 455.158 1265.7 454.68C1261.32 453.651 1235.37 453.794 1224 454.91C1217.31 455.567 1214.73 455.352 1208.27 453.596C1204.02 452.441 1198.68 451.496 1196.42 451.496C1194.15 451.496 1190.72 450.746 1188.79 449.829C1185.39 448.215 1185.13 448.239 1180.7 450.579C1178.19 451.908 1174.4 454.697 1172.29 456.776L1168.44 460.556L1158.22 459.942C1150 459.449 1145.96 459.74 1137.58 461.432C1125.53 463.864 1124.21 464.599 1125.56 468.143C1126.08 469.514 1126.24 471.69 1125.91 472.979C1125.36 475.207 1125.23 475.241 1123.28 473.66C1122.16 472.745 1117.81 468.561 1113.62 464.362C1102.13 452.85 1067.82 427.35 1053.29 419.522C1047.36 416.324 1044.72 415.442 1041.79 415.683L1038 415.996L1038.36 421.865C1038.64 426.472 1038.42 427.638 1037.36 427.285C1036.61 427.037 1035.76 424.857 1035.47 422.416C1035.18 419.985 1034.6 417.434 1034.17 416.747C1033.41 415.545 1024.51 407.899 1008.57 394.758C1004.41 391.327 994.898 382.172 987.441 374.414C976.68 363.22 973.378 360.347 971.441 360.495C970.098 360.597 962.763 360.752 955.141 360.839L941.282 360.996L938.376 364.496C936.778 366.421 930.414 371.371 924.235 375.496C908.926 385.716 908.987 385.576 910.947 405.631C914.038 437.262 920.876 452.914 935.988 462.945C942.227 467.086 943.047 468.288 944.612 475.583C945.863 481.419 949.184 485.496 952.685 485.496C953.936 485.496 957.556 483.894 960.728 481.936C963.901 479.978 966.889 478.619 967.369 478.915C967.849 479.212 968.495 480.723 968.805 482.274C969.612 486.307 974.025 490.278 979.511 491.907C987.07 494.152 990.025 496.091 995.683 502.519C1000.94 508.496 1026.18 529.668 1031.33 532.424C1036.38 535.126 1045.03 536.465 1057.54 536.481C1068.8 536.496 1089.56 534.537 1095.14 532.936C1097.95 532.129 1098.91 533.828 1096.73 535.736C1094.2 537.943 1086.56 539.317 1073 540.005C1054.99 540.918 1041.5 543.456 1041.5 545.929C1041.5 546.675 1042.74 548.61 1044.25 550.229C1045.76 551.848 1047.02 553.583 1047.05 554.085C1047.07 554.586 1047.89 557.593 1048.87 560.766C1051.29 568.6 1050.52 569.889 1047.68 562.77ZM766.351 515.399C770.257 514.037 770.358 512.148 766.895 505.213C761.154 493.718 754.74 489.785 734.722 485.49C727.175 483.871 719.2 481.88 717 481.065C714.8 480.251 711.952 479.564 710.671 479.54C708.571 479.501 708.405 479.817 708.99 482.746C712.089 498.278 715.769 503.003 727.478 506.49C731.567 507.708 737.407 509.846 740.456 511.242C751.383 516.243 759.972 517.622 766.351 515.399ZM694.5 465.579C694.5 463.487 690.128 454.706 685.981 448.468C681.881 442.3 674.167 435.554 673.169 437.264C672.699 438.069 683.831 462.985 685.627 465.149C686.873 466.651 694.5 467.02 694.5 465.579ZM677.5 462.468C677.5 460.613 671.771 450.08 668.602 446.109C666.228 443.133 665.5 441.223 665.5 437.966C665.5 435.008 665.018 433.525 663.918 433.103C661.24 432.076 634.668 432.416 634.006 433.487C633.116 434.927 639.827 443.322 645.782 448.218C652.031 453.356 660.326 457.867 669.286 461C677.168 463.756 677.5 463.815 677.5 462.468ZM1289.01 425.419C1296.21 422.432 1309.39 414.95 1313.08 411.755C1315.95 409.266 1318.64 404.974 1317.84 404.167C1315.07 401.404 1294.45 408.31 1284.01 415.492C1277.89 419.703 1272.51 427.171 1274.3 428.966C1275.36 430.027 1281.43 428.564 1289.01 425.419ZM706.284 395.651C708.287 394.38 706.875 392.244 701.989 389.153C696.393 385.612 693.5 382.011 693.5 378.584C693.5 371.207 687.621 369.692 675.689 373.996C667.256 377.038 666.115 377.071 662.33 374.375C660.348 372.964 657.232 372.084 653.02 371.746L646.689 371.238L643.926 375.617C642.406 378.026 637.84 383.1 633.779 386.894C629.718 390.688 626.773 394.17 627.235 394.632C627.697 395.093 644.708 395.595 665.038 395.747C685.367 395.898 702.675 396.122 703.5 396.244C704.325 396.366 705.578 396.099 706.284 395.651ZM868.5 386.567C877.025 383.157 885.789 379.608 887.976 378.681C890.198 377.739 896.853 372.299 903.069 366.343C909.347 360.326 916.401 354.567 919.273 353.112C922.07 351.694 924.611 350.126 924.92 349.627C925.541 348.621 920.757 344.698 915.79 342.139C911.164 339.757 902.238 337.901 883.793 335.486C861.06 332.509 862.16 332.234 855.345 342.591C852.235 347.319 843.797 358.558 836.595 367.569C829.393 376.579 823.5 384.516 823.5 385.207C823.5 386.425 831.431 390.946 836.5 392.619C837.875 393.072 842.15 393.291 846 393.106C851.783 392.827 855.694 391.69 868.5 386.567ZM817.554 374.64C828.629 367.524 846.77 347.881 852.169 337.162L855.674 330.201L844.357 330.917C833.315 331.616 830.5 332.443 830.5 334.991C830.5 337.175 820.925 350.829 816.203 355.379C813.16 358.311 810.574 362.241 808.388 367.254C805.234 374.487 805.186 374.794 807.002 376.121C809.833 378.192 812.639 377.798 817.554 374.64ZM960.5 342.039C967.169 340.746 968.625 340.757 973.638 342.141C978.844 343.578 979.552 343.565 982.897 341.978C986.92 340.069 993.631 332.251 996.801 325.778C998.793 321.713 998.803 321.488 997.072 319.576C994.057 316.244 980.952 307.603 973.934 304.319C962.209 298.832 949.133 299.525 937.673 306.241C932.734 309.136 924.86 316.826 922.247 321.309L920.493 324.317L925.247 328.952C929.805 333.397 948.034 343.498 951.493 343.495C952.322 343.495 956.375 342.839 960.5 342.039ZM861.66 265.497C865.147 263.848 869.321 262.498 870.934 262.497C879.097 262.495 886.056 255.936 896.222 238.664C903.337 226.573 903.12 225.567 892.209 220.075C882.165 215.02 875.518 214.276 870.592 217.657C864.534 221.815 863.421 224.262 861.966 236.615C860.51 248.976 858.775 254.947 854.961 260.725C852.478 264.487 851.943 266.606 853.167 267.83C854.216 268.879 854.924 268.684 861.66 265.497ZM1185.25 132.866C1190.31 131.509 1187.49 130.168 1177 128.945C1170.41 128.178 1170.35 129.057 1176.82 131.626C1181.73 133.58 1182.28 133.661 1185.25 132.866Z" fill="#E1B382" stroke="#E1B382" stroke-width="0.999999"/>
<path d="M1139.63 42.4836L1145.63 37.4836L1143.63 43.4836C1154.36 43.4836 1173.46 43.4352 1175.63 29.4836L1152.63 31.4836C1155.36 22.9395 1156.73 15.1651 1153.53 6.48362C1149.39 -4.76456 1140.42 0.184542 1136.77 9.48362C1132.26 21.018 1139.36 31.3514 1139.63 42.4836ZM1178.63 60.4836C1187.49 68.6879 1199.09 69.8855 1210.63 67.6788C1213.41 67.147 1220.99 66.5335 1220.99 62.5206C1220.99 58.2332 1213.91 55.3259 1210.63 54.2336C1198.71 50.2695 1188.05 52.756 1178.63 60.4836ZM917.627 66.4836C914.422 79.9467 918.703 88.9682 926.627 99.4836C936.906 89.6942 930.899 69.6745 917.627 66.4836ZM1077.63 90.4836C1064.52 92.731 1061.78 122.513 1069.48 131.165C1076.24 138.762 1080.69 122.927 1081.33 118.484C1081.88 114.612 1081.82 110.382 1081.54 106.484C1081.13 100.965 1078.86 95.8296 1077.63 90.4836ZM1223.63 118.484C1242.24 118.484 1259.58 117.764 1261.63 94.4836C1240.55 94.4836 1234.86 101.426 1223.63 118.484ZM928.627 125.484C944.623 118.965 959.257 115.127 964.627 96.4836C947.273 91.3541 929.707 108.674 928.627 125.484ZM1224.63 124.484C1228.95 135.624 1244.48 141.108 1255.63 138.484C1249.64 123.044 1240.66 116.438 1224.63 124.484ZM870.627 138.484C863.238 149.678 866.334 164.761 878.627 170.484L882.627 160.484L886.627 173.484H887.627C889.431 167.264 895.017 168.15 899.098 164.001C904.528 158.48 906.472 148.946 906.627 141.484C893.86 142.067 888.088 149.594 885.627 161.484L870.627 138.484ZM1161.63 201.484C1163.19 207.395 1163.72 213.717 1165.73 219.484C1168.07 226.216 1172.81 231.996 1178.63 236.04C1180.54 237.367 1184.45 240.285 1186.6 237.837C1188.43 235.746 1187.66 231.036 1187.62 228.484C1187.45 215.945 1174.9 201.03 1161.63 201.484ZM1033.63 215.484C1038.38 216.853 1042.67 219.453 1047.63 220.183C1052.14 220.848 1071.28 218.196 1067.45 209.902C1066.18 207.152 1061.24 206.42 1058.63 205.949C1048.37 204.098 1039.55 206.723 1033.63 215.484ZM1030.63 307.484C1044 304.315 1054.83 303.687 1058.99 288.484C1059.79 285.532 1062.23 278.85 1059.02 276.552C1056.12 274.468 1050.23 277.531 1047.63 279.016C1036.9 285.148 1033.8 296.347 1030.63 307.484ZM1274.63 307.484C1284.53 295.622 1294.11 292.567 1296.63 275.484C1283.05 275.598 1266.28 293.451 1274.63 307.484ZM692.627 298.484C678.048 313.105 681.806 322.32 684.627 340.484H685.627L691.627 334.484L685.627 345.484C697.064 346.929 713.72 346.571 719.627 334.484C712.715 332.298 702.726 329.691 695.627 331.484C701.177 321.76 701.057 306.899 692.627 298.484ZM1031.63 312.484C1039.65 323.595 1052.79 320.728 1064.63 320.484C1061.79 302.929 1042.12 306.061 1031.63 312.484ZM1373.63 352.484H1374.63C1387.86 340.331 1399.68 332.949 1393.63 312.484C1381.71 317.795 1364.12 339.212 1373.63 352.484ZM1235.63 346.484L1231.63 335.484L1239.63 348.484C1243.32 346.762 1258.44 332.133 1251.02 327.644C1247.14 325.299 1242.55 332.252 1238.2 330.66C1233.47 328.927 1228.32 319.523 1222.94 320.405C1219.91 320.901 1220.61 326.38 1220.63 328.484C1220.75 338.665 1227.43 342.274 1235.63 346.484ZM1038.63 422.484V428.484L1035.63 423.484C1024.64 427.748 1013.74 433.726 1009.63 445.484C1017.82 448.549 1025.03 446.091 1032.63 442.484C1032.8 450.858 1035.73 457.488 1041.67 463.465C1043.48 465.284 1047 469.217 1049.92 467.398C1057.98 462.386 1050.07 448.103 1053.74 441.918C1056.27 437.662 1066.44 439.484 1070.63 439.484C1068.38 424.91 1050.38 422.484 1038.63 422.484ZM1335.63 430.484V431.484C1338.8 434.971 1341.17 439.383 1344.76 442.441C1355.13 451.274 1366.01 447.654 1377.63 444.484C1366.3 428.077 1354.92 418.505 1335.63 430.484ZM840.627 463.484C850.53 451.622 860.113 448.567 862.627 431.484C849.049 431.598 832.276 449.451 840.627 463.484ZM1362.63 471.484C1374.14 481.801 1393.25 483.149 1398.63 465.484C1386.48 462.593 1373.16 464.859 1362.63 471.484ZM1126.63 472.484C1122.16 487.597 1133.32 507.504 1148.63 511.484C1148.79 491.812 1145.14 482.338 1126.63 472.484ZM1359.63 474.484C1364.37 482.376 1364.93 491.841 1369.96 499.445C1373.01 504.063 1384.19 513.103 1390.31 509.416C1395.97 506.007 1390.8 493.291 1387.99 489.524C1381.95 481.441 1368.83 477.669 1359.63 474.484ZM805.627 550.484C809.183 552.272 827.16 557.128 825.706 547.672C824.372 539.004 808.165 547.079 805.627 550.484ZM1041.63 554.484C1036.81 560.319 1028.05 578.481 1034.65 585.826C1040.38 592.192 1049.46 574.038 1050.63 570.484C1056.1 578.098 1061.34 582.316 1070.63 584.273C1073.18 584.812 1077.53 586.244 1079.02 583.162C1087.43 565.752 1057.71 556.113 1046.63 554.484L1050.63 569.484H1049.63C1048.61 563.747 1046.24 558.133 1041.63 554.484Z" fill="#2D535D"/>
<path d="M740.385 378.384C750.628 373.386 760.196 372.447 769.501 373.08L798.023 342.18L852.53 275.065L886.809 263.206L897.078 248.548L907.94 225.688C915.777 217.314 920.251 206.696 924.09 195.656L928.768 166.929L921.454 145.021L926.318 111.701L936.001 86" stroke="black" stroke-width="15" stroke-linecap="round" stroke-linejoin="round"/>
<path d="M772.096 370.612L799.596 367.283L856.249 284.224L915.122 242.253L953.115 234.141" stroke="black" stroke-width="20" stroke-linecap="round" stroke-linejoin="round"/>
<path d="M585.666 391.202C585.464 390.796 598.557 390.601 607.586 388.984C613.757 387.878 615.498 385.976 619.8 383.415C628.706 378.112 630.472 370.948 636.046 367.656C642.987 363.558 655.481 364.737 663.747 359.783C671.961 354.861 683.571 353.261 683.571 353.261L740.453 357.796L769.037 326.359L774.025 306.268L788.953 287.783L818.942 264.458" stroke="black" stroke-width="15" stroke-linecap="round" stroke-linejoin="round"/>
<path d="M607 391L628.023 389.756L638.91 373.717L659 369.5L669.75 372.5L690.75 369.75L698.5 383.5L706.75 389.75L716.06 387.692L727 384" stroke="black" stroke-width="12" stroke-linecap="round" stroke-linejoin="round"/>
<path d="M565.75 450.25C580.028 448.391 594.617 435.493 606.5 436.5L635.25 439L670.5 466.75L717.807 474.47L786.484 489.7L762.158 491.768L770.436 502.016L777.5 514.25L793.294 536.574L801.641 550.825L805.75 565.25" stroke="black" stroke-width="12" stroke-linecap="round" stroke-linejoin="round"/>
<path d="M588.072 443.002L632.145 449.513L665.854 473.408L701.336 474.681L752.828 486.489C756.556 488.458 760.284 490.426 764.012 492.395L777.99 489.673L807.862 486.421L818.854 481.893L827.254 469.356L836.974 460.857L834.499 445.477" stroke="black" stroke-width="9.99999" stroke-linecap="round" stroke-linejoin="round"/>
<path d="M581.707 446.008L620.068 454.581C624.634 458.39 629.873 453.813 627.763 464.079C633.008 458.188 640.221 460.291 646.788 462.44C650.367 463.611 653.408 466.188 656.749 467.398L667.709 475.353L662.759 492.323L682.558 502.311" stroke="black" stroke-width="9.99999" stroke-linecap="round" stroke-linejoin="round"/>
<path d="M810.139 430.35L833.619 400.059L865.534 405.586L893.188 390.677L918.644 456.791L963.192 481.893L1007.47 509.049L1037.08 528.916L1090.47 523.259" stroke="black" stroke-width="35" stroke-linecap="round" stroke-linejoin="round"/>
<path d="M666.561 438.053L670.533 441.261L683.531 471.64" stroke="black" stroke-width="9.99999" stroke-linecap="round" stroke-linejoin="round"/>
<path d="M670.533 441.261L693.254 445.477L703.86 470.049L702.161 482.854L706.689 498.157L705.175 507.334L712.632 504.802L757.424 520.254L768.914 519.37L796.138 506.112L821.771 510.177" stroke="black" stroke-width="15" stroke-linecap="round" stroke-linejoin="round"/>
<path d="M943.499 475.5C942.674 497.726 969.532 518.523 960.999 538.75" stroke="black" stroke-width="15" stroke-linecap="round" stroke-linejoin="round"/>
<path d="M849.701 271.706C849.456 267.557 848.861 263.221 852.541 257.429C856.719 250.854 855.416 241.37 855.004 241.123L865.434 199.227" stroke="black" stroke-width="13" stroke-linecap="round" stroke-linejoin="round"/>
<path d="M900.082 224.507C897.814 222.607 897.948 218.702 890.624 217.574L880.46 213.9L862.959 217.082" stroke="black" stroke-width="9.99999" stroke-linecap="round" stroke-linejoin="round"/>
<path d="M902.867 219.955L887.625 178.875C887.625 178.875 884.75 165.5 882.125 167C867.818 175.175 865.75 188.375 865.75 188.375" stroke="black" stroke-width="13" stroke-linecap="round" stroke-linejoin="round"/>
<path d="M838.74 321.027C856.354 316.642 859.354 317.669 867.168 319.04C871.536 319.806 878.756 322.979 898.137 320.319L907.013 316.025L930.045 295.836L945.877 293.125L967.964 278.6C973.713 273.221 977.036 270.292 978.496 268.461C986.905 257.909 1003.11 241.489 1012.33 231.754L1036.61 202.077L1055.29 183.494C1061.94 169.365 1066.69 155.868 1075.22 141.107L1074.73 135.939L1080.04 136.472L1092.15 124.338C1093.86 122.287 1102.82 118.026 1105.87 111.21C1109.17 103.835 1119.42 93.7027 1110.27 101.205L1120.88 91.2168L1156.41 77.2515L1180.45 52.1492L1217.93 36.2393" stroke="black" stroke-width="12" stroke-linecap="round" stroke-linejoin="round"/>
<path d="M832.908 327.744L864.203 325.719L911.751 324.032L934.908 303.349L961.071 295.924C961.071 295.924 990.063 302.642 992.891 306.884C995.72 311.127 1003.85 318.552 1008.45 324.209C1013.04 329.865 1031.43 346.836 1031.43 346.836L1055.47 374.767C1055.47 374.767 1063.96 395.273 1068.55 396.687C1073.15 398.101 1089.06 401.637 1089.06 401.637" stroke="black" stroke-width="15" stroke-linecap="round" stroke-linejoin="round"/>
<path d="M838.74 321.027L920.411 330.573L950.11 348.073C950.11 348.073 961.246 345.422 970.262 346.836C979.278 348.25 986.172 345.422 986.172 345.422C986.172 345.422 993.95 340.295 1000.14 331.456C1006.32 322.618 998.9 327.921 1007.56 325.976C1016.22 324.032 1021.35 321.734 1026.65 323.501C1031.96 325.269 1051.23 333.931 1051.23 333.931L1078.98 346.129C1078.98 346.129 1088.83 348.333 1092.95 351.079C1103.02 357.796 1099.31 348.957 1099.31 348.957L1124.06 339.411L1144.74 327.921" stroke="black" stroke-width="13" stroke-linecap="round" stroke-linejoin="round"/>
<path d="M838 330C838 330 905.75 333.5 911.25 335.75C916.75 338 931.25 347.75 931.25 347.75C931.25 347.75 947.25 356.75 954.75 356.75C962.25 356.75 982.75 355.75 982.75 355.75C982.75 355.75 984 352.75 988.75 355.5C991.062 356.839 996.989 368.496 1002.46 375.234C1008.23 382.337 1022.5 390 1022.5 390C1029.59 394.33 1045.57 405.447 1048.75 406C1057.35 407.498 1078 417.5 1076.75 417.5C1075.5 417.5 1109 445.75 1118.75 448.25C1128.5 450.75 1154.5 446 1154.5 446L1183 439.25L1231 435C1231 435 1281.5 436.75 1290.25 432C1299 427.25 1303.05 424.011 1309.25 420C1317.75 414.5 1329.25 393 1329.25 393C1329.25 393 1334.75 378 1342.5 373.25C1350.25 368.5 1363.5 359 1363.5 359C1363.5 359 1370 356.75 1367.25 350.25C1364.5 343.75 1358.5 332 1358.5 332L1353.75 305.5" stroke="black" stroke-width="15" stroke-linecap="round" stroke-linejoin="round"/>
<path d="M902.5 379C902.5 379 905.939 372.549 913.535 364.996C920.795 357.778 932.082 349.453 938 349C950.111 348.073 971 352.75 971 352.75C971 352.75 994.5 370 996.5 374C998.5 378 1022 401 1027 404C1032 407 1053.25 413.5 1053.25 413.5C1053.25 413.5 1074.75 422.5 1077.75 427.5C1080.75 432.5 1108.75 454.25 1108.75 454.25C1108.75 454.25 1127.5 467 1135.25 465.75C1143 464.5 1179.25 456.25 1179.25 456.25L1210.5 451.75L1245 448C1245 448 1262.25 447.25 1269.5 451.5C1276.75 455.75 1299.75 464 1306 463.5C1312.25 463 1336 456.75 1336 456.75C1336 456.75 1340.25 457.5 1346.75 462C1353.25 466.5 1383.25 482 1383.25 482" stroke="black" stroke-width="20" stroke-linecap="round" stroke-linejoin="round"/>
<path d="M905.387 382.015C905.387 382.015 915.817 381.661 926.777 372.115C937.737 362.569 947.46 353.553 947.46 353.553L982.751 355.75L1025.42 400.399C1025.42 400.399 1066.08 411.536 1073.5 418.607C1080.93 425.678 1108.75 454.25 1108.75 454.25C1108.75 454.25 1113.45 459.973 1135.37 459.266C1157.29 458.559 1210.33 443.356 1210.33 443.356C1210.33 443.356 1240.38 438.053 1251.34 430.982C1256.66 427.547 1266.13 424.567 1271.91 420.227C1278.04 415.631 1282.8 411.89 1282.8 411.89L1314.27 397.394C1314.27 397.394 1326.13 394.375 1329.25 390.375C1332.38 386.375 1347.47 371.914 1347.47 371.914C1347.47 371.914 1350.86 370.878 1356.17 372.999C1361.47 375.12 1371.9 376.004 1371.9 376.004C1371.9 376.004 1394.88 366.988 1393.64 367.342" stroke="black" stroke-width="15" stroke-linecap="round" stroke-linejoin="round"/>
<path d="M812.496 371.371C823.866 381.163 825.05 378.618 826.444 373.093C828.647 364.363 839.856 360.66 841.621 359.078C842.956 357.881 846.803 358.21 853.499 342.5L872.999 296.75" stroke="black" stroke-width="15" stroke-linecap="round" stroke-linejoin="round"/>
<path d="M771.5 319.5L795.25 315" stroke="black" stroke-width="9.99999" stroke-linecap="round" stroke-linejoin="round"/>
<path d="M769.875 481.5C770.625 481.125 770.875 475.375 774.5 476.5C778.125 477.625 792 480.25 792 480.25L803.375 480" stroke="black" stroke-width="9.99999" stroke-linecap="round" stroke-linejoin="round"/>
<path d="M756.375 522.875C756.375 522.875 763.625 529.875 764.25 531.375C764.875 532.875 768.125 540.5 768.125 540.5L773.75 549.375" stroke="black" stroke-width="9.99999" stroke-linecap="round" stroke-linejoin="round"/>
<path d="M801.641 550.825L811.164 541.29" stroke="black" stroke-width="9.99999" stroke-linecap="round" stroke-linejoin="round"/>
<path d="M924.09 195.656C924.09 195.656 940.918 183.141 944.454 178.191C947.989 173.241 961.778 148.139 961.778 148.139" stroke="black" stroke-width="20" stroke-linecap="round" stroke-linejoin="round"/>
<path d="M980.871 266.933C980.871 252.437 975.567 261.629 980.871 252.437C986.174 243.245 1004.21 226.628 1006.33 219.91C1008.45 213.193 1003.85 187.737 1003.85 187.737" stroke="black" stroke-width="12" stroke-linecap="round" stroke-linejoin="round"/>
<path d="M958.242 288.146C958.242 288.146 972.031 279.307 978.041 281.075C984.052 282.843 993.244 282.489 993.244 282.489C993.244 282.489 1003.5 286.378 1009.51 282.489" stroke="black" stroke-width="13" stroke-linecap="round" stroke-linejoin="round"/>
<path d="M1090.82 113.137C1098.68 107.078 1106.34 92.5278 1113.61 80.889C1122.05 67.4007 1127.43 63.4376 1163.3 50.9116" stroke="black" stroke-width="25" stroke-linecap="round" stroke-linejoin="round"/>
<path d="M1059.88 180.5C1059.88 180.5 1076.57 194.211 1086.25 195.5C1094.73 196.629 1101.37 194.125 1101.37 194.125C1109.25 184.875 1103 200.625 1109.25 184.875C1115.5 169.125 1118.5 163.375 1118.5 163.375L1127.38 154.5L1144.5 136C1144.5 136 1153.25 125 1161 124.75C1164.41 124.64 1175.28 130.611 1184.98 131.174C1197.3 131.889 1209 129.75 1209 129.75L1245.75 117.25" stroke="black" stroke-width="15" stroke-linecap="round" stroke-linejoin="round"/>
<path d="M1056.25 189.25C1064.75 195.25 1057.75 195.75 1064.75 195.25C1071.75 194.75 1080.25 195.75 1080.25 195.75C1080.25 195.75 1089.5 195.75 1095.5 199.25C1101.5 202.75 1111 205.5 1115.25 205.5C1119.5 205.5 1128.5 200.5 1133 199.75C1137.5 199 1156.67 189.77 1160.21 190.212C1161.42 190.363 1166.96 191.039 1171.27 191.696C1175.88 192.399 1179.22 193.08 1179.22 193.08C1183.18 192.932 1188.58 195.427 1188.58 195.427" stroke="black" stroke-width="12" stroke-linecap="round" stroke-linejoin="round"/>
<path d="M679.875 352.25C687.125 336 687.125 336 687.125 336L693.627 332.484" stroke="black" stroke-width="9.99999" stroke-linecap="round" stroke-linejoin="round"/>
<path d="M1032.49 541.29C1032.49 541.29 1041.62 546.438 1044.44 552.813C1047.25 559.188 1051.44 576.063 1051.44 576.063" stroke="black" stroke-width="9.99999" stroke-linecap="round" stroke-linejoin="round"/>
<path d="M1022.94 319.436C1022.94 319.436 1026.09 317.824 1027.94 315.183C1029.47 313.005 1029.63 309.759 1030.63 309.359C1032.84 308.475 1049.02 303.526 1049.02 303.526" stroke="black" stroke-width="9.99999" stroke-linecap="round" stroke-linejoin="round"/>
<path d="M1036.38 413.125L1037.88 433" stroke="black" stroke-width="9.99999" stroke-linecap="round" stroke-linejoin="round"/>
<path d="M1104.38 78.75L1086 59.5" stroke="black" stroke-width="9.99999" stroke-linecap="round" stroke-linejoin="round"/>
</g>
<defs>
<clipPath id="clip0_1494_4859">
<rect width="1428.93" height="587.168" fill="white" transform="translate(-31)"/>
</clipPath>
</defs>
</svg>
