<svg width="936" height="588" viewBox="0 0 936 588" fill="none" xmlns="http://www.w3.org/2000/svg">
<g clip-path="url(#clip0_1494_4924)">
<path opacity="0.994" d="M1078.68 562.77C1077.41 559.595 1075.31 555.78 1074.02 554.294C1072.73 552.808 1064.33 546.219 1055.34 539.652C1046.35 533.085 1033.53 522.789 1026.85 516.77C1012.39 503.756 1006.99 500.118 999.017 498.043C994.221 496.794 986.5 496.748 986.5 497.969C986.5 498.107 988.286 502.03 990.469 506.688C995.445 517.307 997.663 525.626 996.859 530.655C995.954 536.312 992.5 535.305 992.5 529.383C992.5 528.311 991.825 527.174 991 526.858C990.175 526.541 989.49 525.543 989.478 524.639C989.44 521.783 985.789 514.767 979.112 504.722C975.557 499.373 970.079 489.685 966.938 483.194C963.016 475.085 960.224 470.625 958.02 468.944C956.255 467.598 954.372 466.496 953.836 466.496C953.299 466.496 951.006 464.909 948.74 462.97C944.034 458.941 941.988 454.925 933.979 433.996C927.899 418.107 925.683 414.039 922.678 413.253C921.656 412.986 917.986 414.095 914.522 415.718C904.08 420.61 899.132 421.065 883 418.617C863.946 415.724 844.067 415.727 830.192 418.624C820.841 420.577 819.121 420.653 809.351 419.552C798.788 418.362 798.645 418.374 791.851 421.065C788.083 422.558 782.525 425.002 779.5 426.497C766.811 432.769 746.389 437.476 731.809 437.49C728.404 437.493 725.338 437.949 724.996 438.503C724.653 439.057 725.934 440.983 727.842 442.782C730.577 445.361 731.449 447.106 731.96 451.025C733.018 459.125 733.376 460.194 736.119 463.455C739.824 467.857 742.679 469.072 754.835 471.418C760.73 472.556 772.777 475.303 781.608 477.523L797.664 481.56L801.117 478.528C805.036 475.086 806.522 474.887 812.5 476.996C814.838 477.821 820.043 478.496 824.067 478.496C830.786 478.496 833.775 479.555 832.017 481.312C830.758 482.57 819.056 481.755 812.678 479.966C806.763 478.306 806.267 478.301 804.686 479.882C803.308 481.261 803.247 481.721 804.353 482.405C808.16 484.759 832.512 484.668 840.5 482.27C842.815 481.575 847.647 477.639 854.775 470.641L865.55 460.062L864.896 454.279C864.337 449.334 864.478 448.496 865.871 448.496C866.813 448.496 867.5 449.309 867.5 450.425C867.5 451.485 868.063 452.948 868.75 453.675C869.438 454.401 870.097 456.667 870.216 458.708C870.411 462.065 869.997 462.733 865.899 465.676C862.469 468.139 860.526 470.677 857.915 476.106C856.017 480.052 853.91 483.709 853.232 484.232C852.554 484.755 843.675 486.862 833.5 488.912C808.131 494.026 803.967 495.068 804.212 496.246C804.328 496.806 805.537 499.784 806.899 502.863L809.375 508.462L814.688 505.989C820.925 503.085 829.254 502.712 839.589 504.874C847.69 506.569 850.72 508.108 850.301 510.313C850.028 511.749 847.923 512.112 835.991 512.785C819.507 513.714 815.5 514.252 815.5 515.535C815.5 516.057 818.772 520.88 822.772 526.254C826.771 531.628 831.51 538.624 833.303 541.801C836.238 547.002 836.716 547.423 838.103 546.036C840.67 543.469 841.02 544.314 838.5 546.996C837.007 548.585 836.64 549.496 837.492 549.496C838.23 549.496 838.572 549.757 838.254 550.076C837.935 550.395 838.762 553.857 840.093 557.77C841.564 562.095 842.152 565.244 841.594 565.803C840.212 567.184 839.16 566.129 836.626 560.819C828.157 543.071 825.331 538.825 813.794 526.519L806.785 519.042L802.602 521.81C795.924 526.229 795.673 527.886 800.433 536.141C804.651 543.458 805.577 547.496 803.035 547.496C802.23 547.496 801.036 546.483 800.382 545.246C798.634 541.936 790.71 531.772 787.709 528.989C780.868 522.645 753.348 512.507 740.5 511.598L732 510.996L731.293 506.496C730.904 504.021 729.942 496.852 729.155 490.564C728.144 482.493 727.253 478.789 726.124 477.963C725.244 477.319 720.181 476.488 714.874 476.114C703.668 475.327 702.961 475.674 699.533 483.641C696.098 491.625 696.824 493.516 704.5 496.575C708.359 498.113 711.131 499.842 711.323 500.831C711.784 503.205 710.012 502.927 700.982 499.21C693.358 496.071 692.985 495.768 692.668 492.46C692.485 490.555 693.135 486.354 694.113 483.125C695.849 477.391 695.845 477.221 693.945 475.825C689.112 472.273 671.448 463.496 669.132 463.496C667.718 463.496 664.741 464.445 662.515 465.605C659.25 467.307 658.182 467.477 656.984 466.483C656.168 465.805 655.5 464.467 655.5 463.508C655.5 461.1 651.906 456.757 648.42 454.955C645.148 453.263 632.736 450.955 621.5 449.949C617.375 449.579 609.643 448.439 604.319 447.415C593.232 445.282 589.801 445.863 585.306 450.636C582.957 453.131 581.871 453.502 576.806 453.54C569.785 453.593 561.625 455.61 560.109 457.666C557.616 461.047 554.922 461.274 513 461.634L0.5 461.996V459.496C0.5 457.008 471.058 456.993 483 456.28C514.286 454.412 536.977 447.158 545.864 436.183C549.415 431.798 550.415 425.167 548.178 420.841C544.227 413.2 529.459 403.989 514.959 400.121C505.86 397.694 489.949 395.508 481.332 395.502C472.037 395.494 0.5 394.982 0.5 391.889V389.496L512.75 389.511C547.519 389.522 556.151 389.802 561.5 391.084C570.052 393.134 589.844 396.165 600.5 397.057C605.175 397.449 610.084 398.174 611.409 398.668C614.187 399.705 621.285 396.449 638 386.467C651.664 378.308 653.123 377.124 657.003 371.058C662.97 361.731 670.215 357.624 678.363 358.951C680.887 359.362 682.968 359 685.164 357.77C686.904 356.794 690.16 354.978 692.398 353.734C694.636 352.49 699.4 350.858 702.984 350.106C710.295 348.574 712.233 347.335 714.103 342.996C715.447 339.881 719.568 334.976 722.961 332.454C724.589 331.244 724.509 331.591 722.494 334.496C721.158 336.421 719.488 338.591 718.783 339.318C717.407 340.735 717.366 340.848 717.01 344.214C716.831 345.917 717.5 346.654 719.888 347.385C724.285 348.73 764.437 350.979 768.026 350.081C769.687 349.665 772.766 347.327 775 344.786C777.2 342.283 782.434 336.406 786.631 331.725C790.829 327.044 796.679 319.21 799.631 314.316C802.584 309.421 808.455 300.14 812.677 293.691L820.354 281.965L830.858 275.629C836.636 272.144 841.873 269.609 842.496 269.994C844.185 271.038 841.107 274.068 833.147 279.198C823.616 285.341 821.993 287.343 815.348 301.146C808.019 316.372 807.972 317.007 814.25 316.026C821.84 314.839 822.919 314.904 823.258 316.568C823.654 318.514 819.562 320.496 815.149 320.496C810.469 320.496 804.017 325.012 796.455 333.58C785.487 346.009 782.728 349.801 779.629 356.708C777.992 360.358 775.745 363.83 774.637 364.423C773.099 365.246 769.122 364.811 757.812 362.585C724.858 356.098 718.179 355.97 704.579 361.561C693.339 366.183 692.681 368.046 702.615 367.123C706.677 366.746 713.245 366.162 717.211 365.825L724.422 365.213L727.838 372.71C731.705 381.195 740.971 391.496 744.737 391.496C746.002 391.496 748.916 389.541 751.62 386.878C756.569 382.003 759.149 381.658 757.462 386.097C756.146 389.558 756.251 390.496 757.956 390.496C760.599 390.496 782.246 381.693 786.459 378.905C790.21 376.422 801.061 364.656 825.863 336.174C830.738 330.576 843.93 314.521 855.178 300.496L875.629 274.996L875.039 269.461C874.496 264.362 874.77 263.318 878.517 256.205C883.143 247.426 886.5 235.588 886.5 228.058C886.5 224.312 887.396 221.07 889.842 215.966C891.68 212.13 893.501 207.305 893.888 205.244C894.796 200.404 897.5 200.075 897.5 204.805C897.5 210.696 899.271 211.904 908.327 212.194C913.261 212.352 918.315 213.194 921.43 214.378C924.219 215.437 926.746 215.907 927.046 215.422C927.613 214.505 918.522 187.265 916.104 182.635C915.346 181.184 914.234 178.759 913.634 177.246C912.966 175.563 911.788 174.496 910.598 174.496C907.752 174.496 903.179 178.741 900.418 183.946C899.09 186.448 897.665 188.496 897.252 188.496C896.012 188.496 896.473 181.173 897.87 178.654C899.186 176.282 907.117 169.496 908.573 169.496C909.009 169.496 909.651 168.484 910 167.246C911.344 162.477 912.763 159.541 913.503 159.998C913.927 160.26 914.588 162.167 914.972 164.235C915.356 166.304 916.527 169.571 917.573 171.496C918.62 173.421 921.084 180.396 923.049 186.996C927.225 201.021 930.123 207.746 933.929 212.246C939.096 218.356 942.994 216.078 948.919 203.489C950.858 199.368 953.831 193.521 955.525 190.496C959.171 183.989 959.081 181.762 954.448 163.793C950.558 148.706 950.644 142.497 955.044 121.173C956.993 111.726 958.48 102.871 958.35 101.496C958.017 97.9934 961.964 91.4962 964.425 91.4962C965.702 91.4962 964.459 101.508 962.31 108.496C961.212 112.071 959.928 117.471 959.458 120.496C958.987 123.521 958.097 128.696 957.478 131.996C956.86 135.296 956.499 141.632 956.677 146.075C956.981 153.68 957.249 154.523 961.25 160.481C964.141 164.785 965.5 167.878 965.5 170.153C965.5 172.19 965.988 173.475 966.75 173.441C967.438 173.411 971.725 168.686 976.277 162.941C984.142 153.015 986.5 150.9 986.5 153.768C986.5 155.944 979.297 166.121 972.245 173.907C968.535 178.003 965.5 181.611 965.5 181.925C965.5 182.239 968.425 182.496 972 182.496C975.575 182.496 978.5 182.914 978.5 183.425C978.5 183.936 975.913 184.886 972.75 185.535C968.039 186.501 966.242 187.501 962.802 191.068C959.969 194.007 958.398 196.653 957.97 199.209C956.428 208.421 954.453 213.171 949.989 218.401C944.645 224.661 942.052 229.448 941.067 234.87C940.371 238.702 940.393 238.737 943.181 238.187C944.732 237.881 948.475 236.851 951.5 235.897C955.699 234.573 960.713 234.149 972.691 234.103C981.32 234.071 988.715 234.378 989.124 234.787C991.071 236.734 986.423 237.772 971.942 238.624C961.407 239.244 955.091 240.071 952.885 241.118C949.302 242.818 939.055 251.124 928.044 261.253C923.272 265.644 918.179 269.067 911.817 272.162C906.718 274.643 901.362 277.603 899.915 278.741C895.413 282.283 891.5 288.516 891.5 292.146C891.5 296.32 889.703 296.494 888.183 292.467C887.554 290.801 886.504 289.564 885.849 289.717C884.385 290.06 872.5 308.03 872.5 309.901C872.5 311.622 881.424 315.496 885.388 315.496C889.049 315.496 893.199 313.723 893.917 311.852C894.207 311.097 893.988 309.28 893.431 307.815C892.874 306.35 892.673 304.487 892.985 303.674C893.452 302.458 893.954 302.574 895.823 304.33L898.094 306.463L899.293 301.98C900.575 297.187 901.97 296.252 903 299.496C903.349 300.596 904.392 301.503 905.317 301.512C906.243 301.519 907.656 301.942 908.457 302.448C909.624 303.187 908.979 304.24 905.207 307.753C899.438 313.125 899.222 315.079 904.25 316.417C912.843 318.704 916.11 318.725 924.065 316.542C935.227 313.48 940.924 310.092 949.5 301.419C958.039 292.783 960.017 291.496 964.753 291.496C969.117 291.496 977.654 288.951 984 285.757C989.671 282.903 1003.02 269.857 1005.94 264.311C1007.87 260.663 1007.87 260.589 1005.94 256.919C1004.41 254.004 1004.28 253.113 1005.33 252.745C1007.66 251.923 1029.44 226.245 1031.62 221.749C1033.27 218.334 1033.83 214.788 1034.25 204.925C1034.93 189.229 1036.77 188.464 1037.5 203.576C1038.05 214.857 1038.57 216.496 1041.62 216.496C1043.55 216.496 1043.56 216.591 1041.89 219.405C1040.95 221.005 1036.16 226.722 1031.24 232.11C1026.33 237.499 1021.07 243.727 1019.54 245.952C1016.47 250.442 1014.62 255.161 1016.35 254.091C1018.34 252.859 1041.07 227.025 1055.33 209.796C1063.51 199.898 1071.98 190.75 1075.27 188.251C1082.12 183.043 1084.55 179.042 1088.47 166.496C1090.1 161.271 1093.7 153.053 1096.47 148.234C1099.87 142.305 1101.5 138.344 1101.5 135.984C1101.5 132.962 1101.82 132.496 1103.92 132.496C1105.25 132.496 1106.49 132.968 1106.68 133.546C1107.36 135.579 1116.65 124.938 1119.81 118.513C1122.65 112.717 1123 111.065 1123 103.342C1123 94.7736 1124.03 90.9743 1125.17 95.3308C1125.98 98.4557 1127.52 97.599 1130.21 92.5204C1134.02 85.3069 1132.94 78.971 1126.96 73.4962C1123.83 70.6279 1118.5 63.6071 1118.5 62.3462C1118.5 60.4176 1120.6 61.8347 1126.89 67.9962C1130.53 71.5712 1134.12 74.4962 1134.86 74.4962C1135.6 74.4962 1138.96 71.398 1142.33 67.6112C1147.26 62.0629 1150.21 59.8146 1157.54 56.0315C1166.26 51.5279 1170.49 47.5013 1170.5 43.692C1170.5 42.9747 1171.85 40.9497 1173.5 39.192C1176.76 35.7108 1177.41 36.8289 1174.93 41.6362C1172.3 46.711 1173.41 47.5465 1180.43 45.7786C1183.77 44.9379 1186.5 43.9293 1186.5 43.5371C1186.5 43.145 1188.3 42.7536 1190.5 42.6674C1197.65 42.3873 1194.78 44.8845 1185 47.4537C1179.33 48.9428 1165.4 56.0705 1155.96 62.3041C1146.4 68.6256 1142.92 73.3302 1138.57 85.8259C1134.84 96.5654 1134.71 98.5087 1137.75 98.4608C1140.86 98.4119 1143.63 96.6408 1147.4 92.3073C1150.87 88.3118 1153.52 87.189 1163.5 85.4827C1172.39 83.9633 1177.28 80.5139 1195.64 62.8104L1211 47.9962L1221 44.3607C1226.5 42.3611 1233.36 39.9642 1236.24 39.0342C1239.12 38.1042 1241.73 36.9277 1242.05 36.4198C1243.08 34.743 1246.36 35.4587 1247.93 37.7055C1248.79 38.9206 1249.15 40.232 1248.74 40.6197C1247.85 41.4667 1231.34 48.2137 1226.75 49.6048C1224.96 50.1468 1223.5 51.0191 1223.5 51.5432C1223.5 52.0674 1222.49 52.4992 1221.25 52.5028C1218.86 52.51 1215.36 54.5653 1211.49 58.2462C1210.19 59.4837 1208.63 60.4962 1208.03 60.4962C1206.72 60.4962 1198.01 69.442 1194.08 74.8146C1189.64 80.8944 1184 84.2725 1172.03 88.0072C1156.76 92.7755 1152.8 95.5001 1146.13 105.834C1142.61 111.299 1138.47 116.112 1134.35 119.534C1114.57 135.968 1110.45 140.711 1104.7 153.648C1102.65 158.239 1099.26 165.065 1097.15 168.816L1093.32 175.635L1096.05 179.57C1097.55 181.734 1100.29 184.441 1102.14 185.585C1105.55 187.692 1118.01 190.398 1124.6 190.461C1129.23 190.506 1134.33 187.086 1137.16 182.04C1140.11 176.767 1144.5 158.841 1144.5 152.027C1144.5 145.295 1146.56 144.523 1149.25 150.246C1152 156.113 1154.67 155.822 1160.86 148.978C1173.04 135.501 1183.3 125.64 1187.21 123.643C1192.62 120.885 1195.79 120.941 1208 124.007C1219.93 127.004 1223.58 126.662 1230.5 121.905C1237.3 117.223 1239.85 117.369 1235.33 122.182C1233.16 124.489 1233.16 124.496 1235.22 124.496C1236.36 124.496 1240.6 123.059 1244.65 121.302C1251.09 118.503 1253.33 118.063 1262.75 117.74C1268.66 117.537 1273.5 117.758 1273.5 118.23C1273.5 118.703 1270.38 119.625 1266.56 120.28C1262.74 120.934 1257.06 122.601 1253.93 123.983C1250.81 125.365 1246.48 126.496 1244.32 126.496C1236.42 126.496 1231.23 128.427 1227.26 132.842C1223.61 136.893 1223.33 137.009 1215.86 137.505C1209.04 137.958 1207.61 137.726 1202.74 135.369C1199.73 133.916 1196.18 131.549 1194.84 130.111C1193.51 128.673 1192.03 127.496 1191.56 127.496C1188.94 127.496 1178.12 137.401 1172.61 144.851C1168.48 150.427 1164.46 154.565 1160.87 156.953C1154.82 160.97 1149.85 167.835 1148.95 173.423C1147.88 180.026 1145.49 185.125 1140.98 190.409C1138.52 193.297 1136.5 195.994 1136.5 196.404C1136.5 196.813 1137.59 198.174 1138.93 199.428C1141.13 201.497 1142.12 201.675 1149.7 201.352C1157.51 201.02 1158.53 200.709 1165.29 196.627C1169.26 194.224 1175.32 191.12 1178.76 189.73L1185 187.203L1189.5 189.046C1194.32 191.018 1207.38 191.617 1213.06 190.126L1216.12 189.323V194.41C1216.12 197.207 1216.09 199.496 1216.06 199.496C1216.03 199.495 1213.61 198.586 1210.68 197.475C1206.28 195.802 1204.7 195.635 1201.48 196.502C1199.34 197.078 1196.93 198.212 1196.12 199.023C1193.87 201.271 1192.63 200.824 1190.33 196.94C1189.18 194.984 1187.73 193.606 1187.12 193.878C1172.16 200.49 1165.86 203.121 1160.5 204.995C1156.92 206.246 1152.07 207.999 1149.71 208.892C1145.55 210.464 1145.18 210.434 1138.21 207.952C1112.08 198.658 1107.23 197.377 1100.76 198.064C1094.78 198.699 1094.38 198.598 1090.98 195.611C1086.65 191.816 1085.6 191.775 1079.37 195.165C1074.77 197.667 1068.5 205.45 1068.5 208.653C1068.5 209.273 1064.27 214.104 1059.1 219.388C1041 237.894 1010.15 273.947 1010.78 275.869C1011.51 278.091 1019.05 279.792 1028.29 279.82C1036.18 279.844 1037.53 280.084 1037.28 281.418C1036.82 283.791 1028.55 285.291 1015.33 285.4C1004.3 285.491 1003.48 285.639 1000.58 288.085C995.838 292.072 996.57 293.072 1005.25 294.468C1022.39 297.225 1029.14 300.772 1035.15 310.169C1038.76 315.807 1043.47 319.486 1047.1 319.492C1048.38 319.494 1051.5 317.06 1055.1 313.246C1061.83 306.118 1067.35 303.444 1075 303.599C1079.4 303.689 1079.63 303.79 1076.89 304.443C1072.49 305.494 1062.36 311.469 1063.06 312.6C1063.39 313.12 1063.05 313.422 1062.32 313.271C1061.46 313.091 1061 314.035 1061 315.996C1061 318.907 1061.67 319.333 1083.5 330.27C1106.58 341.834 1119.77 347.496 1123.62 347.496C1126.06 347.496 1143.11 340.862 1160.28 333.231C1171.32 328.323 1174 327.876 1171.87 331.294C1169.87 334.518 1162.96 338.251 1147.5 344.461C1138.97 347.885 1131.62 351.046 1131.16 351.485C1130.69 351.923 1131.06 353.414 1131.96 354.797C1132.92 356.254 1133.21 357.558 1132.66 357.899C1131.6 358.551 1074.82 337.437 1061.59 331.472C1053.93 328.018 1050.5 327.404 1050.5 329.486C1050.5 329.913 1052.54 331.778 1055.03 333.629C1057.52 335.481 1067.6 346.329 1077.43 357.735C1092.97 375.777 1095.45 379.125 1096.49 383.474C1098.1 390.151 1100.55 393.021 1105.8 394.342C1110.34 395.486 1115.5 398.871 1115.5 400.709C1115.5 402.326 1105.41 400.994 1100.2 398.689C1093.16 395.572 1088.36 390.458 1076.29 373.177C1070.08 364.292 1063.18 355.188 1060.96 352.945C1055.89 347.821 1037.44 332.496 1036.34 332.496C1035.89 332.496 1033.37 335.748 1030.75 339.723C1026.62 345.972 1024.06 348.393 1020.1 349.781C1019.6 349.955 1023.32 356.25 1028.35 363.771C1034.78 373.386 1038.47 377.935 1040.75 379.096C1042.54 380.003 1053.44 386.4 1064.97 393.311C1082.42 403.767 1087.2 406.177 1093.47 407.669C1104.03 410.184 1106.08 411.199 1110.29 416.003C1112.33 418.33 1118.5 423.359 1124 427.178C1129.5 430.998 1136.41 435.954 1139.36 438.193C1145.64 442.963 1152.72 445.496 1159.77 445.496C1170.34 445.496 1207.07 437.616 1211.39 434.423C1213.74 432.681 1214.85 432.522 1219.56 433.254C1229.07 434.734 1237.81 431.315 1241.81 424.55C1244.51 419.986 1253.85 389.047 1257.93 371.158C1258.89 366.952 1261.09 369.36 1261.91 375.514C1262.29 378.416 1263.08 380.487 1263.78 380.475C1265.48 380.444 1274.5 366.643 1274.5 364.087C1274.5 361.096 1268.85 349.529 1265.68 346.034C1264.21 344.405 1263.75 343.646 1264.68 344.347C1266.15 345.469 1266.12 345.001 1264.38 340.435C1263.3 337.582 1262.64 335.024 1262.91 334.749C1264.24 333.42 1266.21 335.834 1268.33 341.384C1269.61 344.746 1270.98 347.496 1271.37 347.496C1271.76 347.496 1272.14 348.425 1272.23 349.561C1272.41 351.932 1276.95 360.036 1278.7 361.122C1280.7 362.355 1292.11 349.066 1296.25 340.683L1300 333.106V318.551C1300 310.546 1299.6 301.409 1299.11 298.246C1298.34 293.226 1298.43 292.496 1299.86 292.496C1300.81 292.496 1301.5 293.305 1301.5 294.425C1301.5 295.485 1302.06 296.948 1302.75 297.675C1303.44 298.402 1304.06 300.346 1304.14 301.996C1304.21 303.646 1304.59 310.396 1304.98 316.996C1305.63 328.245 1305.51 329.56 1302.97 337.996C1301.49 342.946 1300.05 347.759 1299.78 348.69C1299.44 349.896 1300.39 350.905 1303.08 352.19C1308.75 354.903 1308.88 356.93 1303.32 356.097C1299.39 355.508 1298.38 355.791 1294.44 358.589C1289.28 362.262 1283.5 367.56 1283.5 368.631C1283.5 369.039 1284.6 369.288 1285.95 369.184C1290.02 368.87 1289.27 370.842 1284.29 373.534C1278.18 376.83 1274.92 379.939 1271.72 385.496C1270.3 387.971 1267.38 391.942 1265.23 394.321C1259.56 400.592 1256.27 408.465 1255.72 417.031C1255.17 425.544 1256.28 428.177 1260.76 429.016C1269.02 430.562 1275.77 428.157 1309.5 411.657C1327.37 402.912 1343.35 395.218 1345 394.559C1351.8 391.843 1355.58 388.11 1362.18 377.604C1369.87 365.348 1372.85 359.193 1374.82 351.496C1375.68 348.152 1376.77 345.996 1377.61 345.996C1378.72 345.996 1378.93 347.845 1378.65 355.128C1378.44 360.807 1378.71 364.506 1379.36 364.91C1381.09 365.978 1386.9 362.995 1389.8 359.555C1392.15 356.763 1392.5 355.47 1392.49 349.669C1392.48 344.696 1391.85 341.652 1390.02 337.719C1387.8 332.952 1387.32 332.503 1385.03 333.077C1381.96 333.848 1381.67 331.992 1384.13 327.251C1385.47 324.657 1385.56 323.29 1384.68 319.455C1383.48 314.256 1384.06 310.496 1386.06 310.496C1386.9 310.496 1387.5 312.025 1387.69 314.668C1388.02 319.049 1389.91 320.878 1390.93 317.801C1391.26 316.808 1392.42 314.871 1393.51 313.496C1395.18 311.378 1395.64 311.225 1396.48 312.496C1398.32 315.28 1397.52 318.471 1394 322.365C1392.07 324.495 1390.5 327.282 1390.5 328.557C1390.5 331.218 1398.18 344.437 1400.17 345.201C1400.9 345.481 1401.5 346.189 1401.5 346.774C1401.5 347.36 1402.25 348.669 1403.17 349.683C1404.79 351.47 1404.92 351.458 1407.42 349.288C1408.84 348.057 1406.62 350.539 1402.5 354.805C1397.71 359.759 1395.11 363.228 1395.29 364.409C1395.5 365.704 1394.77 366.462 1392.88 366.938L1390.17 367.618L1392.77 370.216C1396.18 373.634 1401.63 373.569 1411 369.999C1421.41 366.036 1422.5 365.877 1422.5 368.326C1422.5 369.949 1420.42 371.395 1412.75 375.09C1400.62 380.936 1394.91 381.706 1387.11 378.542C1382.04 376.485 1381.5 376.445 1378.65 377.919C1375.48 379.558 1370.5 385.324 1370.5 387.356C1370.5 388.125 1372.3 388.463 1375.75 388.341C1381.47 388.139 1387.5 389.205 1387.5 390.417C1387.5 391.434 1381.62 393.063 1372.78 394.497C1368.44 395.199 1364.49 396.5 1362.91 397.745C1360 400.031 1354.5 411.331 1354.5 415.012C1354.5 418.54 1364.2 426.477 1368.61 426.559C1371.53 426.614 1371.7 426.742 1369.85 427.489C1368.67 427.966 1367.44 428.778 1367.13 429.293C1366.78 429.849 1365.01 429.893 1362.77 429.4C1342.94 425.035 1333.94 426.345 1324.37 434.998C1320.51 438.486 1320.46 438.497 1310.25 438.655C1304.61 438.742 1295.5 438.886 1290 438.973C1284.5 439.061 1273.25 440.111 1265 441.307C1256.75 442.503 1249.89 443.485 1249.75 443.489C1249.61 443.493 1249.5 443.875 1249.5 444.338C1249.5 445.656 1256.77 447.504 1261.62 447.417C1266.32 447.333 1278.35 445.369 1280 444.418C1280.55 444.1 1284.94 444.127 1289.75 444.477C1297.52 445.043 1298.97 445.469 1302.75 448.308C1315.92 458.204 1327.64 459.983 1353 455.939C1367.72 453.591 1373.24 453.949 1379.04 457.624C1384.16 460.874 1391.5 463.893 1391.5 462.752C1391.5 462.391 1392.03 462.626 1392.68 463.273C1393.58 464.174 1393.46 464.888 1392.15 466.329C1390.73 467.904 1390.67 468.394 1391.82 469.344C1392.57 469.968 1393.55 470.145 1394 469.738C1394.45 469.33 1394.53 469.508 1394.17 470.134C1393.77 470.832 1395.66 472.283 1399.04 473.884C1402.07 475.321 1404.88 476.506 1405.28 476.518C1405.67 476.53 1407.12 477.421 1408.5 478.496C1413.35 482.292 1405.01 480.247 1393.58 474.84C1386.09 471.298 1366.38 464.61 1358.5 462.937C1354.15 462.014 1351.01 461.857 1349 462.462C1347.35 462.96 1344.02 463.886 1341.59 464.52C1339.17 465.153 1336 466.546 1334.55 467.614L1331.93 469.557L1321.96 466.45C1311.16 463.082 1307.51 461.411 1303.2 457.855C1301.67 456.587 1298.74 455.158 1296.7 454.68C1292.32 453.651 1266.37 453.794 1255 454.91C1248.31 455.567 1245.73 455.352 1239.27 453.596C1235.02 452.441 1229.68 451.496 1227.42 451.496C1225.15 451.496 1221.72 450.746 1219.79 449.829C1216.39 448.215 1216.13 448.239 1211.7 450.579C1209.19 451.908 1205.4 454.697 1203.29 456.776L1199.44 460.556L1189.22 459.942C1181 459.449 1176.96 459.74 1168.58 461.432C1156.53 463.864 1155.21 464.599 1156.56 468.143C1157.08 469.514 1157.24 471.69 1156.91 472.979C1156.36 475.207 1156.23 475.241 1154.28 473.66C1153.16 472.745 1148.81 468.561 1144.62 464.362C1133.13 452.85 1098.82 427.35 1084.29 419.522C1078.36 416.324 1075.72 415.442 1072.79 415.683L1069 415.996L1069.36 421.865C1069.64 426.472 1069.42 427.638 1068.36 427.285C1067.61 427.037 1066.76 424.857 1066.47 422.416C1066.18 419.985 1065.6 417.434 1065.17 416.747C1064.41 415.545 1055.51 407.899 1039.57 394.758C1035.41 391.327 1025.9 382.172 1018.44 374.414C1007.68 363.22 1004.38 360.347 1002.44 360.495C1001.1 360.597 993.763 360.752 986.141 360.839L972.282 360.996L969.376 364.496C967.778 366.421 961.414 371.371 955.235 375.496C939.926 385.716 939.987 385.576 941.947 405.631C945.038 437.262 951.876 452.914 966.988 462.945C973.227 467.086 974.047 468.288 975.612 475.583C976.863 481.419 980.184 485.496 983.685 485.496C984.936 485.496 988.556 483.894 991.728 481.936C994.901 479.978 997.889 478.619 998.369 478.915C998.849 479.212 999.495 480.723 999.805 482.274C1000.61 486.307 1005.03 490.278 1010.51 491.907C1018.07 494.152 1021.02 496.091 1026.68 502.519C1031.94 508.496 1057.18 529.668 1062.33 532.424C1067.38 535.126 1076.03 536.465 1088.54 536.481C1099.8 536.496 1120.56 534.537 1126.14 532.936C1128.95 532.129 1129.91 533.828 1127.73 535.736C1125.2 537.943 1117.56 539.317 1104 540.005C1085.99 540.918 1072.5 543.456 1072.5 545.929C1072.5 546.675 1073.74 548.61 1075.25 550.229C1076.76 551.848 1078.02 553.583 1078.05 554.085C1078.07 554.586 1078.89 557.593 1079.87 560.766C1082.29 568.6 1081.52 569.889 1078.68 562.77ZM797.351 515.399C801.257 514.037 801.358 512.148 797.895 505.213C792.154 493.718 785.74 489.785 765.722 485.49C758.175 483.871 750.2 481.88 748 481.065C745.8 480.251 742.952 479.564 741.671 479.54C739.571 479.501 739.405 479.817 739.99 482.746C743.089 498.278 746.769 503.003 758.478 506.49C762.567 507.708 768.407 509.846 771.456 511.242C782.383 516.243 790.972 517.622 797.351 515.399ZM725.5 465.579C725.5 463.487 721.128 454.706 716.981 448.468C712.881 442.3 705.167 435.554 704.169 437.264C703.699 438.069 714.831 462.985 716.627 465.149C717.873 466.651 725.5 467.02 725.5 465.579ZM708.5 462.468C708.5 460.613 702.771 450.08 699.602 446.109C697.228 443.133 696.5 441.223 696.5 437.966C696.5 435.008 696.018 433.525 694.918 433.103C692.24 432.076 665.668 432.416 665.006 433.487C664.116 434.927 670.827 443.322 676.782 448.218C683.031 453.356 691.326 457.867 700.286 461C708.168 463.756 708.5 463.815 708.5 462.468ZM1320.01 425.419C1327.21 422.432 1340.39 414.95 1344.08 411.755C1346.95 409.266 1349.64 404.974 1348.84 404.167C1346.07 401.404 1325.45 408.31 1315.01 415.492C1308.89 419.703 1303.51 427.171 1305.3 428.966C1306.36 430.027 1312.43 428.564 1320.01 425.419ZM737.284 395.651C739.287 394.38 737.875 392.244 732.989 389.153C727.393 385.612 724.5 382.011 724.5 378.584C724.5 371.207 718.621 369.692 706.689 373.996C698.256 377.038 697.115 377.071 693.33 374.375C691.348 372.964 688.232 372.084 684.02 371.746L677.689 371.238L674.926 375.617C673.406 378.026 668.84 383.1 664.779 386.894C660.718 390.688 657.773 394.17 658.235 394.632C658.697 395.093 675.708 395.595 696.038 395.747C716.367 395.898 733.675 396.122 734.5 396.244C735.325 396.366 736.578 396.099 737.284 395.651ZM899.5 386.567C908.025 383.157 916.789 379.608 918.976 378.681C921.198 377.739 927.853 372.299 934.069 366.343C940.347 360.326 947.401 354.567 950.273 353.112C953.07 351.694 955.611 350.126 955.92 349.627C956.541 348.621 951.757 344.698 946.79 342.139C942.164 339.757 933.238 337.901 914.793 335.486C892.06 332.509 893.16 332.234 886.345 342.591C883.235 347.319 874.797 358.558 867.595 367.569C860.393 376.579 854.5 384.516 854.5 385.207C854.5 386.425 862.431 390.946 867.5 392.619C868.875 393.072 873.15 393.291 877 393.106C882.783 392.827 886.694 391.69 899.5 386.567ZM848.554 374.64C859.629 367.524 877.77 347.881 883.169 337.162L886.674 330.201L875.357 330.917C864.315 331.616 861.5 332.443 861.5 334.991C861.5 337.175 851.925 350.829 847.203 355.379C844.16 358.311 841.574 362.241 839.388 367.254C836.234 374.487 836.186 374.794 838.002 376.121C840.833 378.192 843.639 377.798 848.554 374.64ZM991.5 342.039C998.169 340.746 999.625 340.757 1004.64 342.141C1009.84 343.578 1010.55 343.565 1013.9 341.978C1017.92 340.069 1024.63 332.251 1027.8 325.778C1029.79 321.713 1029.8 321.488 1028.07 319.576C1025.06 316.244 1011.95 307.603 1004.93 304.319C993.209 298.832 980.133 299.525 968.673 306.241C963.734 309.136 955.86 316.826 953.247 321.309L951.493 324.317L956.247 328.952C960.805 333.397 979.034 343.498 982.493 343.495C983.322 343.495 987.375 342.839 991.5 342.039ZM892.66 265.497C896.147 263.848 900.321 262.498 901.934 262.497C910.097 262.495 917.056 255.936 927.222 238.664C934.337 226.573 934.12 225.567 923.209 220.075C913.165 215.02 906.518 214.276 901.592 217.657C895.534 221.815 894.421 224.262 892.966 236.615C891.51 248.976 889.775 254.947 885.961 260.725C883.478 264.487 882.943 266.606 884.167 267.83C885.216 268.879 885.924 268.684 892.66 265.497ZM1216.25 132.866C1221.31 131.509 1218.49 130.168 1208 128.945C1201.41 128.178 1201.35 129.057 1207.82 131.626C1212.73 133.58 1213.28 133.661 1216.25 132.866Z" fill="#E1B382" stroke="#E1B382" stroke-width="0.999999"/>
<path d="M1170.63 42.4836L1176.63 37.4836L1174.63 43.4836C1185.36 43.4836 1204.46 43.4352 1206.63 29.4836L1183.63 31.4836C1186.36 22.9395 1187.73 15.1651 1184.53 6.48362C1180.39 -4.76456 1171.42 0.184542 1167.77 9.48362C1163.26 21.018 1170.36 31.3514 1170.63 42.4836ZM1209.63 60.4836C1218.49 68.6879 1230.09 69.8855 1241.63 67.6788C1244.41 67.147 1251.99 66.5335 1251.99 62.5206C1251.99 58.2332 1244.91 55.3259 1241.63 54.2336C1229.71 50.2695 1219.05 52.756 1209.63 60.4836ZM948.627 66.4836C945.422 79.9467 949.703 88.9682 957.627 99.4836C967.906 89.6942 961.899 69.6745 948.627 66.4836ZM1108.63 90.4836C1095.52 92.731 1092.78 122.513 1100.48 131.165C1107.24 138.762 1111.69 122.927 1112.33 118.484C1112.88 114.612 1112.82 110.382 1112.54 106.484C1112.13 100.965 1109.86 95.8296 1108.63 90.4836ZM1254.63 118.484C1273.24 118.484 1290.58 117.764 1292.63 94.4836C1271.55 94.4836 1265.86 101.426 1254.63 118.484ZM959.627 125.484C975.623 118.965 990.257 115.127 995.627 96.4836C978.273 91.3541 960.707 108.674 959.627 125.484ZM1255.63 124.484C1259.95 135.624 1275.48 141.108 1286.63 138.484C1280.64 123.044 1271.66 116.438 1255.63 124.484ZM901.627 138.484C894.238 149.678 897.334 164.761 909.627 170.484L913.627 160.484L917.627 173.484H918.627C920.431 167.264 926.017 168.15 930.098 164.001C935.528 158.48 937.472 148.946 937.627 141.484C924.86 142.067 919.088 149.594 916.627 161.484L901.627 138.484ZM1192.63 201.484C1194.19 207.395 1194.72 213.717 1196.73 219.484C1199.07 226.216 1203.81 231.996 1209.63 236.04C1211.54 237.367 1215.45 240.285 1217.6 237.837C1219.43 235.746 1218.66 231.036 1218.62 228.484C1218.45 215.945 1205.9 201.03 1192.63 201.484ZM1064.63 215.484C1069.38 216.853 1073.67 219.453 1078.63 220.183C1083.14 220.848 1102.28 218.196 1098.45 209.902C1097.18 207.152 1092.24 206.42 1089.63 205.949C1079.37 204.098 1070.55 206.723 1064.63 215.484ZM1061.63 307.484C1075 304.315 1085.83 303.687 1089.99 288.484C1090.79 285.532 1093.23 278.85 1090.02 276.552C1087.12 274.468 1081.23 277.531 1078.63 279.016C1067.9 285.148 1064.8 296.347 1061.63 307.484ZM1305.63 307.484C1315.53 295.622 1325.11 292.567 1327.63 275.484C1314.05 275.598 1297.28 293.451 1305.63 307.484ZM723.627 298.484C709.048 313.105 712.806 322.32 715.627 340.484H716.627L722.627 334.484L716.627 345.484C728.064 346.929 744.72 346.571 750.627 334.484C743.715 332.298 733.726 329.691 726.627 331.484C732.177 321.76 732.057 306.899 723.627 298.484ZM1062.63 312.484C1070.65 323.595 1083.79 320.728 1095.63 320.484C1092.79 302.929 1073.12 306.061 1062.63 312.484ZM1404.63 352.484H1405.63C1418.86 340.331 1430.68 332.949 1424.63 312.484C1412.71 317.795 1395.12 339.212 1404.63 352.484ZM1266.63 346.484L1262.63 335.484L1270.63 348.484C1274.32 346.762 1289.44 332.133 1282.02 327.644C1278.14 325.299 1273.55 332.252 1269.2 330.66C1264.47 328.927 1259.32 319.523 1253.94 320.405C1250.91 320.901 1251.61 326.38 1251.63 328.484C1251.75 338.665 1258.43 342.274 1266.63 346.484ZM1069.63 422.484V428.484L1066.63 423.484C1055.64 427.748 1044.74 433.726 1040.63 445.484C1048.82 448.549 1056.03 446.091 1063.63 442.484C1063.8 450.858 1066.73 457.488 1072.67 463.465C1074.48 465.284 1078 469.217 1080.92 467.398C1088.98 462.386 1081.07 448.103 1084.74 441.918C1087.27 437.662 1097.44 439.484 1101.63 439.484C1099.38 424.91 1081.38 422.484 1069.63 422.484ZM1366.63 430.484V431.484C1369.8 434.971 1372.17 439.383 1375.76 442.441C1386.13 451.274 1397.01 447.654 1408.63 444.484C1397.3 428.077 1385.92 418.505 1366.63 430.484ZM871.627 463.484C881.53 451.622 891.113 448.567 893.627 431.484C880.049 431.598 863.276 449.451 871.627 463.484ZM1393.63 471.484C1405.14 481.801 1424.25 483.149 1429.63 465.484C1417.48 462.593 1404.16 464.859 1393.63 471.484ZM1157.63 472.484C1153.16 487.597 1164.32 507.504 1179.63 511.484C1179.79 491.812 1176.14 482.338 1157.63 472.484ZM1390.63 474.484C1395.37 482.376 1395.93 491.841 1400.96 499.445C1404.01 504.063 1415.19 513.103 1421.31 509.416C1426.97 506.007 1421.8 493.291 1418.99 489.524C1412.95 481.441 1399.83 477.669 1390.63 474.484ZM836.627 550.484C840.183 552.272 858.16 557.128 856.706 547.672C855.372 539.004 839.165 547.079 836.627 550.484ZM1072.63 554.484C1067.81 560.319 1059.05 578.481 1065.65 585.826C1071.38 592.192 1080.46 574.038 1081.63 570.484C1087.1 578.098 1092.34 582.316 1101.63 584.273C1104.18 584.812 1108.53 586.244 1110.02 583.162C1118.43 565.752 1088.71 556.113 1077.63 554.484L1081.63 569.484H1080.63C1079.61 563.747 1077.24 558.133 1072.63 554.484Z" fill="#2D535D"/>
<path d="M1130.66 196.929L1144.75 205.25L1185.64 190.654L1219.94 194.278M1130.66 196.929L1086.5 185.5M1130.66 196.929L1144.81 174.655L1148.69 154.149L1156.28 157.047L1193.24 121.269M1193.24 121.269L1209.15 137.532L1222 133.375L1237 117M1193.24 121.269L1283.04 118.087M1086.5 185.5L988.535 292.035M1086.5 185.5L1105.56 139.654L1131.02 106.42M936.916 325.976L980.499 351L1013 348.5L1035 324L1083.5 301.5M936.916 325.976L902.268 324.562M936.916 325.976L965.2 296.985L988.535 292.035M1020.71 304.409L1127.13 351.255L1174.33 328.981M1020.71 304.409L988.535 292.035M1020.71 304.409L1055.71 339.411L1092.48 386.08L1114.4 401.637M1035.2 187.737L1038.74 217.082L988.535 292.035M988.535 292.035L1009.04 280.721H1037.68M1131.02 106.42L1121.82 93.6916M1131.02 106.42L1136.67 76.7211M1131.02 106.42L1154 90.1561L1187.23 77.7817L1213.87 50.875L1249.25 36.25M1136.67 76.7211L1116.17 59.0434M1136.67 76.7211L1193.95 34.2947" stroke="#12343B" stroke-width="25" stroke-linecap="round" stroke-linejoin="round"/>
<path d="M1297.19 350.725L1308.75 356.625M1297.19 350.725L1281.28 365.221M1297.19 350.725L1303.63 327L1299.88 290.875M1281.28 365.221L1259.5 329.5M1281.28 365.221L1257.24 390.677M1257.24 390.677L1288.37 369.625M1257.24 390.677L1259.87 367.625M1257.24 390.677L1248.38 433.657M1248.38 433.657L1217.28 440.528M1248.38 433.657L1283.05 431.335M1382.57 333.401L1386.64 325.269M1386.64 325.269L1384.87 308.829M1386.64 325.269L1399.19 350.902L1391.59 362.746L1370.73 372.645M1386.64 325.269L1397.95 312.541M1378.5 344.184L1370.73 372.645M1370.73 372.645L1383.81 370.878L1398.48 377.065L1423.05 366.458M1370.73 372.645L1347.04 418.254M1283.05 431.335L1324.23 406.763L1351.63 394.919L1389.82 389.439M1283.05 431.335L1317.69 432.396L1347.04 418.254M1347.04 418.254L1352.34 424.087L1371.96 428.86M1364.19 457.145L1393.71 461.917M1364.19 457.145L1329.71 463.155L1296.48 448.482L1251.05 451.134L1217.28 440.528M1364.19 457.145L1380.63 464.039L1414.21 481.363M1217.28 440.528L1148.34 455.023M1157.36 479.242L1148.34 455.023M1148.34 455.023L1189.71 458.559L1208.98 448.482M1148.34 455.023L1100.26 417.9L1063.14 404.819M1063.14 404.819L1071.09 432.042M1063.14 404.819L1018.59 362.746L1002.32 347.897L972.272 347.189L938.25 378.625C932.811 379.708 906 380.792 893.375 379.875" stroke="#12343B" stroke-width="25" stroke-linecap="round" stroke-linejoin="round"/>
<path d="M728.32 329.158L714.974 343.212L711.173 354.261L717.36 352.67M717.36 352.67L672.459 363.806M717.36 352.67L771.984 355.673L801.365 319.335M801.365 319.335L823.603 316.607M801.365 319.335L823.488 283.84L842.872 269.052M672.459 363.806L698.091 372.115L722.663 368.579C726.775 375.759 724.253 377.069 734.78 385.103C741.516 386.752 758.418 382.162 762.605 375.386M672.459 363.806L660.438 377.947L659.223 383.956L635.848 383.994L614.822 388.444" stroke="#12343B" stroke-width="20" stroke-linecap="round" stroke-linejoin="round"/>
<path d="M701 471L694.5 492.75L713 502.5M701 471L661 446.25M701 471L734.25 472.75L796.75 488.25M661 446.25L658.75 466.75M661 446.25L608.25 445.25M833 479L808 472.5L796.75 488.25M796.75 488.25L849.5 482.75L868.25 460L866.625 446.25M796.75 488.25L809 513.75L843 567.75" stroke="#12343B" stroke-width="25" stroke-linecap="round" stroke-linejoin="round"/>
<path d="M713.25 468L698 442L724.5 447.5L733.75 486.75L737 505.25L766 512.5L790 522.5M790 522.5L805.75 549.5M790 522.5L823.75 507.75L851.75 509.75" stroke="#12343B" stroke-width="20" stroke-linecap="round" stroke-linejoin="round"/>
<path d="M981.25 183.5H961.75M961.75 183.5L987 152M961.75 183.5L939.001 222.5M961.75 183.5L961.912 171.772L952.5 147L966 87M886 275.5L878.75 262L899 200.25L939.001 222.5M886 275.5L817.802 372.865M886 275.5L920.501 260M939.001 222.5L909.693 158.215L896.435 190.389M939.001 222.5L920.501 260M920.501 260L949.5 238L991 234.5M748.957 377.05L817.802 372.865M817.802 372.865L868.857 373.539L887.5 335.5L904.75 297.75" stroke="#12343B" stroke-width="39.9999" stroke-linecap="round" stroke-linejoin="round"/>
<path d="M994.545 489.671L998.75 476.25M994.545 489.671L975.454 488.964M994.545 489.671L1016.82 500.985L1065.61 539.522M975.454 488.964L987.375 509.125L994.375 537.25M975.454 488.964L967.322 468.105L949.998 454.316L933.506 413.92L940.213 407.526M1065.61 539.522L1076.25 548.625L1082.62 576.625M1065.61 539.522L1131.02 534.219" stroke="#12343B" stroke-width="20" stroke-linecap="round" stroke-linejoin="round"/>
</g>
<defs>
<clipPath id="clip0_1494_4924">
<rect width="1428.93" height="587.168" fill="white"/>
</clipPath>
</defs>
</svg>
