<?xml version="1.0" encoding="UTF-8" standalone="no"?>
<svg
   xmlns:dc="http://purl.org/dc/elements/1.1/"
   xmlns:cc="http://creativecommons.org/ns#"
   xmlns:rdf="http://www.w3.org/1999/02/22-rdf-syntax-ns#"
   xmlns:svg="http://www.w3.org/2000/svg"
   xmlns="http://www.w3.org/2000/svg"
   xmlns:sodipodi="http://sodipodi.sourceforge.net/DTD/sodipodi-0.dtd"
   xmlns:inkscape="http://www.inkscape.org/namespaces/inkscape"
   width="254mm"
   height="157mm"
   viewBox="0 0 254 157"
   version="1.1"
   id="svg3502"
   inkscape:version="1.0.1 (3bc2e813f5, 2020-09-07)"
   sodipodi:docname="branch-leaves.svg">
  <defs
     id="defs3496" />
  <sodipodi:namedview
     id="base"
     pagecolor="#ffffff"
     bordercolor="#666666"
     borderopacity="1.0"
     inkscape:pageopacity="0.0"
     inkscape:pageshadow="2"
     inkscape:zoom="0.7"
     inkscape:cx="477.46319"
     inkscape:cy="291.89671"
     inkscape:document-units="mm"
     inkscape:current-layer="layer1"
     inkscape:document-rotation="0"
     showgrid="false"
     inkscape:window-width="1366"
     inkscape:window-height="705"
     inkscape:window-x="-8"
     inkscape:window-y="-8"
     inkscape:window-maximized="1" />
  <metadata
     id="metadata3499">
    <rdf:RDF>
      <cc:Work
         rdf:about="">
        <dc:format>image/svg+xml</dc:format>
        <dc:type
           rdf:resource="http://purl.org/dc/dcmitype/StillImage" />
        <dc:title></dc:title>
      </cc:Work>
    </rdf:RDF>
  </metadata>
  <g
     inkscape:label="Layer 1"
     inkscape:groupmode="layer"
     id="layer1">
    <path
       style="fill:#2d535d;stroke:none;stroke-width:0.264583"
       d="m 185.58631,13.342446 1.5875,-1.32291 -0.52916,1.5875 c 2.84083,0 7.89225,-0.0128 8.46666,-3.7041697 l -6.08541,0.5291697 c 0.72284,-2.2606297 1.08558,-4.3175997 0.23997,-6.6145797 -1.09564,-2.97607998 -3.4708,-1.66663 -4.43415,0.79375 -1.19486,3.05181 0.68527,5.7858497 0.75459,8.7312397 m 10.31875,4.7625 c 2.34606,2.17073 5.41549,2.48759 8.46667,1.90373 0.73528,-0.1407 2.74214,-0.30302 2.74214,-1.36477 0,-1.13437 -1.87351,-1.9036 -2.74214,-2.1926 -3.15198,-1.04884 -5.97244,-0.39095 -8.46667,1.65364 m -69.05625,1.5875 c -0.84799,3.56212 0.2847,5.94905 2.38125,8.73125 2.71966,-2.59011 1.1303,-7.88699 -2.38125,-8.73125 m 42.33334,6.35 c -3.46737,0.59463 -4.1918,8.47434 -2.1553,10.76352 1.78805,2.01004 2.96466,-2.17964 3.13425,-3.35518 0.14764,-1.02447 0.13124,-2.14366 0.0556,-3.175 -0.10716,-1.46024 -0.70723,-2.81887 -1.03452,-4.23334 m 38.62916,7.40834 c 4.9239,0 9.5131,-0.1905 10.05417,-6.35 -5.57636,0 -7.08184,1.83674 -10.05417,6.35 m -78.05208,1.85208 c 4.23227,-1.72482 8.10419,-2.74029 9.525,-7.67292 -4.59158,-1.35718 -9.23925,3.22528 -9.525,7.67292 m 78.31667,-0.26458 c 1.14511,2.94746 5.25198,4.39843 8.20208,3.70416 -1.58485,-4.08516 -3.96028,-5.833 -8.20208,-3.70416 m -93.6625,3.70416 c -1.95501,2.96175 -1.13586,6.95246 2.11666,8.46667 l 1.05834,-2.64583 1.05833,3.43958 h 0.26458 c 0.47731,-1.64571 1.95527,-1.41129 3.03504,-2.50904 1.43669,-1.46077 1.95104,-3.98331 1.99205,-5.95763 -3.37794,0.15426 -4.90511,2.14577 -5.55625,5.29167 l -3.96875,-6.08542 m 76.99375,16.66875 c 0.4138,1.56396 0.55456,3.23665 1.08505,4.7625 0.61939,1.78118 1.87431,3.31047 3.41392,4.38045 0.50483,0.3511 1.54041,1.12315 2.1082,0.47545 0.48498,-0.55324 0.2802,-1.79943 0.27093,-2.47465 -0.0447,-3.31761 -3.36629,-7.26387 -6.8781,-7.14375 m -33.86667,3.70417 c 1.25809,0.36221 2.39316,1.05013 3.70417,1.24328 1.1938,0.17595 6.25766,-0.52573 5.2451,-2.72018 -0.33576,-0.72761 -1.64333,-0.92128 -2.33469,-1.0459 -2.71436,-0.48975 -5.04772,0.20479 -6.61458,2.5228 m -0.79375,24.34167 c 3.5396,-0.83847 6.40397,-1.00463 7.50332,-5.02709 0.21325,-0.78105 0.85804,-2.54899 0.01,-3.15701 -0.76914,-0.55139 -2.3278,0.25903 -3.01545,0.65194 -2.83925,1.62242 -3.65707,4.58549 -4.49792,7.53216 m 64.55833,0 c 2.62017,-3.13849 5.15567,-3.94679 5.82084,-8.46667 -3.59252,0.0302 -8.03037,4.75377 -5.82084,8.46667 M 67.317559,81.075786 c -3.85736,3.86847 -2.863056,6.3066 -2.116666,11.1125 h 0.264583 l 1.5875,-1.5875 -1.5875,2.91041 c 3.02604,0.38233 7.43294,0.2876 8.995833,-2.91041 -1.8288,-0.57838 -4.471723,-1.26815 -6.35,-0.79375 1.468438,-2.57281 1.436688,-6.50478 -0.79375,-8.73125 m 89.693751,3.70416 c 2.12223,2.93979 5.6007,2.18123 8.73125,2.11667 -0.7493,-4.64476 -5.95444,-3.81609 -8.73125,-2.11667 m 90.4875,10.58334 h 0.26459 c 3.50176,-3.21549 6.62754,-5.16864 5.02708,-10.58334 -3.15304,1.40521 -7.80785,7.07179 -5.29167,10.58334 m -36.5125,-1.5875 -1.05833,-2.91042 2.11667,3.43958 c 0.97657,-0.45561 4.97893,-4.3262 3.01439,-5.51391 -1.02684,-0.62045 -2.24155,1.2192 -3.39116,0.79798 -1.25148,-0.45852 -2.61408,-2.94666 -4.03701,-2.7133 -0.80169,0.13123 -0.61886,1.58088 -0.61225,2.13757 0.0318,2.69372 1.79996,3.6486 3.96769,4.7625 m -143.404167,-3.70417 -0.529167,0.52917 0.529167,-0.52917 M 158.8634,113.88413 v 1.5875 l -0.79375,-1.32292 c -2.90804,1.12818 -5.792,2.70986 -6.87917,5.82083 2.16879,0.81095 4.07591,0.16061 6.08542,-0.79375 0.046,2.21562 0.81994,3.96981 2.39183,5.55123 0.47863,0.48127 1.41155,1.52188 2.18466,1.0406 2.13043,-1.32609 0.0386,-5.10513 1.01071,-6.74158 0.66887,-1.12607 3.36048,-0.644 4.46696,-0.644 -0.59504,-3.85603 -5.35781,-4.49791 -8.46666,-4.49791 m 78.58125,2.11666 v 0.26459 c 0.84005,0.9226 1.46552,2.08994 2.41564,2.89904 2.744,2.33706 5.6224,1.37927 8.69686,0.54054 -2.99773,-4.34102 -6.00843,-6.87361 -11.1125,-3.70417 m -130.96875,8.73125 c 2.62017,-3.13848 5.15567,-3.94679 5.82083,-8.46666 -3.59251,0.0302 -8.03037,4.75377 -5.82083,8.46666 m 138.1125,2.11667 c 3.04694,2.72971 8.10127,3.08637 9.525,-1.5875 -3.21337,-0.76491 -6.73788,-0.16536 -9.525,1.5875 m -62.44167,0.26458 c -1.18163,3.99865 1.77165,9.26571 5.82083,10.31875 0.0431,-5.20488 -0.92339,-7.71154 -5.82083,-10.31875 m 61.64792,0.52917 c 1.25571,2.08809 1.40361,4.59237 2.73288,6.60427 0.80751,1.22184 3.76581,3.61367 5.38506,2.63816 1.49754,-0.90197 0.13124,-4.26641 -0.61383,-5.2631 -1.59861,-2.13862 -5.06862,-3.13663 -7.50411,-3.97933 M 97.215476,147.75079 c 0.940858,0.47308 5.697274,1.7579 5.312574,-0.744 -0.35296,-2.29341 -4.641062,-0.1569 -5.312574,0.744 m 62.441674,1.05834 c -1.2745,1.54384 -3.59172,6.3492 -1.84468,8.29257 1.51395,1.68433 3.91742,-3.11891 4.22593,-4.05924 1.44938,2.01454 2.83368,3.13055 5.29166,3.64834 0.67654,0.14261 1.82642,0.52149 2.22065,-0.29395 2.22647,-4.6064 -5.63853,-7.15672 -8.57065,-7.58772 l 1.05834,3.96875 h -0.26459 c -0.26961,-1.51792 -0.89482,-3.00329 -2.11666,-3.96875 z"
       id="path4083" />
  </g>
</svg>
