<svg width="454" height="503" viewBox="0 0 454 503" fill="none" xmlns="http://www.w3.org/2000/svg">
<g clip-path="url(#clip0_1494_4842)">
<path d="M459.177 479.272C457.908 476.097 455.814 472.283 454.524 470.796C453.234 469.31 444.825 462.721 435.839 456.154C426.853 449.588 414.031 439.291 407.346 433.273C392.89 420.258 387.485 416.621 379.517 414.545C374.721 413.296 367 413.251 367 414.471C367 414.609 368.786 418.532 370.969 423.19C375.945 433.809 378.163 442.128 377.359 447.157C376.454 452.815 373 451.807 373 445.885C373 444.813 372.325 443.677 371.5 443.36C370.675 443.043 369.99 442.045 369.978 441.141C369.94 438.285 366.289 431.27 359.612 421.224C356.057 415.875 350.579 406.187 347.438 399.696C343.516 391.587 340.724 387.127 338.52 385.446C336.755 384.1 334.872 382.998 334.336 382.998C333.799 382.998 331.506 381.412 329.24 379.472C324.534 375.444 322.488 371.427 314.479 350.498C308.399 334.609 306.183 330.541 303.178 329.755C302.156 329.488 298.486 330.597 295.022 332.22C284.58 337.113 279.633 337.568 263.5 335.119C244.446 332.226 224.567 332.229 210.692 335.126C201.341 337.079 199.621 337.156 189.851 336.054C179.288 334.864 179.145 334.876 172.351 337.567C168.583 339.06 163.025 341.504 160 342.999C147.311 349.271 126.889 353.978 112.309 353.992C108.904 353.995 105.838 354.451 105.496 355.005C105.153 355.559 106.434 357.485 108.342 359.284C111.077 361.864 111.949 363.608 112.46 367.527C113.518 375.628 113.876 376.697 116.619 379.957C120.324 384.36 123.179 385.574 135.335 387.92C141.23 389.058 153.277 391.805 162.108 394.025L178.164 398.062L181.617 395.03C185.536 391.589 187.022 391.389 193 393.498C195.338 394.323 200.543 394.998 204.567 394.998C211.286 394.998 214.275 396.057 212.517 397.815C211.258 399.072 199.556 398.257 193.178 396.468C187.263 394.808 186.767 394.803 185.186 396.385C183.808 397.763 183.747 398.223 184.853 398.907C188.66 401.261 213.012 401.17 221 398.773C223.315 398.078 228.147 394.141 235.275 387.143L246.05 376.564L245.396 370.781C244.837 365.836 244.978 364.998 246.371 364.998C247.313 364.998 248 365.811 248 366.927C248 367.988 248.563 369.45 249.25 370.177C249.938 370.904 250.597 373.169 250.716 375.211C250.911 378.567 250.497 379.235 246.399 382.178C242.969 384.642 241.026 387.179 238.415 392.609C236.517 396.555 234.41 400.211 233.732 400.735C233.054 401.258 224.175 403.364 214 405.415C188.631 410.528 184.467 411.571 184.712 412.748C184.828 413.308 186.037 416.286 187.399 419.365L189.875 424.964L195.188 422.491C201.425 419.587 209.754 419.214 220.089 421.377C228.19 423.072 231.22 424.61 230.801 426.816C230.528 428.251 228.423 428.614 216.491 429.287C200.007 430.217 196 430.754 196 432.037C196 432.559 199.272 437.383 203.272 442.756C207.271 448.13 212.01 455.126 213.803 458.303C216.738 463.504 217.216 463.925 218.603 462.538C221.17 459.971 221.52 460.816 219 463.498C217.507 465.088 217.14 465.998 217.992 465.998C218.73 465.998 219.072 466.259 218.754 466.578C218.435 466.897 219.262 470.359 220.593 474.272C222.064 478.597 222.652 481.746 222.094 482.305C220.712 483.686 219.66 482.631 217.126 477.321C208.657 459.573 205.831 455.327 194.294 443.021L187.285 435.544L183.102 438.312C176.424 442.731 176.173 444.389 180.933 452.644C185.151 459.96 186.076 463.998 183.535 463.998C182.73 463.998 181.536 462.986 180.882 461.748C179.134 458.438 171.21 448.274 168.209 445.491C161.368 439.148 133.848 429.009 121 428.1L112.5 427.498L111.793 422.998C111.404 420.523 110.442 413.354 109.655 407.066C108.644 398.995 107.753 395.291 106.624 394.465C105.744 393.821 100.681 392.99 95.3738 392.617C84.1676 391.829 83.4606 392.176 80.0332 400.143C76.5984 408.127 77.3244 410.018 85.0001 413.077C88.8593 414.615 91.6315 416.344 91.8234 417.333C92.2845 419.707 90.5118 419.43 81.482 415.712C73.8581 412.573 73.4852 412.271 73.1678 408.962C72.9853 407.057 73.6353 402.856 74.6128 399.627C76.3485 393.893 76.3446 393.723 74.4449 392.327C69.6122 388.775 51.9478 379.998 49.6323 379.998C48.2184 379.998 45.2406 380.947 43.0149 382.107C39.7498 383.809 38.6816 383.979 37.4841 382.985C36.6679 382.308 36 380.969 36 380.011C36 377.602 32.4058 373.259 28.92 371.457C25.6484 369.765 13.2362 367.457 2.00001 366.451C-2.125 366.082 -9.85654 364.941 -15.1812 363.917C-26.2683 361.784 -29.699 362.365 -34.1936 367.138C-36.5431 369.633 -37.629 370.004 -42.6936 370.042C-49.7152 370.096 -57.8753 372.112 -59.3914 374.168C-61.8842 377.549 -64.5779 377.776 -106.5 378.137L-148.5 378.498V375.998C-148.5 373.51 -148.442 373.495 -136.5 372.782C-105.214 370.915 -82.5228 363.661 -73.6356 352.685C-70.0848 348.3 -69.0847 341.669 -71.3217 337.343C-75.2727 329.703 -90.0413 320.491 -104.541 316.624C-113.64 314.197 -129.551 312.011 -138.168 312.004C-147.463 311.997 -149 311.484 -149 308.391V305.998L-106.75 306.013C-71.9805 306.025 -63.3492 306.304 -58 307.586C-49.448 309.636 -29.6561 312.668 -19 313.56C-14.325 313.951 -9.41604 314.676 -8.09121 315.171C-5.31296 316.208 1.78463 312.951 18.5 302.969C32.1636 294.81 33.6231 293.627 37.5033 287.561C43.4698 278.234 50.7153 274.127 58.8626 275.453C61.3871 275.864 63.4681 275.503 65.6641 274.272C67.4044 273.297 70.6595 271.481 72.8977 270.237C75.1359 268.993 79.8998 267.36 83.4841 266.609C90.7946 265.076 92.7328 263.837 94.6033 259.499C95.9466 256.383 100.068 251.478 103.461 248.956C105.089 247.746 105.009 248.093 102.994 250.999C101.658 252.924 99.9885 255.093 99.2829 255.82C97.907 257.237 97.8661 257.35 97.5105 260.717C97.3306 262.419 97.9998 263.156 100.388 263.887C104.785 265.233 144.937 267.482 148.526 266.583C150.187 266.168 153.266 263.829 155.5 261.288C157.7 258.785 162.934 252.908 167.131 248.227C171.329 243.547 177.179 235.712 180.131 230.818C183.084 225.924 188.955 216.642 193.177 210.193L200.854 198.467L211.358 192.131C217.136 188.647 222.373 186.111 222.996 186.496C224.685 187.54 221.607 190.571 213.647 195.701C204.116 201.844 202.493 203.845 195.848 217.648C188.519 232.874 188.472 233.509 194.75 232.528C202.34 231.341 203.419 231.406 203.758 233.07C204.154 235.016 200.062 236.999 195.649 236.999C190.969 236.999 184.517 241.515 176.955 250.083C165.987 262.511 163.228 266.303 160.129 273.211C158.492 276.861 156.245 280.332 155.137 280.925C153.599 281.748 149.622 281.314 138.312 279.087C105.358 272.6 98.6788 272.472 85.0787 278.064C73.839 282.685 73.1811 284.548 83.1145 283.626C87.1765 283.248 93.7449 282.664 97.7108 282.328L104.922 281.716L108.338 289.213C112.205 297.698 121.471 307.999 125.237 307.999C126.502 307.999 129.417 306.043 132.12 303.38C137.069 298.506 139.649 298.161 137.962 302.599C136.646 306.06 136.751 306.999 138.456 306.999C141.099 306.999 162.746 298.195 166.959 295.407C170.71 292.925 181.561 281.158 206.363 252.677C211.238 247.079 224.43 231.024 235.678 216.999L256.129 191.499L255.539 185.964C254.996 180.865 255.27 179.82 259.017 172.708C263.643 163.928 267 152.09 267 144.561C267 140.815 267.896 137.572 270.342 132.468C272.18 128.632 274.001 123.808 274.388 121.746C275.296 116.906 278 116.578 278 121.308C278 127.198 279.771 128.407 288.827 128.696C293.761 128.854 298.815 129.697 301.93 130.88C304.719 131.94 307.246 132.41 307.546 131.925C308.113 131.007 299.022 103.767 296.604 99.1375C295.846 97.6861 294.734 95.2612 294.134 93.7487C293.466 92.0655 292.288 90.9987 291.098 90.9987C288.252 90.9987 283.679 95.2431 280.918 100.448C279.59 102.951 278.165 104.999 277.752 104.999C276.512 104.999 276.973 97.6759 278.37 95.1562C279.686 92.7843 287.617 85.9987 289.073 85.9987C289.509 85.9987 290.151 84.9862 290.5 83.7487C291.844 78.9798 293.263 76.0435 294.003 76.5003C294.427 76.7623 295.088 78.6691 295.472 80.7376C295.856 82.8062 297.027 86.0737 298.073 87.9987C299.12 89.9237 301.584 96.8987 303.549 103.499C307.725 117.524 310.623 124.248 314.429 128.749C319.596 134.858 323.494 132.581 329.419 119.991C331.358 115.87 334.331 110.024 336.025 106.999C339.671 100.491 339.581 98.2641 334.948 80.2952C331.058 65.2086 331.144 58.9993 335.544 37.6754C337.493 28.2282 338.98 19.3737 338.85 17.9987C338.517 14.4959 342.464 7.99868 344.925 7.99868C346.202 7.99868 344.959 18.0102 342.81 24.9987C341.712 28.5737 340.428 33.9737 339.958 36.9987C339.487 40.0237 338.597 45.1987 337.978 48.4987C337.36 51.7987 336.999 58.134 337.177 62.5771C337.481 70.1828 337.749 71.0258 341.75 76.9834C344.641 81.2878 346 84.3804 346 86.655C346 88.6925 346.488 89.9772 347.25 89.9438C347.938 89.9136 352.225 85.1887 356.777 79.4438C364.642 69.5179 367 67.402 367 70.2702C367 72.4467 359.797 82.6237 352.745 90.409C349.035 94.5053 346 98.1138 346 98.4278C346 98.7418 348.925 98.9987 352.5 98.9987C356.075 98.9987 359 99.4168 359 99.9278C359 100.439 356.413 101.388 353.25 102.037C348.539 103.004 346.742 104.004 343.302 107.571C340.469 110.51 338.898 113.156 338.47 115.712C336.928 124.924 334.953 129.674 330.489 134.904C325.145 141.164 322.552 145.951 321.567 151.372C320.871 155.204 320.893 155.24 323.682 154.69C325.232 154.384 328.975 153.353 332 152.399C336.199 151.075 341.213 150.651 353.191 150.606C361.82 150.573 369.215 150.881 369.624 151.289C371.571 153.236 366.923 154.274 352.442 155.127C341.906 155.747 335.591 156.573 333.385 157.62C329.802 159.321 319.555 167.627 308.544 177.755C303.772 182.146 298.679 185.57 292.317 188.664C287.218 191.145 281.862 194.106 280.415 195.244C275.913 198.786 272 205.018 272 208.649C272 212.822 270.203 212.996 268.683 208.97C268.054 207.304 267.004 206.066 266.349 206.22C264.885 206.563 253 224.533 253 226.404C253 228.125 261.924 231.999 265.888 231.999C269.549 231.999 273.699 230.225 274.417 228.355C274.707 227.599 274.488 225.783 273.931 224.318C273.374 222.852 273.173 220.989 273.485 220.176C273.952 218.961 274.454 219.077 276.323 220.832L278.594 222.966L279.793 218.482C281.075 213.689 282.47 212.754 283.5 215.999C283.849 217.099 284.892 218.006 285.817 218.014C286.743 218.022 288.156 218.444 288.957 218.951C290.124 219.689 289.479 220.743 285.707 224.255C279.938 229.628 279.722 231.582 284.75 232.92C293.343 235.207 296.61 235.227 304.565 233.044C315.727 229.982 321.424 226.595 330 217.922C338.539 209.286 340.517 207.999 345.253 207.999C349.617 207.999 358.154 205.453 364.5 202.259C370.171 199.405 383.519 186.359 386.442 180.814C388.366 177.165 388.366 177.092 386.442 173.422C384.915 170.507 384.784 169.615 385.829 169.247C388.163 168.425 409.943 142.747 412.12 138.251C413.773 134.836 414.328 131.29 414.754 121.427C415.432 105.732 417.274 104.967 418.002 120.078C418.545 131.36 419.067 132.999 422.116 132.999C424.048 132.999 424.057 133.093 422.395 135.907C421.45 137.507 416.657 143.225 411.745 148.613C406.832 154.001 401.567 160.23 400.044 162.454C396.969 166.944 395.115 171.663 396.847 170.593C398.84 169.362 421.574 143.528 435.827 126.298C444.014 116.401 452.483 107.253 455.771 104.753C462.623 99.5456 465.051 95.5447 468.972 82.9987C470.605 77.7737 474.204 69.5558 476.97 64.7366C480.374 58.8075 482 54.8469 482 52.4867C482 49.4649 482.323 48.9987 484.417 48.9987C485.746 48.9987 486.991 49.4709 487.183 50.048C487.861 52.0813 497.149 41.4405 500.305 35.0155C503.152 29.2192 503.5 27.5677 503.5 19.844C503.5 11.276 504.528 7.47674 505.667 11.8332C506.484 14.9581 508.02 14.1015 510.706 9.02286C514.52 1.80938 513.439 -4.52659 507.459 -10.0013C504.327 -12.8697 499 -19.8904 499 -21.1514C499 -23.0799 501.104 -21.6629 507.388 -15.5013C511.034 -11.9263 514.623 -9.00131 515.363 -9.00131C516.103 -9.00131 519.462 -12.0996 522.828 -15.8864C527.759 -21.4346 530.712 -23.683 538.037 -27.4661C546.756 -31.9697 550.985 -35.9962 550.996 -39.8056C550.998 -40.5229 552.348 -42.5479 553.995 -44.3056C557.258 -47.7868 557.913 -46.6686 555.428 -41.8614C552.803 -36.7866 553.914 -35.951 560.932 -37.719C564.269 -38.5596 567 -39.5683 567 -39.9605C567 -40.3526 568.8 -40.744 571 -40.8302C578.148 -41.1103 575.278 -38.6131 565.5 -36.0438C559.833 -34.5548 545.896 -27.4271 536.464 -21.1935C526.898 -14.8719 523.419 -10.1673 519.072 2.32836C515.335 13.0678 515.209 15.0111 518.25 14.9632C521.356 14.9143 524.132 13.1432 527.896 8.80974C531.366 4.81419 534.015 3.69147 544 1.98509C552.89 0.465722 557.78 -2.98371 576.138 -20.6871L591.5 -35.5013L601.5 -39.1369C607 -41.1365 613.857 -43.5334 616.738 -44.4633C619.619 -45.3933 622.233 -46.5698 622.547 -47.0778C623.583 -48.7545 626.86 -48.0389 628.434 -45.7921C629.285 -44.577 629.648 -43.2655 629.241 -42.8778C628.351 -42.0308 611.838 -35.2838 607.25 -33.8928C605.462 -33.3508 604 -32.4785 604 -31.9543C604 -31.4302 602.987 -30.9984 601.75 -30.9947C599.357 -30.9875 595.865 -28.9323 591.991 -25.2513C590.688 -24.0138 589.13 -23.0013 588.527 -23.0013C587.219 -23.0013 578.506 -14.0556 574.582 -8.68295C570.142 -2.60316 564.496 0.774959 552.533 4.5096C537.258 9.27798 533.299 12.0025 526.633 22.336C523.108 27.801 518.968 32.614 514.849 36.0366C495.072 52.4707 490.949 57.2137 485.196 70.1502C483.154 74.7419 479.76 81.5675 477.654 85.3182L473.824 92.1377L476.551 96.0726C478.051 98.2367 480.792 100.943 482.643 102.087C486.053 104.195 498.512 106.9 505.102 106.964C509.727 107.009 514.825 103.588 517.656 98.5423C520.613 93.2692 525 75.3435 525 68.5291C525 61.7974 527.057 61.0256 529.746 66.7487C532.502 72.6159 535.174 72.3241 541.36 65.4801C553.541 52.0037 563.799 42.142 567.713 40.1451C573.118 37.3875 576.293 37.4432 588.502 40.5099C600.43 43.506 604.08 43.1648 610.996 38.4073C617.802 33.7258 620.347 33.8717 615.826 38.6842C613.658 40.9916 613.658 40.9987 615.722 40.9987C616.861 40.9987 621.102 39.5615 625.146 37.8049C631.592 35.0054 633.827 34.5656 643.25 34.2425C649.162 34.0398 654 34.2603 654 34.7327C654 35.2051 650.876 36.1272 647.058 36.7819C643.24 37.4366 637.559 39.1032 634.434 40.4855C631.308 41.8678 626.981 42.9987 624.818 42.9987C616.925 42.9987 611.734 44.929 607.758 49.344C604.108 53.3958 603.826 53.5113 596.361 54.007C589.539 54.4601 588.113 54.228 583.238 51.8719C580.23 50.418 576.677 48.0518 575.344 46.6136C574.01 45.1754 572.532 43.9987 572.059 43.9987C569.441 43.9987 558.625 53.9036 553.107 61.3539C548.978 66.9294 544.963 71.0679 541.367 73.4557C535.317 77.4724 530.349 84.3375 529.448 89.9252C528.384 96.5282 525.992 101.627 521.482 106.911C519.017 109.799 517 112.497 517 112.906C517 113.315 518.092 114.676 519.427 115.93C521.63 118 522.623 118.177 530.205 117.854C538.007 117.522 539.032 117.211 545.786 113.129C549.762 110.726 555.824 107.623 559.258 106.233L565.5 103.706L570 105.548C574.816 107.52 587.879 108.119 593.558 106.628L596.615 105.826V110.912C596.615 113.71 596.589 115.998 596.558 115.998C596.527 115.998 594.108 115.089 591.184 113.977C586.783 112.305 585.199 112.137 581.979 113.004C579.84 113.58 577.427 114.715 576.616 115.525C574.368 117.774 573.126 117.326 570.834 113.442C569.68 111.486 568.233 110.108 567.618 110.38C552.658 116.993 546.359 119.624 541 121.498C537.425 122.748 532.568 124.502 530.207 125.395C526.052 126.966 525.685 126.936 518.707 124.455C492.576 115.161 487.726 113.88 481.263 114.566C475.283 115.202 474.88 115.1 471.478 112.114C467.155 108.318 466.096 108.277 459.867 111.667C455.271 114.169 449 121.952 449 125.156C449 125.776 444.77 130.607 439.6 135.891C421.496 154.397 390.655 190.449 391.284 192.372C392.011 194.594 399.547 196.295 408.789 196.323C416.682 196.347 418.033 196.587 417.776 197.92C417.319 200.294 409.051 201.794 395.827 201.903C384.796 201.993 383.984 202.141 381.077 204.588C376.338 208.575 377.07 209.575 385.75 210.971C402.886 213.727 409.642 217.274 415.653 226.671C419.26 232.309 423.973 235.988 427.598 235.995C428.878 235.997 431.996 233.562 435.598 229.749C442.33 222.62 447.846 219.946 455.5 220.102C459.9 220.191 460.127 220.292 457.394 220.945C452.994 221.996 442.865 227.971 443.564 229.103C443.885 229.623 443.553 229.925 442.824 229.773C441.958 229.594 441.5 230.537 441.5 232.499C441.5 235.409 442.172 235.835 464 246.772C487.079 258.336 500.267 263.999 504.12 263.999C506.557 263.999 523.605 257.365 540.778 249.733C551.824 244.825 554.496 244.379 552.371 247.797C550.367 251.021 543.458 254.754 528 260.963C519.475 264.387 512.12 267.548 511.657 267.987C511.193 268.426 511.555 269.916 512.461 271.299C513.416 272.756 513.709 274.061 513.158 274.401C512.102 275.054 455.322 253.94 442.091 247.974C434.43 244.52 431 243.906 431 245.989C431 246.416 433.037 248.28 435.528 250.132C438.018 251.984 448.097 262.831 457.925 274.238C473.471 292.28 475.951 295.628 476.995 299.976C478.596 306.653 481.054 309.523 486.303 310.845C490.844 311.988 496 315.373 496 317.211C496 318.829 485.915 317.497 480.703 315.191C473.656 312.074 468.862 306.96 456.787 289.679C450.579 280.795 443.683 271.69 441.462 269.447C436.388 264.324 417.935 248.999 416.839 248.999C416.39 248.999 413.874 252.251 411.249 256.225C407.12 262.475 404.557 264.895 400.599 266.283C400.103 266.457 403.816 272.753 408.849 280.274C415.284 289.889 418.966 294.438 421.251 295.598C423.038 296.506 433.936 302.903 445.47 309.813C462.921 320.27 467.704 322.68 473.97 324.172C484.53 326.686 486.577 327.701 490.79 332.506C492.83 334.833 499 339.862 504.5 343.681C510 347.5 516.913 352.457 519.861 354.696C526.142 359.465 533.224 361.999 540.273 361.999C550.837 361.999 587.566 354.118 591.885 350.925C594.242 349.183 595.349 349.025 600.056 349.756C609.573 351.236 618.313 347.818 622.309 341.053C625.005 336.488 634.349 305.549 638.434 287.66C639.395 283.455 641.592 285.863 642.408 292.016C642.793 294.918 643.576 296.99 644.284 296.977C645.976 296.947 655 283.146 654.999 280.59C654.998 277.598 649.35 266.032 646.183 262.537C644.707 260.908 644.255 260.148 645.178 260.849C646.655 261.971 646.62 261.503 644.885 256.937C643.801 254.085 643.139 251.526 643.414 251.251C644.743 249.922 646.714 252.336 648.832 257.886C650.114 261.248 651.481 263.999 651.869 263.999C652.257 263.999 652.644 264.928 652.73 266.063C652.909 268.434 657.446 276.538 659.203 277.624C661.198 278.857 672.609 265.569 676.754 257.186L680.5 249.609V235.054C680.5 227.048 680.1 217.911 679.612 214.749C678.837 209.728 678.932 208.999 680.362 208.999C681.313 208.999 682 209.808 682 210.927C682 211.988 682.562 213.45 683.25 214.177C683.937 214.904 684.562 216.849 684.637 218.499C684.713 220.149 685.09 226.899 685.475 233.499C686.132 244.747 686.007 246.062 683.474 254.499C681.988 259.449 680.553 264.261 680.284 265.193C679.937 266.399 680.885 267.407 683.576 268.693C689.254 271.405 689.381 273.433 683.822 272.599C679.893 272.01 678.883 272.294 674.944 275.092C669.775 278.764 664 284.063 664 285.133C664 285.541 665.1 285.79 666.446 285.687C670.524 285.373 669.771 287.344 664.786 290.037C658.683 293.333 655.417 296.442 652.221 301.999C650.798 304.474 647.875 308.445 645.727 310.824C640.063 317.094 636.766 324.968 636.216 333.533C635.67 342.046 636.778 344.679 641.262 345.519C649.518 347.065 656.271 344.659 690 328.159C707.875 319.415 723.85 311.721 725.5 311.062C732.299 308.345 736.081 304.613 742.677 294.107C750.372 281.85 753.353 275.695 755.322 267.999C756.177 264.654 757.271 262.499 758.114 262.499C759.219 262.499 759.43 264.348 759.154 271.631C758.939 277.309 759.206 281.008 759.86 281.412C761.588 282.48 767.403 279.497 770.297 276.058C772.646 273.265 772.999 271.973 772.99 266.172C772.983 261.199 772.354 258.154 770.523 254.221C768.304 249.454 767.821 249.005 765.533 249.58C762.464 250.35 762.175 248.495 764.627 243.754C765.968 241.16 766.065 239.792 765.18 235.958C763.98 230.758 764.558 226.999 766.559 226.999C767.399 226.999 767.997 228.527 768.192 231.171C768.515 235.552 770.406 237.381 771.432 234.304C771.762 233.311 772.922 231.374 774.009 229.999C775.684 227.88 776.137 227.728 776.977 228.999C778.818 231.783 778.017 234.974 774.5 238.867C772.575 240.998 771 243.784 771 245.06C771 247.721 778.683 260.94 780.674 261.704C781.403 261.984 782 262.692 782 263.277C782 263.862 782.751 265.171 783.669 266.185C785.286 267.972 785.418 267.96 787.919 265.791C789.338 264.559 787.125 267.041 783 271.307C778.209 276.261 775.606 279.731 775.793 280.912C775.997 282.206 775.273 282.964 773.376 283.44L770.667 284.12L773.266 286.719C776.683 290.136 782.129 290.071 791.5 286.502C801.906 282.538 803 282.379 803 284.829C803 286.451 800.915 287.897 793.25 291.592C781.121 297.439 775.408 298.208 767.614 295.045C762.545 292.987 762 292.947 759.15 294.421C755.979 296.061 751 301.826 751 303.858C751 304.628 752.8 304.966 756.25 304.844C761.967 304.642 768 305.708 768 306.92C768 307.936 762.119 309.566 753.275 311C748.944 311.702 744.993 313.002 743.41 314.248C740.504 316.534 735 327.834 735 331.514C735 335.043 744.697 342.979 749.108 343.062C752.032 343.117 752.203 343.245 750.352 343.992C749.171 344.468 747.944 345.28 747.625 345.796C747.282 346.352 745.512 346.395 743.273 345.903C723.438 341.537 714.443 342.848 704.867 351.5C701.006 354.988 700.963 354.999 690.747 355.157C685.111 355.245 676 355.388 670.5 355.476C665 355.563 653.75 356.614 645.5 357.81C637.25 359.006 630.387 359.988 630.25 359.992C630.112 359.995 630 360.377 630 360.84C630 362.158 637.275 364.007 642.116 363.92C646.819 363.835 658.852 361.872 660.5 360.92C661.05 360.603 665.436 360.63 670.247 360.98C678.021 361.545 679.468 361.972 683.247 364.81C696.424 374.707 708.139 376.486 733.5 372.442C748.225 370.094 753.745 370.451 759.54 374.126C764.664 377.376 772 380.395 772 379.254C772 378.894 772.529 379.128 773.176 379.775C774.078 380.677 773.956 381.39 772.651 382.832C771.226 384.406 771.172 384.897 772.317 385.847C773.069 386.471 774.052 386.648 774.502 386.24C774.952 385.832 775.028 386.011 774.67 386.637C774.272 387.334 776.155 388.785 779.537 390.387C782.572 391.823 785.38 393.009 785.777 393.021C786.175 393.032 787.625 393.923 789 394.999C793.852 398.794 785.508 396.75 774.079 391.343C766.59 387.8 746.881 381.113 739 379.44C734.647 378.516 731.509 378.359 729.5 378.965C727.85 379.463 724.516 380.388 722.09 381.022C719.665 381.656 716.499 383.049 715.054 384.117L712.427 386.059L702.463 382.952C691.663 379.585 688.015 377.913 683.704 374.357C682.167 373.089 679.242 371.66 677.204 371.182C672.817 370.153 646.873 370.297 635.5 371.413C628.809 372.07 626.235 371.855 619.768 370.098C615.516 368.944 610.184 367.999 607.919 367.999C605.655 367.999 602.221 367.248 600.288 366.331C596.887 364.717 596.627 364.742 592.204 367.081C589.69 368.411 585.902 371.2 583.787 373.278L579.941 377.058L569.72 376.445C561.501 375.951 557.46 376.243 549.079 377.934C537.026 380.367 535.708 381.102 537.056 384.646C537.577 386.016 537.738 388.192 537.415 389.482C536.856 391.709 536.725 391.743 534.785 390.162C533.662 389.247 529.313 385.064 525.121 380.865C513.627 369.352 479.32 343.852 464.794 336.025C458.857 332.826 456.217 331.945 453.294 332.186L449.5 332.499L449.857 338.368C450.137 342.974 449.922 344.14 448.857 343.788C448.108 343.54 447.264 341.359 446.974 338.919C446.685 336.488 446.096 333.937 445.666 333.25C444.912 332.047 436.012 324.401 420.069 311.26C415.906 307.829 406.398 298.675 398.941 290.917C388.18 279.722 384.878 276.849 382.941 276.997C381.598 277.1 374.263 277.255 366.641 277.341L352.782 277.499L349.876 280.999C348.278 282.924 341.914 287.874 335.735 291.999C320.426 302.219 320.487 302.079 322.447 322.133C325.538 353.765 332.376 369.417 347.488 379.447C353.727 383.589 354.547 384.791 356.112 392.085C357.363 397.921 360.684 401.999 364.185 401.999C365.436 401.999 369.056 400.397 372.228 398.439C375.401 396.481 378.389 395.121 378.869 395.418C379.349 395.715 379.995 397.226 380.305 398.776C381.112 402.809 385.525 406.78 391.011 408.409C398.57 410.654 401.525 412.593 407.183 419.022C412.444 424.999 437.683 446.171 442.832 448.926C447.883 451.629 456.53 452.968 469.038 452.983C480.295 452.998 501.057 451.04 506.637 449.438C509.447 448.632 510.412 450.331 508.226 452.238C505.696 454.446 498.063 455.819 484.5 456.507C466.492 457.421 453 459.958 453 462.432C453 463.177 454.237 465.112 455.75 466.731C457.262 468.35 458.52 470.085 458.546 470.587C458.572 471.089 459.393 474.095 460.372 477.269C462.79 485.102 462.022 486.391 459.177 479.272ZM177.851 431.901C181.757 430.539 181.858 428.65 178.395 421.715C172.654 410.22 166.24 406.288 146.222 401.993C138.675 400.373 130.7 398.382 128.5 397.567C126.3 396.753 123.452 396.067 122.171 396.043C120.071 396.003 119.905 396.319 120.49 399.249C123.589 414.78 127.269 419.505 138.978 422.992C143.067 424.21 148.907 426.348 151.956 427.744C162.883 432.746 171.472 434.125 177.851 431.901ZM106 382.082C106 379.99 101.628 371.209 97.4814 364.97C93.3809 358.802 85.6667 352.057 84.6689 353.766C84.1993 354.571 95.3311 379.488 97.1271 381.652C98.3729 383.153 106 383.522 106 382.082ZM89.0001 378.97C89.0001 377.115 83.2709 366.582 80.1022 362.611C77.7278 359.635 77.0001 357.725 77.0001 354.468C77.0001 351.51 76.5178 350.028 75.4183 349.606C72.7398 348.578 46.1677 348.918 45.506 349.989C44.616 351.429 51.3269 359.824 57.2823 364.721C63.5312 369.858 71.826 374.369 80.7862 377.502C88.6679 380.258 89.0001 380.317 89.0001 378.97ZM700.509 341.922C707.707 338.934 720.885 331.452 724.576 328.257C727.451 325.768 730.144 321.476 729.337 320.669C726.574 317.906 705.945 324.812 695.507 331.994C689.386 336.206 684.008 343.673 685.803 345.468C686.864 346.529 692.932 345.066 700.509 341.922ZM117.784 312.153C119.787 310.883 118.375 308.746 113.489 305.655C107.893 302.115 105 298.513 105 295.086C105 287.709 99.1208 286.195 87.1887 290.499C78.7564 293.54 77.6151 293.573 73.83 290.878C71.8481 289.466 68.7323 288.586 64.5198 288.248L58.1885 287.74L55.4255 292.119C53.9059 294.528 49.3399 299.603 45.279 303.396C41.218 307.19 38.2733 310.672 38.7352 311.134C39.1971 311.596 56.2082 312.097 76.5376 312.249C96.867 312.4 114.175 312.624 115 312.746C115.825 312.868 117.078 312.601 117.784 312.153ZM280 303.069C288.525 299.659 297.289 296.11 299.476 295.184C301.698 294.242 308.353 288.801 314.569 282.845C320.847 276.829 327.901 271.069 330.773 269.614C333.57 268.196 336.111 266.628 336.42 266.129C337.041 265.123 332.257 261.2 327.29 258.642C322.664 256.259 313.738 254.403 295.293 251.988C272.56 249.011 273.66 248.736 266.845 259.094C263.735 263.821 255.297 275.061 248.095 284.071C240.893 293.081 235 301.018 235 301.709C235 302.927 242.93 307.449 248 309.121C249.375 309.575 253.65 309.794 257.5 309.608C263.283 309.329 267.194 308.192 280 303.069ZM229.054 291.142C240.129 284.026 258.27 264.384 263.669 253.664L267.174 246.703L255.857 247.419C244.815 248.118 242 248.945 242 251.493C242 253.677 232.425 267.331 227.703 271.881C224.66 274.813 222.074 278.743 219.888 283.756C216.734 290.99 216.686 291.296 218.502 292.624C221.333 294.694 224.139 294.3 229.054 291.142ZM372 258.541C378.669 257.248 380.125 257.259 385.138 258.643C390.344 260.08 391.053 260.067 394.397 258.481C398.42 256.571 405.131 248.753 408.301 242.28C410.293 238.215 410.303 237.99 408.572 236.078C405.557 232.746 392.452 224.105 385.434 220.821C373.709 215.334 360.633 216.027 349.173 222.743C344.233 225.638 336.36 233.329 333.747 237.811L331.993 240.819L336.747 245.454C341.305 249.899 359.534 260 362.993 259.997C363.822 259.997 367.875 259.342 372 258.541ZM273.16 181.999C276.647 180.35 280.821 179 282.434 178.999C290.597 178.997 297.556 172.438 307.722 155.166C314.837 143.075 314.62 142.069 303.709 136.578C293.665 131.522 287.018 130.779 282.092 134.16C276.034 138.318 274.921 140.764 273.466 153.117C272.01 165.479 270.275 171.449 266.461 177.227C263.978 180.989 263.443 183.108 264.667 184.332C265.716 185.381 266.424 185.186 273.16 181.999ZM596.75 49.3684C601.814 48.0114 598.992 46.6705 588.5 45.4476C581.915 44.68 581.854 45.5589 588.316 48.1281C593.231 50.0818 593.784 50.1632 596.75 49.3684Z" fill="#E1B382" stroke="#E1B382" stroke-width="0.999999"/>
<path d="M550.43 -42.5718L556.43 -47.5718L554.43 -41.5718C565.167 -41.5718 584.258 -41.6202 586.429 -55.5718L563.43 -53.5718C566.162 -62.1159 567.533 -69.8903 564.337 -78.5718C560.196 -89.82 551.219 -84.8709 547.578 -75.5718C543.062 -64.0374 550.168 -53.704 550.43 -42.5718ZM589.43 -24.5718C598.297 -16.3675 609.897 -15.1699 621.43 -17.3766C624.209 -17.9084 631.794 -18.5219 631.794 -22.5348C631.794 -26.8222 624.713 -29.7295 621.43 -30.8218C609.517 -34.7859 598.857 -32.2994 589.43 -24.5718ZM328.43 -18.5718C325.225 -5.10871 329.506 3.91276 337.43 14.4282C347.709 4.63876 341.702 -15.3809 328.43 -18.5718ZM488.43 5.42816C475.325 7.67558 472.587 37.4572 480.284 46.1092C487.042 53.7062 491.489 37.8712 492.13 33.4282C492.688 29.5562 492.626 25.3262 492.34 21.4282C491.935 15.9092 489.667 10.7742 488.43 5.42816ZM634.43 33.4282C653.04 33.4282 670.385 32.7082 672.43 9.42818C651.354 9.42818 645.664 16.3702 634.43 33.4282ZM339.43 40.4282C355.426 33.9092 370.06 30.0712 375.43 11.4282C358.076 6.29865 340.51 23.6182 339.43 40.4282ZM635.43 39.4282C639.758 50.5682 655.28 56.0522 666.43 53.4282C660.44 37.9882 651.462 31.3822 635.43 39.4282ZM281.43 53.4282C274.041 64.6222 277.137 79.7052 289.43 85.4282L293.43 75.4282L297.43 88.4282H298.43C300.234 82.2082 305.82 83.0942 309.901 78.9452C315.331 73.4242 317.275 63.8901 317.43 56.4282C304.663 57.0112 298.891 64.5381 296.43 76.4282L281.43 53.4282ZM572.43 116.428C573.994 122.339 574.526 128.661 576.531 134.428C578.872 141.16 583.615 146.94 589.434 150.984C591.342 152.311 595.256 155.229 597.402 152.781C599.235 150.69 598.461 145.98 598.426 143.428C598.257 130.889 585.703 115.974 572.43 116.428ZM444.43 130.428C449.185 131.797 453.475 134.397 458.43 135.127C462.942 135.792 482.081 133.14 478.254 124.846C476.985 122.096 472.043 121.364 469.43 120.893C459.171 119.042 450.352 121.667 444.43 130.428ZM441.43 222.428C454.808 219.259 465.634 218.631 469.789 203.428C470.595 200.476 473.032 193.794 469.826 191.496C466.919 189.412 461.028 192.475 458.43 193.96C447.698 200.092 444.608 211.291 441.43 222.428ZM685.429 222.428C695.332 210.566 704.915 207.511 707.429 190.428C693.851 190.542 677.078 208.395 685.429 222.428ZM103.43 213.428C88.8506 228.049 92.6086 237.264 95.4296 255.428H96.4296L102.43 249.428L96.4296 260.428C107.867 261.873 124.523 261.515 130.43 249.428C123.518 247.242 113.529 244.635 106.43 246.428C111.98 236.704 111.86 221.843 103.43 213.428ZM442.43 227.428C450.451 238.539 463.598 235.672 475.43 235.428C472.598 217.873 452.925 221.005 442.43 227.428ZM784.43 267.428H785.43C798.665 255.275 810.479 247.893 804.43 227.428C792.513 232.739 774.92 254.156 784.43 267.428ZM646.429 261.428L642.43 250.428L650.43 263.428C654.121 261.706 669.248 247.077 661.823 242.588C657.942 240.243 653.351 247.196 649.006 245.604C644.276 243.871 639.126 234.467 633.748 235.349C630.718 235.845 631.409 241.324 631.434 243.428C631.554 253.609 638.236 257.218 646.429 261.428ZM449.43 337.428V343.428L446.43 338.428C435.439 342.692 424.539 348.67 420.43 360.428C428.627 363.493 435.835 361.035 443.43 357.428C443.603 365.802 446.529 372.432 452.47 378.409C454.279 380.228 457.805 384.161 460.727 382.342C468.779 377.33 460.872 363.047 464.547 356.862C467.075 352.606 477.248 354.428 481.43 354.428C479.181 339.854 461.18 337.428 449.43 337.428ZM746.43 345.428V346.428C749.605 349.915 751.969 354.327 755.56 357.385C765.931 366.218 776.81 362.598 788.43 359.428C777.1 343.021 765.721 333.449 746.43 345.428ZM251.43 378.428C261.333 366.566 270.916 363.511 273.43 346.428C259.852 346.542 243.079 364.395 251.43 378.428ZM773.43 386.428C784.946 396.745 804.048 398.093 809.43 380.428C797.284 377.537 783.964 379.803 773.43 386.428ZM537.43 387.428C532.964 402.541 544.126 422.448 559.43 426.428C559.592 406.756 555.94 397.282 537.43 387.428ZM770.43 389.428C775.176 397.32 775.735 406.785 780.759 414.389C783.811 419.007 794.992 428.047 801.112 424.36C806.772 420.951 801.608 408.235 798.792 404.468C792.75 396.385 779.635 392.613 770.43 389.428ZM216.43 465.428C219.986 467.216 237.963 472.072 236.509 462.616C235.175 453.948 218.968 462.023 216.43 465.428ZM452.43 469.428C447.613 475.263 438.855 493.425 445.458 500.77C451.18 507.136 460.264 488.982 461.43 485.428C466.908 493.042 472.14 497.26 481.43 499.217C483.987 499.756 488.333 501.188 489.823 498.106C498.238 480.696 468.512 471.057 457.43 469.428L461.43 484.428H460.43C459.411 478.691 457.048 473.077 452.43 469.428Z" fill="#2D535D"/>
</g>
<defs>
<clipPath id="clip0_1494_4842">
<rect width="960" height="593.386" fill="white" transform="translate(-149 -91)"/>
</clipPath>
</defs>
</svg>
