<?xml version="1.0" encoding="UTF-8" standalone="no"?>
<svg
   xmlns:dc="http://purl.org/dc/elements/1.1/"
   xmlns:cc="http://creativecommons.org/ns#"
   xmlns:rdf="http://www.w3.org/1999/02/22-rdf-syntax-ns#"
   xmlns:svg="http://www.w3.org/2000/svg"
   xmlns="http://www.w3.org/2000/svg"
   xmlns:sodipodi="http://sodipodi.sourceforge.net/DTD/sodipodi-0.dtd"
   xmlns:inkscape="http://www.inkscape.org/namespaces/inkscape"
   version="1.1"
   id="svg851"
   width="1046"
   height="884"
   viewBox="0 0 1046 884"
   sodipodi:docname="brainstation.svg"
   inkscape:version="1.0.1 (3bc2e813f5, 2020-09-07)">
      <path
         style="fill:#000;fill-opacity:1"
         d="m 301,843.40806 c -1.925,-0.83252 -4.94049,-2.90684 -6.70108,-4.60961 C 290.3907,835.01858 115.30151,598.49862 112.52018,593.24188 111.31374,590.96171 110.4051,586.96087 110.19411,583 c -0.39281,-7.37409 24.30121,-321.65452 25.91127,-329.77237 0.66545,-3.35516 2.34391,-6.97311 4.61581,-9.94946 1.96356,-2.57241 47.68311,-55.94443 101.59901,-118.60451 C 331.65245,20.853334 340.79936,10.536589 345.42455,8.3828961 c 2.7915,-1.299847 6.87841,-2.3677543 9.08202,-2.3731272 4.44521,-0.010838 120.92933,30.1300411 125.4232,32.4539151 3.47047,1.794649 7.91266,6.937052 9.72177,11.254197 C 490.77448,52.397601 491,113.9895 491,418 c 0,327.2427 -0.16035,365.448 -1.54773,368.76847 -1.68043,4.02185 -4.45535,7.35428 -8.59334,10.31982 -3.67237,2.63187 -166.4079,47.92301 -172.01084,47.87257 -2.39145,-0.0215 -5.92309,-0.72029 -7.84809,-1.5528 z m 86.75,-58.98681 C 415.9375,776.79094 439,770.28672 439,769.96742 439,769.15329 182.91081,622.75586 182.3928,623.27387 c -0.2326,0.23259 24.62776,34.12863 55.24523,75.32451 30.61747,41.19589 60.7459,81.73587 66.95205,90.08883 l 11.28393,15.18721 10.31299,-2.78994 c 5.67215,-1.53447 33.3755,-9.03293 61.563,-16.66323 z M 453,600 c 0,-106.54875 -0.25608,-133.99408 -1.25,-133.97109 -2.25102,0.0521 -266.83088,112.44542 -267.04318,113.43978 -0.21598,1.0116 2.17866,2.43028 68.79318,40.75571 101.55811,58.42957 168.17126,96.80659 182,104.85342 8.25,4.80061 15.5625,8.77199 16.25,8.82528 C 452.74426,733.98018 453,706.58501 453,600 Z M 292.17821,493.19513 c 102.32089,-43.307 138.36932,-58.98194 137.5,-59.7891 C 429.0302,432.80435 371.575,398.86856 302,357.99317 232.425,317.11777 174.73297,283.2021 173.79548,282.62499 c -0.93749,-0.5771 -1.95088,-0.80292 -2.25198,-0.50182 C 171.00786,282.6588 150,543.97939 150,550.10657 c 0,2.54491 0.31678,2.9876 1.75,2.44554 0.9625,-0.36402 64.1552,-27.07467 140.42821,-59.35698 z M 453,247.94098 C 453,162.72344 452.73084,93 452.40187,93 c -0.32897,0 -17.99147,11.1055 -39.25,24.67889 -90.85903,58.0127 -162.40465,103.67124 -186.65187,119.11633 -14.3,9.10887 -26.36836,16.87217 -26.81859,17.25177 -0.45022,0.3796 6.07478,4.73107 14.5,9.66994 8.42523,4.93886 29.26859,17.21953 46.31859,27.29038 17.05,10.07085 35.725,21.09275 41.5,24.4931 12.29911,7.2418 46.3405,27.3399 74,43.68974 10.725,6.33967 32.1,18.96936 47.5,28.06598 15.4,9.09662 28.3375,16.33378 28.75,16.08257 0.4125,-0.2512 0.75,-70.18018 0.75,-155.39772 z M 338,121.21981 c 48.675,-31.00867 88.82493,-56.690928 89.22208,-57.071683 0.39714,-0.380755 -14.37866,-4.45655 -32.83511,-9.057323 -32.80568,-8.17771 -33.59755,-8.32278 -35.36016,-6.477923 C 354.77693,53.061081 247,178.10312 247,178.5856 c 0,0.67703 -10.62296,7.37367 91,-57.36579 z M 651.5,822.083 c -44.55,-12.49234 -82.35,-23.43133 -84,-24.30889 -4.14772,-2.20597 -8.1023,-6.57602 -9.94695,-10.99199 C 556.15863,783.44398 556,745.84634 556,418.68134 c 0,-269.74147 0.2956,-365.265776 1.1381,-367.782117 1.55859,-4.655096 5.17014,-9.30857 9.11794,-11.748445 C 570.36393,36.611957 687.05159,6 692.62126,6 c 2.40271,0 6.20447,1.1063985 9.44943,2.75 4.95188,2.508177 13.67698,12.334975 99.22152,111.75 116.6531,135.56765 107.34514,124.41488 109.14727,130.77985 1.54576,5.45952 26.56351,315.81045 26.56156,329.50227 -5.8e-4,4.0386 -0.63586,8.80145 -1.42629,10.69322 -1.21647,2.91143 -33.70804,47.13442 -161.78636,220.20106 -19.21148,25.95963 -21.25832,28.37888 -26.01654,30.75 -3.65728,1.8225 -6.63944,2.54388 -10.21819,2.47176 -3.29535,-0.0664 -33.2358,-8.00443 -86.05366,-22.81516 z M 798.30661,713.83028 c 36.74363,-49.52772 66.60179,-90.25521 66.35147,-90.50554 -0.50807,-0.50807 -256.65548,145.88241 -256.65707,146.68176 -8.2e-4,0.40972 121.28373,33.79387 122.99899,33.85606 0.275,0.01 30.56297,-40.50456 67.30661,-90.03228 z M 730.03762,656.82937 C 814.84927,608.02419 863.65611,579.38884 862.82079,578.92445 860.80723,577.80502 598.7524,466.85525 596.75,466.27438 595.08951,465.7927 595,472.62652 595,599.88337 595,673.64752 595.21007,734 595.46683,734 c 0.25676,0 60.81361,-34.72678 134.57079,-77.17063 z M 897.28693,549.75 c -0.17131,-1.7875 -4.79605,-60.4 -10.27721,-130.25 -5.48115,-69.85 -10.23726,-129.39659 -10.56914,-132.32575 -0.47578,-4.19923 -0.9229,-5.20315 -2.1138,-4.74615 C 871.39214,283.55422 617,433.43687 617,434.03977 c 0,0.64342 277.73624,118.7588 279.5492,118.88639 0.59063,0.0416 0.91307,-1.34662 0.73773,-3.17616 z M 724.80851,327.47614 c 67.81967,-40.01752 122.94467,-73.08829 122.5,-73.4906 C 846.86383,253.58323 790.925,217.8003 723,174.46792 655.075,131.13553 598.4875,95.026614 597.25,94.225873 L 595,92.76998 v 155.69657 155.69657 l 3.25,-1.96393 c 1.7875,-1.08016 58.73883,-34.70553 126.55851,-74.72305 z M 745.95304,115.31795 C 716.11862,80.768079 690.46348,51.197929 688.9416,49.606509 l -2.76704,-2.893491 -33.08728,8.26518 c -18.198,4.545849 -33.08114,8.54792 -33.07364,8.893491 0.008,0.345571 21.04501,14.00915 46.75,30.36351 25.705,16.354361 66.08636,42.078041 89.73636,57.163741 23.65,15.08569 43.15692,27.27293 43.34871,27.08275 0.19179,-0.19018 -24.06126,-28.61386 -53.89567,-63.16374 z"
         class="institution__brainstation-logo-path" />
</svg>
