<?xml version="1.0" encoding="UTF-8" standalone="no"?>
<svg
   xmlns="http://www.w3.org/2000/svg"
   viewBox="0 0 48.683334 48.683334"
   version="1.1"
   id="svg8"
   >
      <path
         style="fill:#ffffff;stroke-width:0.264583;fill-opacity:1"
         d="m 13.49375,46.412878 c 0,-0.80791 1.089444,-2.494108 2.019955,-3.126406 l 0.960056,-0.652376 -0.917739,-0.383455 c -0.504757,-0.210902 -1.18387,-0.467924 -1.509141,-0.571159 -0.32527,-0.103237 -0.540681,-0.325776 -0.478689,-0.49453 0.06199,-0.168754 0.382036,-1.12273 0.711211,-2.119947 L 14.877902,37.251884 13.795564,34.69938 C 13.200278,33.295503 12.529646,31.699404 12.30527,31.152495 l -0.407954,-0.994381 -1.309654,0.663651 c -0.7203096,0.365009 -1.3707231,0.663652 -1.4453637,0.663652 -0.074641,0 -0.3869145,-0.4924 -0.6939417,-1.094224 -0.4521653,-0.886317 -0.490891,-1.136907 -0.2038149,-1.318866 0.5372846,-0.340548 1.0158751,-0.276558 1.0158751,0.135824 0,0.426667 0.7172362,0.768284 1.1071252,0.52732 0.146093,-0.09029 0.21253,-0.441899 0.14764,-0.781354 -0.06999,-0.366147 0.02749,-0.673013 0.239667,-0.754431 0.467091,-0.179242 0.462044,-1.115512 -0.007,-1.295495 -0.200549,-0.07696 -0.497759,-0.0068 -0.660467,0.155911 C 9.869345,27.278156 9.6970227,27.226636 9.4319615,26.864144 9.2116229,26.562812 8.9038381,26.437021 8.6372204,26.539333 8.1494197,26.726518 8.055141,27.39462 8.4795155,27.656899 c 0.1896546,0.117213 0.1794047,0.289576 -0.032397,0.544782 -0.4999974,0.602459 -0.9108744,0.436023 -1.3866553,-0.5617 -0.6579034,-1.379637 -0.57477,-2.364771 0.2546125,-3.017164 1.2770938,-1.004562 4.0556323,-2.210298 5.3886483,-2.338384 1.122115,-0.107821 1.446928,-0.02481 2.224951,0.568616 1.117388,0.852273 1.263272,0.863327 1.06688,0.08084 -0.08476,-0.337716 0.03203,-1.416666 0.259542,-2.397668 0.647288,-2.791055 0.602026,-3.004164 -0.710826,-3.346784 -3.706515,-0.967304 -3.902604,-1.067128 -3.902604,-1.98672 0,-0.515605 0.270131,-0.696306 1.785937,-1.194684 1.604985,-0.527699 3.770313,-1.47596 3.770313,-1.651131 0,-0.03727 -0.464833,-0.02343 -1.032962,0.03075 -1.76891,0.168693 -2.58508,-1.314775 -1.975275,-3.590254 0.278166,-1.0379716 0.626987,-0.6436869 0.626987,0.7087052 0,0.8326928 0.150277,1.4542958 0.415774,1.7197918 0.582554,0.582554 0.678223,0.518945 0.339059,-0.225437 -0.366913,-0.805287 -0.100134,-2.3036776 0.553756,-3.1102221 0.637114,-0.785853 0.891745,-0.5362885 0.525312,0.5148617 -0.336793,0.9661247 -0.238109,2.2290694 0.185014,2.3677844 0.35437,0.116175 0.709856,-1.4029154 0.738697,-3.1566597 0.02122,-1.2902708 0.630931,-2.2862662 1.188586,-1.9416165 0.205217,0.1268309 0.173237,0.351681 -0.106902,0.7516362 -0.755954,1.0792754 -0.438987,1.3885477 0.495159,0.4831382 C 19.95016,6.1349198 20.016671,5.9643506 19.772186,5.3166365 19.46639,4.5064913 19.626517,3.5728776 20.207502,2.778541 c 0.556837,-0.7613213 0.799166,-0.3272094 0.413189,0.7401928 -0.181484,0.5018846 -0.244558,1.1350995 -0.140165,1.4071446 0.176248,0.4592945 0.225545,0.4475007 0.690117,-0.1651047 0.275171,-0.3628525 0.597507,-1.0672961 0.716303,-1.5654298 0.231726,-0.9716737 0.868188,-1.4404889 0.865745,-0.637705 -0.004,1.3081917 -0.64715,2.5403147 -2.187797,4.1911624 -1.571999,1.6844433 -2.270628,2.7565255 -2.29671,3.5244197 -0.0066,0.193241 0.485747,-0.07465 1.094024,-0.5953121 0.608277,-0.5206624 1.20359,-0.9466588 1.322917,-0.9466588 0.119327,0 0.216959,-0.238125 0.216959,-0.5291667 0,-0.5248193 0.668515,-0.752952 0.837847,-0.2859177 0.05182,0.1429306 0.742896,0.1116153 1.675694,-0.075932 1.317214,-0.2648376 1.601896,-0.4188724 1.672048,-0.9047072 0.09708,-0.6723034 0.449107,-0.7710419 0.672591,-0.1886514 0.297517,0.7753162 0.69807,0.3805888 0.69807,-0.6879167 0,-0.8809069 0.169074,-1.2538668 0.899583,-1.984375 0.965107,-0.9651077 1.481667,-1.1403687 1.481667,-0.5027084 0,0.2182813 -0.120812,0.3968751 -0.268473,0.3968751 -0.36504,0 -1.316813,1.601122 -1.318038,2.2172726 -7.94e-4,0.3758946 0.23553,0.2276549 0.966745,-0.6065351 0.639345,-0.7293784 1.05672,-1.015034 1.229958,-0.8417954 0.54228,0.5422792 -1.529966,3.0257208 -2.902794,3.4787944 -0.548895,0.1811522 -0.882398,0.4646057 -0.882398,0.7499757 0,0.2523165 -0.252842,0.7301513 -0.561871,1.0618547 -0.454409,0.487751 -0.783333,0.585485 -1.719792,0.511005 -0.941595,-0.07489 -1.157921,-0.0096 -1.157921,0.349314 0,0.242774 -0.353064,0.738492 -0.784587,1.101595 -0.59835,0.503478 -0.692556,0.695502 -0.396875,0.808965 0.558354,0.214261 0.4769,0.866662 -0.164277,1.31576 -0.691306,0.48421 -0.581921,0.715582 1.938232,4.09975 2.559393,3.436862 2.641102,3.467917 9.144084,3.475317 5.594483,0.0064 6.03409,0.102592 7.290573,1.595838 1.260091,1.497531 1.505183,3.937719 0.642019,6.392084 -0.307279,0.873734 -0.311615,0.875655 -0.496538,0.219972 -0.176146,-0.624567 -0.188021,-0.615304 -0.212923,0.166127 -0.0145,0.45517 0.156281,1.26474 0.379526,1.799039 0.223247,0.534303 0.636132,1.55556 0.917525,2.269459 l 0.511624,1.298001 -2.6128,3.649831 c -1.437039,2.00741 -2.558664,3.705083 -2.492494,3.77261 0.06617,0.06752 1.156465,0.385191 2.42288,0.705926 2.119947,0.536901 2.208141,0.584433 1.111948,0.599292 -0.654844,0.0089 -2.619375,-0.156247 -4.365625,-0.366942 -1.74625,-0.210699 -4.93813,-0.3868 -7.093069,-0.39134 -5.991197,-0.01262 -9.181333,0.594413 -12.552244,2.388489 -1.42636,0.759142 -1.918229,0.919265 -1.918229,0.624469 z m 22.129396,-6.267773 c 1.711812,-2.294863 2.476855,-3.612113 2.476855,-4.264639 0,-0.561726 -3.168852,-4.694663 -3.461071,-4.514061 -0.429302,0.265324 -0.257844,1.811369 0.302885,2.731119 l 0.544004,0.892315 -1.035021,1.224352 c -0.569264,0.673393 -2.003964,2.088869 -3.188224,3.145504 -1.184261,1.056632 -2.184138,2.007867 -2.221949,2.113857 -0.06608,0.185211 2.929443,0.755899 4.296875,0.818615 0.534734,0.02453 0.972627,-0.386818 2.285646,-2.147062 z M 28.77938,39.674179 c 2.405825,-2.230631 3.76437,-3.891995 3.76437,-4.603435 0,-0.970235 -1.521147,-3.73474 -2.233641,-4.059373 -0.428334,-0.195162 -1.717382,-0.241289 -3.806965,-0.136226 l -3.159343,0.158851 -0.279982,0.953315 c -0.331167,1.127598 -1.897098,8.639024 -1.897272,9.100793 -8.7e-5,0.2324 0.792895,0.307941 2.916359,0.277821 l 2.916479,-0.04137 z m -11.2434,0.479375 c 0.208243,-0.581142 -0.332504,-1.259803 -1.00379,-1.259803 -0.864531,0 -1.235843,1.232654 -0.527364,1.750705 0.510667,0.373409 1.313698,0.115948 1.531154,-0.490902 z m 2.537565,-6.55147 c 0.02019,-4.311857 -0.126822,-4.7625 -1.553594,-4.7625 -0.694658,0 -1.059686,-0.22429 -1.822915,-1.120082 -0.52488,-0.616045 -1.571743,-1.757594 -2.326362,-2.536776 -1.135547,-1.17251 -1.477578,-1.384762 -1.984375,-1.231431 -0.336787,0.101895 -0.716176,0.281671 -0.843086,0.399501 -0.127777,0.118636 0.923164,2.938255 2.355098,6.318596 l 2.585843,6.104361 1.613652,0.908751 c 1.596605,0.899149 1.61547,0.90266 1.785716,0.332393 0.09464,-0.316994 0.180146,-2.302761 0.190023,-4.412813 z"
         id="path851" />
</svg>
