<svg width="450" height="510" viewBox="0 0 450 510" fill="none" xmlns="http://www.w3.org/2000/svg">
<g clip-path="url(#clip0_1494_4937)">
<path d="M232.365 116.92C238.751 112.245 238.267 110.451 237.977 104.314C230.621 108.42 227.106 116.489 232.365 116.92Z" fill="#E1B382"/>
<path d="M207.502 163.308C213.888 158.634 194.529 147.715 190.988 148.702C187.758 158.183 202.242 162.877 207.502 163.308Z" fill="#E1B382"/>
<path d="M93.5254 365.792L360.022 366.853" stroke="#2D545E" stroke-width="32.9554"/>
<path d="M197.786 90.0005C196.485 90.5825 201.04 96.3857 205.593 98.8667C210.345 101.456 212.811 101.005 213.5 99.8124C214.189 98.6194 212.287 95.3954 209.063 93.7014C204.273 91.1847 199.338 89.306 197.786 90.0005Z" fill="#E1B382"/>
<path d="M155.827 211.455C155.219 213.519 164.688 215.191 171.044 213.095C177.678 210.907 179.441 207.735 178.934 205.638C178.427 203.541 173.723 201.934 169.281 203.489C162.682 205.8 156.551 208.992 155.827 211.455Z" fill="#E1B382"/>
<path d="M265.371 147.333C266.667 149.325 256.045 154.067 248.002 153.846C239.609 153.616 236.645 150.815 236.645 148.438C236.645 146.061 241.701 142.885 247.347 143.135C255.735 143.506 263.824 144.957 265.371 147.333Z" fill="#E1B382"/>
<path d="M223.152 336.132C219.243 335.21 210.826 323.208 209.525 316.699C209.112 314.635 209.805 307.165 211.466 295.793C212.441 289.119 219.466 280.402 225.617 278.236C230.612 276.477 231.223 277.473 227.427 281.187C224.114 284.429 221.959 287.869 221.125 291.244C220.864 292.303 220.286 294.064 219.841 295.158C218.828 297.644 218.525 300.846 218.407 310.308C218.323 316.975 218.506 318.161 220.101 321.336C221.084 323.292 222.327 326.174 222.862 327.739C223.397 329.304 224.536 331.946 225.394 333.609C227.059 336.84 226.903 337.016 223.152 336.132Z" fill="#C79565"/>
<path d="M179.494 213.474C179.469 211.738 181.265 210.659 182.848 210.834C185.264 211.101 186.687 213.606 186.296 215.878C185.765 218.971 182.519 220.75 179.563 220.134C175.791 219.347 173.651 215.35 174.499 211.71C175.511 207.362 180.093 204.847 184.353 205.778" stroke="#2D545E" stroke-width="3.99999" stroke-linecap="round"/>
<path d="M201.062 108.015C200.239 106.725 201.191 105.117 202.453 104.579C204.49 103.71 206.717 105.116 207.391 107.089C208.336 109.851 206.447 112.732 203.763 113.529C200.281 114.562 196.732 112.177 195.82 108.781C194.693 104.583 197.578 100.36 201.686 99.3366C202.972 99.0161 204.328 99.0033 205.623 99.286" stroke="#2D545E" stroke-width="2.361" stroke-linecap="round"/>
<path d="M89.543 263.039C101.241 264.919 138.615 264.753 150.124 263.369C152.389 263.097 152.293 259.039 152.293 259.039C154.894 270.243 155.748 258.021 157.293 254.539C157.561 255.238 156.83 263.084 157.628 264.003C158.34 264.821 160.592 258.699 160.74 259.524C161.337 262.86 159.814 265.605 163.293 262.539L166.197 263.272L167.467 258.403C168.001 262.902 167.735 263.818 170.987 264.765L172.641 262.425C178.762 267.177 180.215 259.142 185.141 253.925C184.941 254.857 184.035 256.273 183.218 259.032C181.551 264.663 182.906 269.308 188.738 259.864C186.422 263.805 190.189 265.243 192.033 264.148C193.372 263.353 192.841 256.949 193.681 257.433C194.936 258.156 192.945 261.439 195.528 263.984C196.843 265.281 198.422 260.628 197.293 254.039C196.977 252.193 200.108 262.584 199.387 263.541C197.52 266.014 203.147 262.097 203.147 262.097C204.41 268.445 211.034 252.392 209.755 253.4C209.755 253.4 208.808 259.707 209.43 261.905C210.092 264.24 211.248 263.386 212.193 262.396C213.009 261.541 219.042 254.403 219.079 255.657C219.159 258.42 215.344 261.775 216.094 263.354C217.87 267.092 222.491 263.709 223.493 265.138C224.339 266.345 221.32 254.482 222.293 257.039C228.046 268.577 227.881 252.849 230.61 250.453C230.066 258.06 230.89 263.316 234.11 264.453C233.45 261.386 237.488 256.669 241.685 253.513C235.477 261.331 238.11 261.317 238.293 264.039C248.79 267.985 248.229 261.681 248.025 252.599C251.138 264.713 252.736 266.065 256.5 263.301C265.322 266.128 262.658 259.121 263.293 253.539C263.952 259.443 263.75 269.058 267.293 262.539C268.115 263.906 268.579 253.975 268.837 256.135C270.035 266.2 272.742 260.878 273.975 253.541C274.318 259.177 270.386 264.258 277.508 264.019L280.293 253.039L279.927 262.274L284.818 257.015C283.497 259.398 281.577 261.781 281.324 264.164C284.446 265.62 287.295 265.842 287.8 265.146C288.386 264.339 286.303 262.798 286.424 261.554L288.511 254.601C289.631 255.448 287.93 258.673 288.651 260.973C289.849 264.796 293.222 267.716 294.184 265.062C297.54 255.798 296.979 260.589 297.918 265.882L303.114 263.242L306.293 253.851C307.55 258.412 304.173 262.556 309.418 265.164L314.137 256.945C314.01 259.615 312.109 262.285 314.992 264.955L360.254 267.039" stroke="#E1B382" stroke-width="0.999999"/>
<path d="M223.596 284.989C223.596 284.989 232.6 270.939 229.975 261.314C230.972 253.436 211.122 231.354 211.315 225.004C211.126 217.191 226.196 202.195 223.711 194.597C223.254 181.767 203.665 166.308 210.65 156.286C215.983 149.693 228.545 130.183 230.1 124.189C232.119 103.968 197.845 90.211 210.565 82.8862" stroke="#2D545E" stroke-width="5.00001" stroke-linecap="round" stroke-linejoin="round"/>
<path d="M241.092 157.979C241.117 156.242 239.321 155.163 237.738 155.338C235.322 155.605 233.899 158.11 234.29 160.382C234.821 163.476 238.066 165.255 241.023 164.638C244.795 163.851 246.935 159.854 246.087 156.214C245.074 151.867 240.492 149.352 236.233 150.282" stroke="#2D545E" stroke-width="3.99999" stroke-linecap="round"/>
<path d="M226.771 9.22388L8.0332 131.567V396.093L226.771 500.577L441.73 396.093V131.567L226.771 9.22388Z" stroke="#E1B382" stroke-width="16.0671"/>
<path d="M229.521 283.188C229.521 283.188 238.525 269.139 235.9 259.514C236.897 251.636 217.047 229.553 217.24 223.203C217.051 215.39 232.12 200.394 229.635 192.796C229.178 179.966 199.812 165.336 214.928 157.788" stroke="#2D545E" stroke-width="8.00001" stroke-linecap="round" stroke-linejoin="round"/>
<path d="M224.062 336.386C219.949 331.399 218.615 328.04 217.602 323.847C216.704 320.023 216.711 316.941 216.787 310.17C216.897 300.362 217.451 295.905 218.104 293.906C218.571 290.783 221.91 284.716 225.076 281.242C228.174 277.89 228.718 277.576 231.354 277.621C233.144 277.651 234.308 278.031 236.034 278.686C239.998 281.889 244.415 285.44 246.654 291.756C247.297 293.806 247.661 294.194 247.354 305.183C247.02 317.174 246.778 318.773 244.507 324.044C242.491 328.722 241.708 329.98 240.024 331.246C235.394 334.724 233.292 335.822 229.975 336.496C228.571 336.782 226.92 337.252 226.306 337.542C225.51 337.918 224.062 337.201 224.062 336.386Z" fill="#DFB281"/>
<path d="M214.928 159.788L236.233 150.282" stroke="#2D545E" stroke-width="3.99999" stroke-linecap="round" stroke-linejoin="round"/>
<path d="M218.303 157.413C214.586 153.092 221.294 141.534 227.475 129.814" stroke="#2D545E" stroke-width="3.99999" stroke-linecap="round" stroke-linejoin="round"/>
<path d="M221.352 104.564C216.522 102.117 211.447 100.077 205.623 99.2859" stroke="#2D545E" stroke-width="2.361" stroke-linecap="round" stroke-linejoin="round"/>
<path d="M211.725 227.064C205.471 216.655 188.863 205.409 184.352 205.777" stroke="#2D545E" stroke-width="3.99999" stroke-linecap="round" stroke-linejoin="round"/>
<path d="M93.4922 348.843H360.25V383.329H93.4922V348.843Z" stroke="#2D545E" stroke-width="4.05713" stroke-linecap="round" stroke-linejoin="round"/>
</g>
<defs>
<clipPath id="clip0_1494_4937">
<rect width="449.764" height="509.495" fill="white"/>
</clipPath>
</defs>
</svg>
